<?xml version="1.0" encoding="UTF-8"?>
<svg version="1.1" xmlns="http://www.w3.org/2000/svg" width="512" height="512">
<path d="M0 0 C2.05910524 0.84462166 3.81236513 1.81387495 5.67919922 3.02661133 C6.7675708 3.72548462 6.7675708 3.72548462 7.87792969 4.43847656 C8.66184082 4.94838135 9.44575195 5.45828613 10.25341797 5.98364258 C17.55126171 10.66358138 24.90006125 15.24300248 32.31591797 19.73364258 C39.71364406 24.21858715 47.09176853 28.73201442 54.44091797 33.29614258 C62.60082185 38.36165132 70.79448196 43.36914612 79.00341797 48.35473633 C86.33221648 52.80891909 93.64006557 57.29632096 100.94091797 61.79614258 C109.26050175 66.92310538 117.59119635 72.03090059 125.94091797 77.10864258 C126.87790527 77.6788916 127.81489258 78.24914062 128.78027344 78.83666992 C133.24897966 81.55528343 137.72096516 84.26825621 142.19873047 86.97192383 C143.82113477 87.95498277 145.44353105 88.93805495 147.06591797 89.92114258 C148.15839844 90.57723511 148.15839844 90.57723511 149.27294922 91.24658203 C149.94970703 91.65739014 150.62646484 92.06819824 151.32373047 92.49145508 C152.19602295 93.01763428 152.19602295 93.01763428 153.0859375 93.55444336 C153.69808105 93.9642041 154.31022461 94.37396484 154.94091797 94.79614258 C155.79041016 95.29003479 156.63990234 95.783927 157.51513672 96.29278564 C161.09589435 99.98805472 160.6497095 103.11727293 160.60839844 108.09155273 C160.62044941 109.07213528 160.63250038 110.05271782 160.64491653 111.06301498 C160.68079471 114.44562669 160.68122489 117.82741461 160.68310547 121.21020508 C160.7030485 123.70238266 160.72551667 126.19454102 160.75021362 128.68667603 C160.79728185 133.64278707 160.83405172 138.59883402 160.8610884 143.5550946 C160.9256518 155.29594143 161.0626638 167.03553978 161.20751953 178.77563477 C161.25819508 182.92364164 161.30855198 187.07165229 161.35870361 191.21966553 C161.37140911 192.27021881 161.3841146 193.3207721 161.39720511 194.40316033 C161.56729918 208.58827841 161.7114102 222.77367015 161.85698318 236.95905685 C161.87991152 239.19251256 161.90284422 241.42596821 161.92578125 243.65942383 C161.93715771 244.76840759 161.94853418 245.87739134 161.96025538 247.01998067 C162.05420298 256.13514021 162.15397131 265.25023012 162.2547971 274.36531579 C162.35300831 283.270133 162.44694325 292.17498889 162.53761089 301.07988608 C162.59136152 306.35053564 162.64684145 311.6211524 162.70682144 316.89173508 C162.76262332 321.80564759 162.81309322 326.71958663 162.85951614 331.63359642 C162.87734236 333.42543354 162.89704536 335.2172532 162.91883087 337.00904655 C163.02690496 345.98712751 163.06141314 354.86702018 161.94091797 363.79614258 C157.76444781 364.08665276 153.58762081 364.37117116 149.41040039 364.65063477 C147.99558055 364.74607705 146.58086165 364.84303035 145.16625977 364.94165039 C119.76644773 366.70890746 119.76644773 366.70890746 115.94091797 364.79614258 C114.27345737 364.71188164 112.6026661 364.68889115 110.93310547 364.69848633 C109.94697266 364.70170898 108.96083984 364.70493164 107.94482422 364.70825195 C106.91228516 364.71663086 105.87974609 364.72500977 104.81591797 364.73364258 C103.77564453 364.7381543 102.73537109 364.74266602 101.66357422 364.74731445 C99.08929835 364.75912306 96.51513651 364.77559183 93.94091797 364.79614258 C93.94091797 365.12614258 93.94091797 365.45614258 93.94091797 365.79614258 C91.96091797 365.79614258 89.98091797 365.79614258 87.94091797 365.79614258 C87.94091797 365.46614258 87.94091797 365.13614258 87.94091797 364.79614258 C86.76054553 364.79706437 85.58017309 364.79798616 84.36403179 364.79893589 C56.31553397 364.82061517 28.26703656 364.83709381 0.21853216 364.84720791 C-3.23720579 364.84845855 -6.69294372 364.84975287 -10.14868164 364.85107422 C-10.83662824 364.85133653 -11.52457484 364.85159884 -12.2333683 364.8518691 C-23.35806513 364.85621497 -34.48275677 364.86409655 -45.60745052 364.87329537 C-57.03079908 364.88266205 -68.45414344 364.88812977 -79.87749594 364.89023107 C-86.29026688 364.89153339 -92.70302606 364.89458899 -99.11579323 364.90187263 C-105.15592122 364.90867723 -111.19603264 364.9107505 -117.23616409 364.90925026 C-119.44881086 364.90952459 -121.6614582 364.91150331 -123.87410164 364.91534805 C-126.90496418 364.92035471 -129.93576493 364.91911531 -132.96662903 364.91639709 C-133.83339683 364.91930994 -134.70016463 364.92222278 -135.59319812 364.92522389 C-141.79195756 364.91029219 -147.89526585 364.4407034 -154.05908203 363.79614258 C-155.16929441 354.574441 -155.36040568 345.3676817 -155.55908203 336.09301758 C-155.59956961 334.32741727 -155.64031722 332.5618229 -155.68130493 330.79623413 C-155.79036128 326.03942984 -155.89381211 321.28252063 -155.99536896 316.52555084 C-156.05952258 313.52554142 -156.12472123 310.52555615 -156.19012451 307.52557373 C-157.53938839 245.3976997 -157.53938839 245.3976997 -157.765625 216.56542969 C-157.77183428 215.78532752 -157.77804356 215.00522535 -157.78444099 214.20148373 C-157.80960205 211.01249354 -157.83471174 207.82350538 -157.85742569 204.63449669 C-157.93872009 193.62033963 -158.14960394 182.61551799 -158.45989418 171.60541153 C-158.69455528 163.19504989 -158.86913251 154.78465558 -159.0058651 146.37214279 C-159.09202747 141.2622076 -159.20849749 136.15705139 -159.39923096 131.04986572 C-159.57725684 126.26996098 -159.6741692 121.49500625 -159.71156311 116.71199989 C-159.73969347 114.95345005 -159.79723498 113.19507748 -159.8868866 111.4385891 C-160.42188346 100.57289613 -160.42188346 100.57289613 -158.05908203 95.79614258 C-153.92992468 91.328028 -148.58259432 88.56552939 -143.19399166 85.88344479 C-140.00900074 84.26133975 -137.03519169 82.36581968 -134.01220703 80.46020508 C-131.77923299 79.11152864 -129.54484373 77.76519273 -127.30908203 76.42114258 C-124.87195935 74.95001436 -122.43614232 73.47673203 -120.00048828 72.00317383 C-119.40460403 71.64291611 -118.80871979 71.28265839 -118.19477844 70.91148376 C-112.85577814 67.68054743 -107.54663538 64.40295348 -102.24658203 61.10864258 C-90.26254547 53.66457433 -78.20204262 46.3474445 -66.14306641 39.02563477 C-55.92484568 32.82000172 -45.71827058 26.59804269 -35.55908203 20.29614258 C-33.85205363 19.24145048 -32.14502235 18.18676302 -30.43798828 17.13208008 C-26.53714353 14.71980176 -22.65372092 12.28117576 -18.77392578 9.83520508 C-16.68170934 8.53014642 -14.58926635 7.22545086 -12.49658203 5.92114258 C-11.02318359 4.98238281 -11.02318359 4.98238281 -9.52001953 4.0246582 C-8.60349609 3.45682617 -7.68697266 2.88899414 -6.74267578 2.30395508 C-5.52922485 1.54042725 -5.52922485 1.54042725 -4.29125977 0.76147461 C-2.05908203 -0.20385742 -2.05908203 -0.20385742 0 0 Z " fill="#120C09" transform="translate(253.05908203125,86.203857421875)"/>
<path d="M0 0 C2.05910524 0.84462166 3.81236513 1.81387495 5.67919922 3.02661133 C6.7675708 3.72548462 6.7675708 3.72548462 7.87792969 4.43847656 C8.66184082 4.94838135 9.44575195 5.45828613 10.25341797 5.98364258 C17.55126171 10.66358138 24.90006125 15.24300248 32.31591797 19.73364258 C39.71364406 24.21858715 47.09176853 28.73201442 54.44091797 33.29614258 C62.60082185 38.36165132 70.79448196 43.36914612 79.00341797 48.35473633 C86.33221648 52.80891909 93.64006557 57.29632096 100.94091797 61.79614258 C109.26050175 66.92310538 117.59119635 72.03090059 125.94091797 77.10864258 C126.87790527 77.6788916 127.81489258 78.24914062 128.78027344 78.83666992 C133.24897966 81.55528343 137.72096516 84.26825621 142.19873047 86.97192383 C143.82113477 87.95498277 145.44353105 88.93805495 147.06591797 89.92114258 C148.15839844 90.57723511 148.15839844 90.57723511 149.27294922 91.24658203 C149.94970703 91.65739014 150.62646484 92.06819824 151.32373047 92.49145508 C152.19602295 93.01763428 152.19602295 93.01763428 153.0859375 93.55444336 C153.69808105 93.9642041 154.31022461 94.37396484 154.94091797 94.79614258 C155.79041016 95.29003479 156.63990234 95.783927 157.51513672 96.29278564 C161.09589435 99.98805472 160.6497095 103.11727293 160.60839844 108.09155273 C160.62044941 109.07213528 160.63250038 110.05271782 160.64491653 111.06301498 C160.68079471 114.44562669 160.68122489 117.82741461 160.68310547 121.21020508 C160.7030485 123.70238266 160.72551667 126.19454102 160.75021362 128.68667603 C160.79728185 133.64278707 160.83405172 138.59883402 160.8610884 143.5550946 C160.9256518 155.29594143 161.0626638 167.03553978 161.20751953 178.77563477 C161.25819508 182.92364164 161.30855198 187.07165229 161.35870361 191.21966553 C161.37140911 192.27021881 161.3841146 193.3207721 161.39720511 194.40316033 C161.56729918 208.58827841 161.7114102 222.77367015 161.85698318 236.95905685 C161.87991152 239.19251256 161.90284422 241.42596821 161.92578125 243.65942383 C161.93715771 244.76840759 161.94853418 245.87739134 161.96025538 247.01998067 C162.05420298 256.13514021 162.15397131 265.25023012 162.2547971 274.36531579 C162.35300831 283.270133 162.44694325 292.17498889 162.53761089 301.07988608 C162.59136152 306.35053564 162.64684145 311.6211524 162.70682144 316.89173508 C162.76262332 321.80564759 162.81309322 326.71958663 162.85951614 331.63359642 C162.87734236 333.42543354 162.89704536 335.2172532 162.91883087 337.00904655 C163.02690496 345.98712751 163.06141314 354.86702018 161.94091797 363.79614258 C157.76444781 364.08665276 153.58762081 364.37117116 149.41040039 364.65063477 C147.99558055 364.74607705 146.58086165 364.84303035 145.16625977 364.94165039 C119.76644773 366.70890746 119.76644773 366.70890746 115.94091797 364.79614258 C114.27345737 364.71188164 112.6026661 364.68889115 110.93310547 364.69848633 C109.94697266 364.70170898 108.96083984 364.70493164 107.94482422 364.70825195 C106.91228516 364.71663086 105.87974609 364.72500977 104.81591797 364.73364258 C103.77564453 364.7381543 102.73537109 364.74266602 101.66357422 364.74731445 C99.08929835 364.75912306 96.51513651 364.77559183 93.94091797 364.79614258 C93.94091797 365.12614258 93.94091797 365.45614258 93.94091797 365.79614258 C91.96091797 365.79614258 89.98091797 365.79614258 87.94091797 365.79614258 C87.94091797 365.46614258 87.94091797 365.13614258 87.94091797 364.79614258 C86.76054553 364.79706437 85.58017309 364.79798616 84.36403179 364.79893589 C56.31553397 364.82061517 28.26703656 364.83709381 0.21853216 364.84720791 C-3.23720579 364.84845855 -6.69294372 364.84975287 -10.14868164 364.85107422 C-10.83662824 364.85133653 -11.52457484 364.85159884 -12.2333683 364.8518691 C-23.35806513 364.85621497 -34.48275677 364.86409655 -45.60745052 364.87329537 C-57.03079908 364.88266205 -68.45414344 364.88812977 -79.87749594 364.89023107 C-86.29026688 364.89153339 -92.70302606 364.89458899 -99.11579323 364.90187263 C-105.15592122 364.90867723 -111.19603264 364.9107505 -117.23616409 364.90925026 C-119.44881086 364.90952459 -121.6614582 364.91150331 -123.87410164 364.91534805 C-126.90496418 364.92035471 -129.93576493 364.91911531 -132.96662903 364.91639709 C-133.83339683 364.91930994 -134.70016463 364.92222278 -135.59319812 364.92522389 C-141.79195756 364.91029219 -147.89526585 364.4407034 -154.05908203 363.79614258 C-155.16929441 354.574441 -155.36040568 345.3676817 -155.55908203 336.09301758 C-155.59956961 334.32741727 -155.64031722 332.5618229 -155.68130493 330.79623413 C-155.79036128 326.03942984 -155.89381211 321.28252063 -155.99536896 316.52555084 C-156.05952258 313.52554142 -156.12472123 310.52555615 -156.19012451 307.52557373 C-157.53938839 245.3976997 -157.53938839 245.3976997 -157.765625 216.56542969 C-157.77183428 215.78532752 -157.77804356 215.00522535 -157.78444099 214.20148373 C-157.80960205 211.01249354 -157.83471174 207.82350538 -157.85742569 204.63449669 C-157.93872009 193.62033963 -158.14960394 182.61551799 -158.45989418 171.60541153 C-158.69455528 163.19504989 -158.86913251 154.78465558 -159.0058651 146.37214279 C-159.09202747 141.2622076 -159.20849749 136.15705139 -159.39923096 131.04986572 C-159.57725684 126.26996098 -159.6741692 121.49500625 -159.71156311 116.71199989 C-159.73969347 114.95345005 -159.79723498 113.19507748 -159.8868866 111.4385891 C-160.42188346 100.57289613 -160.42188346 100.57289613 -158.05908203 95.79614258 C-153.92992468 91.328028 -148.58259432 88.56552939 -143.19399166 85.88344479 C-140.00900074 84.26133975 -137.03519169 82.36581968 -134.01220703 80.46020508 C-131.77923299 79.11152864 -129.54484373 77.76519273 -127.30908203 76.42114258 C-124.87195935 74.95001436 -122.43614232 73.47673203 -120.00048828 72.00317383 C-119.40460403 71.64291611 -118.80871979 71.28265839 -118.19477844 70.91148376 C-112.85577814 67.68054743 -107.54663538 64.40295348 -102.24658203 61.10864258 C-90.26254547 53.66457433 -78.20204262 46.3474445 -66.14306641 39.02563477 C-55.92484568 32.82000172 -45.71827058 26.59804269 -35.55908203 20.29614258 C-33.85205363 19.24145048 -32.14502235 18.18676302 -30.43798828 17.13208008 C-26.53714353 14.71980176 -22.65372092 12.28117576 -18.77392578 9.83520508 C-16.68170934 8.53014642 -14.58926635 7.22545086 -12.49658203 5.92114258 C-11.02318359 4.98238281 -11.02318359 4.98238281 -9.52001953 4.0246582 C-8.60349609 3.45682617 -7.68697266 2.88899414 -6.74267578 2.30395508 C-5.52922485 1.54042725 -5.52922485 1.54042725 -4.29125977 0.76147461 C-2.05908203 -0.20385742 -2.05908203 -0.20385742 0 0 Z M-6.90283203 13.99926758 C-7.64388184 14.47871826 -8.38493164 14.95816895 -9.1484375 15.45214844 C-9.9439502 15.9781665 -10.73946289 16.50418457 -11.55908203 17.04614258 C-13.27913398 18.15883528 -15.00053067 19.26945148 -16.72314453 20.37817383 C-17.60776367 20.94874512 -18.49238281 21.51931641 -19.40380859 22.10717773 C-23.53127356 24.73257334 -27.72883293 27.23542114 -31.93408203 29.73364258 C-38.68217918 33.7548855 -45.38863892 37.83485091 -52.05908203 41.98364258 C-60.46134734 47.20902326 -68.90805228 52.35840221 -77.37158203 57.48364258 C-85.22009679 62.2369922 -93.05374893 67.00857431 -100.81494141 71.90356445 C-108.79774011 76.91915604 -116.88147333 81.77249372 -124.95166016 86.64575195 C-136.61739574 92.92295052 -136.61739574 92.92295052 -147.05908203 100.79614258 C-147.15752032 102.50399105 -147.18540252 104.21593757 -147.18606567 105.92662048 C-147.1888855 107.04001297 -147.19170532 108.15340546 -147.1946106 109.30053711 C-147.19258636 110.53392822 -147.19056213 111.76731934 -147.18847656 113.03808594 C-147.19022888 114.32961075 -147.1919812 115.62113556 -147.19378662 116.95179749 C-147.19837019 120.5159004 -147.19656374 124.07997455 -147.19340754 127.64407802 C-147.19087108 131.40249505 -147.19322668 135.16090965 -147.1947937 138.91932678 C-147.19661903 145.26751136 -147.19420732 151.61568437 -147.18945312 157.96386719 C-147.18408702 165.21080831 -147.18571472 172.45772096 -147.19127953 179.70466131 C-147.19589426 185.97352869 -147.1964191 192.24238773 -147.19384086 198.51125628 C-147.19231299 202.23245838 -147.19198283 205.9536474 -147.19537735 209.67484856 C-147.20795283 225.73178841 -147.0553951 241.77425907 -146.61328125 257.82568359 C-146.59386923 258.5787088 -146.57445721 259.33173401 -146.55445695 260.10757816 C-146.49871986 262.217842 -146.43608545 264.32777133 -146.37081909 266.4377594 C-146.33500669 267.64389169 -146.2991943 268.85002398 -146.26229668 270.09270573 C-146.36091631 272.71167981 -146.36091631 272.71167981 -145.05908203 273.79614258 C-143.48480996 273.89313997 -141.90616718 273.91985902 -140.32890987 273.91919041 C-138.78452076 273.92217698 -138.78452076 273.92217698 -137.20893186 273.92522389 C-136.06401496 273.92231105 -134.91909805 273.9193982 -133.73948669 273.91639709 C-132.53398432 273.91725152 -131.32848195 273.91810594 -130.08644921 273.91898626 C-126.72522281 273.92035447 -123.36405392 273.9172069 -120.00283444 273.9122082 C-116.38386795 273.90790709 -112.76490338 273.90934988 -109.14593506 273.91011047 C-102.87080396 273.91063593 -96.59568322 273.90748692 -90.32055473 273.90187263 C-81.24766862 273.89376049 -72.17478755 273.89114271 -63.1018982 273.88988464 C-48.3832776 273.88769367 -33.66466252 273.88103237 -18.94604492 273.87158203 C-4.64461291 273.86240908 9.6568176 273.85532767 23.95825195 273.85107422 C24.83915293 273.8508115 25.7200539 273.85054877 26.62764884 273.85027809 C31.04667921 273.84897309 35.4657096 273.84770937 39.88474 273.84646618 C76.57013656 273.83609217 113.25552683 273.81847263 149.94091797 273.79614258 C149.94077918 272.59360368 149.94064039 271.39106478 149.9404974 270.1520853 C149.9392107 258.62051172 149.93828429 247.08893816 149.93767971 235.55736452 C149.9373584 229.63393085 149.9369253 223.71049724 149.936203 217.7870636 C149.92578172 129.94145453 149.92578172 129.94145453 150.06567478 111.92751408 C150.05239269 106.34095398 150.05239269 106.34095398 147.04333496 101.86123657 C144.74065973 100.30063605 142.43446633 99.02397181 139.94091797 97.79614258 C138.5707251 96.93279297 138.5707251 96.93279297 137.17285156 96.05200195 C136.40279785 95.58600586 135.63274414 95.12000977 134.83935547 94.63989258 C133.94869385 94.09945312 133.05803223 93.55901367 132.14038086 93.00219727 C131.20830811 92.43919922 130.27623535 91.87620117 129.31591797 91.29614258 C127.28075047 90.06178613 125.24559455 88.82741057 123.21044922 87.59301758 C122.17484863 86.96588867 121.13924805 86.33875977 120.07226562 85.69262695 C115.04633645 82.64869916 110.02401177 79.59886123 105.00341797 76.54614258 C104.03412354 75.95679932 103.0648291 75.36745605 102.06616211 74.76025391 C96.77257957 71.53656021 91.49891001 68.28492745 86.25341797 64.98364258 C78.97064916 60.40045407 71.61324385 55.94153986 64.25341797 51.48364258 C55.91924123 46.43503222 47.59568693 41.3712457 39.31591797 36.23364258 C38.50380859 35.73026367 37.69169922 35.22688477 36.85498047 34.70825195 C33.08466515 32.3701859 29.31592906 30.02962681 25.54980469 27.68481445 C22.54540989 25.81436924 19.53816954 23.94856654 16.52935791 22.0852356 C15.35186066 21.35484899 14.17537402 20.6228304 12.99993896 19.88912964 C11.36431483 18.86837696 9.72496396 17.8536032 8.08544922 16.83911133 C6.66776245 15.95775513 6.66776245 15.95775513 5.22143555 15.05859375 C3.08372716 13.63470182 3.08372716 13.63470182 0.94091797 13.79614258 C0.94091797 13.13614258 0.94091797 12.47614258 0.94091797 11.79614258 C-3.08926897 11.79614258 -3.76690359 11.93517139 -6.90283203 13.99926758 Z " fill="#F26E14" transform="translate(253.05908203125,86.203857421875)"/>
<path d="M0 0 C0 0.99 0 1.98 0 3 C0.89203125 2.98839844 1.7840625 2.97679687 2.703125 2.96484375 C3.87359375 2.95582031 5.0440625 2.94679687 6.25 2.9375 C7.41015625 2.92589844 8.5703125 2.91429687 9.765625 2.90234375 C12.40977128 2.98217908 14.49826091 3.21356222 17 4 C17 4.66 17 5.32 17 6 C18.7634375 6.061875 18.7634375 6.061875 20.5625 6.125 C44.72765781 8.86067824 65.62200827 28.27091827 80.0390625 46.35546875 C85.60916279 53.86733707 89.21233212 62.4932705 93 71 C93.52078125 72.07145264 94.0415625 73.14290527 94.578125 74.24682617 C96.17252951 77.99205598 96.30793135 81.17374493 96.1796875 85.26171875 C96.16036163 85.93362747 96.14103577 86.60553619 96.12112427 87.29780579 C96.07650943 88.71239538 96.0239762 90.12675554 95.96386719 91.54077148 C95.87595409 93.66445248 95.81886209 95.78730872 95.765625 97.91210938 C95.50113772 106.25912068 94.40162116 113.97306027 92 122 C91.7922998 122.772229 91.58459961 123.54445801 91.37060547 124.34008789 C85.29460187 146.72867615 70.14738109 168.00751126 50 180 C49.34 180 48.68 180 48 180 C47.67 180.99 47.34 181.98 47 183 C44.29342936 184.29903335 41.68086888 185.39905133 38.875 186.4375 C38.06909424 186.74316895 37.26318848 187.04883789 36.43286133 187.36376953 C29.07567865 190.09315196 21.64377253 192.2294624 14 194 C13.2471875 194.19207031 12.494375 194.38414062 11.71875 194.58203125 C-2.71312681 196.80072495 -17.06485949 194.85366849 -31 191 C-31 190.34 -31 189.68 -31 189 C-31.87527344 188.89558594 -32.75054687 188.79117188 -33.65234375 188.68359375 C-37.14989078 187.9693922 -39.49088602 186.84954142 -42.5625 185.0625 C-46.36683824 182.85476506 -46.36683824 182.85476506 -50.41015625 181.1640625 C-54.11368456 179.49942987 -56.84865842 176.9854627 -59.875 174.3125 C-60.80807983 173.49676514 -60.80807983 173.49676514 -61.76000977 172.66455078 C-63.51600334 171.11979243 -65.26069836 169.56350699 -67 168 C-67.73347656 167.34128906 -68.46695313 166.68257812 -69.22265625 166.00390625 C-75.13900183 160.3840518 -80.19326959 153.69454874 -83 146 C-83.66 146 -84.32 146 -85 146 C-87.78817939 139.04375622 -90.45200421 132.04783806 -93 125 C-93.38188477 123.95368408 -93.38188477 123.95368408 -93.77148438 122.88623047 C-98.49460878 109.3870303 -97.38610493 95.08986007 -97 81 C-96.34 81 -95.68 81 -95 81 C-94.89429688 80.34902344 -94.78859375 79.69804687 -94.6796875 79.02734375 C-93.79500662 75.08695477 -92.47881978 71.36310138 -91.125 67.5625 C-90.86847656 66.82451172 -90.61195313 66.08652344 -90.34765625 65.32617188 C-89.19309499 62.06265071 -87.9979606 58.99597701 -86.4296875 55.90234375 C-84.86709852 52.98720549 -84.86709852 52.98720549 -84.12890625 49.5234375 C-82.81964195 45.43708318 -80.75373777 42.7566564 -77.9375 39.625 C-77.44290283 39.06192139 -76.94830566 38.49884277 -76.4387207 37.91870117 C-74.97360307 36.2654033 -73.49010586 34.63076938 -72 33 C-71.26265625 32.17886719 -70.5253125 31.35773438 -69.765625 30.51171875 C-52.27692179 12.00393697 -25.63912771 -0.84062714 0 0 Z " fill="#E5524B" transform="translate(261,147)"/>
<path d="M0 0 C0.66 0 1.32 0 2 0 C2 4.29 2 8.58 2 13 C3.010625 12.938125 4.02125 12.87625 5.0625 12.8125 C25.88459593 12.88607631 45.42194429 22.67241124 60.02734375 36.97265625 C72.20838178 49.25369648 82.60704471 66.62438582 83.09375 84.4296875 C83.0628125 85.27789062 83.031875 86.12609375 83 87 C82.01 87.33 81.02 87.66 80 88 C81.32 88.33 82.64 88.66 84 89 C84 90.65 84 92.3 84 94 C88.29 94 92.58 94 97 94 C97 94.66 97 95.32 97 96 C92.71 96 88.42 96 84 96 C83.85304688 97.61455078 83.85304688 97.61455078 83.703125 99.26171875 C81.86010806 117.91073296 76.31960836 133.54567871 64 148 C63.56816406 148.53463867 63.13632812 149.06927734 62.69140625 149.62011719 C50.45212037 164.49020196 31.90993049 173.46930298 13 176 C9.94503637 176.18288218 7.06163112 176.15836023 4 176 C4 180.62 4 185.24 4 190 C3.34 190 2.68 190 2 190 C2 185.38 2 180.76 2 176 C0.35 176.0825 -1.3 176.165 -3 176.25 C-26.50281074 176.13965817 -44.71264127 163.46186237 -60.75 147.515625 C-63 145 -63 145 -65 141 C-61.7 140.67 -58.4 140.34 -55 140 C-58.82330215 140.61227259 -62.19754016 140.82456657 -66 140 C-69.02786358 137.16606983 -70.42023201 133.7895048 -72 130 C-72.46148437 128.93007813 -72.92296875 127.86015625 -73.3984375 126.7578125 C-77.29953608 117.17418882 -79.13248234 108.26562561 -80 98 C-83.63 97.67 -87.26 97.34 -91 97 C-91 96.67 -91 96.34 -91 96 C-87.37 96 -83.74 96 -80 96 C-79.97873047 94.5459375 -79.97873047 94.5459375 -79.95703125 93.0625 C-79.52250127 78.38093395 -75.77811127 64.61376989 -68 52 C-67.01 51.505 -67.01 51.505 -66 51 C-67.01510981 54.38369938 -68.20344677 57.46288752 -69.875 60.5625 C-75.56545878 71.83725228 -76.94299511 83.60800844 -78 96 C-73.05 96 -68.1 96 -63 96 C-62.67 94.68 -62.34 93.36 -62 92 C-62 93.32 -62 94.64 -62 96 C-52.76 96 -43.52 96 -34 96 C-34 96.66 -34 97.32 -34 98 C-29.38 98 -24.76 98 -20 98 C-20 98.99 -20 99.98 -20 101 C-19.01 101 -18.02 101 -17 101 C-17 100.01 -17 99.02 -17 98 C-15.68 98 -14.36 98 -13 98 C-13 98.99 -13 99.98 -13 101 C-12.34 101 -11.68 101 -11 101 C-11 100.01 -11 99.02 -11 98 C-9.35 98 -7.7 98 -6 98 C-6 98.99 -6 99.98 -6 101 C-5.34 101 -4.68 101 -4 101 C-4 100.01 -4 99.02 -4 98 C-2.68 98 -1.36 98 0 98 C0 99.65 0 101.3 0 103 C-1.32 103 -2.64 103 -4 103 C-4 103.99 -4 104.98 -4 106 C-2.68 106 -1.36 106 0 106 C0 107.32 0 108.64 0 110 C-0.99 110 -1.98 110 -3 110 C-3 110.66 -3 111.32 -3 112 C-2.01 112 -1.02 112 0 112 C0.33 124.21 0.66 136.42 1 149 C1.66 149 2.32 149 3 149 C3 146.69 3 144.38 3 142 C4.12535156 141.85304688 4.12535156 141.85304688 5.2734375 141.703125 C19.56554891 139.61510872 31.40620149 134.4164591 40.4375 122.6875 C46.25203515 114.06676793 48.41633548 105.16184736 50 95 C55.28 95 60.56 95 66 95 C62.85014419 74.77461008 56.99314878 57.72742099 40.23828125 44.8828125 C24.09808564 34.15338146 7.92370919 31.02420807 -11.1796875 33.39453125 C-13.93588553 34.04378762 -16.38661338 34.90585228 -19 36 C-19.59731934 36.2475 -20.19463867 36.495 -20.81005859 36.75 C-31.23562118 41.18619112 -39.12990121 46.89141337 -47 55 C-47 51.461918 -46.5898825 51.15800869 -44.1875 48.75 C-39.62399159 44.38048689 -34.44126244 41.16683053 -29 38 C-28.30777344 37.59652344 -27.61554688 37.19304687 -26.90234375 36.77734375 C-18.49029738 32.23449325 -9.43857667 30.68395483 0 30 C0 25.05 0 20.1 0 15 C-8.23183806 15.98177885 -15.9110829 16.98066438 -23.828125 19.51171875 C-26 20 -26 20 -29 19 C-26.43848317 18.18428782 -23.87587372 17.37233869 -21.3125 16.5625 C-20.59126953 16.33240234 -19.87003906 16.10230469 -19.12695312 15.86523438 C-13.96913088 14.24016709 -9.14279995 12.84503729 -3.6875 12.9375 C-1.8621875 12.9684375 -1.8621875 12.9684375 0 13 C0 8.71 0 4.42 0 0 Z " fill="#E54E46" transform="translate(258,151)"/>
<path d="M0 0 C0 0.99 0 1.98 0 3 C0.89203125 2.98839844 1.7840625 2.97679687 2.703125 2.96484375 C3.87359375 2.95582031 5.0440625 2.94679687 6.25 2.9375 C7.41015625 2.92589844 8.5703125 2.91429687 9.765625 2.90234375 C12.40977128 2.98217908 14.49826091 3.21356222 17 4 C17 4.66 17 5.32 17 6 C18.7634375 6.061875 18.7634375 6.061875 20.5625 6.125 C44.72765781 8.86067824 65.62200827 28.27091827 80.0390625 46.35546875 C85.60916279 53.86733707 89.21233212 62.4932705 93 71 C93.52078125 72.07145264 94.0415625 73.14290527 94.578125 74.24682617 C96.17252951 77.99205598 96.30793135 81.17374493 96.1796875 85.26171875 C96.16036163 85.93362747 96.14103577 86.60553619 96.12112427 87.29780579 C96.07650943 88.71239538 96.0239762 90.12675554 95.96386719 91.54077148 C95.87595409 93.66445248 95.81886209 95.78730872 95.765625 97.91210938 C95.50113772 106.25912068 94.40162116 113.97306027 92 122 C91.7922998 122.772229 91.58459961 123.54445801 91.37060547 124.34008789 C85.29460187 146.72867615 70.14738109 168.00751126 50 180 C49.34 180 48.68 180 48 180 C47.67 180.99 47.34 181.98 47 183 C44.29342936 184.29903335 41.68086888 185.39905133 38.875 186.4375 C38.06909424 186.74316895 37.26318848 187.04883789 36.43286133 187.36376953 C29.07567865 190.09315196 21.64377253 192.2294624 14 194 C13.2471875 194.19207031 12.494375 194.38414062 11.71875 194.58203125 C-2.71312681 196.80072495 -17.06485949 194.85366849 -31 191 C-31 190.34 -31 189.68 -31 189 C-31.87527344 188.89558594 -32.75054687 188.79117188 -33.65234375 188.68359375 C-37.14989078 187.9693922 -39.49088602 186.84954142 -42.5625 185.0625 C-46.36683824 182.85476506 -46.36683824 182.85476506 -50.41015625 181.1640625 C-54.11368456 179.49942987 -56.84865842 176.9854627 -59.875 174.3125 C-60.80807983 173.49676514 -60.80807983 173.49676514 -61.76000977 172.66455078 C-63.51600334 171.11979243 -65.26069836 169.56350699 -67 168 C-67.73347656 167.34128906 -68.46695313 166.68257812 -69.22265625 166.00390625 C-75.13900183 160.3840518 -80.19326959 153.69454874 -83 146 C-83.66 146 -84.32 146 -85 146 C-87.78817939 139.04375622 -90.45200421 132.04783806 -93 125 C-93.38188477 123.95368408 -93.38188477 123.95368408 -93.77148438 122.88623047 C-98.49460878 109.3870303 -97.38610493 95.08986007 -97 81 C-96.34 81 -95.68 81 -95 81 C-94.89429688 80.34902344 -94.78859375 79.69804687 -94.6796875 79.02734375 C-93.79500662 75.08695477 -92.47881978 71.36310138 -91.125 67.5625 C-90.86847656 66.82451172 -90.61195313 66.08652344 -90.34765625 65.32617188 C-89.19309499 62.06265071 -87.9979606 58.99597701 -86.4296875 55.90234375 C-84.86709852 52.98720549 -84.86709852 52.98720549 -84.12890625 49.5234375 C-82.81964195 45.43708318 -80.75373777 42.7566564 -77.9375 39.625 C-77.44290283 39.06192139 -76.94830566 38.49884277 -76.4387207 37.91870117 C-74.97360307 36.2654033 -73.49010586 34.63076938 -72 33 C-71.26265625 32.17886719 -70.5253125 31.35773438 -69.765625 30.51171875 C-52.27692179 12.00393697 -25.63912771 -0.84062714 0 0 Z M-3 4 C-3 8.29 -3 12.58 -3 17 C-4.134375 16.95875 -5.26875 16.9175 -6.4375 16.875 C-25.02024079 16.9076586 -43.66192814 26.7208629 -57 39 C-57.61875 39.52722656 -58.2375 40.05445313 -58.875 40.59765625 C-69.22235357 49.96296932 -75.58849224 62.99766135 -80 76 C-80.25394531 76.7115625 -80.50789063 77.423125 -80.76953125 78.15625 C-82.88488195 85.09581775 -82.66829876 92.8073204 -83 100 C-86.63 100 -90.26 100 -94 100 C-94 100.33 -94 100.66 -94 101 C-90.37 101.33 -86.74 101.66 -83 102 C-82.85304687 103.39798828 -82.85304687 103.39798828 -82.703125 104.82421875 C-81.09363152 118.54653816 -77.85110268 131.41461415 -70 143 C-67.11788698 143.96070434 -65.30149956 144.10581883 -62.3125 144.0625 C-60.889375 144.041875 -59.46625 144.02125 -58 144 C-61.3 144.33 -64.6 144.66 -68 145 C-57.01063243 162.4127303 -39.2409189 173.71882651 -19.5 178.8125 C-13.23993759 180.15988949 -7.38720403 180.2308628 -1 180 C-1 184.62 -1 189.24 -1 194 C-0.34 194 0.32 194 1 194 C1 189.38 1 184.76 1 180 C2.19625 180.061875 3.3925 180.12375 4.625 180.1875 C22.59665816 180.07535237 38.46359102 172.20917147 52 161 C52.88558594 160.34064453 52.88558594 160.34064453 53.7890625 159.66796875 C70.40208688 147.09715083 77.84489324 125.60847039 80.78808594 105.94775391 C81.07210728 103.66378574 81.07210728 103.66378574 81 100 C85.29 100 89.58 100 94 100 C94 99.34 94 98.68 94 98 C89.71 98 85.42 98 81 98 C81 96.35 81 94.7 81 93 C79.68 92.67 78.36 92.34 77 92 C77.99 91.67 78.98 91.34 80 91 C79.51636899 69.85213505 68.86142982 52.26677274 54 38 C39.43244482 24.15848052 18.97282995 16.64959947 -1 17 C-1 12.71 -1 8.42 -1 4 C-1.66 4 -2.32 4 -3 4 Z " fill="#E4473F" transform="translate(261,147)"/>
<path d="M0 0 C2.05910524 0.84462166 3.81236513 1.81387495 5.67919922 3.02661133 C6.7675708 3.72548462 6.7675708 3.72548462 7.87792969 4.43847656 C8.66184082 4.94838135 9.44575195 5.45828613 10.25341797 5.98364258 C17.55126171 10.66358138 24.90006125 15.24300248 32.31591797 19.73364258 C39.71364406 24.21858715 47.09176853 28.73201442 54.44091797 33.29614258 C62.60082185 38.36165132 70.79448196 43.36914612 79.00341797 48.35473633 C86.33221648 52.80891909 93.64006557 57.29632096 100.94091797 61.79614258 C109.26050175 66.92310538 117.59119635 72.03090059 125.94091797 77.10864258 C126.87790527 77.6788916 127.81489258 78.24914062 128.78027344 78.83666992 C133.24897966 81.55528343 137.72096516 84.26825621 142.19873047 86.97192383 C143.82113477 87.95498277 145.44353105 88.93805495 147.06591797 89.92114258 C148.15839844 90.57723511 148.15839844 90.57723511 149.27294922 91.24658203 C149.94970703 91.65739014 150.62646484 92.06819824 151.32373047 92.49145508 C152.19602295 93.01763428 152.19602295 93.01763428 153.0859375 93.55444336 C153.69808105 93.9642041 154.31022461 94.37396484 154.94091797 94.79614258 C155.79041016 95.29003479 156.63990234 95.783927 157.51513672 96.29278564 C161.09589435 99.98805472 160.6497095 103.11727293 160.60839844 108.09155273 C160.62044941 109.07213528 160.63250038 110.05271782 160.64491653 111.06301498 C160.68079471 114.44562669 160.68122489 117.82741461 160.68310547 121.21020508 C160.7030485 123.70238266 160.72551667 126.19454102 160.75021362 128.68667603 C160.79728185 133.64278707 160.83405172 138.59883402 160.8610884 143.5550946 C160.9256518 155.29594143 161.0626638 167.03553978 161.20751953 178.77563477 C161.25819508 182.92364164 161.30855198 187.07165229 161.35870361 191.21966553 C161.37140911 192.27021881 161.3841146 193.3207721 161.39720511 194.40316033 C161.56729918 208.58827841 161.7114102 222.77367015 161.85698318 236.95905685 C161.87991152 239.19251256 161.90284422 241.42596821 161.92578125 243.65942383 C161.93715771 244.76840759 161.94853418 245.87739134 161.96025538 247.01998067 C162.05420298 256.13514021 162.15397131 265.25023012 162.2547971 274.36531579 C162.35300831 283.270133 162.44694325 292.17498889 162.53761089 301.07988608 C162.59136152 306.35053564 162.64684145 311.6211524 162.70682144 316.89173508 C162.76262332 321.80564759 162.81309322 326.71958663 162.85951614 331.63359642 C162.87734236 333.42543354 162.89704536 335.2172532 162.91883087 337.00904655 C163.02690496 345.98712751 163.06141314 354.86702018 161.94091797 363.79614258 C157.76444781 364.08665276 153.58762081 364.37117116 149.41040039 364.65063477 C147.99558055 364.74607705 146.58086165 364.84303035 145.16625977 364.94165039 C119.76644773 366.70890746 119.76644773 366.70890746 115.94091797 364.79614258 C114.27345737 364.71188164 112.6026661 364.68889115 110.93310547 364.69848633 C109.94697266 364.70170898 108.96083984 364.70493164 107.94482422 364.70825195 C106.91228516 364.71663086 105.87974609 364.72500977 104.81591797 364.73364258 C103.77564453 364.7381543 102.73537109 364.74266602 101.66357422 364.74731445 C99.08929835 364.75912306 96.51513651 364.77559183 93.94091797 364.79614258 C93.94091797 365.12614258 93.94091797 365.45614258 93.94091797 365.79614258 C91.96091797 365.79614258 89.98091797 365.79614258 87.94091797 365.79614258 C87.94091797 365.46614258 87.94091797 365.13614258 87.94091797 364.79614258 C86.76054553 364.79706437 85.58017309 364.79798616 84.36403179 364.79893589 C56.31553397 364.82061517 28.26703656 364.83709381 0.21853216 364.84720791 C-3.23720579 364.84845855 -6.69294372 364.84975287 -10.14868164 364.85107422 C-10.83662824 364.85133653 -11.52457484 364.85159884 -12.2333683 364.8518691 C-23.35806513 364.85621497 -34.48275677 364.86409655 -45.60745052 364.87329537 C-57.03079908 364.88266205 -68.45414344 364.88812977 -79.87749594 364.89023107 C-86.29026688 364.89153339 -92.70302606 364.89458899 -99.11579323 364.90187263 C-105.15592122 364.90867723 -111.19603264 364.9107505 -117.23616409 364.90925026 C-119.44881086 364.90952459 -121.6614582 364.91150331 -123.87410164 364.91534805 C-126.90496418 364.92035471 -129.93576493 364.91911531 -132.96662903 364.91639709 C-133.83339683 364.91930994 -134.70016463 364.92222278 -135.59319812 364.92522389 C-141.79195756 364.91029219 -147.89526585 364.4407034 -154.05908203 363.79614258 C-155.16929441 354.574441 -155.36040568 345.3676817 -155.55908203 336.09301758 C-155.59956961 334.32741727 -155.64031722 332.5618229 -155.68130493 330.79623413 C-155.79036128 326.03942984 -155.89381211 321.28252063 -155.99536896 316.52555084 C-156.05952258 313.52554142 -156.12472123 310.52555615 -156.19012451 307.52557373 C-157.53938839 245.3976997 -157.53938839 245.3976997 -157.765625 216.56542969 C-157.77183428 215.78532752 -157.77804356 215.00522535 -157.78444099 214.20148373 C-157.80960205 211.01249354 -157.83471174 207.82350538 -157.85742569 204.63449669 C-157.93872009 193.62033963 -158.14960394 182.61551799 -158.45989418 171.60541153 C-158.69455528 163.19504989 -158.86913251 154.78465558 -159.0058651 146.37214279 C-159.09202747 141.2622076 -159.20849749 136.15705139 -159.39923096 131.04986572 C-159.57725684 126.26996098 -159.6741692 121.49500625 -159.71156311 116.71199989 C-159.73969347 114.95345005 -159.79723498 113.19507748 -159.8868866 111.4385891 C-160.42188346 100.57289613 -160.42188346 100.57289613 -158.05908203 95.79614258 C-153.92992468 91.328028 -148.58259432 88.56552939 -143.19399166 85.88344479 C-140.00900074 84.26133975 -137.03519169 82.36581968 -134.01220703 80.46020508 C-131.77923299 79.11152864 -129.54484373 77.76519273 -127.30908203 76.42114258 C-124.87195935 74.95001436 -122.43614232 73.47673203 -120.00048828 72.00317383 C-119.40460403 71.64291611 -118.80871979 71.28265839 -118.19477844 70.91148376 C-112.85577814 67.68054743 -107.54663538 64.40295348 -102.24658203 61.10864258 C-90.26254547 53.66457433 -78.20204262 46.3474445 -66.14306641 39.02563477 C-55.92484568 32.82000172 -45.71827058 26.59804269 -35.55908203 20.29614258 C-33.85205363 19.24145048 -32.14502235 18.18676302 -30.43798828 17.13208008 C-26.53714353 14.71980176 -22.65372092 12.28117576 -18.77392578 9.83520508 C-16.68170934 8.53014642 -14.58926635 7.22545086 -12.49658203 5.92114258 C-11.02318359 4.98238281 -11.02318359 4.98238281 -9.52001953 4.0246582 C-8.60349609 3.45682617 -7.68697266 2.88899414 -6.74267578 2.30395508 C-5.52922485 1.54042725 -5.52922485 1.54042725 -4.29125977 0.76147461 C-2.05908203 -0.20385742 -2.05908203 -0.20385742 0 0 Z M-4.6484375 6.81567383 C-5.56512207 7.40735352 -6.48180664 7.9990332 -7.42626953 8.60864258 C-8.46460938 9.26477539 -9.50294922 9.9209082 -10.57275391 10.59692383 C-11.69328375 11.32986354 -12.81372414 12.06294004 -13.93408203 12.79614258 C-15.10274491 13.54160957 -16.27268653 14.28507537 -17.44384766 15.02661133 C-19.83811237 16.54426582 -22.2271182 18.069712 -24.61279297 19.60083008 C-29.54154506 22.75358793 -34.55004507 25.77319736 -39.55908203 28.79614258 C-52.0934827 36.40689604 -64.57567321 44.10215129 -77.05908203 51.79614258 C-89.54252947 59.49015766 -102.02727347 67.1810682 -114.55908203 74.79614258 C-122.60463444 79.68618691 -130.64015407 84.59225755 -138.66235352 89.52050781 C-139.83767318 90.24234876 -141.01328889 90.96370791 -142.18920898 91.68457031 C-143.82116856 92.68521 -145.45187507 93.68789247 -147.08251953 94.69067383 C-148.02015137 95.26664307 -148.9577832 95.8426123 -149.92382812 96.43603516 C-151.95952307 97.62441547 -151.95952307 97.62441547 -153.05908203 98.79614258 C-153.15246029 100.52440355 -153.17493812 102.2565302 -153.16992188 103.98730469 C-153.16868317 105.10770645 -153.16744446 106.22810822 -153.16616821 107.38246155 C-153.15918915 108.62112473 -153.15221008 109.8597879 -153.14501953 111.13598633 C-153.14102142 112.43559799 -153.13702332 113.73520966 -153.13290405 115.07420349 C-153.07894868 130.33686617 -152.90650416 145.59885162 -152.71533203 160.8603096 C-152.68352372 163.40327742 -152.652285 165.94625184 -152.62109375 168.48922729 C-152.21536801 201.33505385 -151.68389806 234.17882763 -151.12425995 267.02235031 C-151.05978702 270.81714773 -150.99603543 274.61195669 -150.93243408 278.4067688 C-150.83030044 284.48483899 -150.7255826 290.56286 -150.61900711 296.64085388 C-150.58022331 298.86752645 -150.54209171 301.09421051 -150.50474167 303.32090759 C-150.19304307 321.82069428 -149.61959995 340.29905132 -149.05908203 358.79614258 C-48.07908203 358.79614258 52.90091797 358.79614258 156.94091797 358.79614258 C156.94501348 281.75127409 156.94501348 281.75127409 156.32495117 204.7121582 C156.26625525 199.76881009 156.20885013 194.82544806 156.15185547 189.88208008 C156.13769529 188.69046516 156.12353512 187.49885025 156.10894585 186.27112579 C155.9479564 172.28972536 155.94411064 158.33439409 156.29996681 144.35644913 C156.40355908 139.96194323 156.46018563 135.56656164 156.51524639 131.17120934 C156.578213 126.77093632 156.77732423 122.38925206 157.00366211 117.99487305 C157.5317025 107.65728878 157.5317025 107.65728878 153.10153198 98.74969482 C148.32162663 94.9119137 143.01888229 92.35633467 137.42550659 89.91638184 C134.10056658 88.41724903 131.17475686 86.59146536 128.10888672 84.61645508 C126.62364502 83.69981079 126.62364502 83.69981079 125.10839844 82.76464844 C124.12500488 82.1562915 123.14161133 81.54793457 122.12841797 80.92114258 C113.87593921 75.82790169 105.60790202 70.76229279 97.31591797 65.73364258 C89.42090292 60.94340873 81.5748455 56.08054249 73.75341797 51.17114258 C65.54798138 46.0210982 57.29998675 40.95459964 48.97338867 36.00268555 C39.9656382 30.64395597 31.06241049 25.11597854 22.15966797 19.58520508 C21.05107422 18.89813477 19.94248047 18.21106445 18.80029297 17.50317383 C17.10337961 16.45148217 15.40651901 15.39969667 13.71240234 14.34350586 C12.03045159 13.29538196 10.34510078 12.25272044 8.65966797 11.21020508 C7.67933594 10.60128418 6.69900391 9.99236328 5.68896484 9.36499023 C0.7731752 6.1667326 0.7731752 6.1667326 -4.6484375 6.81567383 Z " fill="#030100" transform="translate(253.05908203125,86.203857421875)"/>
<path d="M0 0 C0 0.66 0 1.32 0 2 C0.64582031 2.22429687 1.29164063 2.44859375 1.95703125 2.6796875 C6.09444479 4.47486822 9.83884617 6.78327096 13.6875 9.125 C14.55616699 9.6499707 15.42483398 10.17494141 16.31982422 10.71582031 C26.78817665 17.05681916 37.20279884 23.48607406 47.61816406 29.91357422 C53.24301356 33.38382861 58.87135731 36.84840243 64.5 40.3125 C65.59046631 40.98361816 66.68093262 41.65473633 67.80444336 42.34619141 C78.61940072 48.99990729 89.45005932 55.62742448 100.30078125 62.22265625 C110.36018689 68.33724819 120.41338779 74.46193551 130.4465332 80.61953735 C132.15432751 81.66715098 133.86328542 82.71286697 135.57226562 83.75854492 C136.61447266 84.39896729 137.65667969 85.03938965 138.73046875 85.69921875 C139.65239014 86.26471436 140.57431152 86.83020996 141.52416992 87.4128418 C142.74970581 88.19848511 142.74970581 88.19848511 144 89 C144.69980484 89.42757095 145.39960968 89.85514191 146.12062073 90.29566956 C148 92 148 92 148.51898193 94.21124268 C148.90994928 132.63331474 149.03591442 171.05228554 149.01716614 209.4763031 C149.01455204 215.4267474 149.01345513 221.377192 149.01220703 227.32763672 C149.00957106 238.88509188 149.00533735 250.44254579 149 262 C111.4357667 262.022865 73.87153444 262.04049753 36.30729559 262.05106533 C31.87730838 262.05231611 27.44732118 262.05361042 23.01733398 262.05493164 C22.13536494 262.05519395 21.25339589 262.05545626 20.34470051 262.05572652 C6.04465069 262.0600835 -8.25539512 262.06797121 -22.55544256 262.0771528 C-37.21735804 262.08648855 -51.87927141 262.09205544 -66.54118973 262.09408849 C-75.59587761 262.09546389 -84.65055419 262.09981534 -93.70523859 262.10791647 C-99.90568934 262.11318296 -106.10613421 262.11480452 -112.30658703 262.11350138 C-115.88941512 262.11285784 -119.47222338 262.11387721 -123.05504799 262.11920547 C-126.93017437 262.1249267 -130.8052745 262.1230011 -134.68040466 262.12025452 C-135.82532157 262.12316736 -136.97023847 262.1260802 -138.14984983 262.12908131 C-139.17944258 262.12709026 -140.20903532 262.12509921 -141.26982784 262.12304783 C-142.61346823 262.12361741 -142.61346823 262.12361741 -143.98425287 262.1241985 C-146 262 -146 262 -147 261 C-147.1555655 258.88179926 -147.24201798 256.75849971 -147.30184937 254.63543701 C-147.32153408 253.97338398 -147.3412188 253.31133096 -147.36150002 252.62921572 C-147.42518734 250.42577485 -147.48123628 248.2222189 -147.53662109 246.01855469 C-147.5785063 244.46927049 -147.62047101 242.91998845 -147.66251183 241.37070847 C-148.2839421 217.76475851 -148.44524267 194.1525457 -148.54844093 170.53950882 C-148.58411775 162.54085357 -148.63776794 154.54310034 -148.73388672 146.54492188 C-148.81895468 139.46601116 -148.87255277 132.3877072 -148.88746679 125.30828738 C-148.89629227 121.58890721 -148.92024348 117.87110628 -148.98213577 114.15219879 C-149.04994367 110.03717574 -149.04689896 105.92514127 -149.03759766 101.80957031 C-149.06838409 100.59415558 -149.09917053 99.37874084 -149.13088989 98.12649536 C-149.03158834 90.0753251 -149.03158834 90.0753251 -146.02402306 86.94024658 C-143.74022013 85.39761655 -141.49210062 84.16820076 -139 83 C-138.08653809 82.42443359 -137.17307617 81.84886719 -136.23193359 81.25585938 C-135.46187988 80.78986328 -134.69182617 80.32386719 -133.8984375 79.84375 C-133.00777588 79.30331055 -132.11711426 78.76287109 -131.19946289 78.20605469 C-130.26739014 77.64305664 -129.33531738 77.08005859 -128.375 76.5 C-126.3398325 75.26564355 -124.30467659 74.031268 -122.26953125 72.796875 C-121.23393066 72.16974609 -120.19833008 71.54261719 -119.13134766 70.89648438 C-114.10541848 67.85255659 -109.0830938 64.80271865 -104.0625 61.75 C-103.09320557 61.16065674 -102.12391113 60.57131348 -101.12524414 59.96411133 C-95.8316616 56.74041763 -90.55799204 53.48878487 -85.3125 50.1875 C-78.02972795 45.60430945 -70.67222486 41.14556835 -63.3125 36.6875 C-54.93916429 31.61420044 -46.57370315 26.52953503 -38.25 21.375 C-37.43128418 20.86904297 -36.61256836 20.36308594 -35.76904297 19.84179688 C-30.99433039 16.88313536 -26.24600368 13.88624486 -21.51171875 10.86328125 C-19.87058105 9.82131592 -19.87058105 9.82131592 -18.19628906 8.75830078 C-16.06446505 7.40363107 -13.93729341 6.04160494 -11.81542969 4.67138672 C-10.85411133 4.06182129 -9.89279297 3.45225586 -8.90234375 2.82421875 C-7.62605103 2.00570435 -7.62605103 2.00570435 -6.32397461 1.1706543 C-4 0 -4 0 0 0 Z M-8.68359375 7.60546875 C-9.60011719 8.17007813 -10.51664063 8.7346875 -11.4609375 9.31640625 C-12.44320312 9.93386719 -13.42546875 10.55132812 -14.4375 11.1875 C-15.46230469 11.82171875 -16.48710937 12.4559375 -17.54296875 13.109375 C-20.70021116 15.06515447 -23.85023547 17.03220691 -27 19 C-29.64871469 20.64298035 -32.29934892 22.28282536 -34.95019531 23.92236328 C-36.66508401 24.98341372 -38.37926535 26.04560816 -40.09277344 27.10888672 C-46.43714449 31.04419794 -52.80660765 34.93673104 -59.1875 38.8125 C-70.71321624 45.81405769 -82.19911592 52.87931442 -93.6796875 59.95458984 C-98.12382154 62.69230712 -102.57025925 65.42627159 -107.01660156 68.16040039 C-112.34577385 71.43803872 -117.67314199 74.71860216 -123 78 C-124.04349609 78.64259766 -125.08699219 79.28519531 -126.16210938 79.94726562 C-129.12989344 81.77574932 -132.09641957 83.60625438 -135.0625 85.4375 C-135.95557861 85.98752686 -136.84865723 86.53755371 -137.76879883 87.10424805 C-138.57857178 87.60480713 -139.38834473 88.10536621 -140.22265625 88.62109375 C-140.93172119 89.0586499 -141.64078613 89.49620605 -142.37133789 89.94702148 C-143.96937489 90.89941029 -143.96937489 90.89941029 -145 92 C-145.08562507 93.41521835 -145.10138741 94.83473485 -145.08901978 96.25248718 C-145.08342545 97.17184052 -145.07783112 98.09119385 -145.07206726 99.03840637 C-145.06069229 100.05657944 -145.04931732 101.0747525 -145.03759766 102.1237793 C-145.02959641 103.19120361 -145.02159515 104.25862793 -145.01335144 105.35839844 C-144.98523299 108.93039907 -144.94975409 112.50228632 -144.9140625 116.07421875 C-144.89225506 118.58575644 -144.87080726 121.09729727 -144.84970093 123.60884094 C-144.8039956 128.91805406 -144.75495149 134.22722122 -144.703125 139.53637695 C-144.63815664 146.19545165 -144.58046641 152.8545697 -144.52498245 159.513731 C-144.25743648 191.34913372 -143.80189988 223.17342171 -143 255 C-136.76991802 255.91771821 -130.72297111 256.14264473 -124.4309082 256.12939453 C-123.38835467 256.13112419 -122.34580114 256.13285385 -121.27165508 256.13463593 C-117.7813479 256.13900591 -114.29108913 256.13603038 -110.80078125 256.1328125 C-108.28068019 256.13383136 -105.76057925 256.13517266 -103.24047852 256.1368103 C-97.08339896 256.13925285 -90.9263416 256.1363445 -84.76926482 256.13056505 C-79.74676001 256.12589647 -74.72425847 256.12351359 -69.70175171 256.12231445 C1.86722887 256.10198852 73.43362431 255.5699347 145 255 C145.05192305 235.05066064 145.063607 215.10205954 145.01881409 195.1526947 C144.99702206 184.51608857 145.01059333 173.88040125 145.06087589 163.24389076 C145.09523108 155.49333961 145.09600414 147.74319673 145.07355404 139.99260521 C145.06126675 135.31643445 145.06502676 130.64148253 145.10647583 125.9654541 C145.14515175 121.54989865 145.14160081 117.13636331 145.10614014 112.7208004 C145.10055227 111.09599287 145.11036852 109.47104805 145.13674927 107.84644508 C145.56561397 99.26914686 145.56561397 99.26914686 142.14086914 91.80197144 C139.82388491 90.22600441 137.57375902 89.09683147 135 88 C133.40260986 87.00033203 133.40260986 87.00033203 131.77294922 85.98046875 C130.79342285 85.38878906 129.81389648 84.79710937 128.8046875 84.1875 C127.68843994 83.51170898 126.57219238 82.83591797 125.42211914 82.13964844 C124.84398468 81.79091675 124.26585022 81.44218506 123.67019653 81.08288574 C121.82775075 79.97149864 119.98681701 78.85764339 118.14624023 77.74316406 C115.63133789 76.2205614 113.11594147 74.69878091 110.60009766 73.17773438 C96.52122119 64.66381447 82.48605226 56.08193255 68.50390625 47.41015625 C62.38467314 43.61612036 56.25612998 39.83727466 50.125 36.0625 C49.03437256 35.390979 47.94374512 34.71945801 46.82006836 34.02758789 C38.52772371 28.92739369 30.21215175 23.86620207 21.88208008 18.82788086 C17.74749441 16.31875879 13.63671286 13.78963595 9.59765625 11.12890625 C8.94764648 10.70085693 8.29763672 10.27280762 7.62792969 9.83178711 C5.96022673 8.72319973 4.30189648 7.60054632 2.64453125 6.4765625 C-1.9120302 3.93242627 -4.56208996 5.03881571 -8.68359375 7.60546875 Z " fill="#060300" transform="translate(254,98)"/>
<path d="M0 0 C1.46337812 -0.01654268 2.92667598 -0.04381136 4.38964844 -0.08203125 C19.00915386 -0.46090294 19.00915386 -0.46090294 25.01416016 3.87890625 C28.06031058 7.13526645 28.63908805 10.11124427 28.61743164 14.48583984 C28.61728058 15.50659607 28.61712952 16.52735229 28.61697388 17.57904053 C28.60665131 18.67395813 28.59632874 19.76887573 28.58569336 20.89697266 C28.58286346 22.02331116 28.58003357 23.14964966 28.57711792 24.31011963 C28.5659246 27.90688712 28.54082123 31.50340545 28.51538086 35.10009766 C28.50534998 37.53889614 28.49622432 39.97769853 28.48803711 42.41650391 C28.46598798 48.39446447 28.43146363 54.37223882 28.39038086 60.35009766 C23.11038086 60.35009766 17.83038086 60.35009766 12.39038086 60.35009766 C12.39038086 55.40009766 12.39038086 50.45009766 12.39038086 45.35009766 C5.13038086 45.35009766 -2.12961914 45.35009766 -9.60961914 45.35009766 C-9.60961914 50.63009766 -9.60961914 55.91009766 -9.60961914 61.35009766 C-14.88961914 61.35009766 -20.16961914 61.35009766 -25.60961914 61.35009766 C-25.70861094 54.05440211 -25.78114774 46.75909889 -25.8293457 39.46289062 C-25.84944155 36.98170154 -25.87672298 34.50055971 -25.91137695 32.01953125 C-25.95998208 28.44991384 -25.98260886 24.88092349 -26.00024414 21.31103516 C-26.03121185 19.65133194 -26.03121185 19.65133194 -26.06280518 17.95809937 C-26.06460003 11.77594718 -25.8424058 8.00234105 -21.60961914 3.35009766 C-15.23880616 -0.897111 -7.40823493 0.06123192 0 0 Z " fill="#040100" transform="translate(367.609619140625,372.64990234375)"/>
<path d="M0 0 C0.66 0 1.32 0 2 0 C2 4.29 2 8.58 2 13 C3.010625 12.938125 4.02125 12.87625 5.0625 12.8125 C25.88459593 12.88607631 45.42194429 22.67241124 60.02734375 36.97265625 C72.20838178 49.25369648 82.60704471 66.62438582 83.09375 84.4296875 C83.0628125 85.27789062 83.031875 86.12609375 83 87 C82.01 87.33 81.02 87.66 80 88 C81.32 88.33 82.64 88.66 84 89 C84 90.65 84 92.3 84 94 C88.29 94 92.58 94 97 94 C97 94.66 97 95.32 97 96 C92.71 96 88.42 96 84 96 C83.85304688 97.61455078 83.85304688 97.61455078 83.703125 99.26171875 C82.32734285 113.16991639 79.2783777 124.89363177 72 137 C71.67 136.34 71.34 135.68 71 135 C71.82453461 133.07208816 72.73783051 131.18194624 73.6875 129.3125 C78.75070498 118.65621975 81.35309147 107.80608073 82 96 C77.05 96 72.1 96 67 96 C67.103125 97.155 67.20625 98.31 67.3125 99.5 C67.32805223 104.38340126 66.13507759 108.63377151 64.6875 113.25 C64.47456299 113.93513672 64.26162598 114.62027344 64.04223633 115.32617188 C62.77084318 119.20901129 61.25250858 122.59151194 59 126 C58.67 125.34 58.34 124.68 58 124 C58.70703125 121.8984375 58.70703125 121.8984375 59.8125 119.375 C63.05793369 111.56357684 64.29802716 104.4236741 65 96 C60.05 96 55.1 96 50 96 C50 95.67 50 95.34 50 95 C55.28 95 60.56 95 66 95 C62.85014419 74.77461008 56.99314878 57.72742099 40.23828125 44.8828125 C24.09808564 34.15338146 7.92370919 31.02420807 -11.1796875 33.39453125 C-13.93588553 34.04378762 -16.38661338 34.90585228 -19 36 C-19.59731934 36.2475 -20.19463867 36.495 -20.81005859 36.75 C-31.23562118 41.18619112 -39.12990121 46.89141337 -47 55 C-47 51.461918 -46.5898825 51.15800869 -44.1875 48.75 C-39.62399159 44.38048689 -34.44126244 41.16683053 -29 38 C-28.30777344 37.59652344 -27.61554688 37.19304687 -26.90234375 36.77734375 C-18.49029738 32.23449325 -9.43857667 30.68395483 0 30 C0 25.05 0 20.1 0 15 C-8.23183806 15.98177885 -15.9110829 16.98066438 -23.828125 19.51171875 C-26 20 -26 20 -29 19 C-26.43848317 18.18428782 -23.87587372 17.37233869 -21.3125 16.5625 C-20.59126953 16.33240234 -19.87003906 16.10230469 -19.12695312 15.86523438 C-13.96913088 14.24016709 -9.14279995 12.84503729 -3.6875 12.9375 C-1.8621875 12.9684375 -1.8621875 12.9684375 0 13 C0 8.71 0 4.42 0 0 Z " fill="#E55049" transform="translate(258,151)"/>
<path d="M0 0 C0.33 0.66 0.66 1.32 1 2 C0.17879473 3.80665159 -0.73510281 5.57143491 -1.6875 7.3125 C-7.94665587 19.55488608 -9.84689327 31.48134085 -11 45 C-6.05 45 -1.1 45 4 45 C4.33 43.68 4.66 42.36 5 41 C5 42.32 5 43.64 5 45 C10.28 45 15.56 45 21 45 C21 45.33 21 45.66 21 46 C16.05 46 11.1 46 6 46 C8.2395353 63.35639858 13.93492884 79.41594605 27.5390625 91.19921875 C39.40429419 100.17507846 51.16523752 104.56195148 65.85546875 106.51171875 C69 107 69 107 70 108 C70.07319621 110.69654854 70.09242537 113.36691458 70.0625 116.0625 C70.05798828 116.82111328 70.05347656 117.57972656 70.04882812 118.36132812 C70.0370068 120.24091871 70.01907078 122.12046899 70 124 C85.92336475 121.75650187 99.98165776 118.61388467 113.48828125 109.4765625 C114.73158203 108.74566406 114.73158203 108.74566406 116 108 C116.66 108.33 117.32 108.66 118 109 C104.49581347 119.51708536 88.27501502 125.89353526 71 125 C71 129.62 71 134.24 71 139 C70.34 139 69.68 139 69 139 C69 134.38 69 129.76 69 125 C67.35 125.0825 65.7 125.165 64 125.25 C40.49718926 125.13965817 22.28735873 112.46186237 6.25 96.515625 C4 94 4 94 2 90 C6.95 89.505 6.95 89.505 12 89 C8.17669785 89.61227259 4.80245984 89.82456657 1 89 C-2.02786358 86.16606983 -3.42023201 82.7895048 -5 79 C-5.46148437 77.93007813 -5.92296875 76.86015625 -6.3984375 75.7578125 C-10.29953608 66.17418882 -12.13248234 57.26562561 -13 47 C-16.63 46.67 -20.26 46.34 -24 46 C-24 45.67 -24 45.34 -24 45 C-20.37 45 -16.74 45 -13 45 C-12.97873047 43.5459375 -12.97873047 43.5459375 -12.95703125 42.0625 C-12.56889858 28.94857078 -9.75843432 9.75843432 0 0 Z " fill="#E54F47" transform="translate(191,202)"/>
<path d="M0 0 C9.91392266 4.55738057 15.2201671 14.49691121 18.8828125 24.3828125 C22.30356285 37.43947934 19.7748699 50.87362012 13.48828125 62.59375 C7.13203199 72.87052046 -2.46575563 79.77087864 -13.75 84 C-18 85 -18 85 -27 85 C-27 75.1 -27 65.2 -27 55 C-26.34 55 -25.68 55 -25 55 C-25 54.01 -25 53.02 -25 52 C-25.66 52 -26.32 52 -27 52 C-27 50.68 -27 49.36 -27 48 C-26.34 48 -25.68 48 -25 48 C-25 47.34 -25 46.68 -25 46 C-25.66 46 -26.32 46 -27 46 C-27 44.35 -27 42.7 -27 41 C-25.68 41 -24.36 41 -23 41 C-23 41.99 -23 42.98 -23 44 C-22.01 44 -21.02 44 -20 44 C-20 43.01 -20 42.02 -20 41 C-19.01 41 -18.02 41 -17 41 C-17 41.99 -17 42.98 -17 44 C-16.01 44 -15.02 44 -14 44 C-14 42.68 -14 41.36 -14 40 C-12.68 40 -11.36 40 -10 40 C-10 41.32 -10 42.64 -10 44 C-9.34 44 -8.68 44 -8 44 C-8 42.68 -8 41.36 -8 40 C-2.72 40 2.56 40 8 40 C8 39.34 8 38.68 8 38 C11.3 38 14.6 38 18 38 C16.93655248 23.719419 12.55250758 12.35543673 1.72265625 2.57421875 C1.15417969 2.05472656 0.58570313 1.53523437 0 1 C0 0.67 0 0.34 0 0 Z " fill="#E55B53" transform="translate(288,208)"/>
<path d="M0 0 C4.95 0 9.9 0 15 0 C16.05885785 13.5533805 11.17457513 26.32165034 3 37 C2.35417969 37.85078125 1.70835937 38.7015625 1.04296875 39.578125 C-11.7918731 55.1037593 -28.80670163 60.24017932 -48 63 C-48.10477512 57.21408489 -47.99250545 51.70690634 -47 46 C-46.24976563 45.90203125 -45.49953125 45.8040625 -44.7265625 45.703125 C-30.43445109 43.61510872 -18.59379851 38.4164591 -9.5625 26.6875 C-3.97855629 18.42006595 -1.69139159 9.72550162 0 0 Z " fill="#E44941" transform="translate(308,247)"/>
<path d="M0 0 C13.47983582 0 23.20705934 4.6080532 33.125 13.5 C40.12005017 20.73335849 45.19533738 31.15435912 45.0625 41.25 C45.05347656 42.14203125 45.04445313 43.0340625 45.03515625 43.953125 C45.02355469 44.62859375 45.01195312 45.3040625 45 46 C38.25766581 46.12910853 31.69613196 45.797837 25 45 C24.85304688 44.3709375 24.70609375 43.741875 24.5546875 43.09375 C22.65436421 35.84194157 20.09970418 29.93476091 13.85546875 25.46484375 C9.21981648 22.75610656 5.31860138 21.5196004 0 20 C0 13.4 0 6.8 0 0 Z " fill="#E44942" transform="translate(261,200)"/>
<path d="M0 0 C0.73798828 -0.00257813 1.47597656 -0.00515625 2.23632812 -0.0078125 C7.00441604 0.07695351 10.47583679 0.82187759 14.5625 3.5 C16.08914487 8.0799346 15.7469271 12.64071028 15.75 17.4375 C15.76224609 18.43974609 15.77449219 19.44199219 15.78710938 20.47460938 C15.79000977 21.92383789 15.79000977 21.92383789 15.79296875 23.40234375 C15.79707764 24.28398193 15.80118652 25.16562012 15.80541992 26.07397461 C15.53781805 28.74649704 15.07777342 30.28472476 13.5625 32.5 C9.48321913 35.18268373 5.35152734 34.90333233 0.625 34.9375 C-0.17357422 34.97037109 -0.97214844 35.00324219 -1.79492188 35.03710938 C-5.77406707 35.07337333 -7.97724309 34.77021535 -11.46484375 32.72265625 C-14.48818476 27.7835348 -14.16414783 23.17872559 -14.0625 17.5 C-14.08183594 16.41976563 -14.10117188 15.33953125 -14.12109375 14.2265625 C-14.09153111 9.43741407 -13.99755253 6.39608404 -11.42578125 2.28125 C-7.45648116 -0.08476417 -4.53484614 -0.17335641 0 0 Z " fill="#0D0601" transform="translate(185.4375,373.5)"/>
<path d="M0 0 C0.66 0 1.32 0 2 0 C2 3.3 2 6.6 2 10 C3.65 10 5.3 10 7 10 C7 10.99 7 11.98 7 13 C5.35 13 3.7 13 2 13 C2 13.99 2 14.98 2 16 C3.32 16.33 4.64 16.66 6 17 C6 17.66 6 18.32 6 19 C4.68 19 3.36 19 2 19 C2 20.32 2 21.64 2 23 C3.65 23 5.3 23 7 23 C7 22.34 7 21.68 7 21 C7.99 21 8.98 21 10 21 C10 21.66 10 22.32 10 23 C10.763125 22.814375 11.52625 22.62875 12.3125 22.4375 C15 22 15 22 18 23 C18.495 21.515 18.495 21.515 19 20 C19.66 20 20.32 20 21 20 C21 20.99 21 21.98 21 23 C26.28 23 31.56 23 37 23 C37 23.99 37 24.98 37 26 C31.72 26 26.44 26 21 26 C21 27.32 21 28.64 21 30 C20.34 30 19.68 30 19 30 C19 28.68 19 27.36 19 26 C17.68 26 16.36 26 15 26 C15 27.32 15 28.64 15 30 C14.01 30 13.02 30 12 30 C12 29.01 12 28.02 12 27 C11.01 27 10.02 27 9 27 C9 27.99 9 28.98 9 30 C8.01 30 7.02 30 6 30 C6 29.01 6 28.02 6 27 C4.68 27 3.36 27 2 27 C2 28.65 2 30.3 2 32 C2.66 32 3.32 32 4 32 C4 32.66 4 33.32 4 34 C3.34 34 2.68 34 2 34 C2 35.32 2 36.64 2 38 C2.66 38 3.32 38 4 38 C4 38.99 4 39.98 4 41 C3.34 41 2.68 41 2 41 C2 53.21 2 65.42 2 78 C1.34 78 0.68 78 0 78 C-1.08806442 70.12652596 -1.11529603 62.37720997 -1.0625 54.4375 C-1.05798828 53.14263672 -1.05347656 51.84777344 -1.04882812 50.51367188 C-1.03712601 47.342399 -1.02073113 44.17122454 -1 41 C-1.99 41 -2.98 41 -4 41 C-4 40.34 -4 39.68 -4 39 C-3.01 39 -2.02 39 -1 39 C-1 37.68 -1 36.36 -1 35 C-2.32 35 -3.64 35 -5 35 C-5 34.01 -5 33.02 -5 32 C-3.68 32 -2.36 32 -1 32 C-1 30.35 -1 28.7 -1 27 C-2.32 27 -3.64 27 -5 27 C-5 27.99 -5 28.98 -5 30 C-5.66 30 -6.32 30 -7 30 C-7 29.01 -7 28.02 -7 27 C-8.65 27 -10.3 27 -12 27 C-12 27.99 -12 28.98 -12 30 C-12.66 30 -13.32 30 -14 30 C-14 29.01 -14 28.02 -14 27 C-15.32 27 -16.64 27 -18 27 C-18 27.99 -18 28.98 -18 30 C-18.99 30 -19.98 30 -21 30 C-21 29.01 -21 28.02 -21 27 C-25.29 27 -29.58 27 -34 27 C-34 26.01 -34 25.02 -34 24 C-29.71 24 -25.42 24 -21 24 C-21 23.34 -21 22.68 -21 22 C-20.01 22 -19.02 22 -18 22 C-18 22.66 -18 23.32 -18 24 C-16.68 24 -15.36 24 -14 24 C-14 23.01 -14 22.02 -14 21 C-13.34 21 -12.68 21 -12 21 C-12 21.99 -12 22.98 -12 24 C-10.35 24 -8.7 24 -7 24 C-7 23.01 -7 22.02 -7 21 C-6.01 21 -5.02 21 -4 21 C-4 21.99 -4 22.98 -4 24 C-3.01 24 -2.02 24 -1 24 C-1 22.35 -1 20.7 -1 19 C-1.99 19 -2.98 19 -4 19 C-4 18.01 -4 17.02 -4 16 C-3.01 16 -2.02 16 -1 16 C-1 15.01 -1 14.02 -1 13 C-1.99 12.67 -2.98 12.34 -4 12 C-4 11.34 -4 10.68 -4 10 C-3.01 10 -2.02 10 -1 10 C-1.01160156 9.36191406 -1.02320313 8.72382813 -1.03515625 8.06640625 C-1.04417969 7.24011719 -1.05320312 6.41382813 -1.0625 5.5625 C-1.07410156 4.73878906 -1.08570313 3.91507813 -1.09765625 3.06640625 C-1 1 -1 1 0 0 Z " fill="#F56B1C" transform="translate(259,222)"/>
<path d="M0 0 C0.495 0.99 0.495 0.99 1 2 C2.86880966 2.18446179 4.74761016 2.26910534 6.625 2.3125 C23.86652041 3.42790538 38.17099584 11.69940763 50 24 C60.33573481 36.22155309 66 49.91999012 66 66 C70.95 66 75.9 66 81 66 C81 64.35 81 62.7 81 61 C81.66 61 82.32 61 83 61 C83 62.65 83 64.3 83 66 C87.29 66 91.58 66 96 66 C96 66.66 96 67.32 96 68 C91.71 68 87.42 68 83 68 C82.85304688 69.61455078 82.85304688 69.61455078 82.703125 71.26171875 C81.32734285 85.16991639 78.2783777 96.89363177 71 109 C70.67 108.34 70.34 107.68 70 107 C70.82453461 105.07208816 71.73783051 103.18194624 72.6875 101.3125 C77.75070498 90.65621975 80.35309147 79.80608073 81 68 C76.05 68 71.1 68 66 68 C66.103125 69.155 66.20625 70.31 66.3125 71.5 C66.32805223 76.38340126 65.13507759 80.63377151 63.6875 85.25 C63.47456299 85.93513672 63.26162598 86.62027344 63.04223633 87.32617188 C61.77084318 91.20901129 60.25250858 94.59151194 58 98 C57.67 97.34 57.34 96.68 57 96 C57.70703125 93.8984375 57.70703125 93.8984375 58.8125 91.375 C62.05793369 83.56357684 63.29802716 76.4236741 64 68 C59.05 68 54.1 68 49 68 C49 67.67 49 67.34 49 67 C54.28 67 59.56 67 65 67 C61.85014419 46.77461008 55.99314878 29.72742099 39.23828125 16.8828125 C23.09808564 6.15338146 6.92370919 3.02420807 -12.1796875 5.39453125 C-14.93588553 6.04378762 -17.38661338 6.90585228 -20 8 C-20.59731934 8.2475 -21.19463867 8.495 -21.81005859 8.75 C-32.23562118 13.18619112 -40.12990121 18.89141337 -48 27 C-48 23.461918 -47.5898825 23.15800869 -45.1875 20.75 C-40.62399159 16.38048689 -35.44126244 13.16683053 -30 10 C-28.96166016 9.39478516 -28.96166016 9.39478516 -27.90234375 8.77734375 C-19.18522399 4.06974109 -9.79016771 2.54915834 0 2 C0 1.34 0 0.68 0 0 Z " fill="#EED2CE" transform="translate(259,179)"/>
<path d="M0 0 C0 11.55 0 23.1 0 35 C-3.3 35 -6.6 35 -10 35 C-10 27.41 -10 19.82 -10 12 C-11.65 12.33 -13.3 12.66 -15 13 C-15 10.03 -15 7.06 -15 4 C-13.06441401 3.32779649 -11.12645628 2.66241923 -9.1875 2 C-8.10855469 1.62875 -7.02960938 1.2575 -5.91796875 0.875 C-3 0 -3 0 0 0 Z " fill="#160A02" transform="translate(130,373)"/>
<path d="M0 0 C0 3.3 0 6.6 0 10 C-0.99 10 -1.98 10 -3 10 C-2.505 10.433125 -2.01 10.86625 -1.5 11.3125 C0 13 0 13 0 16 C-0.99 16 -1.98 16 -3 16 C-3 16.99 -3 17.98 -3 19 C-2.01 19 -1.02 19 0 19 C0 20.65 0 22.3 0 24 C-0.99 24 -1.98 24 -3 24 C-3 23.01 -3 22.02 -3 21 C-3.99 21 -4.98 21 -6 21 C-6 21.99 -6 22.98 -6 24 C-7.65 24 -9.3 24 -11 24 C-11 23.01 -11 22.02 -11 21 C-11.66 21 -12.32 21 -13 21 C-13 21.99 -13 22.98 -13 24 C-14.32 24 -15.64 24 -17 24 C-17 23.34 -17 22.68 -17 22 C-17.99 22 -18.98 22 -20 22 C-20 22.66 -20 23.32 -20 24 C-20.66 24 -21.32 24 -22 24 C-21.80748782 14.98692955 -21.80748782 14.98692955 -18.75 11.25 C-17.8425 10.5075 -16.935 9.765 -16 9 C-15.21625 7.96875 -14.4325 6.9375 -13.625 5.875 C-9.62379644 1.49272943 -6.04161813 0 0 0 Z " fill="#E44B40" transform="translate(258,222)"/>
<path d="M0 0 C0 11.55 0 23.1 0 35 C-2.97 35 -5.94 35 -9 35 C-9 27.41 -9 19.82 -9 12 C-10.65 12.33 -12.3 12.66 -14 13 C-14 10.03 -14 7.06 -14 4 C-12.0429132 3.32968281 -10.08428887 2.66385317 -8.125 2 C-7.03445312 1.62875 -5.94390625 1.2575 -4.8203125 0.875 C-2 0 -2 0 0 0 Z " fill="#0A0400" transform="translate(168,373)"/>
<path d="M0 0 C0.99 0 1.98 0 3 0 C3 0.99 3 1.98 3 3 C3.99 3 4.98 3 6 3 C6 2.01 6 1.02 6 0 C7.32 0 8.64 0 10 0 C10 0.99 10 1.98 10 3 C10.66 3 11.32 3 12 3 C12 2.01 12 1.02 12 0 C13.65 0 15.3 0 17 0 C17 0.99 17 1.98 17 3 C17.66 3 18.32 3 19 3 C19 2.01 19 1.02 19 0 C20.32 0 21.64 0 23 0 C23 1.65 23 3.3 23 5 C21.68 5 20.36 5 19 5 C19 5.99 19 6.98 19 8 C20.32 8 21.64 8 23 8 C23 9.32 23 10.64 23 12 C22.01 12 21.02 12 20 12 C20 12.66 20 13.32 20 14 C20.99 14 21.98 14 23 14 C23 16.64 23 19.28 23 22 C15.95153569 21.55009802 9.93372085 19.27057815 5.12890625 13.9140625 C1.86829455 9.33200385 0.23909439 5.61871826 0 0 Z " fill="#E44B40" transform="translate(235,249)"/>
<path d="M0 0 C2.97 0 5.94 0 9 0 C9 1.98 9 3.96 9 6 C9.66 6 10.32 6 11 6 C11.85567555 10.39633657 12.71014389 14.79290549 13.56347656 19.18969727 C13.85415714 20.68650716 14.14517201 22.18325218 14.43652344 23.67993164 C14.85438797 25.82681728 15.2710637 27.97393068 15.6875 30.12109375 C15.93886719 31.4145874 16.19023437 32.70808105 16.44921875 34.04077148 C17 37 17 37 17 38 C14.03 38 11.06 38 8 38 C7.15771542 34.43955555 6.32776097 30.87634656 5.5 27.3125 C5.26152344 26.30509766 5.02304688 25.29769531 4.77734375 24.25976562 C4.55175781 23.28330078 4.32617188 22.30683594 4.09375 21.30078125 C3.88427734 20.40528564 3.67480469 19.50979004 3.45898438 18.5871582 C3.00005488 16.00030935 2.91738029 13.62111026 3 11 C2.34 11 1.68 11 1 11 C0.67 7.37 0.34 3.74 0 0 Z " fill="#0D0601" transform="translate(134,372)"/>
<path d="M0 0 C0 0.99 0 1.98 0 3 C0.89203125 2.97679687 1.7840625 2.95359375 2.703125 2.9296875 C3.87359375 2.91164062 5.0440625 2.89359375 6.25 2.875 C7.99023438 2.84019531 7.99023438 2.84019531 9.765625 2.8046875 C12.908009 2.99444499 14.31814256 3.52650798 17 5 C16.1843457 4.98952637 15.36869141 4.97905273 14.52832031 4.96826172 C11.44190557 4.93375468 8.35559059 4.90889765 5.26904297 4.89013672 C3.30038843 4.87537776 1.3318231 4.84993839 -0.63671875 4.82421875 C-12.55970118 4.763696 -23.14760872 5.93355214 -34 11 C-34.90588867 11.41427246 -34.90588867 11.41427246 -35.83007812 11.83691406 C-44.79272299 15.96779095 -52.60142204 20.37026915 -60 27 C-60.82886719 27.69867188 -61.65773437 28.39734375 -62.51171875 29.1171875 C-69.64796923 35.25895285 -75.77306994 42.1596049 -81 50 C-81.66 50 -82.32 50 -83 50 C-81.77170949 39.47449517 -69.26674502 29.12399701 -61.41748047 22.70605469 C-43.99042443 9.07191619 -22.45556484 -0.73624803 0 0 Z " fill="#DA6017" transform="translate(261,147)"/>
<path d="M0 0 C3.47921735 -0.02683201 6.95823039 -0.0467567 10.4375 -0.0625 C11.92733398 -0.07506836 11.92733398 -0.07506836 13.44726562 -0.08789062 C14.39150391 -0.09111328 15.33574219 -0.09433594 16.30859375 -0.09765625 C17.62041626 -0.10551147 17.62041626 -0.10551147 18.95874023 -0.11352539 C21 0 21 0 22 1 C22.14426614 5.66845228 22.04208415 10.32865953 22 15 C14.74 15 7.48 15 0 15 C0 10.05 0 5.1 0 0 Z " fill="#F26E14" transform="translate(358,388)"/>
<path d="M0 0 C2 2 2 2 2.18286133 4.97412109 C2.1495874 6.22789551 2.11631348 7.48166992 2.08203125 8.7734375 C2.05516487 9.79191269 2.05516487 9.79191269 2.02775574 10.83096313 C1.98649448 12.27532415 1.93989728 13.71954094 1.88842773 15.16357422 C1.8139897 17.33161202 1.76415981 19.49919284 1.71679688 21.66796875 C1.47931956 30.10751466 0.44477762 37.88541898 -2 46 C-2.20778076 46.77182617 -2.41556152 47.54365234 -2.62963867 48.33886719 C-6.82236995 63.80314748 -14.6592347 77.58182334 -26 89 C-26 85.06772234 -24.56704817 83.4055529 -22.5 80.0625 C-12.44632883 63.15436091 -5.97677632 43.17258829 -2 24 C-1.34 24 -0.68 24 0 24 C-0.33 19.05 -0.66 14.1 -1 9 C-0.34 9 0.32 9 1 9 C0.67 6.03 0.34 3.06 0 0 Z " fill="#B7342D" transform="translate(355,223)"/>
<path d="M0 0 C-3.37998428 2.15096844 -6.59087527 3.70114053 -10.38671875 4.97265625 C-11.40830078 5.31490234 -12.42988281 5.65714844 -13.48242188 6.00976562 C-14.54009766 6.35716797 -15.59777344 6.70457031 -16.6875 7.0625 C-17.72583984 7.41376953 -18.76417969 7.76503906 -19.83398438 8.12695312 C-29.77508628 11.42403332 -39.00868424 13.39012534 -49.5 13.375 C-50.91273193 13.37693359 -50.91273193 13.37693359 -52.35400391 13.37890625 C-61.57409886 13.24247303 -70.14487426 11.44882489 -79 9 C-75.58860997 7.90348177 -72.79344419 8.05784527 -69.25 8.4375 C-68.26515625 8.53933594 -67.2803125 8.64117187 -66.265625 8.74609375 C-65.14414063 8.87177734 -65.14414063 8.87177734 -64 9 C-64 9.33 -64 9.66 -64 10 C-58.39 10.66 -52.78 11.32 -47 12 C-47 10.68 -47 9.36 -47 8 C-46.09765625 7.85304688 -45.1953125 7.70609375 -44.265625 7.5546875 C-33.18609657 5.69450579 -22.2309914 3.36895973 -11.27246094 0.89404297 C-9.51530762 0.50563232 -9.51530762 0.50563232 -7.72265625 0.109375 C-6.66828369 -0.12813477 -5.61391113 -0.36564453 -4.52758789 -0.61035156 C-2 -1 -2 -1 0 0 Z " fill="#C13530" transform="translate(309,329)"/>
<path d="M0 0 C0.33 0.66 0.66 1.32 1 2 C0.17879473 3.80665159 -0.73510281 5.57143491 -1.6875 7.3125 C-7.94665587 19.55488608 -9.84689327 31.48134085 -11 45 C-6.05 45 -1.1 45 4 45 C4.33 43.68 4.66 42.36 5 41 C5 42.32 5 43.64 5 45 C10.28 45 15.56 45 21 45 C21 45.33 21 45.66 21 46 C16.05 46 11.1 46 6 46 C7.28342656 55.94655581 9.25349519 64.60169744 13.8125 73.5625 C14.204375 74.366875 14.59625 75.17125 15 76 C14.67 76.66 14.34 77.32 14 78 C7.73623918 67.83422425 4.62718371 57.91649056 4 46 C-0.95 46 -5.9 46 -11 46 C-8.88364547 59.76875359 -6.86788593 72.7715351 0.74609375 84.74609375 C1.15988281 85.48988281 1.57367188 86.23367188 2 87 C1.67 87.66 1.34 88.32 1 89 C-7.61764927 75.88103564 -11.69089321 62.49109705 -13 47 C-16.63 46.67 -20.26 46.34 -24 46 C-24 45.67 -24 45.34 -24 45 C-20.37 45 -16.74 45 -13 45 C-12.97873047 43.5459375 -12.97873047 43.5459375 -12.95703125 42.0625 C-12.56889858 28.94857078 -9.75843432 9.75843432 0 0 Z " fill="#F0D9D5" transform="translate(191,202)"/>
<path d="M0 0 C2 2 2 2 2.1953125 5.9140625 C2.18200376 7.48449351 2.15813602 9.05486221 2.125 10.625 C2.11597656 11.42679688 2.10695312 12.22859375 2.09765625 13.0546875 C2.07406223 15.03658523 2.03819065 17.01832981 2 19 C5.63 19 9.26 19 13 19 C13 19.33 13 19.66 13 20 C9.37 20 5.74 20 2 20 C4.08329315 33.27355349 8.24566771 45.61837909 13.71875 57.875 C15 61 15 61 15 64 C13.68 64 12.36 64 11 64 C2.45168913 42.67277316 -2.83553141 24.2947924 -1 1 C-0.67 0.67 -0.34 0.34 0 0 Z " fill="#EC6220" transform="translate(165,229)"/>
<path d="M0 0 C0.66 0 1.32 0 2 0 C2 4.29 2 8.58 2 13 C3.010625 12.938125 4.02125 12.87625 5.0625 12.8125 C20.82164139 12.86818601 37.24699964 18.9514426 50 28 C51.8359375 30.21484375 51.8359375 30.21484375 53 32 C50.59838483 30.86054755 48.3519867 29.6080774 46.07421875 28.23046875 C31.88908483 19.67357712 18.37262302 16.25654724 2 15 C2 18.3 2 21.6 2 25 C1.67 25 1.34 25 1 25 C1 21.7 1 18.4 1 15 C-7.51084496 15.90768108 -15.67911674 16.86721842 -23.86328125 19.51171875 C-26 20 -26 20 -29 19 C-26.43848317 18.18428782 -23.87587372 17.37233869 -21.3125 16.5625 C-20.59126953 16.33240234 -19.87003906 16.10230469 -19.12695312 15.86523438 C-13.96913088 14.24016709 -9.14279995 12.84503729 -3.6875 12.9375 C-1.8621875 12.9684375 -1.8621875 12.9684375 0 13 C0 8.71 0 4.42 0 0 Z " fill="#EED5D1" transform="translate(258,151)"/>
<path d="M0 0 C3.3 0 6.6 0 10 0 C10 5.28 10 10.56 10 16 C6.7 16 3.4 16 0 16 C0 10.72 0 5.44 0 0 Z " fill="#EC6B14" transform="translate(182,383)"/>
<path d="M0 0 C0.33 0 0.66 0 1 0 C1 5.28 1 10.56 1 16 C16.92336475 13.75650187 30.98165776 10.61388467 44.48828125 1.4765625 C45.31714844 0.98929687 46.14601563 0.50203125 47 0 C47.99 0.495 47.99 0.495 49 1 C35.49581347 11.51708536 19.27501502 17.89353526 2 17 C2 21.62 2 26.24 2 31 C1.34 31 0.68 31 0 31 C0 26.38 0 21.76 0 17 C-2.5678125 17.0928125 -2.5678125 17.0928125 -5.1875 17.1875 C-12.0241477 17.19562919 -18.49405439 16.11685991 -25 14 C-25.66 13.34 -26.32 12.68 -27 12 C-21.18256697 12.82194184 -15.37229089 13.6883126 -9.5625 14.5625 C-8.64017578 14.70107422 -7.71785156 14.83964844 -6.76757812 14.98242188 C-4.51168503 15.32139027 -2.25583782 15.66066394 0 16 C0 10.72 0 5.44 0 0 Z " fill="#EED3CF" transform="translate(260,310)"/>
<path d="M0 0 C0.33 0.66 0.66 1.32 1 2 C1.99 2 2.98 2 4 2 C2.35755923 6.94276847 0.70290082 11.88085553 -0.97265625 16.8125 C-1.66933328 18.87497891 -2.36594693 20.93747922 -3.0625 23 C-3.41376953 24.02867187 -3.76503906 25.05734375 -4.12695312 26.1171875 C-6.12009876 32.04010799 -7.76806945 37.87226256 -9 44 C-9.33 44 -9.66 44 -10 44 C-10.1953125 41.94921875 -10.390625 39.8984375 -10.5859375 37.84765625 C-10.79089844 36.93306641 -10.79089844 36.93306641 -11 36 C-11.66 35.67 -12.32 35.34 -13 35 C-13 34.34 -13 33.68 -13 33 C-12.34 33 -11.68 33 -11 33 C-10.89429688 32.34902344 -10.78859375 31.69804687 -10.6796875 31.02734375 C-9.79500662 27.08695477 -8.47881978 23.36310138 -7.125 19.5625 C-6.74021484 18.45551758 -6.74021484 18.45551758 -6.34765625 17.32617188 C-4.83237637 13.04303152 -3.06617792 9.05449987 -1 5 C-0.30092586 2.26427415 -0.30092586 2.26427415 0 0 Z " fill="#C4392F" transform="translate(177,195)"/>
<path d="M0 0 C8.66396836 3.67337417 12.12078907 15.00702697 15.51953125 23.17578125 C17.82860719 28.96618961 19.40676518 34.69513974 19 41 C18.34 41 17.68 41 17 41 C16.8040625 40.175 16.608125 39.35 16.40625 38.5 C13.39243496 26.86043848 8.5144091 16.3024657 2 6.1875 C0 3 0 3 0 0 Z " fill="#D95F1A" transform="translate(337,191)"/>
<path d="M0 0 C0.66 0 1.32 0 2 0 C2 1.65 2 3.3 2 5 C6.29 5 10.58 5 15 5 C15 5.66 15 6.32 15 7 C10.71 7 6.42 7 2 7 C1.90203125 8.07636719 1.8040625 9.15273437 1.703125 10.26171875 C0.32734285 24.16991639 -2.7216223 35.89363177 -10 48 C-10.33 47.34 -10.66 46.68 -11 46 C-10.17546539 44.07208816 -9.26216949 42.18194624 -8.3125 40.3125 C-3.24929502 29.65621975 -0.64690853 18.80608073 0 7 C-4.95 6.67 -9.9 6.34 -15 6 C-15 5.67 -15 5.34 -15 5 C-10.05 5 -5.1 5 0 5 C0 3.35 0 1.7 0 0 Z " fill="#EDD0CA" transform="translate(340,240)"/>
<path d="M0 0 C1.17175781 0.01353516 1.17175781 0.01353516 2.3671875 0.02734375 C2.94726562 0.03894531 3.52734375 0.05054688 4.125 0.0625 C4.125 1.0525 4.125 2.0425 4.125 3.0625 C5.01703125 3.03929687 5.9090625 3.01609375 6.828125 2.9921875 C7.99859375 2.97414062 9.1690625 2.95609375 10.375 2.9375 C12.11523438 2.90269531 12.11523438 2.90269531 13.890625 2.8671875 C17.033009 3.05694499 18.44314256 3.58900798 21.125 5.0625 C20.32505615 5.05202637 19.5251123 5.04155273 18.70092773 5.03076172 C14.98815629 4.98854381 11.27544338 4.95823268 7.5625 4.9375 C6.89905579 4.93361267 6.23561157 4.92972534 5.55206299 4.92572021 C-3.24921241 4.88958029 -11.67449373 5.17252116 -20.3203125 6.8203125 C-22.875 7.0625 -22.875 7.0625 -25.875 5.0625 C-23.50092408 4.41310264 -21.1258361 3.76789947 -18.75 3.125 C-18.08484375 2.94259766 -17.4196875 2.76019531 -16.734375 2.57226562 C-11.13206155 1.06183798 -5.8146234 -0.08810035 0 0 Z " fill="#AB4516" transform="translate(256.875,146.9375)"/>
<path d="M0 0 C0.99 0 1.98 0 3 0 C3 11.88 3 23.76 3 36 C2.01 35.67 1.02 35.34 0 35 C0 23.45 0 11.9 0 0 Z " fill="#F46920" transform="translate(257,185)"/>
<path d="M0 0 C0.66 0 1.32 0 2 0 C2.14695313 0.88300781 2.29390625 1.76601562 2.4453125 2.67578125 C4.06452471 11.33949714 6.21884267 20.25204516 12.6875 26.67578125 C14 28 14 28 14 30 C14.56332031 30.25910156 15.12664062 30.51820313 15.70703125 30.78515625 C18.23865187 32.12644077 20.39487505 33.72080016 22.6875 35.4375 C30.2324725 40.76206332 38.01799276 42.40611563 47 44 C47 44.33 47 44.66 47 45 C36.28351217 45.99688259 26.30735988 41.42548856 18 35 C16.4840625 33.948125 16.4840625 33.948125 14.9375 32.875 C6.3340783 25.32603667 2.14756095 14.96386381 0 4 C0 2.68 0 1.36 0 0 Z " fill="#EED1CE" transform="translate(212,248)"/>
<path d="M0 0 C2.60276021 2.52839563 4.93206777 4.91008969 7.125 7.8125 C18.82737626 21.99388431 36.67269338 26.60624028 54 29 C54 29.33 54 29.66 54 30 C37.14334294 31.00692421 22.07766301 24.26233733 9.421875 13.34765625 C5.8610926 9.8959946 2.6173181 6.22522684 0 2 C0 1.34 0 0.68 0 0 Z " fill="#EFD6D3" transform="translate(206,280)"/>
<path d="M0 0 C0.33 0.66 0.66 1.32 1 2 C2.86880966 2.18446179 4.74761016 2.26910534 6.625 2.3125 C18.54490539 3.07139628 29.17228232 7.2709039 39 14 C36 15 36 15 32.5234375 13.41796875 C31.13739297 12.68052198 29.75473919 11.9366775 28.375 11.1875 C19.24472915 6.44443613 11.7975295 4.86960559 1.50390625 4.34375 C-1 4 -1 4 -3 2 C-2.01 2 -1.02 2 0 2 C0 1.34 0 0.68 0 0 Z " fill="#EDD0CD" transform="translate(259,179)"/>
<path d="M0 0 C2 2 2 2 2.1953125 5.6953125 C2.182009 7.17200108 2.15814835 8.64862358 2.125 10.125 C2.11597656 10.87910156 2.10695312 11.63320312 2.09765625 12.41015625 C2.0740687 14.27357254 2.03819719 16.13682593 2 18 C1.67 18 1.34 18 1 18 C0.67 20.97 0.34 23.94 0 27 C-0.33 27 -0.66 27 -1 27 C-1.02886537 22.68751391 -1.04675255 18.37505238 -1.0625 14.0625 C-1.07087891 12.83080078 -1.07925781 11.59910156 -1.08789062 10.33007812 C-1.09111328 9.16025391 -1.09433594 7.99042969 -1.09765625 6.78515625 C-1.10289307 5.70113525 -1.10812988 4.61711426 -1.11352539 3.50024414 C-1 1 -1 1 0 0 Z " fill="#DB5E19" transform="translate(165,229)"/>
<path d="M0 0 C4.95 0.33 9.9 0.66 15 1 C15 1.33 15 1.66 15 2 C18.31143006 2.72413373 21.47844221 3.16354255 24.86328125 3.31640625 C26.19262695 3.37924805 26.19262695 3.37924805 27.54882812 3.44335938 C28.9168457 3.50233398 28.9168457 3.50233398 30.3125 3.5625 C31.70952148 3.62727539 31.70952148 3.62727539 33.13476562 3.69335938 C35.42304454 3.79897225 37.71142372 3.90107752 40 4 C40 4.33 40 4.66 40 5 C26.03728561 5.51116668 13.48927988 4.73036876 0 1 C0 0.67 0 0.34 0 0 Z " fill="#7F221E" transform="translate(230,337)"/>
<path d="M0 0 C1.56079093 2.34118639 2.58327699 4.2792825 3.6875 6.8125 C6.52989276 12.59309651 11.14182016 16.41686558 17 19 C18.99110401 19.38290462 20.99100513 19.72604615 23 20 C23 20.66 23 21.32 23 22 C15.95153569 21.55009802 9.93372085 19.27057815 5.12890625 13.9140625 C1.86829455 9.33200385 0.23909439 5.61871826 0 0 Z " fill="#EDCCC8" transform="translate(235,249)"/>
<path d="M0 0 C-11.52164009 9.59453303 -11.52164009 9.59453303 -17 13 C-13.93543381 6.39157529 -8.08365476 -2.45579385 0 0 Z " fill="#E9661A" transform="translate(212,165)"/>
<path d="M0 0 C4.95 0 9.9 0 15 0 C15 0.99 15 1.98 15 3 C9.55306686 3.09688221 4.36095333 3.12862175 -1 2 C-0.67 1.34 -0.34 0.68 0 0 Z " fill="#C73732" transform="translate(245,338)"/>
<path d="M0 0 C0.33 0 0.66 0 1 0 C1 1.98 1 3.96 1 6 C5.29 6 9.58 6 14 6 C14 6.33 14 6.66 14 7 C9.71 7 5.42 7 1 7 C1 8.65 1 10.3 1 12 C0.67 12 0.34 12 0 12 C0 10.35 0 8.7 0 7 C-5.28 7 -10.56 7 -16 7 C-16 6.67 -16 6.34 -16 6 C-10.72 6 -5.44 6 0 6 C0 4.02 0 2.04 0 0 Z " fill="#F7F5F3" transform="translate(324,240)"/>
<path d="M0 0 C3.9429464 1.46596725 5.01834588 3.37308275 6.75 7.125 C7.17796875 8.03507813 7.6059375 8.94515625 8.046875 9.8828125 C8.51867187 10.93082031 8.51867187 10.93082031 9 12 C8.01 12.33 7.02 12.66 6 13 C4.99193149 11.40089132 3.99379615 9.79551738 3 8.1875 C2.443125 7.29417969 1.88625 6.40085938 1.3125 5.48046875 C0 3 0 3 0 0 Z " fill="#ED671A" transform="translate(337,191)"/>
<path d="M0 0 C0.33 0 0.66 0 1 0 C1.90041311 8.02332397 2.11547323 15.92970447 2 24 C1.34 24 0.68 24 0 24 C0 16.08 0 8.16 0 0 Z " fill="#000000" transform="translate(428,410)"/>
<path d="M0 0 C0.99 1.485 0.99 1.485 2 3 C4.6556728 3.58348752 4.6556728 3.58348752 7.625 3.6875 C8.62789062 3.75324219 9.63078125 3.81898438 10.6640625 3.88671875 C11.43492187 3.92410156 12.20578125 3.96148437 13 4 C13 4.33 13 4.66 13 5 C9.37 5 5.74 5 2 5 C2 7.64 2 10.28 2 13 C1.34 13 0.68 13 0 13 C0 8.71 0 4.42 0 0 Z " fill="#F1793E" transform="translate(165,244)"/>
<path d="M0 0 C3.59392602 3.49124242 6.79621606 7.13902961 10 11 C11.31543863 12.35099103 12.64175118 13.69205669 14 15 C9.3039298 13.59868598 7.19943889 11.29614189 4.1875 7.5 C3.00220703 6.03046875 3.00220703 6.03046875 1.79296875 4.53125 C0 2 0 2 0 0 Z " fill="#EDC9C6" transform="translate(206,280)"/>
<path d="M0 0 C4.62 0 9.24 0 14 0 C14 0.99 14 1.98 14 3 C7.07 2.505 7.07 2.505 0 2 C0 1.34 0 0.68 0 0 Z " fill="#D7661B" transform="translate(246,148)"/>
<path d="M0 0 C-3.28463659 2.18975773 -6.20696275 2.99806563 -10 4 C-10.33 3.34 -10.66 2.68 -11 2 C-8.74490247 -2.51019507 -4.15738698 -0.70597137 0 0 Z " fill="#E1611C" transform="translate(236,154)"/>
<path d="M0 0 C2 1.375 2 1.375 4 3 C4 3.66 4 4.32 4 5 C4.5775 5.2475 5.155 5.495 5.75 5.75 C8.3002997 7.16683317 10.01785701 8.87627537 12 11 C7.90910906 11 6.55081513 9.30133052 3.5859375 6.66796875 C1.64924152 4.63109884 0.71720882 2.70945555 0 0 Z " fill="#ECC4C1" transform="translate(222,273)"/>
<path d="M0 0 C5.61 0.33 11.22 0.66 17 1 C17 1.33 17 1.66 17 2 C12.38 2.33 7.76 2.66 3 3 C3 2.34 3 1.68 3 1 C2.01 0.67 1.02 0.34 0 0 Z " fill="#C24E19" transform="translate(241,149)"/>
<path d="M0 0 C0.33 0 0.66 0 1 0 C1.33 2.64 1.66 5.28 2 8 C1.34 8 0.68 8 0 8 C-0.33 8.99 -0.66 9.98 -1 11 C-1.33 8.69 -1.66 6.38 -2 4 C-1.34 4 -0.68 4 0 4 C0 2.68 0 1.36 0 0 Z " fill="#E05C1E" transform="translate(167,253)"/>
<path d="M0 0 C0.33 0.66 0.66 1.32 1 2 C0.06421005 4.35981813 -0.93347808 6.69631264 -2 9 C-2.66 9 -3.32 9 -4 9 C-3.46930939 5.17902761 -2.50298434 2.93828597 0 0 Z " fill="#D35D16" transform="translate(182,188)"/>
<path d="M0 0 C0.99 0.495 0.99 0.495 2 1 C2.4140625 3.06640625 2.4140625 3.06640625 2.625 5.5625 C2.69976562 6.38878906 2.77453125 7.21507812 2.8515625 8.06640625 C2.92503906 9.02353516 2.92503906 9.02353516 3 10 C2.34 10 1.68 10 1 10 C0.67 6.7 0.34 3.4 0 0 Z " fill="#E46717" transform="translate(353,222)"/>
<path d="M0 0 C2.99324263 1.0975223 3.84610901 1.67682892 5.25 4.625 C5.4975 5.40875 5.745 6.1925 6 7 C4.125 6.6875 4.125 6.6875 2 6 C0 3 0 3 0 0 Z " fill="#E2601A" transform="translate(337,191)"/>
<path d="M0 0 C1.9451 2.91765 2.45276317 4.62537285 3 8 C2.01 8.66 1.02 9.32 0 10 C-1.125 3.375 -1.125 3.375 0 0 Z " fill="#CD5C17" transform="translate(352,215)"/>
<path d="M0 0 C0.33 0.66 0.66 1.32 1 2 C2.65 2 4.3 2 6 2 C5.67 2.66 5.34 3.32 5 4 C2.125 4.125 2.125 4.125 -1 4 C-1.66 3.34 -2.32 2.68 -3 2 C-2.01 2 -1.02 2 0 2 C0 1.34 0 0.68 0 0 Z " fill="#EBC0BC" transform="translate(259,179)"/>
<path d="M0 0 C4.95 0 9.9 0 15 0 C15 0.33 15 0.66 15 1 C10.05 1 5.1 1 0 1 C0 0.67 0 0.34 0 0 Z " fill="#000000" transform="translate(225,454)"/>
<path d="M0 0 C3 1 3 1 3 1 Z " fill="#000000" transform="translate(301,452)"/>
<path d="M0 0 C2 1 2 1 2 1 Z " fill="#000000" transform="translate(131,457)"/>
<path d="M0 0 C2 1 2 1 2 1 Z " fill="#000000" transform="translate(438,358)"/>
<path d="" fill="#000000" transform="translate(0,0)"/>
<path d="" fill="#000000" transform="translate(0,0)"/>
</svg>
