<?xml version="1.0" encoding="UTF-8"?>
<svg version="1.1" xmlns="http://www.w3.org/2000/svg" width="512" height="512">
<path d="M0 0 C2.05910524 0.84462166 3.81236513 1.81387495 5.67919922 3.02661133 C6.7675708 3.72548462 6.7675708 3.72548462 7.87792969 4.43847656 C8.66184082 4.94838135 9.44575195 5.45828613 10.25341797 5.98364258 C17.55126171 10.66358138 24.90006125 15.24300248 32.31591797 19.73364258 C39.71364406 24.21858715 47.09176853 28.73201442 54.44091797 33.29614258 C62.60082185 38.36165132 70.79448196 43.36914612 79.00341797 48.35473633 C86.33221648 52.80891909 93.64006557 57.29632096 100.94091797 61.79614258 C109.26050175 66.92310538 117.59119635 72.03090059 125.94091797 77.10864258 C126.87790527 77.6788916 127.81489258 78.24914062 128.78027344 78.83666992 C133.24897966 81.55528343 137.72096516 84.26825621 142.19873047 86.97192383 C143.82113477 87.95498277 145.44353105 88.93805495 147.06591797 89.92114258 C148.15839844 90.57723511 148.15839844 90.57723511 149.27294922 91.24658203 C149.94970703 91.65739014 150.62646484 92.06819824 151.32373047 92.49145508 C152.19602295 93.01763428 152.19602295 93.01763428 153.0859375 93.55444336 C153.69808105 93.9642041 154.31022461 94.37396484 154.94091797 94.79614258 C155.79041016 95.29003479 156.63990234 95.783927 157.51513672 96.29278564 C161.09589435 99.98805472 160.6497095 103.11727293 160.60839844 108.09155273 C160.62044941 109.07213528 160.63250038 110.05271782 160.64491653 111.06301498 C160.68079471 114.44562669 160.68122489 117.82741461 160.68310547 121.21020508 C160.7030485 123.70238266 160.72551667 126.19454102 160.75021362 128.68667603 C160.79728185 133.64278707 160.83405172 138.59883402 160.8610884 143.5550946 C160.9256518 155.29594143 161.0626638 167.03553978 161.20751953 178.77563477 C161.25819508 182.92364164 161.30855198 187.07165229 161.35870361 191.21966553 C161.37140911 192.27021881 161.3841146 193.3207721 161.39720511 194.40316033 C161.56729918 208.58827841 161.7114102 222.77367015 161.85698318 236.95905685 C161.87991152 239.19251256 161.90284422 241.42596821 161.92578125 243.65942383 C161.93715771 244.76840759 161.94853418 245.87739134 161.96025538 247.01998067 C162.05420298 256.13514021 162.15397131 265.25023012 162.2547971 274.36531579 C162.35300831 283.270133 162.44694325 292.17498889 162.53761089 301.07988608 C162.59136152 306.35053564 162.64684145 311.6211524 162.70682144 316.89173508 C162.76262332 321.80564759 162.81309322 326.71958663 162.85951614 331.63359642 C162.87734236 333.42543354 162.89704536 335.2172532 162.91883087 337.00904655 C163.02690496 345.98712751 163.06141314 354.86702018 161.94091797 363.79614258 C157.76444781 364.08665276 153.58762081 364.37117116 149.41040039 364.65063477 C147.99558055 364.74607705 146.58086165 364.84303035 145.16625977 364.94165039 C119.76644773 366.70890746 119.76644773 366.70890746 115.94091797 364.79614258 C114.27345737 364.71188164 112.6026661 364.68889115 110.93310547 364.69848633 C109.94697266 364.70170898 108.96083984 364.70493164 107.94482422 364.70825195 C106.91228516 364.71663086 105.87974609 364.72500977 104.81591797 364.73364258 C103.77564453 364.7381543 102.73537109 364.74266602 101.66357422 364.74731445 C99.08929835 364.75912306 96.51513651 364.77559183 93.94091797 364.79614258 C93.94091797 365.12614258 93.94091797 365.45614258 93.94091797 365.79614258 C91.96091797 365.79614258 89.98091797 365.79614258 87.94091797 365.79614258 C87.94091797 365.46614258 87.94091797 365.13614258 87.94091797 364.79614258 C86.76054553 364.79706437 85.58017309 364.79798616 84.36403179 364.79893589 C56.31553397 364.82061517 28.26703656 364.83709381 0.21853216 364.84720791 C-3.23720579 364.84845855 -6.69294372 364.84975287 -10.14868164 364.85107422 C-10.83662824 364.85133653 -11.52457484 364.85159884 -12.2333683 364.8518691 C-23.35806513 364.85621497 -34.48275677 364.86409655 -45.60745052 364.87329537 C-57.03079908 364.88266205 -68.45414344 364.88812977 -79.87749594 364.89023107 C-86.29026688 364.89153339 -92.70302606 364.89458899 -99.11579323 364.90187263 C-105.15592122 364.90867723 -111.19603264 364.9107505 -117.23616409 364.90925026 C-119.44881086 364.90952459 -121.6614582 364.91150331 -123.87410164 364.91534805 C-126.90496418 364.92035471 -129.93576493 364.91911531 -132.96662903 364.91639709 C-133.83339683 364.91930994 -134.70016463 364.92222278 -135.59319812 364.92522389 C-141.79195756 364.91029219 -147.89526585 364.4407034 -154.05908203 363.79614258 C-155.16929441 354.574441 -155.36040568 345.3676817 -155.55908203 336.09301758 C-155.59956961 334.32741727 -155.64031722 332.5618229 -155.68130493 330.79623413 C-155.79036128 326.03942984 -155.89381211 321.28252063 -155.99536896 316.52555084 C-156.05952258 313.52554142 -156.12472123 310.52555615 -156.19012451 307.52557373 C-157.53938839 245.3976997 -157.53938839 245.3976997 -157.765625 216.56542969 C-157.77183428 215.78532752 -157.77804356 215.00522535 -157.78444099 214.20148373 C-157.80960205 211.01249354 -157.83471174 207.82350538 -157.85742569 204.63449669 C-157.93872009 193.62033963 -158.14960394 182.61551799 -158.45989418 171.60541153 C-158.69455528 163.19504989 -158.86913251 154.78465558 -159.0058651 146.37214279 C-159.09202747 141.2622076 -159.20849749 136.15705139 -159.39923096 131.04986572 C-159.57725684 126.26996098 -159.6741692 121.49500625 -159.71156311 116.71199989 C-159.73969347 114.95345005 -159.79723498 113.19507748 -159.8868866 111.4385891 C-160.42188346 100.57289613 -160.42188346 100.57289613 -158.05908203 95.79614258 C-153.92992468 91.328028 -148.58259432 88.56552939 -143.19399166 85.88344479 C-140.00900074 84.26133975 -137.03519169 82.36581968 -134.01220703 80.46020508 C-131.77923299 79.11152864 -129.54484373 77.76519273 -127.30908203 76.42114258 C-124.87195935 74.95001436 -122.43614232 73.47673203 -120.00048828 72.00317383 C-119.40460403 71.64291611 -118.80871979 71.28265839 -118.19477844 70.91148376 C-112.85577814 67.68054743 -107.54663538 64.40295348 -102.24658203 61.10864258 C-90.26254547 53.66457433 -78.20204262 46.3474445 -66.14306641 39.02563477 C-55.92484568 32.82000172 -45.71827058 26.59804269 -35.55908203 20.29614258 C-33.85205363 19.24145048 -32.14502235 18.18676302 -30.43798828 17.13208008 C-26.53714353 14.71980176 -22.65372092 12.28117576 -18.77392578 9.83520508 C-16.68170934 8.53014642 -14.58926635 7.22545086 -12.49658203 5.92114258 C-11.02318359 4.98238281 -11.02318359 4.98238281 -9.52001953 4.0246582 C-8.60349609 3.45682617 -7.68697266 2.88899414 -6.74267578 2.30395508 C-5.52922485 1.54042725 -5.52922485 1.54042725 -4.29125977 0.76147461 C-2.05908203 -0.20385742 -2.05908203 -0.20385742 0 0 Z " fill="#100B08" transform="translate(253.05908203125,86.203857421875)"/>
<path d="M0 0 C2.05910524 0.84462166 3.81236513 1.81387495 5.67919922 3.02661133 C6.7675708 3.72548462 6.7675708 3.72548462 7.87792969 4.43847656 C8.66184082 4.94838135 9.44575195 5.45828613 10.25341797 5.98364258 C17.55126171 10.66358138 24.90006125 15.24300248 32.31591797 19.73364258 C39.71364406 24.21858715 47.09176853 28.73201442 54.44091797 33.29614258 C62.60082185 38.36165132 70.79448196 43.36914612 79.00341797 48.35473633 C86.33221648 52.80891909 93.64006557 57.29632096 100.94091797 61.79614258 C109.26050175 66.92310538 117.59119635 72.03090059 125.94091797 77.10864258 C126.87790527 77.6788916 127.81489258 78.24914062 128.78027344 78.83666992 C133.24897966 81.55528343 137.72096516 84.26825621 142.19873047 86.97192383 C143.82113477 87.95498277 145.44353105 88.93805495 147.06591797 89.92114258 C148.15839844 90.57723511 148.15839844 90.57723511 149.27294922 91.24658203 C149.94970703 91.65739014 150.62646484 92.06819824 151.32373047 92.49145508 C152.19602295 93.01763428 152.19602295 93.01763428 153.0859375 93.55444336 C153.69808105 93.9642041 154.31022461 94.37396484 154.94091797 94.79614258 C155.79041016 95.29003479 156.63990234 95.783927 157.51513672 96.29278564 C161.09589435 99.98805472 160.6497095 103.11727293 160.60839844 108.09155273 C160.62044941 109.07213528 160.63250038 110.05271782 160.64491653 111.06301498 C160.68079471 114.44562669 160.68122489 117.82741461 160.68310547 121.21020508 C160.7030485 123.70238266 160.72551667 126.19454102 160.75021362 128.68667603 C160.79728185 133.64278707 160.83405172 138.59883402 160.8610884 143.5550946 C160.9256518 155.29594143 161.0626638 167.03553978 161.20751953 178.77563477 C161.25819508 182.92364164 161.30855198 187.07165229 161.35870361 191.21966553 C161.37140911 192.27021881 161.3841146 193.3207721 161.39720511 194.40316033 C161.56729918 208.58827841 161.7114102 222.77367015 161.85698318 236.95905685 C161.87991152 239.19251256 161.90284422 241.42596821 161.92578125 243.65942383 C161.93715771 244.76840759 161.94853418 245.87739134 161.96025538 247.01998067 C162.05420298 256.13514021 162.15397131 265.25023012 162.2547971 274.36531579 C162.35300831 283.270133 162.44694325 292.17498889 162.53761089 301.07988608 C162.59136152 306.35053564 162.64684145 311.6211524 162.70682144 316.89173508 C162.76262332 321.80564759 162.81309322 326.71958663 162.85951614 331.63359642 C162.87734236 333.42543354 162.89704536 335.2172532 162.91883087 337.00904655 C163.02690496 345.98712751 163.06141314 354.86702018 161.94091797 363.79614258 C157.76444781 364.08665276 153.58762081 364.37117116 149.41040039 364.65063477 C147.99558055 364.74607705 146.58086165 364.84303035 145.16625977 364.94165039 C119.76644773 366.70890746 119.76644773 366.70890746 115.94091797 364.79614258 C114.27345737 364.71188164 112.6026661 364.68889115 110.93310547 364.69848633 C109.94697266 364.70170898 108.96083984 364.70493164 107.94482422 364.70825195 C106.91228516 364.71663086 105.87974609 364.72500977 104.81591797 364.73364258 C103.77564453 364.7381543 102.73537109 364.74266602 101.66357422 364.74731445 C99.08929835 364.75912306 96.51513651 364.77559183 93.94091797 364.79614258 C93.94091797 365.12614258 93.94091797 365.45614258 93.94091797 365.79614258 C91.96091797 365.79614258 89.98091797 365.79614258 87.94091797 365.79614258 C87.94091797 365.46614258 87.94091797 365.13614258 87.94091797 364.79614258 C86.76054553 364.79706437 85.58017309 364.79798616 84.36403179 364.79893589 C56.31553397 364.82061517 28.26703656 364.83709381 0.21853216 364.84720791 C-3.23720579 364.84845855 -6.69294372 364.84975287 -10.14868164 364.85107422 C-10.83662824 364.85133653 -11.52457484 364.85159884 -12.2333683 364.8518691 C-23.35806513 364.85621497 -34.48275677 364.86409655 -45.60745052 364.87329537 C-57.03079908 364.88266205 -68.45414344 364.88812977 -79.87749594 364.89023107 C-86.29026688 364.89153339 -92.70302606 364.89458899 -99.11579323 364.90187263 C-105.15592122 364.90867723 -111.19603264 364.9107505 -117.23616409 364.90925026 C-119.44881086 364.90952459 -121.6614582 364.91150331 -123.87410164 364.91534805 C-126.90496418 364.92035471 -129.93576493 364.91911531 -132.96662903 364.91639709 C-133.83339683 364.91930994 -134.70016463 364.92222278 -135.59319812 364.92522389 C-141.79195756 364.91029219 -147.89526585 364.4407034 -154.05908203 363.79614258 C-155.16929441 354.574441 -155.36040568 345.3676817 -155.55908203 336.09301758 C-155.59956961 334.32741727 -155.64031722 332.5618229 -155.68130493 330.79623413 C-155.79036128 326.03942984 -155.89381211 321.28252063 -155.99536896 316.52555084 C-156.05952258 313.52554142 -156.12472123 310.52555615 -156.19012451 307.52557373 C-157.53938839 245.3976997 -157.53938839 245.3976997 -157.765625 216.56542969 C-157.77183428 215.78532752 -157.77804356 215.00522535 -157.78444099 214.20148373 C-157.80960205 211.01249354 -157.83471174 207.82350538 -157.85742569 204.63449669 C-157.93872009 193.62033963 -158.14960394 182.61551799 -158.45989418 171.60541153 C-158.69455528 163.19504989 -158.86913251 154.78465558 -159.0058651 146.37214279 C-159.09202747 141.2622076 -159.20849749 136.15705139 -159.39923096 131.04986572 C-159.57725684 126.26996098 -159.6741692 121.49500625 -159.71156311 116.71199989 C-159.73969347 114.95345005 -159.79723498 113.19507748 -159.8868866 111.4385891 C-160.42188346 100.57289613 -160.42188346 100.57289613 -158.05908203 95.79614258 C-153.92992468 91.328028 -148.58259432 88.56552939 -143.19399166 85.88344479 C-140.00900074 84.26133975 -137.03519169 82.36581968 -134.01220703 80.46020508 C-131.77923299 79.11152864 -129.54484373 77.76519273 -127.30908203 76.42114258 C-124.87195935 74.95001436 -122.43614232 73.47673203 -120.00048828 72.00317383 C-119.40460403 71.64291611 -118.80871979 71.28265839 -118.19477844 70.91148376 C-112.85577814 67.68054743 -107.54663538 64.40295348 -102.24658203 61.10864258 C-90.26254547 53.66457433 -78.20204262 46.3474445 -66.14306641 39.02563477 C-55.92484568 32.82000172 -45.71827058 26.59804269 -35.55908203 20.29614258 C-33.85205363 19.24145048 -32.14502235 18.18676302 -30.43798828 17.13208008 C-26.53714353 14.71980176 -22.65372092 12.28117576 -18.77392578 9.83520508 C-16.68170934 8.53014642 -14.58926635 7.22545086 -12.49658203 5.92114258 C-11.02318359 4.98238281 -11.02318359 4.98238281 -9.52001953 4.0246582 C-8.60349609 3.45682617 -7.68697266 2.88899414 -6.74267578 2.30395508 C-5.52922485 1.54042725 -5.52922485 1.54042725 -4.29125977 0.76147461 C-2.05908203 -0.20385742 -2.05908203 -0.20385742 0 0 Z M-6.90283203 13.99926758 C-7.64388184 14.47871826 -8.38493164 14.95816895 -9.1484375 15.45214844 C-9.9439502 15.9781665 -10.73946289 16.50418457 -11.55908203 17.04614258 C-13.27913398 18.15883528 -15.00053067 19.26945148 -16.72314453 20.37817383 C-17.60776367 20.94874512 -18.49238281 21.51931641 -19.40380859 22.10717773 C-23.53127356 24.73257334 -27.72883293 27.23542114 -31.93408203 29.73364258 C-38.68217918 33.7548855 -45.38863892 37.83485091 -52.05908203 41.98364258 C-60.46134734 47.20902326 -68.90805228 52.35840221 -77.37158203 57.48364258 C-85.22009679 62.2369922 -93.05374893 67.00857431 -100.81494141 71.90356445 C-108.79774011 76.91915604 -116.88147333 81.77249372 -124.95166016 86.64575195 C-136.61739574 92.92295052 -136.61739574 92.92295052 -147.05908203 100.79614258 C-147.15752032 102.50399105 -147.18540252 104.21593757 -147.18606567 105.92662048 C-147.1888855 107.04001297 -147.19170532 108.15340546 -147.1946106 109.30053711 C-147.19258636 110.53392822 -147.19056213 111.76731934 -147.18847656 113.03808594 C-147.19022888 114.32961075 -147.1919812 115.62113556 -147.19378662 116.95179749 C-147.19837019 120.5159004 -147.19656374 124.07997455 -147.19340754 127.64407802 C-147.19087108 131.40249505 -147.19322668 135.16090965 -147.1947937 138.91932678 C-147.19661903 145.26751136 -147.19420732 151.61568437 -147.18945312 157.96386719 C-147.18408702 165.21080831 -147.18571472 172.45772096 -147.19127953 179.70466131 C-147.19589426 185.97352869 -147.1964191 192.24238773 -147.19384086 198.51125628 C-147.19231299 202.23245838 -147.19198283 205.9536474 -147.19537735 209.67484856 C-147.20795283 225.73178841 -147.0553951 241.77425907 -146.61328125 257.82568359 C-146.59386923 258.5787088 -146.57445721 259.33173401 -146.55445695 260.10757816 C-146.49871986 262.217842 -146.43608545 264.32777133 -146.37081909 266.4377594 C-146.33500669 267.64389169 -146.2991943 268.85002398 -146.26229668 270.09270573 C-146.36091631 272.71167981 -146.36091631 272.71167981 -145.05908203 273.79614258 C-143.48480996 273.89313997 -141.90616718 273.91985902 -140.32890987 273.91919041 C-138.78452076 273.92217698 -138.78452076 273.92217698 -137.20893186 273.92522389 C-136.06401496 273.92231105 -134.91909805 273.9193982 -133.73948669 273.91639709 C-132.53398432 273.91725152 -131.32848195 273.91810594 -130.08644921 273.91898626 C-126.72522281 273.92035447 -123.36405392 273.9172069 -120.00283444 273.9122082 C-116.38386795 273.90790709 -112.76490338 273.90934988 -109.14593506 273.91011047 C-102.87080396 273.91063593 -96.59568322 273.90748692 -90.32055473 273.90187263 C-81.24766862 273.89376049 -72.17478755 273.89114271 -63.1018982 273.88988464 C-48.3832776 273.88769367 -33.66466252 273.88103237 -18.94604492 273.87158203 C-4.64461291 273.86240908 9.6568176 273.85532767 23.95825195 273.85107422 C24.83915293 273.8508115 25.7200539 273.85054877 26.62764884 273.85027809 C31.04667921 273.84897309 35.4657096 273.84770937 39.88474 273.84646618 C76.57013656 273.83609217 113.25552683 273.81847263 149.94091797 273.79614258 C149.94077918 272.59360368 149.94064039 271.39106478 149.9404974 270.1520853 C149.9392107 258.62051172 149.93828429 247.08893816 149.93767971 235.55736452 C149.9373584 229.63393085 149.9369253 223.71049724 149.936203 217.7870636 C149.92578172 129.94145453 149.92578172 129.94145453 150.06567478 111.92751408 C150.05239269 106.34095398 150.05239269 106.34095398 147.04333496 101.86123657 C144.74065973 100.30063605 142.43446633 99.02397181 139.94091797 97.79614258 C138.5707251 96.93279297 138.5707251 96.93279297 137.17285156 96.05200195 C136.40279785 95.58600586 135.63274414 95.12000977 134.83935547 94.63989258 C133.94869385 94.09945312 133.05803223 93.55901367 132.14038086 93.00219727 C131.20830811 92.43919922 130.27623535 91.87620117 129.31591797 91.29614258 C127.28075047 90.06178613 125.24559455 88.82741057 123.21044922 87.59301758 C122.17484863 86.96588867 121.13924805 86.33875977 120.07226562 85.69262695 C115.04633645 82.64869916 110.02401177 79.59886123 105.00341797 76.54614258 C104.03412354 75.95679932 103.0648291 75.36745605 102.06616211 74.76025391 C96.77257957 71.53656021 91.49891001 68.28492745 86.25341797 64.98364258 C78.97064916 60.40045407 71.61324385 55.94153986 64.25341797 51.48364258 C55.91924123 46.43503222 47.59568693 41.3712457 39.31591797 36.23364258 C38.50380859 35.73026367 37.69169922 35.22688477 36.85498047 34.70825195 C33.08466515 32.3701859 29.31592906 30.02962681 25.54980469 27.68481445 C22.54540989 25.81436924 19.53816954 23.94856654 16.52935791 22.0852356 C15.35186066 21.35484899 14.17537402 20.6228304 12.99993896 19.88912964 C11.36431483 18.86837696 9.72496396 17.8536032 8.08544922 16.83911133 C6.66776245 15.95775513 6.66776245 15.95775513 5.22143555 15.05859375 C3.08372716 13.63470182 3.08372716 13.63470182 0.94091797 13.79614258 C0.94091797 13.13614258 0.94091797 12.47614258 0.94091797 11.79614258 C-3.08926897 11.79614258 -3.76690359 11.93517139 -6.90283203 13.99926758 Z " fill="#F26E14" transform="translate(253.05908203125,86.203857421875)"/>
<path d="M0 0 C0.64904297 0.17160645 1.29808594 0.34321289 1.96679688 0.52001953 C13.86248792 3.74152928 25.37920889 7.79608408 34 17 C33.18660156 16.855625 32.37320313 16.71125 31.53515625 16.5625 C8.2990839 12.79872675 -12.68178036 15.48522823 -32.3203125 29.25 C-47.31728874 40.91005314 -57.06056785 58.26112006 -60 77 C-61.37290986 97.79620841 -56.38640797 117.94835367 -42.69140625 134.125 C-41.85416016 135.053125 -41.85416016 135.053125 -41 136 C-40.49339844 136.598125 -39.98679687 137.19625 -39.46484375 137.8125 C-27.44448959 151.04374979 -9.16767729 157.33332599 8.26171875 158.25390625 C28.02137466 158.95394329 46.04779625 151.83939235 61 139 C62.32662408 137.9911163 63.65816566 136.9885638 65 136 C60.19577166 154.31612053 43.34502307 169.81800258 27.640625 179.46875 C24.16492728 181.48424335 20.62974855 183.28332534 17 185 C16.13117188 185.47566406 15.26234375 185.95132813 14.3671875 186.44140625 C-7.35471571 196.4959763 -33.79076179 195.20837367 -55.93359375 187.28515625 C-68.56190655 181.99252579 -79.53568747 175.00513039 -89 165 C-89.7425 164.278125 -90.485 163.55625 -91.25 162.8125 C-92.61125 161.4203125 -92.61125 161.4203125 -94 160 C-94.67160156 159.34773437 -95.34320313 158.69546875 -96.03515625 158.0234375 C-113.01448041 140.60725251 -119.47039154 114.32766894 -119.2109375 90.69140625 C-117.6984588 64.22302904 -105.45268546 41.62037 -86.609375 23.296875 C-63.32608755 2.80200521 -30.3717618 -8.04528584 0 0 Z " fill="#2E3673" transform="translate(275,148)"/>
<path d="M0 0 C2.05910524 0.84462166 3.81236513 1.81387495 5.67919922 3.02661133 C6.7675708 3.72548462 6.7675708 3.72548462 7.87792969 4.43847656 C8.66184082 4.94838135 9.44575195 5.45828613 10.25341797 5.98364258 C17.55126171 10.66358138 24.90006125 15.24300248 32.31591797 19.73364258 C39.71364406 24.21858715 47.09176853 28.73201442 54.44091797 33.29614258 C62.60082185 38.36165132 70.79448196 43.36914612 79.00341797 48.35473633 C86.33221648 52.80891909 93.64006557 57.29632096 100.94091797 61.79614258 C109.26050175 66.92310538 117.59119635 72.03090059 125.94091797 77.10864258 C126.87790527 77.6788916 127.81489258 78.24914062 128.78027344 78.83666992 C133.24897966 81.55528343 137.72096516 84.26825621 142.19873047 86.97192383 C143.82113477 87.95498277 145.44353105 88.93805495 147.06591797 89.92114258 C148.15839844 90.57723511 148.15839844 90.57723511 149.27294922 91.24658203 C149.94970703 91.65739014 150.62646484 92.06819824 151.32373047 92.49145508 C152.19602295 93.01763428 152.19602295 93.01763428 153.0859375 93.55444336 C153.69808105 93.9642041 154.31022461 94.37396484 154.94091797 94.79614258 C155.79041016 95.29003479 156.63990234 95.783927 157.51513672 96.29278564 C161.09589435 99.98805472 160.6497095 103.11727293 160.60839844 108.09155273 C160.62044941 109.07213528 160.63250038 110.05271782 160.64491653 111.06301498 C160.68079471 114.44562669 160.68122489 117.82741461 160.68310547 121.21020508 C160.7030485 123.70238266 160.72551667 126.19454102 160.75021362 128.68667603 C160.79728185 133.64278707 160.83405172 138.59883402 160.8610884 143.5550946 C160.9256518 155.29594143 161.0626638 167.03553978 161.20751953 178.77563477 C161.25819508 182.92364164 161.30855198 187.07165229 161.35870361 191.21966553 C161.37140911 192.27021881 161.3841146 193.3207721 161.39720511 194.40316033 C161.56729918 208.58827841 161.7114102 222.77367015 161.85698318 236.95905685 C161.87991152 239.19251256 161.90284422 241.42596821 161.92578125 243.65942383 C161.93715771 244.76840759 161.94853418 245.87739134 161.96025538 247.01998067 C162.05420298 256.13514021 162.15397131 265.25023012 162.2547971 274.36531579 C162.35300831 283.270133 162.44694325 292.17498889 162.53761089 301.07988608 C162.59136152 306.35053564 162.64684145 311.6211524 162.70682144 316.89173508 C162.76262332 321.80564759 162.81309322 326.71958663 162.85951614 331.63359642 C162.87734236 333.42543354 162.89704536 335.2172532 162.91883087 337.00904655 C163.02690496 345.98712751 163.06141314 354.86702018 161.94091797 363.79614258 C157.76444781 364.08665276 153.58762081 364.37117116 149.41040039 364.65063477 C147.99558055 364.74607705 146.58086165 364.84303035 145.16625977 364.94165039 C119.76644773 366.70890746 119.76644773 366.70890746 115.94091797 364.79614258 C114.27345737 364.71188164 112.6026661 364.68889115 110.93310547 364.69848633 C109.94697266 364.70170898 108.96083984 364.70493164 107.94482422 364.70825195 C106.91228516 364.71663086 105.87974609 364.72500977 104.81591797 364.73364258 C103.77564453 364.7381543 102.73537109 364.74266602 101.66357422 364.74731445 C99.08929835 364.75912306 96.51513651 364.77559183 93.94091797 364.79614258 C93.94091797 365.12614258 93.94091797 365.45614258 93.94091797 365.79614258 C91.96091797 365.79614258 89.98091797 365.79614258 87.94091797 365.79614258 C87.94091797 365.46614258 87.94091797 365.13614258 87.94091797 364.79614258 C86.76054553 364.79706437 85.58017309 364.79798616 84.36403179 364.79893589 C56.31553397 364.82061517 28.26703656 364.83709381 0.21853216 364.84720791 C-3.23720579 364.84845855 -6.69294372 364.84975287 -10.14868164 364.85107422 C-10.83662824 364.85133653 -11.52457484 364.85159884 -12.2333683 364.8518691 C-23.35806513 364.85621497 -34.48275677 364.86409655 -45.60745052 364.87329537 C-57.03079908 364.88266205 -68.45414344 364.88812977 -79.87749594 364.89023107 C-86.29026688 364.89153339 -92.70302606 364.89458899 -99.11579323 364.90187263 C-105.15592122 364.90867723 -111.19603264 364.9107505 -117.23616409 364.90925026 C-119.44881086 364.90952459 -121.6614582 364.91150331 -123.87410164 364.91534805 C-126.90496418 364.92035471 -129.93576493 364.91911531 -132.96662903 364.91639709 C-133.83339683 364.91930994 -134.70016463 364.92222278 -135.59319812 364.92522389 C-141.79195756 364.91029219 -147.89526585 364.4407034 -154.05908203 363.79614258 C-155.16929441 354.574441 -155.36040568 345.3676817 -155.55908203 336.09301758 C-155.59956961 334.32741727 -155.64031722 332.5618229 -155.68130493 330.79623413 C-155.79036128 326.03942984 -155.89381211 321.28252063 -155.99536896 316.52555084 C-156.05952258 313.52554142 -156.12472123 310.52555615 -156.19012451 307.52557373 C-157.53938839 245.3976997 -157.53938839 245.3976997 -157.765625 216.56542969 C-157.77183428 215.78532752 -157.77804356 215.00522535 -157.78444099 214.20148373 C-157.80960205 211.01249354 -157.83471174 207.82350538 -157.85742569 204.63449669 C-157.93872009 193.62033963 -158.14960394 182.61551799 -158.45989418 171.60541153 C-158.69455528 163.19504989 -158.86913251 154.78465558 -159.0058651 146.37214279 C-159.09202747 141.2622076 -159.20849749 136.15705139 -159.39923096 131.04986572 C-159.57725684 126.26996098 -159.6741692 121.49500625 -159.71156311 116.71199989 C-159.73969347 114.95345005 -159.79723498 113.19507748 -159.8868866 111.4385891 C-160.42188346 100.57289613 -160.42188346 100.57289613 -158.05908203 95.79614258 C-153.92992468 91.328028 -148.58259432 88.56552939 -143.19399166 85.88344479 C-140.00900074 84.26133975 -137.03519169 82.36581968 -134.01220703 80.46020508 C-131.77923299 79.11152864 -129.54484373 77.76519273 -127.30908203 76.42114258 C-124.87195935 74.95001436 -122.43614232 73.47673203 -120.00048828 72.00317383 C-119.40460403 71.64291611 -118.80871979 71.28265839 -118.19477844 70.91148376 C-112.85577814 67.68054743 -107.54663538 64.40295348 -102.24658203 61.10864258 C-90.26254547 53.66457433 -78.20204262 46.3474445 -66.14306641 39.02563477 C-55.92484568 32.82000172 -45.71827058 26.59804269 -35.55908203 20.29614258 C-33.85205363 19.24145048 -32.14502235 18.18676302 -30.43798828 17.13208008 C-26.53714353 14.71980176 -22.65372092 12.28117576 -18.77392578 9.83520508 C-16.68170934 8.53014642 -14.58926635 7.22545086 -12.49658203 5.92114258 C-11.02318359 4.98238281 -11.02318359 4.98238281 -9.52001953 4.0246582 C-8.60349609 3.45682617 -7.68697266 2.88899414 -6.74267578 2.30395508 C-5.52922485 1.54042725 -5.52922485 1.54042725 -4.29125977 0.76147461 C-2.05908203 -0.20385742 -2.05908203 -0.20385742 0 0 Z M-4.6484375 6.81567383 C-5.56512207 7.40735352 -6.48180664 7.9990332 -7.42626953 8.60864258 C-8.46460938 9.26477539 -9.50294922 9.9209082 -10.57275391 10.59692383 C-11.69328375 11.32986354 -12.81372414 12.06294004 -13.93408203 12.79614258 C-15.10274491 13.54160957 -16.27268653 14.28507537 -17.44384766 15.02661133 C-19.83811237 16.54426582 -22.2271182 18.069712 -24.61279297 19.60083008 C-29.54154506 22.75358793 -34.55004507 25.77319736 -39.55908203 28.79614258 C-52.0934827 36.40689604 -64.57567321 44.10215129 -77.05908203 51.79614258 C-89.54252947 59.49015766 -102.02727347 67.1810682 -114.55908203 74.79614258 C-122.60463444 79.68618691 -130.64015407 84.59225755 -138.66235352 89.52050781 C-139.83767318 90.24234876 -141.01328889 90.96370791 -142.18920898 91.68457031 C-143.82116856 92.68521 -145.45187507 93.68789247 -147.08251953 94.69067383 C-148.02015137 95.26664307 -148.9577832 95.8426123 -149.92382812 96.43603516 C-151.95952307 97.62441547 -151.95952307 97.62441547 -153.05908203 98.79614258 C-153.15246029 100.52440355 -153.17493812 102.2565302 -153.16992188 103.98730469 C-153.16868317 105.10770645 -153.16744446 106.22810822 -153.16616821 107.38246155 C-153.15918915 108.62112473 -153.15221008 109.8597879 -153.14501953 111.13598633 C-153.14102142 112.43559799 -153.13702332 113.73520966 -153.13290405 115.07420349 C-153.07894868 130.33686617 -152.90650416 145.59885162 -152.71533203 160.8603096 C-152.68352372 163.40327742 -152.652285 165.94625184 -152.62109375 168.48922729 C-152.21536801 201.33505385 -151.68389806 234.17882763 -151.12425995 267.02235031 C-151.05978702 270.81714773 -150.99603543 274.61195669 -150.93243408 278.4067688 C-150.83030044 284.48483899 -150.7255826 290.56286 -150.61900711 296.64085388 C-150.58022331 298.86752645 -150.54209171 301.09421051 -150.50474167 303.32090759 C-150.19304307 321.82069428 -149.61959995 340.29905132 -149.05908203 358.79614258 C-48.07908203 358.79614258 52.90091797 358.79614258 156.94091797 358.79614258 C156.94501348 281.75127409 156.94501348 281.75127409 156.32495117 204.7121582 C156.26625525 199.76881009 156.20885013 194.82544806 156.15185547 189.88208008 C156.13769529 188.69046516 156.12353512 187.49885025 156.10894585 186.27112579 C155.9479564 172.28972536 155.94411064 158.33439409 156.29996681 144.35644913 C156.40355908 139.96194323 156.46018563 135.56656164 156.51524639 131.17120934 C156.578213 126.77093632 156.77732423 122.38925206 157.00366211 117.99487305 C157.5317025 107.65728878 157.5317025 107.65728878 153.10153198 98.74969482 C148.32162663 94.9119137 143.01888229 92.35633467 137.42550659 89.91638184 C134.10056658 88.41724903 131.17475686 86.59146536 128.10888672 84.61645508 C126.62364502 83.69981079 126.62364502 83.69981079 125.10839844 82.76464844 C124.12500488 82.1562915 123.14161133 81.54793457 122.12841797 80.92114258 C113.87593921 75.82790169 105.60790202 70.76229279 97.31591797 65.73364258 C89.42090292 60.94340873 81.5748455 56.08054249 73.75341797 51.17114258 C65.54798138 46.0210982 57.29998675 40.95459964 48.97338867 36.00268555 C39.9656382 30.64395597 31.06241049 25.11597854 22.15966797 19.58520508 C21.05107422 18.89813477 19.94248047 18.21106445 18.80029297 17.50317383 C17.10337961 16.45148217 15.40651901 15.39969667 13.71240234 14.34350586 C12.03045159 13.29538196 10.34510078 12.25272044 8.65966797 11.21020508 C7.67933594 10.60128418 6.69900391 9.99236328 5.68896484 9.36499023 C0.7731752 6.1667326 0.7731752 6.1667326 -4.6484375 6.81567383 Z " fill="#030100" transform="translate(253.05908203125,86.203857421875)"/>
<path d="M0 0 C0 0.66 0 1.32 0 2 C0.64582031 2.22429687 1.29164063 2.44859375 1.95703125 2.6796875 C6.09444479 4.47486822 9.83884617 6.78327096 13.6875 9.125 C14.55616699 9.6499707 15.42483398 10.17494141 16.31982422 10.71582031 C26.78817665 17.05681916 37.20279884 23.48607406 47.61816406 29.91357422 C53.24301356 33.38382861 58.87135731 36.84840243 64.5 40.3125 C65.59046631 40.98361816 66.68093262 41.65473633 67.80444336 42.34619141 C78.61940072 48.99990729 89.45005932 55.62742448 100.30078125 62.22265625 C110.36018689 68.33724819 120.41338779 74.46193551 130.4465332 80.61953735 C132.15432751 81.66715098 133.86328542 82.71286697 135.57226562 83.75854492 C136.61447266 84.39896729 137.65667969 85.03938965 138.73046875 85.69921875 C139.65239014 86.26471436 140.57431152 86.83020996 141.52416992 87.4128418 C142.74970581 88.19848511 142.74970581 88.19848511 144 89 C144.69980484 89.42757095 145.39960968 89.85514191 146.12062073 90.29566956 C148 92 148 92 148.51898193 94.21124268 C148.90994928 132.63331474 149.03591442 171.05228554 149.01716614 209.4763031 C149.01455204 215.4267474 149.01345513 221.377192 149.01220703 227.32763672 C149.00957106 238.88509188 149.00533735 250.44254579 149 262 C111.4357667 262.022865 73.87153444 262.04049753 36.30729559 262.05106533 C31.87730838 262.05231611 27.44732118 262.05361042 23.01733398 262.05493164 C22.13536494 262.05519395 21.25339589 262.05545626 20.34470051 262.05572652 C6.04465069 262.0600835 -8.25539512 262.06797121 -22.55544256 262.0771528 C-37.21735804 262.08648855 -51.87927141 262.09205544 -66.54118973 262.09408849 C-75.59587761 262.09546389 -84.65055419 262.09981534 -93.70523859 262.10791647 C-99.90568934 262.11318296 -106.10613421 262.11480452 -112.30658703 262.11350138 C-115.88941512 262.11285784 -119.47222338 262.11387721 -123.05504799 262.11920547 C-126.93017437 262.1249267 -130.8052745 262.1230011 -134.68040466 262.12025452 C-135.82532157 262.12316736 -136.97023847 262.1260802 -138.14984983 262.12908131 C-139.17944258 262.12709026 -140.20903532 262.12509921 -141.26982784 262.12304783 C-142.61346823 262.12361741 -142.61346823 262.12361741 -143.98425287 262.1241985 C-146 262 -146 262 -147 261 C-147.1555655 258.88179926 -147.24201798 256.75849971 -147.30184937 254.63543701 C-147.32153408 253.97338398 -147.3412188 253.31133096 -147.36150002 252.62921572 C-147.42518734 250.42577485 -147.48123628 248.2222189 -147.53662109 246.01855469 C-147.5785063 244.46927049 -147.62047101 242.91998845 -147.66251183 241.37070847 C-148.2839421 217.76475851 -148.44524267 194.1525457 -148.54844093 170.53950882 C-148.58411775 162.54085357 -148.63776794 154.54310034 -148.73388672 146.54492188 C-148.81895468 139.46601116 -148.87255277 132.3877072 -148.88746679 125.30828738 C-148.89629227 121.58890721 -148.92024348 117.87110628 -148.98213577 114.15219879 C-149.04994367 110.03717574 -149.04689896 105.92514127 -149.03759766 101.80957031 C-149.06838409 100.59415558 -149.09917053 99.37874084 -149.13088989 98.12649536 C-149.03158834 90.0753251 -149.03158834 90.0753251 -146.02402306 86.94024658 C-143.74022013 85.39761655 -141.49210062 84.16820076 -139 83 C-138.08653809 82.42443359 -137.17307617 81.84886719 -136.23193359 81.25585938 C-135.46187988 80.78986328 -134.69182617 80.32386719 -133.8984375 79.84375 C-133.00777588 79.30331055 -132.11711426 78.76287109 -131.19946289 78.20605469 C-130.26739014 77.64305664 -129.33531738 77.08005859 -128.375 76.5 C-126.3398325 75.26564355 -124.30467659 74.031268 -122.26953125 72.796875 C-121.23393066 72.16974609 -120.19833008 71.54261719 -119.13134766 70.89648438 C-114.10541848 67.85255659 -109.0830938 64.80271865 -104.0625 61.75 C-103.09320557 61.16065674 -102.12391113 60.57131348 -101.12524414 59.96411133 C-95.8316616 56.74041763 -90.55799204 53.48878487 -85.3125 50.1875 C-78.02972795 45.60430945 -70.67222486 41.14556835 -63.3125 36.6875 C-54.93916429 31.61420044 -46.57370315 26.52953503 -38.25 21.375 C-37.43128418 20.86904297 -36.61256836 20.36308594 -35.76904297 19.84179688 C-30.99433039 16.88313536 -26.24600368 13.88624486 -21.51171875 10.86328125 C-19.87058105 9.82131592 -19.87058105 9.82131592 -18.19628906 8.75830078 C-16.06446505 7.40363107 -13.93729341 6.04160494 -11.81542969 4.67138672 C-10.85411133 4.06182129 -9.89279297 3.45225586 -8.90234375 2.82421875 C-7.62605103 2.00570435 -7.62605103 2.00570435 -6.32397461 1.1706543 C-4 0 -4 0 0 0 Z M-8.68359375 7.60546875 C-9.60011719 8.17007813 -10.51664063 8.7346875 -11.4609375 9.31640625 C-12.44320312 9.93386719 -13.42546875 10.55132812 -14.4375 11.1875 C-15.46230469 11.82171875 -16.48710937 12.4559375 -17.54296875 13.109375 C-20.70021116 15.06515447 -23.85023547 17.03220691 -27 19 C-29.64871469 20.64298035 -32.29934892 22.28282536 -34.95019531 23.92236328 C-36.66508401 24.98341372 -38.37926535 26.04560816 -40.09277344 27.10888672 C-46.43714449 31.04419794 -52.80660765 34.93673104 -59.1875 38.8125 C-70.71321624 45.81405769 -82.19911592 52.87931442 -93.6796875 59.95458984 C-98.12382154 62.69230712 -102.57025925 65.42627159 -107.01660156 68.16040039 C-112.34577385 71.43803872 -117.67314199 74.71860216 -123 78 C-124.04349609 78.64259766 -125.08699219 79.28519531 -126.16210938 79.94726562 C-129.12989344 81.77574932 -132.09641957 83.60625438 -135.0625 85.4375 C-135.95557861 85.98752686 -136.84865723 86.53755371 -137.76879883 87.10424805 C-138.57857178 87.60480713 -139.38834473 88.10536621 -140.22265625 88.62109375 C-140.93172119 89.0586499 -141.64078613 89.49620605 -142.37133789 89.94702148 C-143.96937489 90.89941029 -143.96937489 90.89941029 -145 92 C-145.08602342 93.59422428 -145.10134717 95.19230722 -145.08901978 96.7888031 C-145.08342545 97.8264682 -145.07783112 98.8641333 -145.07206726 99.9332428 C-145.06069229 101.08247726 -145.04931732 102.23171173 -145.03759766 103.41577148 C-145.02959641 104.61951416 -145.02159515 105.82325684 -145.01335144 107.06347656 C-144.99013766 110.38589418 -144.96235995 113.70821388 -144.93239641 117.03057361 C-144.90164742 120.53672043 -144.8760481 124.04290538 -144.84970093 127.54908752 C-144.80436866 133.47359425 -144.75496007 139.39805658 -144.703125 145.32250977 C-144.6505134 151.34006101 -144.60185311 157.35762546 -144.55761719 163.37524414 C-144.27165214 209.19727418 -144.27165214 209.19727418 -143 255 C-140.06040721 255.84475982 -137.45102225 256.12554108 -134.39649963 256.12698364 C-133.00787767 256.13121716 -133.00787767 256.13121716 -131.59120274 256.13553619 C-130.57698718 256.13350945 -129.56277163 256.1314827 -128.51782227 256.12939453 C-127.43684989 256.13112419 -126.35587751 256.13285385 -125.2421484 256.13463593 C-121.6002193 256.13902883 -117.95833607 256.13602279 -114.31640625 256.1328125 C-111.70072414 256.13383037 -109.08504214 256.13517111 -106.46936035 256.1368103 C-100.07117002 256.13970545 -93.67299637 256.13633784 -87.27480853 256.13056505 C-82.06136892 256.12590562 -76.84793245 256.12351593 -71.63449097 256.12231445 C0.57884188 256.10251141 72.78931022 255.57836107 145 255 C145.05371837 229.04074845 145.06736763 203.08187999 145.01881409 177.12260437 C145.00005036 166.31752717 145.00067215 155.51335136 145.06087589 144.70841026 C145.09338629 138.62693906 145.09719914 132.54600205 145.07355404 126.46448708 C145.06142396 123.06651697 145.06466095 119.67023128 145.10647583 116.27246094 C145.14461585 112.57215581 145.12825273 108.87605933 145.09765625 105.17578125 C145.122229 104.11470657 145.14680176 103.0536319 145.17211914 101.96040344 C145.09668568 96.49183126 145.09668568 96.49183126 142.14086914 92.11508179 C139.82707674 90.54554265 137.49698483 89.25383544 135 88 C133.40260986 87.00033203 133.40260986 87.00033203 131.77294922 85.98046875 C130.79342285 85.38878906 129.81389648 84.79710937 128.8046875 84.1875 C127.68843994 83.51170898 126.57219238 82.83591797 125.42211914 82.13964844 C124.84398468 81.79091675 124.26585022 81.44218506 123.67019653 81.08288574 C121.82775075 79.97149864 119.98681701 78.85764339 118.14624023 77.74316406 C115.63133789 76.2205614 113.11594147 74.69878091 110.60009766 73.17773438 C96.52122119 64.66381447 82.48605226 56.08193255 68.50390625 47.41015625 C62.38467314 43.61612036 56.25612998 39.83727466 50.125 36.0625 C49.03437256 35.390979 47.94374512 34.71945801 46.82006836 34.02758789 C38.52772371 28.92739369 30.21215175 23.86620207 21.88208008 18.82788086 C17.74749441 16.31875879 13.63671286 13.78963595 9.59765625 11.12890625 C8.94764648 10.70085693 8.29763672 10.27280762 7.62792969 9.83178711 C5.96022673 8.72319973 4.30189648 7.60054632 2.64453125 6.4765625 C-1.9120302 3.93242627 -4.56208996 5.03881571 -8.68359375 7.60546875 Z " fill="#060300" transform="translate(254,98)"/>
<path d="M0 0 C0.85998596 0.00424484 1.71997192 0.00848969 2.60601807 0.01286316 C5.3470417 0.02962759 8.08732439 0.0672753 10.828125 0.10546875 C12.68879145 0.1205185 14.54946945 0.1342064 16.41015625 0.14648438 C20.9664304 0.17952376 25.52215216 0.23129042 30.078125 0.29296875 C30.078125 5.24296875 30.078125 10.19296875 30.078125 15.29296875 C19.848125 15.29296875 9.618125 15.29296875 -0.921875 15.29296875 C-0.921875 18.26296875 -0.921875 21.23296875 -0.921875 24.29296875 C6.668125 24.29296875 14.258125 24.29296875 22.078125 24.29296875 C22.078125 28.91296875 22.078125 33.53296875 22.078125 38.29296875 C14.488125 38.29296875 6.898125 38.29296875 -0.921875 38.29296875 C-0.591875 40.27296875 -0.261875 42.25296875 0.078125 44.29296875 C14.928125 44.78796875 14.928125 44.78796875 30.078125 45.29296875 C30.078125 50.24296875 30.078125 55.19296875 30.078125 60.29296875 C25.06106779 60.36738881 20.04433528 60.42169783 15.02685547 60.45776367 C13.32172037 60.47280613 11.61662368 60.49324528 9.91162109 60.51928711 C7.45400488 60.55587159 4.99690231 60.57274048 2.5390625 60.5859375 C1.78257416 60.60142136 1.02608582 60.61690521 0.24667358 60.63285828 C-4.54743024 60.63436643 -7.75182184 59.90421447 -11.921875 57.29296875 C-16.81185705 52.00650167 -17.09719151 47.66714668 -17.16015625 40.71484375 C-17.168228 39.87004456 -17.17629974 39.02524536 -17.18461609 38.15484619 C-17.19844334 36.36610966 -17.20917157 34.57734689 -17.21704102 32.78857422 C-17.23422412 30.06686701 -17.27811774 27.34638435 -17.32226562 24.625 C-17.33239585 22.88412348 -17.34091093 21.14323667 -17.34765625 19.40234375 C-17.36516434 18.59480652 -17.38267242 17.78726929 -17.40071106 16.95526123 C-17.37566083 10.35700556 -15.65463805 6.3919662 -11.22949219 1.3737793 C-7.56330988 -0.34333762 -3.9948507 -0.07430718 0 0 Z " fill="#040100" transform="translate(357.921875,374.70703125)"/>
<path d="M0 0 C1.94962761 2.92444141 2.94364337 5.39539777 4.125 8.6875 C9.48204091 22.70301401 16.09894881 34.67420046 26 46 C26.66773438 46.76957031 27.33546875 47.53914063 28.0234375 48.33203125 C33.56081372 54.254921 40.272643 58.56625394 47 63 C47.67675781 63.4846875 48.35351562 63.969375 49.05078125 64.46875 C59.82098968 71.91953721 73.28755474 74.91131219 86 77 C86.92554688 77.18175781 87.85109375 77.36351562 88.8046875 77.55078125 C111.69871388 80.76937909 137.69812237 76.39196924 156.57421875 62.44921875 C158.6361841 60.88239044 160.60375671 59.26677322 162.58203125 57.58984375 C165 56 165 56 167.32421875 56.25390625 C167.87722656 56.50011719 168.43023437 56.74632812 169 57 C168.67 55.68 168.34 54.36 168 53 C169.3303125 51.948125 169.3303125 51.948125 170.6875 50.875 C173.90375955 48.20878959 176.41236896 45.27259219 179 42 C179 50.39324746 168.54133492 59.29953891 163 65 C154.77692611 73.12028547 145.41297819 79.07522474 135 84 C134.13117188 84.47566406 133.26234375 84.95132813 132.3671875 85.44140625 C110.64528429 95.4959763 84.20923821 94.20837367 62.06640625 86.28515625 C49.43809345 80.99252579 38.46431253 74.00513039 29 64 C28.2575 63.278125 27.515 62.55625 26.75 61.8125 C25.8425 60.884375 24.935 59.95625 24 59 C23.32839844 58.34773438 22.65679687 57.69546875 21.96484375 57.0234375 C11.67631447 46.47019478 6.39008223 32.86789541 2 19 C1.62875 17.845 1.2575 16.69 0.875 15.5 C0.00585518 12.02342073 -0.20522828 9.13265831 -0.125 5.5625 C-0.10695312 4.51191406 -0.08890625 3.46132812 -0.0703125 2.37890625 C-0.04710937 1.59386719 -0.02390625 0.80882812 0 0 Z " fill="#1A1C45" transform="translate(157,249)"/>
<path d="M0 0 C0.64904297 0.17160645 1.29808594 0.34321289 1.96679688 0.52001953 C13.86248792 3.74152928 25.37920889 7.79608408 34 17 C28.58272196 16.54090864 25.66930054 15.84799205 21 13 C-9.34572665 1.35819795 -35.96289966 5.53065479 -65 18 C-65.99 18.40992188 -66.98 18.81984375 -68 19.2421875 C-75.88042718 22.79356422 -82.45807604 28.44326936 -89 34 C-89.83917969 34.71027344 -90.67835938 35.42054688 -91.54296875 36.15234375 C-100.8829756 44.76498724 -108.11508938 56.93938195 -112 69 C-112.33 69 -112.66 69 -113 69 C-114.43217782 56.39683521 -105.42039063 45.33760723 -98 36 C-83.18252681 17.9821542 -66.10934722 7.7725333 -44.125 0.6875 C-43.34060547 0.43282959 -42.55621094 0.17815918 -41.74804688 -0.08422852 C-27.76301963 -4.43601551 -14.05523159 -3.72314113 0 0 Z " fill="#6361A4" transform="translate(275,148)"/>
<path d="M0 0 C1.98 0 3.96 0 6 0 C6 13.53 6 27.06 6 41 C4.68 41 3.36 41 2 41 C2 45.62 2 50.24 2 55 C-2.29 55 -6.58 55 -11 55 C-11 53.68 -11 52.36 -11 51 C-17.435 51.495 -17.435 51.495 -24 52 C-24 51.01 -24 50.02 -24 49 C-24.66 49 -25.32 49 -26 49 C-26 49.66 -26 50.32 -26 51 C-27.98 50.67 -29.96 50.34 -32 50 C-31.05279434 40.74058137 -27.64711787 35.01829994 -20.6328125 28.953125 C-14.87588235 24.61300944 -9.29679411 22 -2 22 C-1.505 28.93 -1.505 28.93 -1 36 C-0.67 24.12 -0.34 12.24 0 0 Z " fill="#130E0E" transform="translate(271,185)"/>
<path d="M0 0 C13.86 0 27.72 0 42 0 C42 1.98 42 3.96 42 6 C35.4 6 28.8 6 22 6 C21.67 7.65 21.34 9.3 21 11 C20.08541847 12.92782054 19.10219927 14.82417587 18.0625 16.6875 C17.53785156 17.64011719 17.01320313 18.59273438 16.47265625 19.57421875 C15 22 15 22 13 24 C12.01 24 11.02 24 10 24 C9.67 24.99 9.34 25.98 9 27 C6.54928471 28.36573274 4.1779901 29.55099232 1.625 30.6875 C0.93921875 31.00783203 0.2534375 31.32816406 -0.453125 31.65820312 C-3.45700982 33.02865252 -5.66226916 34 -9 34 C-8.67 32.68 -8.34 31.36 -8 30 C-8.66 30 -9.32 30 -10 30 C-10 25.71 -10 21.42 -10 17 C-10.99 17 -11.98 17 -13 17 C-13 12.38 -13 7.76 -13 3 C-9.04 3 -5.08 3 -1 3 C-0.67 2.01 -0.34 1.02 0 0 Z " fill="#110C09" transform="translate(288,238)"/>
<path d="M0 0 C1.21429688 -0.01417969 2.42859375 -0.02835937 3.6796875 -0.04296875 C7.06417697 0.18343134 9.21852455 0.45299046 12.125 2.1875 C15.07418192 6.70539571 14.53022326 12.47301347 14.5625 17.6875 C14.59537109 18.62464844 14.62824219 19.56179688 14.66210938 20.52734375 C14.69691485 24.98877253 14.57390588 27.48559041 12.12890625 31.30859375 C8.1430617 33.80169028 5.23370081 33.89725555 0.625 33.75 C-0.12136719 33.76095703 -0.86773437 33.77191406 -1.63671875 33.78320312 C-5.12659935 33.73687728 -7.63084588 33.28923088 -10.875 31.9375 C-14.24979546 27.29715624 -13.51289476 22.19406792 -13.375 16.625 C-13.37757813 15.47580078 -13.38015625 14.32660156 -13.3828125 13.14257812 C-13.28428361 4.73313701 -13.28428361 4.73313701 -11.53320312 2.39868164 C-7.92586143 -0.23618617 -4.30657461 0.02276202 0 0 Z " fill="#0C0501" transform="translate(183.875,372.8125)"/>
<path d="M0 0 C4.29 0 8.58 0 13 0 C13 4.62 13 9.24 13 14 C11.68 14 10.36 14 9 14 C9 18.29 9 22.58 9 27 C7.68 27 6.36 27 5 27 C5 27.66 5 28.32 5 29 C2.11537821 28.37958245 -0.22057814 27.46139876 -2.8125 26.0625 C-5.60075059 24.59336611 -7.45076122 23.9145108 -10.625 23.3125 C-15.60872928 21.37438306 -17.62830448 17.66380395 -20 13 C-20.6640625 10.7109375 -20.6640625 10.7109375 -21 9 C-20.34 9 -19.68 9 -19 9 C-19 7.68 -19 6.36 -19 5 C-17.7934375 5.0309375 -17.7934375 5.0309375 -16.5625 5.0625 C-14.06645115 5.29633621 -14.06645115 5.29633621 -13 4 C-10.81360547 3.92741054 -8.62499611 3.91626217 -6.4375 3.9375 C-4.64119141 3.95103516 -4.64119141 3.95103516 -2.80859375 3.96484375 C-1.88175781 3.97644531 -0.95492188 3.98804688 0 4 C0 2.68 0 1.36 0 0 Z " fill="#130D0A" transform="translate(260,241)"/>
<path d="M0 0 C6.93 0 13.86 0 21 0 C21 2.97 21 5.94 21 9 C16.38 9 11.76 9 7 9 C7 9.99 7 10.98 7 12 C7.73605469 11.95359375 8.47210938 11.9071875 9.23046875 11.859375 C13.62397133 11.69686764 17.08672585 11.62394594 21.1875 13.3125 C24.09286279 17.62045173 23.70065391 21.9687086 23 27 C21.62747293 30.11937969 21.020457 31.4897715 18 33 C16.55151418 33.08342159 15.09929131 33.10732861 13.6484375 33.09765625 C12.79765625 33.09443359 11.946875 33.09121094 11.0703125 33.08789062 C10.18085937 33.07951172 9.29140625 33.07113281 8.375 33.0625 C7.02921875 33.05573242 7.02921875 33.05573242 5.65625 33.04882812 C3.43743352 33.03702591 1.21874982 33.02056155 -1 33 C-1 30.36 -1 27.72 -1 25 C3.95 25 8.9 25 14 25 C14 23.35 14 21.7 14 20 C9.05 20 4.1 20 -1 20 C-1.125 6.75 -1.125 6.75 0 0 Z " fill="#0D0601" transform="translate(109,373)"/>
<path d="M0 0 C0.33 0 0.66 0 1 0 C1 1.65 1 3.3 1 5 C3.475 5.495 3.475 5.495 6 6 C4.68 6.33 3.36 6.66 2 7 C1.67 11.29 1.34 15.58 1 20 C0.01 20 -0.98 20 -2 20 C-2 24.29 -2 28.58 -2 33 C1.96 33 5.92 33 10 33 C10.33 31.68 10.66 30.36 11 29 C11.58007812 29.01160156 12.16015625 29.02320313 12.7578125 29.03515625 C16.37932161 29.07698886 19.73087626 29.04570026 23.3125 28.4375 C25.96325185 28.00598226 27.49156451 28.13169541 30 29 C30 27.35 30 25.7 30 24 C32 26 32 26 32 29 C32.83978394 28.99214478 32.83978394 28.99214478 33.6965332 28.98413086 C36.23517737 28.96333309 38.77380359 28.95033096 41.3125 28.9375 C42.63411133 28.92493164 42.63411133 28.92493164 43.98242188 28.91210938 C44.82998047 28.90888672 45.67753906 28.90566406 46.55078125 28.90234375 C47.33106689 28.89710693 48.11135254 28.89187012 48.9152832 28.88647461 C51 29 51 29 54 30 C54 32.64 54 35.28 54 38 C47.07 38 40.14 38 33 38 C33 37.67 33 37.34 33 37 C39.6 37 46.2 37 53 37 C53 35.02 53 33.04 53 31 C39.14 31 25.28 31 11 31 C10.67 32.32 10.34 33.64 10 35 C6.04 34.67 2.08 34.34 -2 34 C-2 38.62 -2 43.24 -2 48 C-1.01 48 -0.02 48 1 48 C1 52.29 1 56.58 1 61 C1.66 61 2.32 61 3 61 C3 61.66 3 62.32 3 63 C2.34 63 1.68 63 1 63 C1 64.65 1 66.3 1 68 C1.99 68.495 1.99 68.495 3 69 C2.34 69 1.68 69 1 69 C1 75.93 1 82.86 1 90 C0.67 90 0.34 90 0 90 C0 76.47 0 62.94 0 49 C-1.98 49 -3.96 49 -6 49 C-5.98428955 50.3929126 -5.98428955 50.3929126 -5.96826172 51.81396484 C-5.93420796 55.2542569 -5.90911507 58.69437027 -5.89013672 62.13476562 C-5.88006957 63.6247032 -5.86641482 65.11462097 -5.84912109 66.60449219 C-5.82490347 68.74419028 -5.81352436 70.88362753 -5.8046875 73.0234375 C-5.78897705 74.95582275 -5.78897705 74.95582275 -5.77294922 76.92724609 C-6 80 -6 80 -8 82 C-8 75.73 -8 69.46 -8 63 C-9.32 62.34 -10.64 61.68 -12 61 C-10.68 61 -9.36 61 -8 61 C-8 56.71 -8 52.42 -8 48 C-6.68 48 -5.36 48 -4 48 C-4 43.38 -4 38.76 -4 34 C-8.29 34 -12.58 34 -17 34 C-17 35.32 -17 36.64 -17 38 C-17.91523438 38.06058594 -18.83046875 38.12117188 -19.7734375 38.18359375 C-20.96195312 38.26738281 -22.15046875 38.35117188 -23.375 38.4375 C-24.55835938 38.51871094 -25.74171875 38.59992188 -26.9609375 38.68359375 C-29.91518901 38.81084936 -29.91518901 38.81084936 -32 40 C-34.125 39.5625 -34.125 39.5625 -36 39 C-36 39.99 -36 40.98 -36 42 C-36.66 42 -37.32 42 -38 42 C-38 40.68 -38 39.36 -38 38 C-44.27 38 -50.54 38 -57 38 C-57 37.67 -57 37.34 -57 37 C-44.13 37 -31.26 37 -18 37 C-18 35.02 -18 33.04 -18 31 C-31.53 31 -45.06 31 -59 31 C-59 30.34 -59 29.68 -59 29 C-50.09 29 -41.18 29 -32 29 C-32 28.34 -32 27.68 -32 27 C-31.34 27 -30.68 27 -30 27 C-29.67 27.66 -29.34 28.32 -29 29 C-25.04 29 -21.08 29 -17 29 C-17 30.32 -17 31.64 -17 33 C-12.71 33 -8.42 33 -4 33 C-4 28.38 -4 23.76 -4 19 C-2.68 19 -1.36 19 0 19 C0 12.73 0 6.46 0 0 Z M3 67 C7 68 7 68 7 68 Z " fill="#050506" transform="translate(277,207)"/>
<path d="M0 0 C0 11.22 0 22.44 0 34 C-2.97 34 -5.94 34 -9 34 C-9 26.74 -9 19.48 -9 12 C-10.65 12.33 -12.3 12.66 -14 13 C-14 10.03 -14 7.06 -14 4 C-12.0429132 3.32968281 -10.08428887 2.66385317 -8.125 2 C-7.03445312 1.62875 -5.94390625 1.2575 -4.8203125 0.875 C-2 0 -2 0 0 0 Z " fill="#0E0601" transform="translate(167,372)"/>
<path d="M0 0 C2.97 0 5.94 0 9 0 C9.84761592 2.97573732 10.67820957 5.95462284 11.5 8.9375 C11.73847656 9.76830078 11.97695312 10.59910156 12.22265625 11.45507812 C13.7729605 17.14690943 14.23806497 22.10194032 14 28 C14.66 28 15.32 28 16 28 C16 30.97 16 33.94 16 37 C13.36 37 10.72 37 8 37 C6.85639573 32.21381843 5.71718207 27.42662129 4.58203125 22.63842773 C4.19521771 21.00955983 3.80720423 19.3809764 3.41796875 17.75268555 C2.85882182 15.41268417 2.30399285 13.07169496 1.75 10.73046875 C1.57500977 10.00224411 1.40001953 9.27401947 1.21972656 8.52372742 C0.53349355 5.60820796 0 3.00701102 0 0 Z " fill="#100701" transform="translate(134,371)"/>
<path d="M0 0 C0.66 0 1.32 0 2 0 C1.42868653 5.18205459 -0.23385258 9.16670878 -2.5625 13.75 C-2.91892578 14.45519775 -3.27535156 15.16039551 -3.64257812 15.88696289 C-6.76548492 21.87962345 -10.5039049 26.95408656 -15 32 C-15.60199219 32.74378906 -16.20398438 33.48757813 -16.82421875 34.25390625 C-26.43044307 45.83373641 -38.47240759 52.89462644 -52 59 C-53.37671875 59.63421875 -53.37671875 59.63421875 -54.78125 60.28125 C-57 61 -57 61 -60 60 C-56.68129225 57.61733803 -53.51606219 55.71704761 -49.75 54.125 C-30.73227357 45.90628405 -15.52163096 31.31082877 -6 13 C-5.63678342 11.67449534 -5.29629667 10.34204962 -5 9 C-5.62261719 9.61875 -5.62261719 9.61875 -6.2578125 10.25 C-10.56876114 14.29038701 -15.07192275 17.40924556 -20.1875 20.3125 C-21.07816162 20.81813477 -21.07816162 20.81813477 -21.98681641 21.33398438 C-27.05236258 24.14266021 -31.1346231 26.33516439 -37 26 C-34.72410441 23.4041702 -32.81236379 22.40646072 -29.5625 21.3125 C-17.98794582 16.86463638 -8.66799986 8.66799986 0 0 Z " fill="#040408" transform="translate(343,277)"/>
<path d="M0 0 C0.99 0 1.98 0 3 0 C4.2890625 1.80078125 4.2890625 1.80078125 5.625 4.3125 C10.68246831 13.14738261 16.53105164 20.35403442 25 26 C25.59039062 26.77601563 26.18078125 27.55203125 26.7890625 28.3515625 C29.34981375 31.41903485 32.20637386 33.41447588 35.5625 35.5 C36.18310303 35.89018311 36.80370605 36.28036621 37.44311523 36.68237305 C55.10043663 47.58069409 73.69287605 51.39358554 94.25 51.125 C95.59244113 51.11493575 96.93488969 51.10581607 98.27734375 51.09765625 C101.51842489 51.07433912 104.75911102 51.04161552 108 51 C98.26008113 57.49327925 80.62293285 54.76024286 69.5 52.875 C44.21529312 47.26782148 20.42716734 33.08689563 5.93774414 11.24267578 C1.3350432 4.00512959 1.3350432 4.00512959 0 0 Z " fill="#060406" transform="translate(165,289)"/>
<path d="M0 0 C0 2.31 0 4.62 0 7 C-0.64066406 7.21914062 -1.28132813 7.43828125 -1.94140625 7.6640625 C-12.18773202 11.42053961 -17.2669746 16.18497036 -22 26 C-22.66 26 -23.32 26 -24 26 C-24 26.99 -24 27.98 -24 29 C-25.98 28.67 -27.96 28.34 -30 28 C-29.05279434 18.74058137 -25.64711787 13.01829994 -18.6328125 6.953125 C-12.87588235 2.61300944 -7.29679411 0 0 0 Z " fill="#464075" transform="translate(269,207)"/>
<path d="M0 0 C1.78476627 2.6771494 3.40532634 5.40892215 5.01855469 8.19091797 C13.93760775 23.42483942 25.13251181 33.829517 42 40 C42.69013184 40.26039063 43.38026367 40.52078125 44.09130859 40.7890625 C51.19024615 43.22577533 57.79510261 43.38616251 65.25 43.25 C66.3946875 43.24484375 67.539375 43.2396875 68.71875 43.234375 C73.93984209 43.1858067 78.85516413 42.95331344 84 42 C83.67 42.99 83.34 43.98 83 45 C69.58550857 50.16207585 50.76471327 47.87021015 37.76171875 42.265625 C30.18329871 38.74501056 23.21030665 34.63666387 17 29 C16.31679687 28.39671875 15.63359375 27.7934375 14.9296875 27.171875 C9.51731686 22.10935342 5.70667595 16.38643639 2 10 C1.34 8.865625 0.68 7.73125 0 6.5625 C-1.07269151 3.81372801 -1.13695883 2.68735724 0 0 Z " fill="#05060B" transform="translate(221,260)"/>
<path d="M0 0 C-1.25103516 0.74443359 -1.25103516 0.74443359 -2.52734375 1.50390625 C-9.37187812 5.63571566 -15.81773363 9.90651333 -22 15 C-22.57492188 15.45246094 -23.14984375 15.90492188 -23.7421875 16.37109375 C-26.96955885 18.94817386 -29.5389702 21.68707527 -32 25 C-31.13375 24.21625 -30.2675 23.4325 -29.375 22.625 C-25.66246422 19.44609359 -21.76958576 16.550924 -17.8125 13.6875 C-17.20647949 13.24293457 -16.60045898 12.79836914 -15.97607422 12.34033203 C-13.00318102 10.21261686 -10.57317148 8.73538206 -7 8 C-7 8.66 -7 9.32 -7 10 C-8.55898938 11.08857866 -10.17600644 12.09433668 -11.8125 13.0625 C-17.99702655 16.89404473 -23.52040302 21.22420447 -29 26 C-29.69867188 26.59039062 -30.39734375 27.18078125 -31.1171875 27.7890625 C-40.23633861 36.10250548 -47.23756708 48.31961123 -51 60 C-51.33 60 -51.66 60 -52 60 C-53.43217782 47.39683521 -44.42039063 36.33760723 -37 27 C-28.37651838 16.51396368 -18.78342646 7.79523475 -7 1 C-5.94425781 0.37931641 -5.94425781 0.37931641 -4.8671875 -0.25390625 C-3 -1 -3 -1 0 0 Z " fill="#B86645" transform="translate(214,157)"/>
<path d="M0 0 C0.66 0 1.32 0 2 0 C2.66 0.99 3.32 1.98 4 3 C5.32 3 6.64 3 8 3 C9.4921875 4.72265625 9.4921875 4.72265625 10.875 7.0625 C16.17057102 15.48787234 22.22488708 22.74162903 32 26 C32 26.66 32 27.32 32 28 C31.01 28.33 30.02 28.66 29 29 C29 29.66 29 30.32 29 31 C29.763125 31.268125 30.52625 31.53625 31.3125 31.8125 C33.87380884 32.94424112 35.19692938 33.91223401 37 36 C32.28326733 35.46400765 28.87785478 33.31037847 25 30.75 C24.39671875 30.36714844 23.7934375 29.98429687 23.171875 29.58984375 C19.31886752 27.08538889 16.15692818 24.37229267 13 21 C12.23558594 20.19820313 11.47117188 19.39640625 10.68359375 18.5703125 C0 6.93913043 0 6.93913043 0 0 Z " fill="#201623" transform="translate(168,287)"/>
<path d="M0 0 C10.69658195 1.0696582 18.86000752 7.72657329 25.5234375 15.859375 C28.38057211 20.27678879 28.35477923 23.94439598 28 29 C26.68 29 25.36 29 24 29 C23.67 28.34 23.34 27.68 23 27 C22.01 26.67 21.02 26.34 20 26 C18.60020221 23.55145088 17.51798827 21.02422426 16.37890625 18.4453125 C14.90035933 15.82330011 13.51040758 14.60964562 11 13 C11.33 12.01 11.66 11.02 12 10 C8.04 8.35 4.08 6.7 0 5 C0 3.35 0 1.7 0 0 Z " fill="#38376D" transform="translate(279,207)"/>
<path d="M0 0 C0 0.66 0 1.32 0 2 C-0.71542969 2.20753906 -1.43085938 2.41507813 -2.16796875 2.62890625 C-21.59464635 8.63534344 -35.86257534 19.31984866 -46 37 C-51.3904731 47.67455528 -53.46672183 58.25831717 -55 70 C-55.33 70 -55.66 70 -56 70 C-56.50730932 59.81153774 -55.80583134 51.60279297 -52 42 C-51.67257813 41.16210938 -51.34515625 40.32421875 -51.0078125 39.4609375 C-42.9396435 21.38117192 -27.60252287 8.52608089 -9.59375 1.14453125 C-6.14110235 0.04493803 -3.58970702 -0.24928521 0 0 Z " fill="#050409" transform="translate(271,165)"/>
<path d="M0 0 C1.94962761 2.92444141 2.94364337 5.39539777 4.125 8.6875 C8.43909307 20.07721474 13.77894104 31.15310142 21 41 C18.03 41.495 18.03 41.495 15 42 C14.34 40.68 13.68 39.36 13 38 C12.34 38 11.68 38 11 38 C10.67 38.66 10.34 39.32 10 40 C4.24818043 26.55807645 -0.70207616 14.8996163 0 0 Z " fill="#171B46" transform="translate(157,249)"/>
<path d="M0 0 C13.53 0 27.06 0 41 0 C41 1.65 41 3.3 41 5 C27.47 5 13.94 5 0 5 C0 3.35 0 1.7 0 0 Z " fill="#745265" transform="translate(218,238)"/>
<path d="M0 0 C1.98 0 3.96 0 6 0 C5.67 13.2 5.34 26.4 5 40 C3.35 40 1.7 40 0 40 C0 26.8 0 13.6 0 0 Z " fill="#704C60" transform="translate(271,185)"/>
<path d="M0 0 C0 0.66 0 1.32 0 2 C0.66 2 1.32 2 2 2 C2 2.66 2 3.32 2 4 C2.598125 3.505 3.19625 3.01 3.8125 2.5 C6 1 6 1 9 1 C9 1.66 9 2.32 9 3 C-1.87873691 11.68411103 -14.7210198 11.67611915 -28 11 C-31.40203064 10.59440511 -34.77276805 10.18551378 -38 9 C-38.33 8.34 -38.66 7.68 -39 7 C-38.31035156 7.0721875 -37.62070313 7.144375 -36.91015625 7.21875 C-26.39025754 8.25775234 -17.43399408 7.91889546 -7 6 C-12.28 6 -17.56 6 -23 6 C-23 5.67 -23 5.34 -23 5 C-22.154375 4.89042969 -21.30875 4.78085937 -20.4375 4.66796875 C-13.95349603 3.76168183 -6.22669062 0 0 0 Z " fill="#A04E22" transform="translate(280,329)"/>
<path d="M0 0 C1.65 0 3.3 0 5 0 C5.0499542 3.96521085 5.08597787 7.93029631 5.10986328 11.89575195 C5.12470245 13.89736377 5.15013361 15.89888812 5.17578125 17.90039062 C5.21124961 24.94086034 4.89368974 31.20806555 3 38 C2.34 38 1.68 38 1 38 C-0.23180134 34.30459598 -0.12412112 30.89696622 -0.09765625 27.05078125 C-0.0962413 26.27816452 -0.09482635 25.50554779 -0.09336853 24.70951843 C-0.08777466 22.24380611 -0.07522333 19.77818485 -0.0625 17.3125 C-0.05748421 15.63997527 -0.05292144 13.96744912 -0.04882812 12.29492188 C-0.03780724 8.19657954 -0.02054684 4.09830521 0 0 Z " fill="#654356" transform="translate(271,256)"/>
<path d="M0 0 C0.64904297 0.17160645 1.29808594 0.34321289 1.96679688 0.52001953 C13.86248792 3.74152928 25.37920889 7.79608408 34 17 C30.71155519 16.37045539 28.52360631 15.15995455 25.75 13.3125 C7.45909082 2.14513671 -15.59261208 -2.92682306 -36.62890625 1.41796875 C-38.7597647 1.94102956 -40.84290545 2.53653721 -42.9375 3.1875 C-46.03305869 4.00877067 -47.06344341 3.89428613 -50 3 C-32.99469872 -3.56344962 -17.72495775 -4.69522817 0 0 Z " fill="#A65220" transform="translate(275,148)"/>
<path d="M0 0 C0.66 0 1.32 0 2 0 C1.39916639 4.07231667 0.06294995 7.10234153 -1.9375 10.6875 C-2.46214844 11.64011719 -2.98679687 12.59273438 -3.52734375 13.57421875 C-5 16 -5 16 -7 18 C-7.99 18 -8.98 18 -10 18 C-10.33 18.99 -10.66 19.98 -11 21 C-13.45071529 22.36573274 -15.8220099 23.55099232 -18.375 24.6875 C-19.06078125 25.00783203 -19.7465625 25.32816406 -20.453125 25.65820312 C-23.45700982 27.02865252 -25.66226916 28 -29 28 C-29 27.34 -29 26.68 -29 26 C-28.02417969 25.55269531 -27.04835938 25.10539062 -26.04296875 24.64453125 C-24.75745156 24.03461434 -23.472315 23.42389472 -22.1875 22.8125 C-21.22360352 22.37454102 -21.22360352 22.37454102 -20.24023438 21.92773438 C-16.04969711 19.90845994 -14.0318375 18.16492936 -12 14 C-11.34 13.21625 -10.68 12.4325 -10 11.625 C-7.63730659 8.5239649 -6.41964147 5.62008576 -5 2 C-3.35 2 -1.7 2 0 2 C0 1.34 0 0.68 0 0 Z " fill="#363570" transform="translate(308,244)"/>
<path d="M0 0 C2.97 0 5.94 0 9 0 C9 5.61 9 11.22 9 17 C6.03 17 3.06 17 0 17 C0 11.39 0 5.78 0 0 Z " fill="#E66813" transform="translate(180,381)"/>
<path d="M0 0 C13.2 0 26.4 0 40 0 C40 0.99 40 1.98 40 3 C39.01 3 38.02 3 37 3 C37 3.66 37 4.32 37 5 C34.52076199 5.02685095 32.0418116 5.04676547 29.5625 5.0625 C28.85544922 5.07087891 28.14839844 5.07925781 27.41992188 5.08789062 C25.61306441 5.09653588 23.80612397 5.05220011 22 5 C21.67 4.67 21.34 4.34 21 4 C19.44051458 3.84313751 17.87457332 3.74923361 16.30859375 3.68359375 C15.36435547 3.64169922 14.42011719 3.59980469 13.44726562 3.55664062 C12.45404297 3.51732422 11.46082031 3.47800781 10.4375 3.4375 C9.44041016 3.39431641 8.44332031 3.35113281 7.41601562 3.30664062 C4.9441585 3.20019702 2.4721969 3.09818072 0 3 C0 2.01 0 1.02 0 0 Z " fill="#53559A" transform="translate(289,238)"/>
<path d="M0 0 C1.32 0 2.64 0 4 0 C4.31453125 0.59167969 4.6290625 1.18335938 4.953125 1.79296875 C9.72779839 10.60885666 14.63571145 15.4610532 23 21 C22.01 21.33 21.02 21.66 20 22 C18.63461347 21.04422943 17.30518475 20.03647024 16 19 C13.12115698 17.67728834 10.70812137 16.95223804 7.5625 16.4375 C2.47316296 14.38390786 0.43864902 10.79546418 -2 6 C-2.6640625 3.7109375 -2.6640625 3.7109375 -3 2 C-2.34 2 -1.68 2 -1 2 C-0.67 1.34 -0.34 0.68 0 0 Z " fill="#383464" transform="translate(242,248)"/>
<path d="M0 0 C0.33 0 0.66 0 1 0 C1.04898438 0.69867188 1.09796875 1.39734375 1.1484375 2.1171875 C1.22320312 3.02726563 1.29796875 3.93734375 1.375 4.875 C1.44460937 5.77992188 1.51421875 6.68484375 1.5859375 7.6171875 C1.79568132 10.17941903 1.79568132 10.17941903 4 12 C4 13.98 4 15.96 4 18 C17.53 18 31.06 18 45 18 C45 18.33 45 18.66 45 19 C31.47 19.33 17.94 19.66 4 20 C4.66 24.62 5.32 29.24 6 34 C5.34 34 4.68 34 4 34 C0.75918366 22.44012386 -0.54054018 11.9969889 0 0 Z " fill="#0A0912" transform="translate(214,225)"/>
<path d="M0 0 C0.66 0.33 1.32 0.66 2 1 C0.53044231 4.16353059 -1.26471625 6.86782437 -3.3125 9.6875 C-8.32087062 16.77835321 -12.16494553 23.79326338 -15 32 C-15.33 32 -15.66 32 -16 32 C-17.20345348 21.40960939 -10.93729108 12.32827013 -4.8671875 4.1796875 C-3 2 -3 2 0 0 Z " fill="#C5683C" transform="translate(178,185)"/>
<path d="M0 0 C0.66 0 1.32 0 2 0 C2.23332031 0.58265625 2.46664062 1.1653125 2.70703125 1.765625 C9.48765262 17.00405325 22.87714625 26.95085788 37 35 C34 36 34 36 32.27001953 35.27490234 C31.64724121 34.88254395 31.02446289 34.49018555 30.3828125 34.0859375 C29.69316406 33.65410156 29.00351563 33.22226562 28.29296875 32.77734375 C27.57753906 32.31457031 26.86210937 31.85179687 26.125 31.375 C25.41730469 30.93542969 24.70960938 30.49585938 23.98046875 30.04296875 C19.81647184 27.39879194 16.36474685 24.64754719 13 21 C12.23558594 20.19820313 11.47117188 19.39640625 10.68359375 18.5703125 C0 6.93913043 0 6.93913043 0 0 Z " fill="#964A26" transform="translate(168,287)"/>
<path d="M0 0 C0.33 0 0.66 0 1 0 C0.9278125 0.92039063 0.855625 1.84078125 0.78125 2.7890625 C-0.30512435 17.60600153 0.05945911 32.186481 1 47 C0.34 47 -0.32 47 -1 47 C-2.62125526 39.42921806 -3.31263189 32.23503836 -3.25 24.5 C-3.25773438 23.54480469 -3.26546875 22.58960938 -3.2734375 21.60546875 C-3.25438831 14.56679263 -3.2079841 6.41596821 0 0 Z " fill="#030204" transform="translate(157,220)"/>
<path d="M0 0 C0.33 0 0.66 0 1 0 C1 1.98 1 3.96 1 6 C-6.26 6 -13.52 6 -21 6 C-21.33 6.66 -21.66 7.32 -22 8 C-22 7.34 -22 6.68 -22 6 C-27.94 6 -33.88 6 -40 6 C-40 5.01 -40 4.02 -40 3 C-36.52085059 2.97112186 -33.04173169 2.95324313 -29.5625 2.9375 C-28.07266602 2.92493164 -28.07266602 2.92493164 -26.55273438 2.91210938 C-25.60849609 2.90888672 -24.66425781 2.90566406 -23.69140625 2.90234375 C-22.37958374 2.89448853 -22.37958374 2.89448853 -21.04125977 2.88647461 C-19 3 -19 3 -18 4 C-15.47403741 4.23653523 -12.96892793 4.42173692 -10.4375 4.5625 C-9.37112305 4.62727539 -9.37112305 4.62727539 -8.28320312 4.69335938 C-6.52238088 4.79971777 -4.7612168 4.90038846 -3 5 C-3 4.34 -3 3.68 -3 3 C-2.01 3 -1.02 3 0 3 C0 2.01 0 1.02 0 0 Z " fill="#191D43" transform="translate(329,238)"/>
<path d="M0 0 C0.66 0 1.32 0 2 0 C2.09796875 0.82242188 2.1959375 1.64484375 2.296875 2.4921875 C4.18515532 16.58917679 8.66613258 26.1886315 19 36 C17.515 36.495 17.515 36.495 16 37 C9.92875271 31.60668355 6.17302708 26.45266148 3 19 C2.60683594 18.14921875 2.21367187 17.2984375 1.80859375 16.421875 C-0.56912919 11.0202187 -1.53633753 6.8997128 -1 1 C-0.67 0.67 -0.34 0.34 0 0 Z " fill="#B2664E" transform="translate(215,252)"/>
<path d="M0 0 C0 0.66 0 1.32 0 2 C0.66 2 1.32 2 2 2 C2 2.99 2 3.98 2 5 C0.75108386 5.48198463 -0.49918808 5.96045677 -1.75 6.4375 C-2.79414063 6.83775391 -2.79414063 6.83775391 -3.859375 7.24609375 C-7.60568931 8.56550737 -10.76773756 9.12106268 -14.75 9.0625 C-15.54921875 9.05347656 -16.3484375 9.04445313 -17.171875 9.03515625 C-17.77515625 9.02355469 -18.3784375 9.01195312 -19 9 C-19 8.67 -19 8.34 -19 8 C-15.04 7.34 -11.08 6.68 -7 6 C-12.28 6 -17.56 6 -23 6 C-23 5.67 -23 5.34 -23 5 C-22.154375 4.89042969 -21.30875 4.78085937 -20.4375 4.66796875 C-13.95349603 3.76168183 -6.22669062 0 0 0 Z " fill="#1D1218" transform="translate(280,329)"/>
<path d="M0 0 C0 0.66 0 1.32 0 2 C-1.155 2.515625 -2.31 3.03125 -3.5 3.5625 C-13.0476122 8.38709127 -17.72712627 14.63595355 -21.25 24.5 C-21.62125 25.7375 -21.62125 25.7375 -22 27 C-22.66 27 -23.32 27 -24 27 C-23.18062648 18.99020577 -20.7552247 13.67135986 -15 8 C-4.9587242 0 -4.9587242 0 0 0 Z " fill="#9D4C1A" transform="translate(263,208)"/>
<path d="M0 0 C3.70317711 0.79353795 6.67622536 2.29674472 10 4.0625 C11.99905276 4.99955598 13.84771987 5.53307972 16 6 C17.33333333 6.33333333 18.66666667 6.66666667 20 7 C20 8.32 20 9.64 20 11 C12.74519563 10.96641294 8.22592059 9.04857034 3 4 C1.97081167 2.68906554 0.96229723 1.36079455 0 0 Z " fill="#222042" transform="translate(249,263)"/>
<path d="M0 0 C13.2 0 26.4 0 40 0 C39.01 0.33 38.02 0.66 37 1 C37 1.66 37 2.32 37 3 C34.52076199 3.02685095 32.0418116 3.04676547 29.5625 3.0625 C28.85544922 3.07087891 28.14839844 3.07925781 27.41992188 3.08789062 C25.61306441 3.09653588 23.80612397 3.05220011 22 3 C21.67 2.67 21.34 2.34 21 2 C19.44051458 1.84313751 17.87457332 1.74923361 16.30859375 1.68359375 C15.36435547 1.64169922 14.42011719 1.59980469 13.44726562 1.55664062 C12.45404297 1.51732422 11.46082031 1.47800781 10.4375 1.4375 C9.44041016 1.39431641 8.44332031 1.35113281 7.41601562 1.30664062 C4.9441585 1.20019702 2.4721969 1.09818072 0 1 C0 0.67 0 0.34 0 0 Z " fill="#6F4D5F" transform="translate(289,240)"/>
<path d="M0 0 C0.33 0 0.66 0 1 0 C1 13.2 1 26.4 1 40 C-0.98 40 -2.96 40 -5 40 C-5 38.35 -5 36.7 -5 35 C-4.67 35.99 -4.34 36.98 -4 38 C-3.34 38 -2.68 38 -2 38 C-0.95368771 29.98999579 -0.68011614 22.00746949 -0.4375 13.9375 C-0.39420372 12.58136984 -0.35058634 11.22524989 -0.30664062 9.86914062 C-0.2012789 6.57951329 -0.09915048 3.28981941 0 0 Z " fill="#11142E" transform="translate(276,256)"/>
<path d="M0 0 C0.66 0 1.32 0 2 0 C3.296875 1.72265625 3.296875 1.72265625 4.75 4.0625 C10.18434301 12.41698395 16.20159697 19.73386566 26 23 C26 23.66 26 24.32 26 25 C16.25818518 23.85390414 9.18462821 15.01409794 3.24609375 7.8984375 C0 3.55181624 0 3.55181624 0 0 Z " fill="#A14E1F" transform="translate(174,290)"/>
<path d="M0 0 C9.19559878 0.89713159 15.76983125 6.56576021 22 13 C23.77722223 15.33869452 24.82229112 17.26985669 26 20 C25.67 20.99 25.34 21.98 25 23 C24.5875 22.35933594 24.175 21.71867187 23.75 21.05859375 C17.28250494 11.37178753 10.63862467 5.73069991 0 1 C0 0.67 0 0.34 0 0 Z " fill="#AD5B32" transform="translate(281,208)"/>
<path d="M0 0 C0 0.66 0 1.32 0 2 C-0.96099609 2.32871094 -0.96099609 2.32871094 -1.94140625 2.6640625 C-12.18773202 6.42053961 -17.2669746 11.18497036 -22 21 C-22.66 21 -23.32 21 -24 21 C-22.05247146 13.20988583 -17.31707506 7.31714492 -10.6640625 2.96484375 C-6.8591394 0.75870289 -4.4394209 0 0 0 Z " fill="#9D4B17" transform="translate(269,212)"/>
<path d="M0 0 C1.32 0 2.64 0 4 0 C0.6230315 11.20866142 0.6230315 11.20866142 -4.5625 14.75 C-7 16 -7 16 -9 16 C-7.91611365 13.56125571 -6.78814964 11.74714634 -5.0625 9.6875 C-2.65896601 6.55562237 -1.43678607 3.66380448 0 0 Z " fill="#423D71" transform="translate(303,246)"/>
<path d="M0 0 C0.66 0.33 1.32 0.66 2 1 C0.62950316 5.11149052 -2.2362285 6.49406175 -5.6875 8.8125 C-10.65841918 12.16303543 -14.86237481 15.64627764 -19 20 C-19.66 19.67 -20.32 19.34 -21 19 C-14.88943417 11.35717748 -7.8414209 5.72567166 0 0 Z " fill="#7A6695" transform="translate(202,163)"/>
<path d="M0 0 C1.98 0 3.96 0 6 0 C6 0.99 6 1.98 6 3 C4.68 3 3.36 3 2 3 C1.67 14.22 1.34 25.44 1 37 C1.66 37.33 2.32 37.66 3 38 C2.67 38.66 2.34 39.32 2 40 C1.34 40 0.68 40 0 40 C0 26.8 0 13.6 0 0 Z " fill="#5D5483" transform="translate(271,185)"/>
<path d="M0 0 C6.13475314 2.62917992 11.24499965 9.00382277 14 15 C14.1875 17.8125 14.1875 17.8125 14 20 C12.68 20 11.36 20 10 20 C9.86464844 19.20335937 9.72929687 18.40671875 9.58984375 17.5859375 C8.24629885 10.97280033 7.10890227 6.96881522 1.42578125 3.0859375 C0.95527344 2.72757813 0.48476563 2.36921875 0 2 C0 1.34 0 0.68 0 0 Z " fill="#484682" transform="translate(293,216)"/>
<path d="M0 0 C0 0.66 0 1.32 0 2 C-1.55898938 3.08857866 -3.17600644 4.09433668 -4.8125 5.0625 C-11.01767192 8.88230713 -16.4595294 13.27398929 -22 18 C-22.66 17.67 -23.32 17.34 -24 17 C-18.98829539 11.52209031 -8.00467847 0 0 0 Z " fill="#BD6B4D" transform="translate(207,165)"/>
<path d="M0 0 C2.66694948 -0.05455124 5.33275498 -0.09393392 8 -0.125 C8.74378906 -0.14175781 9.48757813 -0.15851563 10.25390625 -0.17578125 C15.50830006 -0.22147163 19.97389918 0.42383242 25 2 C25.66 2.66 26.32 3.32 27 4 C20.07 3.67 13.14 3.34 6 3 C6 2.67 6 2.34 6 2 C3.03 1.505 3.03 1.505 0 1 C0 0.67 0 0.34 0 0 Z " fill="#0A0A13" transform="translate(278,162)"/>
<path d="M0 0 C1.58919862 2.06358627 3.08124658 4.12865837 4.47265625 6.33203125 C8.69475397 12.91933359 13.3351645 16.9501402 20 21 C19.01 21.33 18.02 21.66 17 22 C10.1046444 18.00726076 3.07799726 11.48740729 0 4 C0 2.68 0 1.36 0 0 Z " fill="#A85325" transform="translate(245,248)"/>
<path d="M0 0 C0.66 0.33 1.32 0.66 2 1 C-2.74376904 5.49409698 -9.18963643 10 -16 10 C-16 8.35 -16 6.7 -16 5 C-15.67 5.66 -15.34 6.32 -15 7 C-13.24956851 6.20928784 -11.49967222 5.41739082 -9.75 4.625 C-8.77546875 4.18414062 -7.8009375 3.74328125 -6.796875 3.2890625 C-5.0940009 2.50421829 -3.40928902 1.67572859 -1.765625 0.7734375 C-1.18296875 0.51820313 -0.6003125 0.26296875 0 0 Z " fill="#1C1B3F" transform="translate(294,265)"/>
<path d="M0 0 C0.66 0 1.32 0 2 0 C1.39192397 4.02209323 0.11371789 7.11302478 -1.8125 10.6875 C-2.31394531 11.64011719 -2.81539063 12.59273438 -3.33203125 13.57421875 C-5.06527417 16.09493035 -6.17393495 16.95171991 -9 18 C-6 12 -3 6 0 0 Z " fill="#9A4F2D" transform="translate(308,244)"/>
<path d="M0 0 C0 0.66 0 1.32 0 2 C-5.65614471 6.3696036 -10.87917647 8.7362658 -18 9 C-18.33 8.34 -18.66 7.68 -19 7 C-18.02160156 6.74476563 -18.02160156 6.74476563 -17.0234375 6.484375 C-10.98815857 4.83073561 -10.98815857 4.83073561 -5.5625 1.8125 C-3 0 -3 0 0 0 Z " fill="#984A1D" transform="translate(289,330)"/>
<path d="M0 0 C6.27 0.33 12.54 0.66 19 1 C19 1.66 19 2.32 19 3 C17.68 3 16.36 3 15 3 C14.34 5.31 13.68 7.62 13 10 C12.34 10 11.68 10 11 10 C11.66 7.36 12.32 4.72 13 2 C8.71 2 4.42 2 0 2 C0 1.34 0 0.68 0 0 Z " fill="#040408" transform="translate(288,243)"/>
<path d="M0 0 C2.61857005 1.30928503 2.66420076 2.36302734 3.6875 5.0625 C5.87713828 10.25768739 9.10484658 13.98449072 13 18 C9.37994029 18 8.98188458 17.41394185 6.5 14.9375 C2.14301357 10.38707443 0 6.44851018 0 0 Z " fill="#B35E38" transform="translate(213,267)"/>
<path d="M0 0 C3.09010211 1.35108361 4.96910153 2.79017933 7.125 5.375 C7.62257813 5.96023437 8.12015625 6.54546875 8.6328125 7.1484375 C10.87621178 10.1866411 12 12.17755971 12 16 C9 15 9 15 7.75390625 12.8203125 C6.96198699 11.02875746 6.17031881 9.23709143 5.37890625 7.4453125 C3.89395755 4.81194739 2.43013548 3.72328078 0 2 C0 1.34 0 0.68 0 0 Z " fill="#A54D11" transform="translate(290,218)"/>
<path d="M0 0 C-1 3 -1 3 -2.86328125 3.94921875 C-9.67968315 6.00392363 -15.90606989 6.32909985 -23 6 C-23 5.67 -23 5.34 -23 5 C-22.154375 4.89042969 -21.30875 4.78085937 -20.4375 4.66796875 C-13.95349603 3.76168183 -6.22669062 0 0 0 Z " fill="#A55125" transform="translate(280,329)"/>
<path d="M0 0 C4.15050444 3.90635712 8.02455804 8.11250427 11 13 C11 13.99 11 14.98 11 16 C6.19285847 13.59642924 2.34631362 7.69262724 0 3 C0 2.01 0 1.02 0 0 Z " fill="#63517B" transform="translate(216,271)"/>
<path d="M0 0 C9.24 0 18.48 0 28 0 C28 0.33 28 0.66 28 1 C19.75 1 11.5 1 3 1 C3 1.66 3 2.32 3 3 C2.01 3 1.02 3 0 3 C0 2.01 0 1.02 0 0 Z " fill="#3B3666" transform="translate(218,240)"/>
<path d="M0 0 C4.11526292 0.64173654 7.30388435 2.86986158 10.75 5.0625 C11.35199219 5.43955078 11.95398438 5.81660156 12.57421875 6.20507812 C14.05249143 7.13193163 15.52666089 8.06532389 17 9 C16.01 9.33 15.02 9.66 14 10 C11.67019563 8.81162371 9.56160782 7.59829172 7.375 6.1875 C6.776875 5.81818359 6.17875 5.44886719 5.5625 5.06835938 C1.14130238 2.28260477 1.14130238 2.28260477 0 0 Z " fill="#A54F1D" transform="translate(188,313)"/>
<path d="M0 0 C4.52615993 3.67832017 8.39424999 7.41086363 12 12 C8.49397258 11.41953188 6.79150498 10.19876969 4.3125 7.6875 C3.71050781 7.09324219 3.10851562 6.49898438 2.48828125 5.88671875 C0.91421835 3.89125318 0.41108176 2.48293385 0 0 Z " fill="#B56546" transform="translate(222,277)"/>
<path d="M0 0 C0.66 0 1.32 0 2 0 C1.67 2.97 1.34 5.94 1 9 C-0.32 9 -1.64 9 -3 9 C-2.25 2.25 -2.25 2.25 0 0 Z " fill="#31336C" transform="translate(244,227)"/>
<path d="M0 0 C1.01320312 0.52400391 1.01320312 0.52400391 2.046875 1.05859375 C2.93890625 1.51363281 3.8309375 1.96867187 4.75 2.4375 C5.63171875 2.88996094 6.5134375 3.34242188 7.421875 3.80859375 C9.64198566 4.83455398 11.61444619 5.51508603 14 6 C14 6.66 14 7.32 14 8 C8.49897163 7.58742287 4.23798336 5.45277325 0 2 C0 1.34 0 0.68 0 0 Z " fill="#984710" transform="translate(254,269)"/>
<path d="M0 0 C0.33 0 0.66 0 1 0 C1 1.65 1 3.3 1 5 C-3.95 5 -8.9 5 -14 5 C-14 4.67 -14 4.34 -14 4 C-11.03 4 -8.06 4 -5 4 C-5 3.34 -5 2.68 -5 2 C-3.35 2 -1.7 2 0 2 C0 1.34 0 0.68 0 0 Z " fill="#2C2B5B" transform="translate(258,238)"/>
<path d="M0 0 C3.43956966 1.67944872 6.26511443 3.26511443 9 6 C9.8125 9.75 9.8125 9.75 10 13 C6.54898478 8.75259665 3.26720791 4.38894929 0 0 Z " fill="#302947" transform="translate(292,218)"/>
<path d="M0 0 C0.33 0 0.66 0 1 0 C1 3.63 1 7.26 1 11 C-0.65 11 -2.3 11 -4 11 C-4 9.35 -4 7.7 -4 6 C-3.67 6.99 -3.34 7.98 -3 9 C-2.34 9 -1.68 9 -1 9 C-0.67 6.03 -0.34 3.06 0 0 Z " fill="#22234F" transform="translate(275,285)"/>
<path d="M0 0 C3 1 3 1 4.09765625 2.70703125 C4.41605469 3.40183594 4.73445312 4.09664062 5.0625 4.8125 C5.38347656 5.49957031 5.70445312 6.18664062 6.03515625 6.89453125 C6.35355469 7.58933594 6.67195312 8.28414063 7 9 C7.66204909 10.33563214 8.32736102 11.66966958 9 13 C8.34 13 7.68 13 7 13 C5.52734375 11.171875 5.52734375 11.171875 3.9375 8.75 C3.41027344 7.96109375 2.88304687 7.1721875 2.33984375 6.359375 C1.10569236 4.18611716 0.45326945 2.43982072 0 0 Z " fill="#9F4A13" transform="translate(239,250)"/>
<path d="M0 0 C0 1.65 0 3.3 0 5 C-1.65 5.33 -3.3 5.66 -5 6 C-5.33 4.35 -5.66 2.7 -6 1 C-3.92446352 0.4465236 -2.15634036 0 0 0 Z " fill="#282E65" transform="translate(269,207)"/>
<path d="M0 0 C1.98 0 3.96 0 6 0 C6 0.99 6 1.98 6 3 C4.68 3 3.36 3 2 3 C1.67 5.31 1.34 7.62 1 10 C0.67 10 0.34 10 0 10 C0 6.7 0 3.4 0 0 Z " fill="#51508B" transform="translate(271,185)"/>
<path d="M0 0 C1.52453435 2.94017338 2.95157395 5.85472185 4 9 C3.67 9.99 3.34 10.98 3 12 C2.67 11.01 2.34 10.02 2 9 C1.34 9 0.68 9 0 9 C-1.125 3.375 -1.125 3.375 0 0 Z " fill="#48406F" transform="translate(215,262)"/>
<path d="M0 0 C0.66 0 1.32 0 2 0 C2.125 6.75 2.125 6.75 1 9 C0.34 9 -0.32 9 -1 9 C-1.09765625 2.84765625 -1.09765625 2.84765625 -1 1 C-0.67 0.67 -0.34 0.34 0 0 Z " fill="#94584E" transform="translate(215,252)"/>
<path d="M0 0 C-3.63 1.98 -7.26 3.96 -11 6 C-11 5.01 -11 4.02 -11 3 C-9.73581754 2.30034557 -8.46334598 1.61565237 -7.1875 0.9375 C-6.47980469 0.55464844 -5.77210938 0.17179688 -5.04296875 -0.22265625 C-3 -1 -3 -1 0 0 Z " fill="#B4613B" transform="translate(214,157)"/>
<path d="M0 0 C1.32 0.33 2.64 0.66 4 1 C4 2.32 4 3.64 4 5 C1.69 4.67 -0.62 4.34 -3 4 C-2.67 3.34 -2.34 2.68 -2 2 C-1.34 2 -0.68 2 0 2 C0 1.34 0 0.68 0 0 Z " fill="#161B42" transform="translate(265,269)"/>
<path d="M0 0 C0 0.66 0 1.32 0 2 C-3.82989106 3.80230168 -6.78121808 4.19622241 -11 4 C-7.63661956 0.63661956 -4.71164284 0 0 0 Z " fill="#914514" transform="translate(269,212)"/>
<path d="M0 0 C5.29441695 -0.50423019 7.81413519 0.81076967 12 4 C10.3125 4.6875 10.3125 4.6875 8 5 C5.4375 3.6875 5.4375 3.6875 3 2 C2.01 1.34 1.02 0.68 0 0 Z " fill="#5D5A91" transform="translate(293,159)"/>
<path d="M0 0 C0.66 0.33 1.32 0.66 2 1 C-1.28804981 3.91227269 -3.59885603 5.49701212 -8 6 C-8 5.34 -8 4.68 -8 4 C-6.71349294 3.30289269 -5.42059335 2.61757124 -4.125 1.9375 C-3.40570313 1.55464844 -2.68640625 1.17179687 -1.9453125 0.77734375 C-1.30335938 0.52082031 -0.66140625 0.26429688 0 0 Z " fill="#A2522A" transform="translate(287,266)"/>
<path d="M0 0 C0.33 0 0.66 0 1 0 C1 1.98 1 3.96 1 6 C-2.3 6 -5.6 6 -9 6 C-9 5.67 -9 5.34 -9 5 C-7.02 5 -5.04 5 -3 5 C-3 4.34 -3 3.68 -3 3 C-2.01 3 -1.02 3 0 3 C0 2.01 0 1.02 0 0 Z " fill="#11142F" transform="translate(329,238)"/>
<path d="M0 0 C1.65 0 3.3 0 5 0 C5 1.65 5 3.3 5 5 C3.68 5 2.36 5 1 5 C0.67 3.35 0.34 1.7 0 0 Z " fill="#2A2E66" transform="translate(302,231)"/>
<path d="M0 0 C1.11375 0.598125 2.2275 1.19625 3.375 1.8125 C4.00148438 2.14894531 4.62796875 2.48539063 5.2734375 2.83203125 C7 4 7 4 9 7 C5.00544473 6.38545304 2.25533664 4.29353263 -1 2 C-0.67 1.34 -0.34 0.68 0 0 Z " fill="#A04C17" transform="translate(300,158)"/>
<path d="M0 0 C0.66 0 1.32 0 2 0 C0.63055898 2.94956528 -0.87830409 5.52468811 -3 8 C-3.66 8 -4.32 8 -5 8 C-3.63055898 5.05043472 -2.12169591 2.47531189 0 0 Z " fill="#9E4E25" transform="translate(299,254)"/>
<path d="M0 0 C0.66 0 1.32 0 2 0 C1.46930939 3.82097239 0.50298434 6.06171403 -2 9 C-1.125 2.25 -1.125 2.25 0 0 Z " fill="#934511" transform="translate(308,244)"/>
<path d="M0 0 C1.32 0.33 2.64 0.66 4 1 C4 3 4 3 3 6 C2.01 5.67 1.02 5.34 0 5 C0 3.35 0 1.7 0 0 Z " fill="#352F57" transform="translate(279,207)"/>
<path d="M0 0 C3.45925163 1.2491742 6.14693203 2.67527795 9 5 C6.75 5.3125 6.75 5.3125 4 5 C1.6875 2.5 1.6875 2.5 0 0 Z " fill="#262042" transform="translate(190,316)"/>
<path d="M0 0 C1.32 0 2.64 0 4 0 C2.75453595 3.73639216 1.36595047 4.18756513 -2 6 C-1.34 4.02 -0.68 2.04 0 0 Z " fill="#1F214C" transform="translate(303,246)"/>
<path d="M0 0 C0.66 0 1.32 0 2 0 C3.4606285 2.64738916 4 3.89448334 4 7 C3.01 6.67 2.02 6.34 1 6 C0.67 4.02 0.34 2.04 0 0 Z " fill="#914411" transform="translate(298,227)"/>
<path d="M0 0 C4.95 0 9.9 0 15 0 C15 0.33 15 0.66 15 1 C10.05 1 5.1 1 0 1 C0 0.67 0 0.34 0 0 Z " fill="#000000" transform="translate(225,454)"/>
<path d="M0 0 C3 1 3 1 3 1 Z " fill="#000000" transform="translate(301,452)"/>
<path d="M0 0 C2 1 2 1 2 1 Z " fill="#000000" transform="translate(131,457)"/>
<path d="M0 0 C2 1 2 1 2 1 Z " fill="#000000" transform="translate(438,358)"/>
<path d="" fill="#000000" transform="translate(0,0)"/>
<path d="" fill="#000000" transform="translate(0,0)"/>
<path d="" fill="#000000" transform="translate(0,0)"/>
</svg>
