<?xml version="1.0" encoding="UTF-8"?>
<svg version="1.1" xmlns="http://www.w3.org/2000/svg" width="512" height="512">
<path d="M0 0 C1.98 0 3.96 0 6 0 C6 0.33 6 0.66 6 1 C9.62498334 1.02893932 13.24993713 1.04677792 16.875 1.0625 C17.90753906 1.07087891 18.94007813 1.07925781 20.00390625 1.08789062 C20.99003906 1.09111328 21.97617187 1.09433594 22.9921875 1.09765625 C23.90339355 1.10289307 24.81459961 1.10812988 25.75341797 1.11352539 C28.03687509 1.14885565 28.03687509 1.14885565 30 0 C38.04871493 -0.47182122 46.20344263 0.08794308 54.25 0.4375 C55.17200195 0.47665527 56.09400391 0.51581055 57.04394531 0.55615234 C73.31818623 1.31818623 73.31818623 1.31818623 75 3 C75.09358059 4.38112406 75.11651438 5.76708442 75.11180115 7.15136719 C75.11069619 8.0666217 75.10959124 8.98187622 75.1084528 9.92486572 C75.09815367 11.47026031 75.09815367 11.47026031 75.08764648 13.046875 C75.08378402 14.14819763 75.07992155 15.24952026 75.07594204 16.38421631 C75.05857327 20.25622039 75.03130534 24.12808932 75 28 C74.99431834 28.70796722 74.98863667 29.41593445 74.98278284 30.14535522 C74.88634471 41.90007694 74.75953078 53.65445873 74.62907338 65.40884399 C74.58635632 69.27189031 74.54449172 73.13494571 74.50260442 76.9980011 C74.40313065 86.16990532 74.30224529 95.34179326 74.20043945 104.51367188 C74.10869958 112.78058247 74.01854447 121.04750842 73.92993164 129.31445312 C73.88626324 133.38151077 73.8425571 137.44856801 73.79882812 141.515625 C73.7880803 142.51639383 73.77733247 143.51716267 73.76625896 144.54825783 C73.64892155 155.44592311 73.52701355 166.34350496 73.39199829 177.2409668 C73.38021203 178.19408469 73.36842577 179.14720259 73.35628235 180.12920284 C73.3095747 183.90031367 73.26281928 187.67142374 73.21541333 191.44252586 C73.07930684 202.31094365 72.97063524 213.17876798 72.91176319 224.04788208 C72.8816617 229.48796652 72.82979537 234.92777653 72.77575493 240.36767578 C72.75622297 242.80072622 72.74533569 245.23386386 72.74376106 247.66699219 C72.74114463 250.91534356 72.70921656 254.16207855 72.66967773 257.41015625 C72.68064012 258.80591637 72.68064012 258.80591637 72.69182396 260.22987366 C72.57300766 266.40315017 72.57300766 266.40315017 69.58258057 269.51800537 C68.73032898 270.0070636 67.87807739 270.49612183 67 271 C66.34298096 271.42958008 65.68596191 271.85916016 65.0090332 272.30175781 C64.36281006 272.68170898 63.71658691 273.06166016 63.05078125 273.453125 C62.29885498 273.89897949 61.54692871 274.34483398 60.7722168 274.80419922 C59.96051025 275.28131348 59.14880371 275.75842773 58.3125 276.25 C50.22492905 281.05215975 42.19123233 285.93438777 34.1875 290.875 C25.87038042 296.00622954 17.54079856 301.115372 9.1875 306.1875 C1.93705735 310.59121536 -5.29267436 315.02606717 -12.5 319.5 C-19.70732869 323.97393473 -26.93723317 328.40849176 -34.1875 332.8125 C-42.65774698 337.95983179 -51.11732579 343.12415197 -59.5625 348.3125 C-60.66118408 348.98716309 -61.75986816 349.66182617 -62.8918457 350.35693359 C-69.82409814 354.62593293 -76.68833493 358.97816773 -83.4609375 363.49609375 C-87.22978334 365.72841013 -87.22978334 365.72841013 -90 366 C-92.61181641 364.80688477 -92.61181641 364.80688477 -95.6015625 362.94140625 C-96.71829346 362.25344971 -97.83502441 361.56549316 -98.9855957 360.85668945 C-100.19884479 360.09214101 -101.4119765 359.3274063 -102.625 358.5625 C-103.88361641 357.78159853 -105.14298646 357.00191054 -106.40307617 356.22338867 C-109.00143341 354.61559989 -111.59544762 353.0011367 -114.18603516 351.38085938 C-118.80631297 348.49269354 -123.44882671 345.64142839 -128.09204102 342.7902832 C-131.31611714 340.81027861 -134.5371486 338.82539273 -137.7578125 336.83984375 C-148.44131923 330.26066966 -159.16958493 323.75479397 -169.89404297 317.24267578 C-180.9806536 310.5097283 -192.04910687 303.75075943 -203.06665039 296.90527344 C-207.69811952 294.03132243 -212.34172864 291.1793779 -217.00390625 288.35546875 C-218.01453125 287.74316406 -219.02515625 287.13085938 -220.06640625 286.5 C-221.98813303 285.33744299 -223.9111946 284.1770879 -225.8359375 283.01953125 C-227.58473013 281.96165091 -229.32197603 280.88434383 -231.04464722 279.78443909 C-233.9686938 277.94662606 -233.9686938 277.94662606 -237.11624146 276.55015564 C-240.69982514 274.68406385 -243.24483491 272.97230625 -246 270 C-247.71252633 264.01389975 -247.42421272 258.23151048 -247.20703125 252.0546875 C-247.18749449 250.24125981 -247.17332715 248.42776746 -247.16413879 246.61425781 C-247.12453123 241.72050783 -247.0111395 236.83096544 -246.88428497 231.93880463 C-246.76329792 226.77504024 -246.71096219 221.61057853 -246.65185547 216.44580078 C-246.54723292 207.9981472 -246.4043259 199.55200078 -246.23193359 191.10546875 C-246.01316449 180.32049446 -245.88592262 169.53675256 -245.80078125 158.75 C-245.51067754 124.24518862 -244.81726491 89.74689922 -244.06517792 55.2494278 C-244.00051858 52.27386446 -243.93687806 49.29828059 -243.87335205 46.32269287 C-243.77310465 41.65381517 -243.66830771 36.98506003 -243.55992508 32.31636429 C-243.52056049 30.59973607 -243.48243346 28.88307895 -243.44565964 27.16639328 C-243.26369926 18.73584191 -243.00908027 10.38167299 -242 2 C-230.5346554 0.65804054 -219.04871296 0.86632579 -207.52441406 0.88647461 C-205.25666302 0.88675703 -202.98891188 0.88659767 -200.72116089 0.8860321 C-194.59395965 0.88574629 -188.46677816 0.89160815 -182.33958149 0.89860606 C-175.92542433 0.90487552 -169.51126668 0.90544624 -163.09710693 0.90663147 C-152.34077551 0.90938214 -141.58445268 0.91561987 -130.828125 0.92456055 C-119.75455765 0.93375528 -108.68099227 0.94082601 -97.60742188 0.94506836 C-96.58163742 0.94546244 -96.58163742 0.94546244 -95.53513005 0.94586449 C-92.10404129 0.94716963 -88.67295251 0.94843332 -85.24186373 0.94967639 C-56.8279042 0.96002426 -28.41395249 0.97769578 0 1 C0 0.67 0 0.34 0 0 Z " fill="#110C09" transform="translate(347,93)"/>
<path d="M0 0 C1.98 0 3.96 0 6 0 C6 0.33 6 0.66 6 1 C9.62498334 1.02893932 13.24993713 1.04677792 16.875 1.0625 C17.90753906 1.07087891 18.94007813 1.07925781 20.00390625 1.08789062 C20.99003906 1.09111328 21.97617187 1.09433594 22.9921875 1.09765625 C23.90339355 1.10289307 24.81459961 1.10812988 25.75341797 1.11352539 C28.03687509 1.14885565 28.03687509 1.14885565 30 0 C38.04871493 -0.47182122 46.20344263 0.08794308 54.25 0.4375 C55.17200195 0.47665527 56.09400391 0.51581055 57.04394531 0.55615234 C73.31818623 1.31818623 73.31818623 1.31818623 75 3 C75.09358059 4.38112406 75.11651438 5.76708442 75.11180115 7.15136719 C75.11069619 8.0666217 75.10959124 8.98187622 75.1084528 9.92486572 C75.09815367 11.47026031 75.09815367 11.47026031 75.08764648 13.046875 C75.08378402 14.14819763 75.07992155 15.24952026 75.07594204 16.38421631 C75.05857327 20.25622039 75.03130534 24.12808932 75 28 C74.99431834 28.70796722 74.98863667 29.41593445 74.98278284 30.14535522 C74.88634471 41.90007694 74.75953078 53.65445873 74.62907338 65.40884399 C74.58635632 69.27189031 74.54449172 73.13494571 74.50260442 76.9980011 C74.40313065 86.16990532 74.30224529 95.34179326 74.20043945 104.51367188 C74.10869958 112.78058247 74.01854447 121.04750842 73.92993164 129.31445312 C73.88626324 133.38151077 73.8425571 137.44856801 73.79882812 141.515625 C73.7880803 142.51639383 73.77733247 143.51716267 73.76625896 144.54825783 C73.64892155 155.44592311 73.52701355 166.34350496 73.39199829 177.2409668 C73.38021203 178.19408469 73.36842577 179.14720259 73.35628235 180.12920284 C73.3095747 183.90031367 73.26281928 187.67142374 73.21541333 191.44252586 C73.07930684 202.31094365 72.97063524 213.17876798 72.91176319 224.04788208 C72.8816617 229.48796652 72.82979537 234.92777653 72.77575493 240.36767578 C72.75622297 242.80072622 72.74533569 245.23386386 72.74376106 247.66699219 C72.74114463 250.91534356 72.70921656 254.16207855 72.66967773 257.41015625 C72.68064012 258.80591637 72.68064012 258.80591637 72.69182396 260.22987366 C72.57300766 266.40315017 72.57300766 266.40315017 69.58258057 269.51800537 C68.73032898 270.0070636 67.87807739 270.49612183 67 271 C66.34298096 271.42958008 65.68596191 271.85916016 65.0090332 272.30175781 C64.36281006 272.68170898 63.71658691 273.06166016 63.05078125 273.453125 C62.29885498 273.89897949 61.54692871 274.34483398 60.7722168 274.80419922 C59.96051025 275.28131348 59.14880371 275.75842773 58.3125 276.25 C50.22492905 281.05215975 42.19123233 285.93438777 34.1875 290.875 C25.87038042 296.00622954 17.54079856 301.115372 9.1875 306.1875 C1.93705735 310.59121536 -5.29267436 315.02606717 -12.5 319.5 C-19.70732869 323.97393473 -26.93723317 328.40849176 -34.1875 332.8125 C-42.65774698 337.95983179 -51.11732579 343.12415197 -59.5625 348.3125 C-60.66118408 348.98716309 -61.75986816 349.66182617 -62.8918457 350.35693359 C-69.82409814 354.62593293 -76.68833493 358.97816773 -83.4609375 363.49609375 C-87.22978334 365.72841013 -87.22978334 365.72841013 -90 366 C-92.61181641 364.80688477 -92.61181641 364.80688477 -95.6015625 362.94140625 C-96.71829346 362.25344971 -97.83502441 361.56549316 -98.9855957 360.85668945 C-100.19884479 360.09214101 -101.4119765 359.3274063 -102.625 358.5625 C-103.88361641 357.78159853 -105.14298646 357.00191054 -106.40307617 356.22338867 C-109.00143341 354.61559989 -111.59544762 353.0011367 -114.18603516 351.38085938 C-118.80631297 348.49269354 -123.44882671 345.64142839 -128.09204102 342.7902832 C-131.31611714 340.81027861 -134.5371486 338.82539273 -137.7578125 336.83984375 C-148.44131923 330.26066966 -159.16958493 323.75479397 -169.89404297 317.24267578 C-180.9806536 310.5097283 -192.04910687 303.75075943 -203.06665039 296.90527344 C-207.69811952 294.03132243 -212.34172864 291.1793779 -217.00390625 288.35546875 C-218.01453125 287.74316406 -219.02515625 287.13085938 -220.06640625 286.5 C-221.98813303 285.33744299 -223.9111946 284.1770879 -225.8359375 283.01953125 C-227.58473013 281.96165091 -229.32197603 280.88434383 -231.04464722 279.78443909 C-233.9686938 277.94662606 -233.9686938 277.94662606 -237.11624146 276.55015564 C-240.69982514 274.68406385 -243.24483491 272.97230625 -246 270 C-247.71252633 264.01389975 -247.42421272 258.23151048 -247.20703125 252.0546875 C-247.18749449 250.24125981 -247.17332715 248.42776746 -247.16413879 246.61425781 C-247.12453123 241.72050783 -247.0111395 236.83096544 -246.88428497 231.93880463 C-246.76329792 226.77504024 -246.71096219 221.61057853 -246.65185547 216.44580078 C-246.54723292 207.9981472 -246.4043259 199.55200078 -246.23193359 191.10546875 C-246.01316449 180.32049446 -245.88592262 169.53675256 -245.80078125 158.75 C-245.51067754 124.24518862 -244.81726491 89.74689922 -244.06517792 55.2494278 C-244.00051858 52.27386446 -243.93687806 49.29828059 -243.87335205 46.32269287 C-243.77310465 41.65381517 -243.66830771 36.98506003 -243.55992508 32.31636429 C-243.52056049 30.59973607 -243.48243346 28.88307895 -243.44565964 27.16639328 C-243.26369926 18.73584191 -243.00908027 10.38167299 -242 2 C-230.5346554 0.65804054 -219.04871296 0.86632579 -207.52441406 0.88647461 C-205.25666302 0.88675703 -202.98891188 0.88659767 -200.72116089 0.8860321 C-194.59395965 0.88574629 -188.46677816 0.89160815 -182.33958149 0.89860606 C-175.92542433 0.90487552 -169.51126668 0.90544624 -163.09710693 0.90663147 C-152.34077551 0.90938214 -141.58445268 0.91561987 -130.828125 0.92456055 C-119.75455765 0.93375528 -108.68099227 0.94082601 -97.60742188 0.94506836 C-96.58163742 0.94546244 -96.58163742 0.94546244 -95.53513005 0.94586449 C-92.10404129 0.94716963 -88.67295251 0.94843332 -85.24186373 0.94967639 C-56.8279042 0.96002426 -28.41395249 0.97769578 0 1 C0 0.67 0 0.34 0 0 Z M-234 93 C-234.1244413 94.99640141 -234.17808572 96.99722386 -234.20532227 98.99731445 C-234.22521713 100.30528488 -234.245112 101.61325531 -234.26560974 102.96086121 C-234.28269336 104.4283328 -234.29961995 105.89580623 -234.31640625 107.36328125 C-234.33753622 108.9047743 -234.35899318 110.4462629 -234.38075256 111.98774719 C-234.57569857 126.29854489 -234.70530991 140.61041248 -234.8269043 154.92199707 C-234.9248007 166.26008284 -235.06177157 177.59670617 -235.23798275 188.93384838 C-235.36739009 197.40747788 -235.46241595 205.88109938 -235.53388309 214.35541248 C-235.57842783 219.4996121 -235.63878619 224.64255168 -235.73635864 229.78604126 C-235.82799787 234.65076938 -235.8768253 239.5140845 -235.89340019 244.37962914 C-235.90702443 246.17440777 -235.93619959 247.96914513 -235.98198128 249.76339149 C-236.57968125 259.1045913 -236.57968125 259.1045913 -233.10290527 267.32980347 C-230.78703081 268.90537066 -228.60197462 269.98057421 -226 271 C-225.12504883 271.54640137 -224.25009766 272.09280273 -223.34863281 272.65576172 C-222.64061523 273.07615723 -221.93259766 273.49655273 -221.203125 273.9296875 C-219.99378296 274.65079712 -219.99378296 274.65079712 -218.76000977 275.38647461 C-217.93170654 275.87768799 -217.10340332 276.36890137 -216.25 276.875 C-214.4723432 277.93567344 -212.69499889 278.99687076 -210.91796875 280.05859375 C-210.0676709 280.56632324 -209.21737305 281.07405273 -208.34130859 281.59716797 C-203.19593762 284.68009827 -198.09748972 287.83870413 -193 291 C-177.11079736 300.8480657 -161.18395286 310.62988969 -145.21386719 320.34619141 C-127.85476024 330.90785522 -127.85476024 330.90785522 -119.87353516 335.84228516 C-118.42314235 336.73852736 -116.97218516 337.63385626 -115.52099609 338.52880859 C-112.70078174 340.26804891 -109.8815525 342.00887722 -107.0625 343.75 C-105.71067627 344.58349976 -105.71067627 344.58349976 -104.33154297 345.43383789 C-103.47061035 345.96614014 -102.60967773 346.49844238 -101.72265625 347.046875 C-100.90297363 347.55283203 -100.08329102 348.05878906 -99.23876953 348.58007812 C-97.31931573 349.79747652 -95.47068923 351.07138987 -93.62109375 352.390625 C-90.94450375 354.34883124 -90.94450375 354.34883124 -87 354 C-87 353.34 -87 352.68 -87 352 C-86.30648437 351.74734375 -85.61296875 351.4946875 -84.8984375 351.234375 C-81.60139928 349.83024552 -78.68729002 348.11400262 -75.625 346.25 C-74.9870752 345.86295898 -74.34915039 345.47591797 -73.69189453 345.07714844 C-72.25646473 344.20545718 -70.82212032 343.33197692 -69.38867188 342.45703125 C-66.80879288 340.88336835 -64.22494173 339.31636372 -61.640625 337.75 C-51.48703396 331.58983506 -41.36605116 325.38000086 -31.27807617 319.11303711 C-23.16719624 314.08379158 -15.00563055 309.1391648 -6.84268188 304.19515991 C0.39040176 299.81323125 7.60276556 295.40403996 14.75585938 290.89257812 C22.73865808 285.87698654 30.8223913 281.02364886 38.89257812 276.15039062 C50.55831371 269.87319206 50.55831371 269.87319206 61 262 C64.11175476 223.2406622 62.06321449 183.3562382 62.03004074 144.51511383 C62.0254657 138.56549653 62.0235464 132.61587834 62.0213623 126.66625977 C62.01674964 115.1108376 62.00934088 103.55541925 62 92 C24.4357667 91.977135 -13.12846556 91.95950247 -50.69270441 91.94893467 C-55.12269162 91.94768389 -59.55267882 91.94638958 -63.98266602 91.94506836 C-64.86463506 91.94480605 -65.74660411 91.94454374 -66.65529949 91.94427348 C-80.95534931 91.9399165 -95.25539512 91.93202879 -109.55544256 91.9228472 C-124.21735804 91.91351145 -138.87927141 91.90794456 -153.54118973 91.90591151 C-162.59587761 91.90453611 -171.65055419 91.90018466 -180.70523859 91.89208353 C-186.90568934 91.88681704 -193.10613421 91.88519548 -199.30658703 91.88649862 C-202.88941512 91.88714216 -206.47222338 91.88612279 -210.05504799 91.88079453 C-213.93017437 91.8750733 -217.8052745 91.8769989 -221.68040466 91.87974548 C-223.39778002 91.87537622 -223.39778002 91.87537622 -225.14984983 91.87091869 C-226.69423895 91.87390526 -226.69423895 91.87390526 -228.26982784 91.87695217 C-229.61346823 91.87638259 -229.61346823 91.87638259 -230.98425287 91.8758015 C-232.99724756 91.77648653 -232.99724756 91.77648653 -234 93 Z " fill="#F26E14" transform="translate(347,93)"/>
<path d="M0 0 C1.98 0 3.96 0 6 0 C6 0.33 6 0.66 6 1 C9.62498334 1.02893932 13.24993713 1.04677792 16.875 1.0625 C17.90753906 1.07087891 18.94007813 1.07925781 20.00390625 1.08789062 C20.99003906 1.09111328 21.97617187 1.09433594 22.9921875 1.09765625 C23.90339355 1.10289307 24.81459961 1.10812988 25.75341797 1.11352539 C28.03687509 1.14885565 28.03687509 1.14885565 30 0 C38.04871493 -0.47182122 46.20344263 0.08794308 54.25 0.4375 C55.17200195 0.47665527 56.09400391 0.51581055 57.04394531 0.55615234 C73.31818623 1.31818623 73.31818623 1.31818623 75 3 C75.09358059 4.38112406 75.11651438 5.76708442 75.11180115 7.15136719 C75.11069619 8.0666217 75.10959124 8.98187622 75.1084528 9.92486572 C75.09815367 11.47026031 75.09815367 11.47026031 75.08764648 13.046875 C75.08378402 14.14819763 75.07992155 15.24952026 75.07594204 16.38421631 C75.05857327 20.25622039 75.03130534 24.12808932 75 28 C74.99431834 28.70796722 74.98863667 29.41593445 74.98278284 30.14535522 C74.88634471 41.90007694 74.75953078 53.65445873 74.62907338 65.40884399 C74.58635632 69.27189031 74.54449172 73.13494571 74.50260442 76.9980011 C74.40313065 86.16990532 74.30224529 95.34179326 74.20043945 104.51367188 C74.10869958 112.78058247 74.01854447 121.04750842 73.92993164 129.31445312 C73.88626324 133.38151077 73.8425571 137.44856801 73.79882812 141.515625 C73.7880803 142.51639383 73.77733247 143.51716267 73.76625896 144.54825783 C73.64892155 155.44592311 73.52701355 166.34350496 73.39199829 177.2409668 C73.38021203 178.19408469 73.36842577 179.14720259 73.35628235 180.12920284 C73.3095747 183.90031367 73.26281928 187.67142374 73.21541333 191.44252586 C73.07930684 202.31094365 72.97063524 213.17876798 72.91176319 224.04788208 C72.8816617 229.48796652 72.82979537 234.92777653 72.77575493 240.36767578 C72.75622297 242.80072622 72.74533569 245.23386386 72.74376106 247.66699219 C72.74114463 250.91534356 72.70921656 254.16207855 72.66967773 257.41015625 C72.68064012 258.80591637 72.68064012 258.80591637 72.69182396 260.22987366 C72.57300766 266.40315017 72.57300766 266.40315017 69.58258057 269.51800537 C68.73032898 270.0070636 67.87807739 270.49612183 67 271 C66.34298096 271.42958008 65.68596191 271.85916016 65.0090332 272.30175781 C64.36281006 272.68170898 63.71658691 273.06166016 63.05078125 273.453125 C62.29885498 273.89897949 61.54692871 274.34483398 60.7722168 274.80419922 C59.96051025 275.28131348 59.14880371 275.75842773 58.3125 276.25 C50.22492905 281.05215975 42.19123233 285.93438777 34.1875 290.875 C25.87038042 296.00622954 17.54079856 301.115372 9.1875 306.1875 C1.93705735 310.59121536 -5.29267436 315.02606717 -12.5 319.5 C-19.70732869 323.97393473 -26.93723317 328.40849176 -34.1875 332.8125 C-42.65774698 337.95983179 -51.11732579 343.12415197 -59.5625 348.3125 C-60.66118408 348.98716309 -61.75986816 349.66182617 -62.8918457 350.35693359 C-69.82409814 354.62593293 -76.68833493 358.97816773 -83.4609375 363.49609375 C-87.22978334 365.72841013 -87.22978334 365.72841013 -90 366 C-92.61181641 364.80688477 -92.61181641 364.80688477 -95.6015625 362.94140625 C-96.71829346 362.25344971 -97.83502441 361.56549316 -98.9855957 360.85668945 C-100.19884479 360.09214101 -101.4119765 359.3274063 -102.625 358.5625 C-103.88361641 357.78159853 -105.14298646 357.00191054 -106.40307617 356.22338867 C-109.00143341 354.61559989 -111.59544762 353.0011367 -114.18603516 351.38085938 C-118.80631297 348.49269354 -123.44882671 345.64142839 -128.09204102 342.7902832 C-131.31611714 340.81027861 -134.5371486 338.82539273 -137.7578125 336.83984375 C-148.44131923 330.26066966 -159.16958493 323.75479397 -169.89404297 317.24267578 C-180.9806536 310.5097283 -192.04910687 303.75075943 -203.06665039 296.90527344 C-207.69811952 294.03132243 -212.34172864 291.1793779 -217.00390625 288.35546875 C-218.01453125 287.74316406 -219.02515625 287.13085938 -220.06640625 286.5 C-221.98813303 285.33744299 -223.9111946 284.1770879 -225.8359375 283.01953125 C-227.58473013 281.96165091 -229.32197603 280.88434383 -231.04464722 279.78443909 C-233.9686938 277.94662606 -233.9686938 277.94662606 -237.11624146 276.55015564 C-240.69982514 274.68406385 -243.24483491 272.97230625 -246 270 C-247.71252633 264.01389975 -247.42421272 258.23151048 -247.20703125 252.0546875 C-247.18749449 250.24125981 -247.17332715 248.42776746 -247.16413879 246.61425781 C-247.12453123 241.72050783 -247.0111395 236.83096544 -246.88428497 231.93880463 C-246.76329792 226.77504024 -246.71096219 221.61057853 -246.65185547 216.44580078 C-246.54723292 207.9981472 -246.4043259 199.55200078 -246.23193359 191.10546875 C-246.01316449 180.32049446 -245.88592262 169.53675256 -245.80078125 158.75 C-245.51067754 124.24518862 -244.81726491 89.74689922 -244.06517792 55.2494278 C-244.00051858 52.27386446 -243.93687806 49.29828059 -243.87335205 46.32269287 C-243.77310465 41.65381517 -243.66830771 36.98506003 -243.55992508 32.31636429 C-243.52056049 30.59973607 -243.48243346 28.88307895 -243.44565964 27.16639328 C-243.26369926 18.73584191 -243.00908027 10.38167299 -242 2 C-230.5346554 0.65804054 -219.04871296 0.86632579 -207.52441406 0.88647461 C-205.25666302 0.88675703 -202.98891188 0.88659767 -200.72116089 0.8860321 C-194.59395965 0.88574629 -188.46677816 0.89160815 -182.33958149 0.89860606 C-175.92542433 0.90487552 -169.51126668 0.90544624 -163.09710693 0.90663147 C-152.34077551 0.90938214 -141.58445268 0.91561987 -130.828125 0.92456055 C-119.75455765 0.93375528 -108.68099227 0.94082601 -97.60742188 0.94506836 C-96.58163742 0.94546244 -96.58163742 0.94546244 -95.53513005 0.94586449 C-92.10404129 0.94716963 -88.67295251 0.94843332 -85.24186373 0.94967639 C-56.8279042 0.96002426 -28.41395249 0.97769578 0 1 C0 0.67 0 0.34 0 0 Z M-237 7 C-237.84498253 33.71898515 -237.84498253 33.71898515 -238.38891602 60.44018555 C-238.41840748 62.35842206 -238.44811918 64.27665519 -238.47802734 66.19488525 C-238.55677595 71.2877165 -238.63237719 76.38058946 -238.70718122 81.47347999 C-238.78695871 86.87433781 -238.86939552 92.27515524 -238.95140076 97.67597961 C-239.08848717 106.73163228 -239.22347968 115.78731429 -239.35717773 124.84301758 C-239.51052819 135.22800973 -239.66729404 145.6129461 -239.82587105 155.99785966 C-239.98007454 166.1020008 -240.13176955 176.20617821 -240.2823925 186.31037331 C-240.3457795 190.55957089 -240.41000833 194.80875441 -240.47497749 199.05792809 C-240.50609108 201.10345299 -240.53718307 203.14897821 -240.56825256 205.19450378 C-240.59102106 206.68228802 -240.59102106 206.68228802 -240.61424953 208.2001285 C-240.68616301 212.98138366 -240.75154056 217.76255637 -240.80164433 222.54409313 C-240.82068017 224.33932236 -240.83977001 226.13455101 -240.85891724 227.92977905 C-240.86792704 228.79072491 -240.87693685 229.65167076 -240.88621968 230.53870589 C-240.94344366 235.31495651 -241.0572392 240.08403631 -241.2412284 244.85707563 C-241.31890286 246.93641488 -241.38030987 249.0155263 -241.43555355 251.09557056 C-241.50414624 253.52655051 -241.60290947 255.95698291 -241.7403574 258.38504314 C-241.9139535 264.22089593 -241.9139535 264.22089593 -239.26440907 269.22843742 C-235.74055972 272.33515966 -232.05147178 274.72277845 -227.67578125 276.46875 C-221.6191287 279.08352556 -216.20040108 282.43189507 -210.625 285.9375 C-208.67123898 287.12693682 -206.7155061 288.31314074 -204.7578125 289.49609375 C-199.31873572 292.79910668 -193.90575304 296.14280202 -188.5 299.5 C-180.34009612 304.56550874 -172.14643601 309.57300354 -163.9375 314.55859375 C-155.50933536 319.6809321 -147.11036805 324.84992918 -138.71459961 330.02514648 C-130.50362615 335.08319443 -122.27722829 340.11536918 -114.02001953 345.09765625 C-109.69201805 347.71597127 -105.40282049 350.36729204 -101.1875 353.1640625 C-100.45289551 353.64568848 -99.71829102 354.12731445 -98.96142578 354.62353516 C-97.61597743 355.51115952 -96.28008128 356.41352075 -94.95654297 357.33349609 C-93.01025204 358.67042886 -93.01025204 358.67042886 -90 360 C-86.49637605 358.92780237 -83.50484621 357.21548114 -80.39453125 355.3046875 C-79.50725342 354.76215332 -78.61997559 354.21961914 -77.70581055 353.66064453 C-76.75101807 353.07138184 -75.79622559 352.48211914 -74.8125 351.875 C-73.80292236 351.25608887 -72.79334473 350.63717773 -71.75317383 349.99951172 C-68.49971011 348.00356151 -65.24971449 346.00204764 -62 344 C-59.87253195 342.69248683 -57.74492853 341.3851939 -55.6171875 340.078125 C-49.07503483 336.05709458 -42.53717996 332.02910826 -36 328 C-22.58108744 319.72942281 -9.15466991 311.47276506 4.31713867 303.28857422 C11.5606859 298.88476659 18.7832663 294.44759015 26 290 C61.08514341 268.37864581 61.08514341 268.37864581 64.59869385 266.92443848 C67.3784137 265.12737166 67.3784137 265.12737166 67.65049744 261.44038391 C67.68839281 259.90639443 67.69826797 258.37157618 67.68725586 256.8371582 C67.70766906 255.55415738 67.70766906 255.55415738 67.72849464 254.24523735 C67.76860785 251.32600178 67.77268588 248.40777451 67.77734375 245.48828125 C67.79877583 243.36361018 67.82235956 241.23895994 67.84788513 239.11433411 C67.89960939 234.3666042 67.93442284 229.61910852 67.95770264 224.87115479 C67.99510824 217.27174082 68.06321442 209.67285032 68.13568044 202.07371306 C68.30087719 184.59135943 68.41357708 167.10879463 68.5174135 149.62598622 C68.55672766 143.0420998 68.59991071 136.45824354 68.64418942 129.87438887 C68.69360421 122.51900134 68.74070465 115.16360061 68.78675652 107.8081913 C68.80569656 104.783965 68.82522905 101.75974366 68.84536934 98.73552513 C69.04503567 68.15629023 69 37.58108064 69 7 C-31.98 7 -132.96 7 -237 7 Z " fill="#030100" transform="translate(347,93)"/>
<path d="M0 0 C1.34364039 0.00056958 1.34364039 0.00056958 2.71442503 0.00115067 C3.74401777 -0.00084038 4.77361051 -0.00283143 5.83440304 -0.00488281 C7.5517784 -0.00051355 7.5517784 -0.00051355 9.30384821 0.00394398 C11.11210176 0.00266234 11.11210176 0.00266234 12.9568857 0.00135481 C16.3181121 -0.0000134 19.67928098 0.00313417 23.04050046 0.00813287 C26.65946695 0.01243399 30.27843152 0.01099119 33.89739984 0.0102306 C40.17253094 0.00970515 46.44765168 0.01285415 52.72278017 0.01846844 C61.79566628 0.02658059 70.86854736 0.02919837 79.9414367 0.03045643 C94.6600573 0.0326474 109.37867238 0.0393087 124.09728998 0.04875904 C138.39872199 0.057932 152.7001525 0.0650134 167.00158685 0.06926686 C168.32293831 0.06966094 168.32293831 0.06966094 169.67098374 0.07006299 C174.09001412 0.07136798 178.5090445 0.0726317 182.9280749 0.07387489 C219.61347146 0.0842489 256.29886173 0.10186844 292.98425287 0.1241985 C292.98411408 1.3267374 292.98397529 2.5292763 292.9838323 3.76825577 C292.9825456 15.29982935 292.9816192 26.83140291 292.98101461 38.36297655 C292.98069331 44.28641022 292.9802602 50.20984384 292.9795379 56.13327748 C292.90517689 109.06339259 292.90517689 109.06339259 293.10900968 161.992827 C293.08217132 169.00468541 293.08217132 169.00468541 290.08666986 172.0591045 C287.78399463 173.61970503 285.47780123 174.89636926 282.98425287 176.1241985 C281.61406 176.98754811 281.61406 176.98754811 280.21618646 177.86833912 C279.44613275 178.33433522 278.67607904 178.80033131 277.88269037 179.2804485 C276.99202875 179.82088795 276.10136713 180.3613274 275.18371576 180.91814381 C274.25164301 181.48114186 273.31957025 182.0441399 272.35925287 182.6241985 C270.32408537 183.85855494 268.28892946 185.0929305 266.25378412 186.3273235 C265.21818353 186.9544524 264.18258295 187.58158131 263.11560053 188.22771412 C258.08967135 191.27164191 253.06734667 194.32147984 248.04675287 197.3741985 C247.07745844 197.96354176 246.108164 198.55288502 245.10949701 199.16008717 C239.81591447 202.38378086 234.54224491 205.63541362 229.29675287 208.9366985 C222.01398361 213.51988729 214.65656516 217.97877808 207.29675287 222.4366985 C196.34804689 229.06929022 185.43871077 235.76187868 174.5667724 242.51970631 C169.87555628 245.43430948 165.17975616 248.3415092 160.48425287 251.2491985 C159.16566278 252.06662525 159.16566278 252.06662525 157.82043451 252.90056568 C156.22116838 253.89123656 154.62091174 254.88031124 153.01940912 255.86736256 C151.34638373 256.9005601 149.68000009 257.94450485 148.01550287 258.991386 C145.98425287 260.1241985 145.98425287 260.1241985 143.98425287 260.1241985 C143.98425287 260.7841985 143.98425287 261.4441985 143.98425287 262.1241985 C140.10493345 261.54676726 137.41985954 260.41513749 134.09753412 258.350761 C133.16876459 257.77906178 132.23999506 257.20736256 131.283081 256.61833912 C130.29759271 256.00152272 129.31210443 255.38470631 128.29675287 254.7491985 C127.26872553 254.11433522 126.24069818 253.47947193 125.1815185 252.82537037 C123.09006994 251.53363151 121.00037449 250.23904972 118.91247553 248.94158131 C114.94899298 246.48167102 110.96743079 244.05202719 106.98425287 241.6241985 C105.53887538 240.74019016 104.09356426 239.85607331 102.64831537 238.97185475 C99.20900259 236.86988656 95.76544453 234.77500744 92.32019037 232.68279225 C83.21757994 227.15406575 74.12567826 221.61421045 65.10949701 215.94548756 C58.39311339 211.73295541 51.61188608 207.62795075 44.83508295 203.51360279 C37.3960156 198.99337654 29.98708733 194.42651674 22.59191889 189.83489186 C15.88492237 185.67296959 9.15344212 181.5523688 2.40295404 177.4613567 C-2.90846403 174.2314816 -2.90846403 174.2314816 -4.01574713 173.1241985 C-4.11648088 170.68517563 -4.15190517 168.27449132 -4.14514166 165.83489186 C-4.14686849 165.06436576 -4.14859532 164.29383967 -4.15037447 163.4999643 C-4.15476445 160.90463603 -4.15175632 158.30937152 -4.14855963 155.71404225 C-4.14961793 153.86959013 -4.15100337 152.02513818 -4.15269476 150.18068653 C-4.15552159 145.18108276 -4.15107263 140.18151047 -4.14451987 135.18191105 C-4.140762 132.07399922 -4.13868566 128.96609039 -4.1370545 125.85817677 C-4.11895649 96.59510362 -3.96151916 67.33462033 -3.60958105 38.07361943 C-3.5781772 35.43081335 -3.5484399 32.78799249 -3.51898199 30.14516407 C-3.47235045 26.02000787 -3.42010344 21.89496232 -3.36293226 17.76993901 C-3.34259244 16.26160524 -3.32379988 14.75324973 -3.30663878 13.24487644 C-3.28286176 11.20369447 -3.25217873 9.16259634 -3.2210694 7.12151295 C-3.20552511 5.980033 -3.18998083 4.83855305 -3.17396551 3.6624828 C-2.95702939 0.18219478 -2.95702939 0.18219478 0 0 Z M0.98425287 7.1241985 C0.2185063 38.7678501 -0.35361876 70.41269346 -0.69616896 102.06386906 C-0.77475947 109.30965311 -0.86676926 116.55499425 -0.97533214 123.80037326 C-1.06136095 129.62768405 -1.12552679 135.4550842 -1.18201262 141.28274876 C-1.20902805 143.73010411 -1.24295218 146.17739367 -1.2840367 148.62455326 C-1.33941828 152.00035484 -1.36978885 155.37549112 -1.39392096 158.7516399 C-1.41608176 159.7496764 -1.43824255 160.7477129 -1.46107489 161.77599293 C-1.551163 167.08604937 -1.551163 167.08604937 0.84465021 171.66243702 C3.39416358 173.40424661 5.93377269 175.08669131 8.58581537 176.6710735 C10.26091181 177.67883839 10.26091181 177.67883839 11.96984857 178.70696217 C12.85841043 179.23608708 12.85841043 179.23608708 13.76492304 179.77590138 C16.28549473 181.27690005 18.79841992 182.7904956 21.31190485 184.30332142 C22.61264894 185.08604918 23.91379026 185.86811719 25.21531671 186.64954334 C31.60590929 190.48840799 37.95380431 194.39458883 44.29675287 198.3116985 C52.34405131 203.27450196 60.40376268 208.21561992 68.48425287 213.1241985 C77.76471591 218.76195314 87.01642888 224.44529321 96.25988764 230.14348561 C104.5400704 235.24456442 112.84146216 240.3098868 121.16198725 245.34490162 C122.03017084 245.87148365 122.89835443 246.39806568 123.79284662 246.94060475 C124.63959955 247.45123463 125.48635248 247.96186451 126.35876459 248.48796803 C128.23492391 249.65720922 130.08298721 250.87202719 131.9105224 252.11589772 C132.87458002 252.76703541 133.83863764 253.41817311 134.83190912 254.08904225 C135.69952875 254.69224293 136.56714838 255.29544361 137.46105951 255.91692311 C139.8878273 257.31997414 139.8878273 257.31997414 142.43908685 257.0238567 C145.52236088 255.93398958 148.07310823 254.4813509 150.85925287 252.7648235 C151.41647531 252.42431462 151.97369776 252.08380574 152.54780573 251.7329784 C154.36440443 250.62045215 156.17428135 249.49746817 157.98425287 248.3741985 C159.25168299 247.59515846 160.51950945 246.81676288 161.78771967 246.03899342 C164.94764006 244.09848488 168.10212476 242.14936198 171.25421137 240.19615895 C173.73192155 238.66093143 176.21178448 237.12918999 178.69128412 235.59685475 C181.23550121 234.02300359 183.77885466 232.44781561 186.32019037 230.86931568 C192.68561852 226.91674882 199.07975158 223.01308481 205.48425287 219.1241985 C212.8389891 214.65814102 220.1739825 210.16267814 227.48425287 205.6241985 C234.69154941 201.15021344 241.9214582 196.71565939 249.17175287 192.3116985 C257.32343488 187.35859062 265.46534988 182.38996077 273.59255975 177.39681202 C274.76573555 176.6762404 275.9392156 175.95616389 277.11300653 175.23659474 C278.74542204 174.23567741 280.37658702 173.23272145 282.00769037 172.22966725 C282.94532221 171.65369801 283.88295404 171.07772877 284.84899896 170.48430592 C286.88469391 169.29592561 286.88469391 169.29592561 287.98425287 168.1241985 C288.10891336 165.88989156 288.16237106 163.65160993 288.18957514 161.41399342 C288.1994719 160.70539079 288.20936867 159.99678816 288.21956533 159.26671273 C288.25151672 156.87939913 288.27617423 154.49206832 288.30065912 152.10466725 C288.32137106 150.40638038 288.34241513 148.70809753 288.36376947 147.00981861 C288.4200396 142.40274028 288.4692581 137.79561115 288.51668161 133.18843418 C288.5466358 130.32289813 288.57849205 127.4573893 288.61093134 124.59188038 C288.85102115 103.24875722 289.01965074 81.90621612 289.04675287 60.5616985 C289.04830881 59.33744663 289.04830881 59.33744663 289.04989618 58.08846241 C289.0673752 41.10036995 289.02073872 24.11224188 288.98425287 7.1241985 C216.69715668 6.54852418 144.41025989 6.01862729 72.12053812 6.00136787 C67.10728271 6.00008332 62.09403322 5.99633592 57.08077997 5.99163014 C50.3573428 5.9855468 43.6339316 5.98551007 36.91049188 5.98987919 C34.45857754 5.99087048 32.00666198 5.99030104 29.55474848 5.98804051 C26.22092333 5.98549828 22.88716485 5.98927295 19.55334467 5.99480397 C18.59091191 5.99277722 17.62847915 5.99075047 16.63688177 5.9886623 C11.3276822 6.00535634 6.23828902 6.35025609 0.98425287 7.1241985 Z " fill="#050200" transform="translate(116.01574712991714,184.8758015036583)"/>
<path d="M0 0 C4.937791 0.59430519 9.45064834 1.61759304 14.1875 3.125 C14.87110596 3.34236816 15.55471191 3.55973633 16.2590332 3.78369141 C22.60619198 5.82519602 28.89421759 8.03302461 35.17944336 10.2565918 C44.74251584 13.63520643 54.36897654 16.82129502 64 20 C63.18144531 20.89976562 62.36289063 21.79953125 61.51953125 22.7265625 C59.3487613 25.33148644 58.38656197 26.8841189 58.6875 30.375 C58.8421875 32.169375 58.8421875 32.169375 59 34 C59.78375 34.309375 60.5675 34.61875 61.375 34.9375 C64 36 64 36 66 37 C66 37.66 66 38.32 66 39 C66.66 39 67.32 39 68 39 C70 42.875 70 42.875 70 44 C70.99 43.34 71.98 42.68 73 42 C72.67 43.65 72.34 45.3 72 47 C72.9075 47.020625 73.815 47.04125 74.75 47.0625 C82.38936396 48.14500097 89.21085054 53.7153946 95.375 58.0625 C99.08421047 60.60750573 102.97762119 62.36478387 107.125 64.0625 C112.40822988 66.23594473 116.5077857 68.51624197 121 72 C122.17546021 72.70788826 123.36338718 73.39546105 124.5625 74.0625 C128 76 128 76 131.0625 78.125 C133.86065537 80.08909943 133.86065537 80.08909943 136.81176758 80.890625 C140.247466 82.08610809 142.90112444 83.64631306 145.94921875 85.625 C147.59180664 86.68460938 147.59180664 86.68460938 149.26757812 87.765625 C150.40763695 88.51028675 151.54761007 89.25507974 152.6875 90 C153.83880493 90.74539095 154.9904945 91.49018816 156.14257812 92.234375 C160.10913482 94.80221088 164.06839693 97.37893128 168 100 C169.65549531 100.38499891 171.3222433 100.72793135 173 101 C173.33 102.98 173.66 104.96 174 107 C174.99 106.67 175.98 106.34 177 106 C176.44893487 109.3063908 175.90012129 112.19982126 174 115 C171.875 115.75 171.875 115.75 170 116 C170 114.68 170 113.36 170 112 C167.525 112.495 167.525 112.495 165 113 C164.67 114.32 164.34 115.64 164 117 C166.94017338 118.52453435 169.85472185 119.95157395 173 121 C173.99 120.67 174.98 120.34 176 120 C176.12375 118.948125 176.2475 117.89625 176.375 116.8125 C176.91140782 113.54041229 177.63880035 110.99463924 179 108 C180.32 108 181.64 108 183 108 C182.73958333 109.98567708 182.47916667 111.97135417 182.21875 113.95703125 C181.946767 116.15471706 181.946767 116.15471706 182 119 C182.99 117.515 182.99 117.515 184 116 C184.98095748 114.98131338 185.97702078 113.97648017 187 113 C186.43768609 116.93619738 185.38314183 119.79192446 183 123 C182.01 123 181.02 123 180 123 C180 122.34 180 121.68 180 121 C178.68 121 177.36 121 176 121 C179.33562767 125.51290803 181.33289301 127.68206814 187 129 C187.33 128.01 187.66 127.02 188 126 C187.34 126 186.68 126 186 126 C187.58962659 121.96479403 189.28232318 117.98188718 191 114 C191.66 114 192.32 114 193 114 C193 114.66 193 115.32 193 116 C194.32 116.33 195.64 116.66 197 117 C197 118.32 197 119.64 197 121 C197.598125 121.12375 198.19625 121.2475 198.8125 121.375 C201 122 201 122 204 124 C204.1875 126.625 204.1875 126.625 204 129 C204.33 127.35 204.66 125.7 205 124 C205.639375 123.896875 206.27875 123.79375 206.9375 123.6875 C207.618125 123.460625 208.29875 123.23375 209 123 C210.19960669 119.40117994 210.16886729 116.41862018 210.1875 112.625 C210.20167969 111.31789063 210.21585938 110.01078125 210.23046875 108.6640625 C210.01344149 105.21369693 209.44439364 103.08819984 208 100 C207.690625 98.865625 207.38125 97.73125 207.0625 96.5625 C206.13974 93.03761082 206.13974 93.03761082 204.5 90.1875 C202.30037572 85.51329841 201 80.19940496 201 75 C200.67 74.67 200.34 74.34 200 74 C199.92794489 72.31391034 199.91613932 70.62499341 199.9375 68.9375 C199.94652344 68.01839844 199.95554687 67.09929687 199.96484375 66.15234375 C199.98224609 65.08693359 199.98224609 65.08693359 200 64 C200.66 63.67 201.32 63.34 202 63 C202.20041123 61.06792711 202.20041123 61.06792711 202.1875 58.8125 C202.5285986 54.91157239 203.26747148 53.18237326 206.25 50.625 C207.48484595 49.72874084 208.73381007 48.85140358 210 48 C211.11375 47.071875 211.11375 47.071875 212.25 46.125 C216.69899475 44.30495669 221.25660128 44.77570619 226 45 C226.33 46.65 226.66 48.3 227 50 C224.22495248 51.77603042 222.94053733 51.99675658 219.5625 51.8125 C215.9119013 51.66190396 215.9119013 51.66190396 213.375 54.0625 C212.59125 55.031875 211.8075 56.00125 211 57 C210.53207031 57.53109375 210.06414062 58.0621875 209.58203125 58.609375 C206.61091352 62.23796697 205.30262786 65.02955159 205.640625 69.90234375 C206.85662943 77.00010874 210.00587539 83.50712305 213 90 C219 103.15636364 219 103.15636364 219 107 C219.66 107 220.32 107 221 107 C220.7834375 105.96552734 220.7834375 105.96552734 220.5625 104.91015625 C217.75968992 90.72093023 217.75968992 90.72093023 220 84 C221.32 84.33 222.64 84.66 224 85 C224 83.35 224 81.7 224 80 C224.66 79.67 225.32 79.34 226 79 C226.33 81.97 226.66 84.94 227 88 C226.34 88 225.68 88 225 88 C224.67 89.32 224.34 90.64 224 92 C223.34 91.01 222.68 90.02 222 89 C222.75692558 92.08619503 222.75692558 92.08619503 225.0625 93.875 C227 96 227 96 227.125 98.4375 C227.08375 99.283125 227.0425 100.12875 227 101 C227.85489977 103.50363503 228.8592441 105.74194751 230.125 108.0625 C231 110 231 110 231 114 C231.66 114 232.32 114 233 114 C234.71987658 120.53264044 234.14448708 124.60768281 230.75 130.5 C227.01585927 136.48696943 223.86287616 138.37152091 217 140 C209.76287564 140.80412493 202.81806989 137.92405207 196.375 134.875 C193.4372622 133.49680202 191.04563489 132.75766919 187.8125 132.5 C183.48347309 131.93225877 181.36532807 130.7243132 178 128 C177.34 127.01 176.68 126.02 176 125 C174.948125 124.731875 173.89625 124.46375 172.8125 124.1875 C168.29044971 122.77899253 164.97583716 120.72399961 162 117 C161.92265625 116.21625 161.8453125 115.4325 161.765625 114.625 C160.55238793 110.46533004 157.13472408 108.98092825 153.625 106.8125 C151.97184647 105.75386765 150.31955699 104.69388523 148.66796875 103.6328125 C147.76095215 103.05563477 146.85393555 102.47845703 145.91943359 101.88378906 C142.80947321 99.87706099 139.74043004 97.81741769 136.67578125 95.7421875 C124.47627624 87.48495975 112.17152181 79.6182526 99.47094727 72.14379883 C91.81717869 67.59834821 84.86816304 62.65420429 78 57 C74.17217263 54.02839718 70.50175302 51.65270613 65.953125 49.890625 C63.45774378 48.75273116 61.2458147 47.29148008 58.9375 45.8125 C55.14910278 43.48871906 52.55031072 42.08993786 48 43 C45.8614515 45.1385485 45.57344937 46.13275314 45 49 C42 49 42 49 40.4921875 47.63671875 C39.95851562 46.99347656 39.42484375 46.35023438 38.875 45.6875 C37.94494141 44.58341797 37.94494141 44.58341797 36.99609375 43.45703125 C35.66437617 41.81779375 34.34401772 40.169263 33.03515625 38.51171875 C28.61600177 32.95691564 24.0031165 27.90305328 18.9375 22.9375 C11.76398711 15.89879523 5.37844787 8.5158758 0 0 Z " fill="#994D18" transform="translate(141,224)"/>
<path d="M0 0 C4.937791 0.59430519 9.45064834 1.61759304 14.1875 3.125 C14.87110596 3.34236816 15.55471191 3.55973633 16.2590332 3.78369141 C22.60619198 5.82519602 28.89421759 8.03302461 35.17944336 10.2565918 C44.74251584 13.63520643 54.36897654 16.82129502 64 20 C63.18144531 20.89976562 62.36289063 21.79953125 61.51953125 22.7265625 C59.3487613 25.33148644 58.38656197 26.8841189 58.6875 30.375 C58.8421875 32.169375 58.8421875 32.169375 59 34 C59.78375 34.309375 60.5675 34.61875 61.375 34.9375 C64 36 64 36 66 37 C66 37.66 66 38.32 66 39 C66.66 39 67.32 39 68 39 C70 42.875 70 42.875 70 44 C70.99 43.34 71.98 42.68 73 42 C72.67 43.65 72.34 45.3 72 47 C72.9075 47.020625 73.815 47.04125 74.75 47.0625 C83.20920469 48.26117273 90.92730317 54.86161095 97.82421875 59.58984375 C100.85380708 61.55336509 104.02947123 63.19718078 107.25 64.82421875 C109 66 109 66 110 69 C110.5775 69.103125 111.155 69.20625 111.75 69.3125 C115.25847449 70.38453387 116.72621182 73.21460948 119 76 C121.14980497 77.37254588 121.14980497 77.37254588 123 78 C122.505 79.485 122.505 79.485 122 81 C122.928125 81.433125 123.85625 81.86625 124.8125 82.3125 C127.57517665 83.77509352 128.91371414 84.82300606 131 87 C134.43114501 89.4430131 134.43114501 89.4430131 138.5 90 C141.76507509 90 143.41251468 91.07786805 146 93 C146 93.66 146 94.32 146 95 C145.01 95 144.02 95 143 95 C143 95.66 143 96.32 143 97 C144.093125 97.66 145.18625 98.32 146.3125 99 C146.92738281 99.37125 147.54226563 99.7425 148.17578125 100.125 C150.11361926 101.21623999 150.11361926 101.21623999 153 101 C152.34 100.01 151.68 99.02 151 98 C153.97 98.99 156.94 99.98 160 101 C160 105 160 105 159 108 C158.649375 107.34 158.29875 106.68 157.9375 106 C157.298125 105.34 156.65875 104.68 156 104 C154.91074219 104.02320313 153.82148438 104.04640625 152.69921875 104.0703125 C148.50748045 103.99063849 147.20396626 103.30809766 143.875 100.875 C142.83472656 100.14152344 141.79445313 99.40804687 140.72265625 98.65234375 C139.84504639 98.02368408 139.84504639 98.02368408 138.94970703 97.38232422 C135.11746426 94.6652996 131.21437979 92.05307781 127.3125 89.4375 C126.42868652 88.84340332 125.54487305 88.24930664 124.63427734 87.63720703 C117.56171722 82.93005997 110.31800853 78.5628573 103 74.25 C94.13142159 69.01591967 85.94727162 63.5425787 78 57 C74.17217263 54.02839718 70.50175302 51.65270613 65.953125 49.890625 C63.45774378 48.75273116 61.2458147 47.29148008 58.9375 45.8125 C55.14910278 43.48871906 52.55031072 42.08993786 48 43 C45.8614515 45.1385485 45.57344937 46.13275314 45 49 C42 49 42 49 40.4921875 47.63671875 C39.95851562 46.99347656 39.42484375 46.35023438 38.875 45.6875 C37.94494141 44.58341797 37.94494141 44.58341797 36.99609375 43.45703125 C35.66437617 41.81779375 34.34401772 40.169263 33.03515625 38.51171875 C28.61600177 32.95691564 24.0031165 27.90305328 18.9375 22.9375 C11.76398711 15.89879523 5.37844787 8.5158758 0 0 Z " fill="#624735" transform="translate(141,224)"/>
<path d="M0 0 C1.01725914 0.00636726 1.01725914 0.00636726 2.05506897 0.01286316 C4.19469027 0.02948934 6.33332572 0.06710701 8.47265625 0.10546875 C9.93423107 0.12053653 11.39582083 0.13422125 12.85742188 0.14648438 C16.41698022 0.17933898 19.97597181 0.23100634 23.53515625 0.29296875 C23.53515625 4.58296875 23.53515625 8.87296875 23.53515625 13.29296875 C14.95515625 13.62296875 6.37515625 13.95296875 -2.46484375 14.29296875 C-2.79484375 18.58296875 -3.12484375 22.87296875 -3.46484375 27.29296875 C3.13515625 27.29296875 9.73515625 27.29296875 16.53515625 27.29296875 C16.53515625 31.58296875 16.53515625 35.87296875 16.53515625 40.29296875 C9.93515625 40.29296875 3.33515625 40.29296875 -3.46484375 40.29296875 C-3.46484375 44.91296875 -3.46484375 49.53296875 -3.46484375 54.29296875 C-8.08484375 54.29296875 -12.70484375 54.29296875 -17.46484375 54.29296875 C-17.53906495 47.83344023 -17.59348007 41.37416059 -17.62963867 34.91430664 C-17.64471427 32.71732254 -17.66517801 30.52036849 -17.69116211 28.32348633 C-17.72759877 25.16349875 -17.74458259 22.00390951 -17.7578125 18.84375 C-17.78103828 17.37316887 -17.78103828 17.37316887 -17.80473328 15.87287903 C-17.80696042 6.82470303 -17.80696042 6.82470303 -14.46484375 3.29296875 C-9.5431068 0.55137512 -5.58339831 -0.06950288 0 0 Z " fill="#010000" transform="translate(368.46484375,111.70703125)"/>
<path d="M0 0 C0.33 1.65 0.66 3.3 1 5 C-1.77504752 6.77603042 -3.05946267 6.99675658 -6.4375 6.8125 C-10.0880987 6.66190396 -10.0880987 6.66190396 -12.625 9.0625 C-13.40875 10.031875 -14.1925 11.00125 -15 12 C-15.46792969 12.53109375 -15.93585938 13.0621875 -16.41796875 13.609375 C-19.38908648 17.23796697 -20.69737214 20.02955159 -20.359375 24.90234375 C-19.14337057 32.00010874 -15.99412461 38.50712305 -13 45 C-7 58.15636364 -7 58.15636364 -7 62 C-6.34 62 -5.68 62 -5 62 C-5.144375 61.31035156 -5.28875 60.62070312 -5.4375 59.91015625 C-8.24031008 45.72093023 -8.24031008 45.72093023 -6 39 C-4.68 39.33 -3.36 39.66 -2 40 C-2 38.35 -2 36.7 -2 35 C-1.01 34.505 -1.01 34.505 0 34 C0.33 36.97 0.66 39.94 1 43 C0.34 43 -0.32 43 -1 43 C-1.33 44.32 -1.66 45.64 -2 47 C-2.66 46.01 -3.32 45.02 -4 44 C-3.24307442 47.08619503 -3.24307442 47.08619503 -0.9375 48.875 C1 51 1 51 1.125 53.4375 C1.08375 54.283125 1.0425 55.12875 1 56 C1.85489977 58.50363503 2.8592441 60.74194751 4.125 63.0625 C5 65 5 65 5 69 C5.66 69.33 6.32 69.66 7 70 C6.34 70 5.68 70 5 70 C5.11859375 70.60328125 5.2371875 71.2065625 5.359375 71.828125 C5.75255754 74.26585675 6.0467792 76.52920788 6 79 C4.0625 81.5625 4.0625 81.5625 2 83 C1.34 82.67 0.68 82.34 0 82 C-0.12375 83.299375 -0.2475 84.59875 -0.375 85.9375 C-0.5859375 88.15234375 -0.5859375 88.15234375 -1 90 C-1.99 90.495 -1.99 90.495 -3 91 C-2.67 89.35 -2.34 87.7 -2 86 C-3.485 86.99 -3.485 86.99 -5 88 C-9.22512878 90.41680794 -12.18135621 90.47396496 -17 90 C-19.5 89 -19.5 89 -21 88 C-21 87.34 -21 86.68 -21 86 C-21.66 85.67 -22.32 85.34 -23 85 C-22.01 84.01 -22.01 84.01 -21 83 C-21 81.68 -21 80.36 -21 79 C-20.360625 78.896875 -19.72125 78.79375 -19.0625 78.6875 C-18.381875 78.460625 -17.70125 78.23375 -17 78 C-15.80039331 74.40117994 -15.83113271 71.41862018 -15.8125 67.625 C-15.79832031 66.31789063 -15.78414063 65.01078125 -15.76953125 63.6640625 C-15.98655851 60.21369693 -16.55560636 58.08819984 -18 55 C-18.309375 53.865625 -18.61875 52.73125 -18.9375 51.5625 C-19.86026 48.03761082 -19.86026 48.03761082 -21.5 45.1875 C-23.69962428 40.51329841 -25 35.19940496 -25 30 C-25.33 29.67 -25.66 29.34 -26 29 C-26.07205511 27.31391034 -26.08386068 25.62499341 -26.0625 23.9375 C-26.05347656 23.01839844 -26.04445313 22.09929687 -26.03515625 21.15234375 C-26.02355469 20.44207031 -26.01195312 19.73179687 -26 19 C-25.34 18.67 -24.68 18.34 -24 18 C-23.79958877 16.06792711 -23.79958877 16.06792711 -23.8125 13.8125 C-23.4714014 9.91157239 -22.73252852 8.18237326 -19.75 5.625 C-18.51515405 4.72874084 -17.26618993 3.85140358 -16 3 C-14.88625 2.071875 -14.88625 2.071875 -13.75 1.125 C-9.30100525 -0.69504331 -4.74339872 -0.22429381 0 0 Z " fill="#140F0C" transform="translate(367,269)"/>
<path d="M0 0 C0.70769531 -0.02900391 1.41539062 -0.05800781 2.14453125 -0.08789062 C5.52294277 -0.12878387 8.0152471 0.26324082 11.1015625 1.6484375 C14.31650741 5.88124142 13.77240192 10.08758291 13.625 15.25 C13.62886719 16.7340332 13.62886719 16.7340332 13.6328125 18.24804688 C13.51055637 27.33779044 13.51055637 27.33779044 10.125 31.3125 C6.86816597 32.94091701 3.32541665 32.58045577 -0.25 32.625 C-1.01828125 32.65400391 -1.7865625 32.68300781 -2.578125 32.71289062 C-8.26795918 32.77687665 -8.26795918 32.77687665 -11.3515625 30.41796875 C-14.68935287 25.80497129 -14.09547784 21.47290544 -14.125 15.9375 C-14.145625 14.9784375 -14.16625 14.019375 -14.1875 13.03125 C-14.19265625 12.10570312 -14.1978125 11.18015625 -14.203125 10.2265625 C-14.2124707 9.3804541 -14.22181641 8.5343457 -14.23144531 7.66259766 C-13.79200051 4.76527185 -12.88053877 3.4243664 -10.875 1.3125 C-7.22126672 0.09458891 -3.80754014 0.05145325 0 0 Z " fill="#0B0501" transform="translate(195.875,141.6875)"/>
<path d="M0 0 C0.98806641 0.02255859 1.97613281 0.04511719 2.99414062 0.06835938 C5.43511559 0.12732012 7.87304868 0.20954952 10.3125 0.3125 C10.3125 2.9525 10.3125 5.5925 10.3125 8.3125 C5.3625 8.3125 0.4125 8.3125 -4.6875 8.3125 C-4.6875 9.6325 -4.6875 10.9525 -4.6875 12.3125 C-3.79546875 12.27769531 -2.9034375 12.24289063 -1.984375 12.20703125 C-0.81390625 12.17996094 0.3565625 12.15289062 1.5625 12.125 C2.72265625 12.09019531 3.8828125 12.05539063 5.078125 12.01953125 C8.61519864 12.33991836 9.99382241 12.63363948 12.3125 15.3125 C12.84375 18.08984375 12.84375 18.08984375 12.8125 21.25 C12.8228125 22.29027344 12.833125 23.33054688 12.84375 24.40234375 C12.3125 27.3125 12.3125 27.3125 10.84765625 29.6640625 C7.06193588 32.12565572 3.66869055 31.85880016 -0.75 31.75 C-1.97299805 31.76063477 -1.97299805 31.76063477 -3.22070312 31.77148438 C-9.18795482 31.70774216 -9.18795482 31.70774216 -11.38061523 29.97290039 C-14.67083734 25.79266491 -13.90880764 20.48018199 -13.9375 15.4375 C-13.958125 14.53902344 -13.97875 13.64054688 -14 12.71484375 C-14.02195924 8.99824259 -13.81890203 5.79511483 -12.83984375 2.19921875 C-9.13727522 -1.04640847 -4.72088516 -0.20254623 0 0 Z " fill="#060300" transform="translate(130.6875,141.6875)"/>
<path d="M0 0 C8.11956974 1.84511331 15.7593986 4.26238906 23.5 7.3125 C32.88614555 10.93049952 42.31134125 14.04525674 51.98046875 16.80859375 C55.07266473 17.69727049 58.04084376 18.72501284 61 20 C60.175 20.825 59.35 21.65 58.5 22.5 C56.2385682 25.16275632 55.65644487 26.88440321 55.6875 30.375 C55.8421875 32.169375 55.8421875 32.169375 56 34 C56.99 34.495 56.99 34.495 58 35 C57.34 35 56.68 35 56 35 C56 35.99 56 36.98 56 38 C51.4845017 36.43524469 47.70179256 33.99105293 43.7578125 31.3515625 C43.07121552 30.89776215 42.38461853 30.44396179 41.67721558 29.97640991 C39.49029467 28.53018673 37.30741364 27.07801407 35.125 25.625 C32.94920522 24.17994384 30.77253744 22.73624575 28.59420776 21.29501343 C27.24245118 20.40030784 25.89219243 19.50333346 24.54373169 18.60366821 C21.4915313 16.58021418 18.42524755 14.63985402 15.23754883 12.8359375 C11.78260912 10.87672276 8.74495173 8.75091278 5.5625 6.375 C4.51191406 5.59898437 3.46132812 4.82296875 2.37890625 4.0234375 C1.59386719 3.35570312 0.80882812 2.68796875 0 2 C0 1.34 0 0.68 0 0 Z " fill="#424241" transform="translate(144,224)"/>
<path d="M0 0 C0.99 0 1.98 0 3 0 C4.1107534 1.1107534 5.21525207 2.22825824 6.29296875 3.37109375 C11.10536121 7.96323941 16.71500407 11.95814963 22.71484375 14.82421875 C27.87043945 17.32979316 32.51621993 20.53448857 37.25 23.75 C38.16934326 24.36891113 39.08868652 24.98782227 40.03588867 25.62548828 C41.85828613 26.85240128 43.67953013 28.08102963 45.49951172 29.31152344 C48.7609771 31.51385644 52.03564534 33.69563778 55.3125 35.875 C56.875 36.91666667 58.4375 37.95833333 60 39 C59.67 39.99 59.34 40.98 59 42 C58.319375 41.67 57.63875 41.34 56.9375 41 C53.43195448 39.8066228 50.6825269 39.72722023 47 40 C43.9890638 42.0072908 43.36983503 42.83884224 42 46 C41.3709375 45.28714844 40.741875 44.57429688 40.09375 43.83984375 C35.68011589 38.90109354 31.25813816 34.21361691 26.1953125 29.9296875 C16.18089972 21.12698303 7.13368344 11.29499879 0 0 Z " fill="#7E7E7E" transform="translate(141,224)"/>
<path d="M0 0 C4.4722777 1.19987938 7.57383698 2.97520024 11.2109375 5.70703125 C12.94478099 6.96009281 14.69503428 8.02181977 16.5625 9.0625 C20 11 20 11 23.0625 13.125 C25.861128 15.08907838 25.861128 15.08907838 28.81396484 15.89282227 C32.23296303 17.08095688 34.87820008 18.62594154 37.9140625 20.58984375 C39.00460937 21.29173828 40.09515625 21.99363281 41.21875 22.71679688 C42.35417696 23.45701546 43.48959353 24.19724998 44.625 24.9375 C45.76786267 25.67439684 46.91108895 26.41073008 48.0546875 27.14648438 C57.04915013 32.95984855 57.04915013 32.95984855 61 36 C59.68139111 40.61513112 57.78644563 44.09897612 55 48 C53.2063257 46.8782037 51.4151227 45.75245517 49.625 44.625 C48.62726563 43.99851562 47.62953125 43.37203125 46.6015625 42.7265625 C44 41 44 41 42 39 C44.97 38.505 44.97 38.505 48 38 C48.99 39.32 49.98 40.64 51 42 C50.505 40.02 50.505 40.02 50 38 C50.66 38 51.32 38 52 38 C51.67 37.34 51.34 36.68 51 36 C48.6859378 35.26924352 46.35171131 34.59861742 44 34 C44.66 34.99 45.32 35.98 46 37 C41.00088076 36.52389341 38.02167317 34.96837781 34 32 C34.495 30.515 34.495 30.515 35 29 C35.99 29.33 36.98 29.66 38 30 C38 29.34 38 28.68 38 28 C35.3655804 26.7956939 33.48990266 25.9779819 30.56640625 26.109375 C27.46435659 25.97717197 26.4746525 25.21941828 24.125 23.25 C20.57087738 20.39859364 17.00375432 18.16870026 13 16 C13.66 15.67 14.32 15.34 15 15 C15 14.34 15 13.68 15 13 C14.2575 12.7525 13.515 12.505 12.75 12.25 C9.76976913 10.89534961 8.10080748 9.4898459 6 7 C6 6.34 6 5.68 6 5 C5.38125 4.9175 4.7625 4.835 4.125 4.75 C2 4 2 4 0.75 1.9375 C0.5025 1.298125 0.255 0.65875 0 0 Z " fill="#6D3A18" transform="translate(249,289)"/>
<path d="M0 0 C0.33 1.65 0.66 3.3 1 5 C-1.77504752 6.77603042 -3.05946267 6.99675658 -6.4375 6.8125 C-10.0880987 6.66190396 -10.0880987 6.66190396 -12.625 9.0625 C-13.40875 10.031875 -14.1925 11.00125 -15 12 C-15.46792969 12.53109375 -15.93585938 13.0621875 -16.41796875 13.609375 C-19.38908648 17.23796697 -20.69737214 20.02955159 -20.359375 24.90234375 C-19.2736664 31.23957762 -16.61773122 36.99978658 -13.9765625 42.81640625 C-11.17545083 49.07969195 -9.28698054 55.26156417 -8 62 C-7.7525 63.2375 -7.505 64.475 -7.25 65.75 C-6.98635389 69.17739947 -7.44251325 70.97664336 -9 74 C-9.66 74 -10.32 74 -11 74 C-10.90460938 73.32453125 -10.80921875 72.6490625 -10.7109375 71.953125 C-10.60007812 71.06109375 -10.48921875 70.1690625 -10.375 69.25 C-10.25898438 68.36828125 -10.14296875 67.4865625 -10.0234375 66.578125 C-9.99728254 63.70107902 -10.6562576 62.48987563 -12 60 C-12.4140625 57.640625 -12.4140625 57.640625 -12.625 55.25 C-12.69976562 54.45078125 -12.77453125 53.6515625 -12.8515625 52.828125 C-12.92503906 51.92320312 -12.92503906 51.92320312 -13 51 C-13.99 50.67 -14.98 50.34 -16 50 C-15.690625 51.155 -15.38125 52.31 -15.0625 53.5 C-14.05978659 58.06307262 -13.55214778 62.60034274 -13.1875 67.25 C-13.12248291 67.93513672 -13.05746582 68.62027344 -12.99047852 69.32617188 C-12.68962619 73.78727324 -13.15745163 76.49939151 -16 80 C-16.66 80 -17.32 80 -18 80 C-17.67515625 79.3296875 -17.3503125 78.659375 -17.015625 77.96875 C-15.77704071 74.34827285 -15.73471233 71.32191654 -15.75 67.5 C-15.74484375 66.2109375 -15.7396875 64.921875 -15.734375 63.59375 C-15.98498284 60.2031733 -16.58589739 58.04535206 -18 55 C-18.309375 53.865625 -18.61875 52.73125 -18.9375 51.5625 C-19.86026 48.03761082 -19.86026 48.03761082 -21.5 45.1875 C-23.69962428 40.51329841 -25 35.19940496 -25 30 C-25.33 29.67 -25.66 29.34 -26 29 C-26.07205511 27.31391034 -26.08386068 25.62499341 -26.0625 23.9375 C-26.05347656 23.01839844 -26.04445313 22.09929687 -26.03515625 21.15234375 C-26.02355469 20.44207031 -26.01195312 19.73179687 -26 19 C-25.34 18.67 -24.68 18.34 -24 18 C-23.79958877 16.06792711 -23.79958877 16.06792711 -23.8125 13.8125 C-23.4714014 9.91157239 -22.73252852 8.18237326 -19.75 5.625 C-18.51515405 4.72874084 -17.26618993 3.85140358 -16 3 C-14.88625 2.071875 -14.88625 2.071875 -13.75 1.125 C-9.30100525 -0.69504331 -4.74339872 -0.22429381 0 0 Z " fill="#393430" transform="translate(367,269)"/>
<path d="M0 0 C0.66 0 1.32 0 2 0 C3.6107389 6.44295559 3.09228012 9.62879933 -0.25 15.4375 C-3.97988738 21.47159466 -7.09788889 23.36221092 -14 25 C-22.71213418 25.96801491 -31.31266815 21.65798158 -39 18 C-39.40368295 11.54107286 -38.5915262 6.93891422 -36 1 C-35.34 1.33 -34.68 1.66 -34 2 C-34 3.32 -34 4.64 -34 6 C-33.401875 6.12375 -32.80375 6.2475 -32.1875 6.375 C-30 7 -30 7 -27 9 C-26.875 11.9375 -26.875 11.9375 -27 15 C-26.67 15.99 -26.34 16.98 -26 18 C-24.7934375 17.9690625 -24.7934375 17.9690625 -23.5625 17.9375 C-21 18 -21 18 -20 19 C-15.28036618 19.42905762 -12.89989438 18.59992959 -9 16 C-8.34 16 -7.68 16 -7 16 C-7 17.32 -7 18.64 -7 20 C-6.34 17.36 -5.68 14.72 -5 12 C-3.68 11.67 -2.36 11.34 -1 11 C-0.4254048 7.26513121 0 3.78706732 0 0 Z " fill="#2D241E" transform="translate(372,339)"/>
<path d="M0 0 C0.02465392 4.53897705 0.04283789 9.07791543 0.05493164 13.61694336 C0.0599714 15.16219766 0.0668032 16.70744716 0.07543945 18.25268555 C0.08752076 20.46925029 0.09323173 22.68575218 0.09765625 24.90234375 C0.10281754 25.5971434 0.10797882 26.29194305 0.11329651 27.00779724 C0.11349277 28.6722933 0.06189129 30.33665499 0 32 C-0.495 32.495 -0.495 32.495 -1 33 C-3.64 33 -6.28 33 -9 33 C-9 25.74 -9 18.48 -9 11 C-10.65 11.33 -12.3 11.66 -14 12 C-14 9.36 -14 6.72 -14 4 C-12.23141309 3.32739649 -10.46003984 2.66211605 -8.6875 2 C-7.70136719 1.62875 -6.71523437 1.2575 -5.69921875 0.875 C-3 0 -3 0 0 0 Z " fill="#130801" transform="translate(179,141)"/>
<path d="M0 0 C3.66786393 1.50349377 5.68910393 3.63728792 8.25 6.625 C8.95640625 7.44226563 9.6628125 8.25953125 10.390625 9.1015625 C10.92171875 9.72804688 11.4528125 10.35453125 12 11 C12.45375 10.195625 12.9075 9.39125 13.375 8.5625 C15 6 15 6 17 5 C22.02618483 4.6206653 24.89888036 5.01736753 29 8 C29 5.69 29 3.38 29 1 C33.75 1.875 33.75 1.875 36 3 C36 3.66 36 4.32 36 5 C36.66 5 37.32 5 38 5 C40 8.875 40 8.875 40 10 C40.99 9.34 41.98 8.68 43 8 C41.125 13.75 41.125 13.75 40 16 C40.71414062 16.2475 41.42828125 16.495 42.1640625 16.75 C45.32625375 18.14380331 47.65676851 19.86805374 50.375 22 C60.83474445 30.03470153 71.79347131 37.08860626 83.3671875 43.40625 C86 45 86 45 87 47 C81.61605901 45.93123717 77.22780202 42.83151208 72.5625 40.0625 C71.57564209 39.47855469 70.58878418 38.89460938 69.57202148 38.29296875 C61.904032 33.68676931 54.92151927 28.65345467 48 23 C44.17087804 20.02974652 40.50234006 17.65293354 35.953125 15.890625 C33.45774378 14.75273116 31.2458147 13.29148008 28.9375 11.8125 C25.14910278 9.48871906 22.55031072 8.08993786 18 9 C15.8614515 11.1385485 15.57344937 12.13275314 15 15 C12 15 12 15 10.3515625 13.49609375 C9.78179687 12.81675781 9.21203125 12.13742187 8.625 11.4375 C8.01785156 10.71433594 7.41070312 9.99117188 6.78515625 9.24609375 C4.39673204 6.24096482 2.17465478 3.16313423 0 0 Z " fill="#8E491A" transform="translate(171,258)"/>
<path d="M0 0 C2.64 0 5.28 0 8 0 C9.00738813 3.99931555 10.00387926 8.00117928 10.99072266 12.00561523 C11.32731789 13.36506625 11.66678653 14.7238094 12.00927734 16.08178711 C12.50350747 18.04357814 12.98705154 20.00775554 13.46875 21.97265625 C13.76201172 23.15093994 14.05527344 24.32922363 14.35742188 25.54321289 C15.01990821 29.10709741 15.11307347 32.38366818 15 36 C8.84765625 36.09765625 8.84765625 36.09765625 7 36 C4.93695874 33.93695874 5.08470716 29.96523665 4.625 27.125 C3.76092958 21.94923442 2.79824606 16.91667856 1.3125 11.875 C0.0979027 7.73145192 -0.28684778 4.30271667 0 0 Z " fill="#0C0501" transform="translate(147,140)"/>
<path d="M0 0 C3.35106339 0.60232619 6.41646617 1.42863387 9.59765625 2.63671875 C10.47236572 2.96397949 11.3470752 3.29124023 12.24829102 3.62841797 C13.64132446 4.15266357 13.64132446 4.15266357 15.0625 4.6875 C23.48116469 7.81095069 31.93713287 10.60892918 40.56469727 13.09643555 C44.46948652 14.22352836 48.25891777 15.38915172 52 17 C51.175 17.825 50.35 18.65 49.5 19.5 C47.2385682 22.16275632 46.65644487 23.88440321 46.6875 27.375 C46.8421875 29.169375 46.8421875 29.169375 47 31 C46.34 31 45.68 31 45 31 C43.47153339 27.94306678 43.76757555 25.37015453 44 22 C45.5 19.5625 45.5 19.5625 47 18 C46.13375 18.33 45.2675 18.66 44.375 19 C37.9563324 20.90182744 34.27011106 19.9659026 28.5390625 16.875 C28.03117187 16.58625 27.52328125 16.2975 27 16 C27 14.68 27 13.36 27 12 C26.67 12.99 26.34 13.98 26 15 C21.33399096 13.19892051 16.79286317 11.15007203 12.25 9.0625 C11.47011719 8.71509766 10.69023437 8.36769531 9.88671875 8.00976562 C9.14550781 7.66751953 8.40429688 7.32527344 7.640625 6.97265625 C6.96547852 6.66593994 6.29033203 6.35922363 5.59472656 6.04321289 C4 5 4 5 3 2 C2.01 1.67 1.02 1.34 0 1 C0 0.67 0 0.34 0 0 Z " fill="#6D6B67" transform="translate(153,227)"/>
<path d="M0 0 C2 2 2 2 2.1875 4.5625 C2 7 2 7 1 8 C-5.33857189 8.35878709 -5.33857189 8.35878709 -7.88671875 6.9765625 C-10.62982437 5.70895362 -12.50808408 5.90392555 -15.5 6.1875 C-16.4384375 6.26355469 -17.376875 6.33960938 -18.34375 6.41796875 C-21.25651765 7.05620754 -22.77651328 8.05444912 -25 10 C-25 9.34 -25 8.68 -25 8 C-25.99 8 -26.98 8 -28 8 C-28 8.99 -28 9.98 -28 11 C-28.66 11 -29.32 11 -30 11 C-30.33 8.69 -30.66 6.38 -31 4 C-21.02082811 -2.96221295 -11.67021252 -3.63572005 0 0 Z " fill="#3B352F" transform="translate(398,295)"/>
<path d="M0 0 C4.29107161 1.55226265 8.11173658 3.70651007 12 6.0625 C12.65645508 6.45735596 13.31291016 6.85221191 13.98925781 7.2590332 C19.46480211 10.59119878 24.67779721 14.21797995 29.90625 17.92578125 C33.77030847 20.51645682 37.78608269 22.65150329 41.953125 24.7109375 C44 26 44 26 45 29 C42.69 28.67 40.38 28.34 38 28 C38.66 28.99 39.32 29.98 40 31 C35.00088076 30.52389341 32.02167317 28.96837781 28 26 C28.33 25.01 28.66 24.02 29 23 C29.99 23.33 30.98 23.66 32 24 C32 23.34 32 22.68 32 22 C29.3655804 20.7956939 27.48990266 19.9779819 24.56640625 20.109375 C21.46435659 19.97717197 20.4746525 19.21941828 18.125 17.25 C14.57087738 14.39859364 11.00375432 12.16870026 7 10 C7.66 9.67 8.32 9.34 9 9 C9 8.34 9 7.68 9 7 C8.2575 6.773125 7.515 6.54625 6.75 6.3125 C3.48860409 4.75592468 2.07105025 2.91481146 0 0 Z " fill="#553E2D" transform="translate(255,295)"/>
<path d="M0 0 C9.31705518 1.86770461 16.3051474 6.72667449 24 12 C24.99 12.66 25.98 13.32 27 14 C27.33 14.99 27.66 15.98 28 17 C28.66 17.66 29.32 18.32 30 19 C27.0999716 19.74839443 25.00325537 20 22 20 C19.65234375 18.49609375 19.65234375 18.49609375 16.9375 16.4375 C15.968125 15.71304687 14.99875 14.98859375 14 14.2421875 C13.01 13.50226563 12.02 12.76234375 11 12 C9.15178656 10.67913007 7.29803531 9.36595642 5.4375 8.0625 C4.63183594 7.49660156 3.82617188 6.93070312 2.99609375 6.34765625 C1.05015591 4.97097991 1.05015591 4.97097991 -1 4 C-0.67 2.68 -0.34 1.36 0 0 Z " fill="#5D422E" transform="translate(212,270)"/>
<path d="M0 0 C3.81430239 0.51544627 5.42061082 1.20566172 8 4 C11.43114501 6.4430131 11.43114501 6.4430131 15.5 7 C18.76507509 7 20.41251468 8.07786805 23 10 C23 10.66 23 11.32 23 12 C22.01 12 21.02 12 20 12 C20 12.66 20 13.32 20 14 C21.093125 14.66 22.18625 15.32 23.3125 16 C24.23482422 16.556875 24.23482422 16.556875 25.17578125 17.125 C27.11361926 18.21623999 27.11361926 18.21623999 30 18 C29.34 17.01 28.68 16.02 28 15 C30.97 15.99 33.94 16.98 37 18 C37 22 37 22 36 25 C35.649375 24.34 35.29875 23.68 34.9375 23 C34.298125 22.34 33.65875 21.68 33 21 C31.92105469 21.02964844 30.84210938 21.05929687 29.73046875 21.08984375 C25.38768403 20.98525312 23.85271782 20.07527358 20.375 17.5625 C18.84552734 16.47388672 18.84552734 16.47388672 17.28515625 15.36328125 C16.75422363 14.97736816 16.22329102 14.59145508 15.67626953 14.19384766 C13.93434831 12.95324253 12.16126829 11.7752149 10.37109375 10.60546875 C9.77699707 10.21222412 9.18290039 9.81897949 8.57080078 9.41381836 C6.88823066 8.30012609 5.20392114 7.18906306 3.51953125 6.078125 C1 4 1 4 0.13671875 1.734375 C0.09160156 1.16203125 0.04648437 0.5896875 0 0 Z " fill="#6D503A" transform="translate(264,307)"/>
<path d="M0 0 C0.33 1.65 0.66 3.3 1 5 C-1.24942099 6.37097893 -2.45911668 7.07798318 -5.11328125 6.6953125 C-5.83902344 6.50710938 -6.56476563 6.31890625 -7.3125 6.125 C-9.67246437 5.68812911 -9.67246437 5.68812911 -12 6 C-14.92724736 8.24117376 -16.89418325 10.9994839 -19 14 C-19.804375 14.99 -20.60875 15.98 -21.4375 17 C-21.953125 17.66 -22.46875 18.32 -23 19 C-24.06362583 10.45722748 -24.06362583 10.45722748 -21.6171875 7.10546875 C-19.82073362 5.56953957 -17.98882297 4.27402402 -16 3 C-14.88625 2.071875 -14.88625 2.071875 -13.75 1.125 C-9.30100525 -0.69504331 -4.74339872 -0.22429381 0 0 Z " fill="#6A4022" transform="translate(367,269)"/>
<path d="M0 0 C2.97 0 5.94 0 9 0 C9 5.28 9 10.56 9 16 C6.03 16 3.06 16 0 16 C0 10.72 0 5.44 0 0 Z " fill="#E86913" transform="translate(191,150)"/>
<path d="M0 0 C0.99 0.33 1.98 0.66 3 1 C2.2575 1.53625 1.515 2.0725 0.75 2.625 C-2.19598605 5.16926068 -3.96400506 7.70028406 -6 11 C-6.99 12.485 -6.99 12.485 -8 14 C-8.76385702 22.86074149 -5.57841922 29.88407294 -1.9765625 37.81640625 C0.82454917 44.07969195 2.71301946 50.26156417 4 57 C4.2475 58.2375 4.495 59.475 4.75 60.75 C5.01364611 64.17739947 4.55748675 65.97664336 3 69 C2.34 69 1.68 69 1 69 C1.09539062 68.32453125 1.19078125 67.6490625 1.2890625 66.953125 C1.39992188 66.06109375 1.51078125 65.1690625 1.625 64.25 C1.74101562 63.36828125 1.85703125 62.4865625 1.9765625 61.578125 C2.19922599 59.02537992 2.19922599 59.02537992 1.02294922 57.09350586 C-0.07240818 54.85181381 -0.24011913 53.39593827 -0.34375 50.92578125 C-0.8810245 45.17246681 -3.11245527 40.39500854 -5.5 35.1875 C-6.32544027 33.34878707 -7.14845647 31.50898352 -7.96875 29.66796875 C-8.33419922 28.86641357 -8.69964844 28.0648584 -9.07617188 27.23901367 C-10.92445069 22.75947746 -11.69104009 18.83728061 -11 14 C-7.92710961 8.89042644 -4.33864717 4.10597524 0 0 Z " fill="#9C501B" transform="translate(355,274)"/>
<path d="M0 0 C1.85776765 3.13498292 2.20140476 5.37471432 2 9 C1.34 9 0.68 9 0 9 C-0.33 10.32 -0.66 11.64 -1 13 C-1.66 12.01 -2.32 11.02 -3 10 C-2.26971972 13.10128715 -2.26971972 13.10128715 0.125 14.6875 C2 17 2 17 2.0390625 19.03515625 C1.77787631 21.03640719 1.39580607 23.02096966 1 25 C0.01 24.34 -0.98 23.68 -2 23 C-1.67 25.97 -1.34 28.94 -1 32 C-3 31 -3 31 -4.0625 28.4375 C-6.04558707 21.16618075 -7.43117174 12.29351522 -5 5 C-3.02 5.495 -3.02 5.495 -1 6 C-1.020625 5.195625 -1.04125 4.39125 -1.0625 3.5625 C-1 1 -1 1 0 0 Z " fill="#8D4310" transform="translate(366,303)"/>
<path d="M0 0 C0.66 0 1.32 0 2 0 C2 0.66 2 1.32 2 2 C2.639375 2.12375 3.27875 2.2475 3.9375 2.375 C4.618125 2.58125 5.29875 2.7875 6 3 C6.33 3.66 6.66 4.32 7 5 C6.2578125 7.09375 6.2578125 7.09375 5.125 9.5 C4.75632812 10.2940625 4.38765625 11.088125 4.0078125 11.90625 C3.3486219 13.27573124 2.67970746 14.64058509 2 16 C2.66 16 3.32 16 4 16 C3.67 17.32 3.34 18.64 3 20 C-1.97360357 18.72768281 -4.67296922 16.91415386 -8 13 C-8 12.34 -8 11.68 -8 11 C-6.68 11 -5.36 11 -4 11 C-4 11.66 -4 12.32 -4 13 C-0.72689105 12.27845688 -0.72689105 12.27845688 0.6875 9.0625 C2.13130643 6.24893511 2.13130643 6.24893511 2 4 C1.01 5.98 0.02 7.96 -1 10 C-1.99 9.34 -2.98 8.68 -4 8 C-3.34 6.35 -2.68 4.7 -2 3 C-1.34 3 -0.68 3 0 3 C0 2.01 0 1.02 0 0 Z " fill="#2E2924" transform="translate(325,334)"/>
<path d="M0 0 C2 2 2 2 2.1875 4.5625 C2 7 2 7 1 8 C-5.33857189 8.35878709 -5.33857189 8.35878709 -7.88671875 6.9765625 C-10.62982437 5.70895362 -12.50808408 5.90392555 -15.5 6.1875 C-16.4384375 6.26355469 -17.376875 6.33960938 -18.34375 6.41796875 C-21.25651765 7.05620754 -22.77651328 8.05444912 -25 10 C-24.4375 7.625 -24.4375 7.625 -23 5 C-18.65384703 3.24482284 -14.66318885 2.50391608 -10 3 C-7.97676387 3.95211112 -5.97300116 4.94773272 -4 6 C-3.01 6 -2.02 6 -1 6 C-1.33 4.68 -1.66 3.36 -2 2 C-12.21270694 0.01067619 -18.92559362 -0.96951784 -28 5 C-28.99 5.33 -29.98 5.66 -31 6 C-29.61497412 2.56629001 -28.36875613 1.26594026 -25 -0.25 C-17.00045647 -3.50101449 -8.13678606 -2.53492181 0 0 Z " fill="#944A18" transform="translate(398,295)"/>
<path d="M0 0 C0.99 0 1.98 0 3 0 C3 0.66 3 1.32 3 2 C4.32 2.33 5.64 2.66 7 3 C6.79503906 3.59167969 6.59007812 4.18335938 6.37890625 4.79296875 C6.10949219 5.58316406 5.84007812 6.37335938 5.5625 7.1875 C5.28277344 8.00734375 5.00304687 8.8271875 4.71484375 9.671875 C3.90653002 12.06918429 3.90653002 12.06918429 3.625 14.9375 C3 17 3 17 0.875 18.625 C-2.53710854 19.07005764 -3.10110362 18.56092602 -5.8125 16.625 C-6.88864507 15.76683741 -7.95579438 14.89675296 -9 14 C-8.67 12.35 -8.34 10.7 -8 9 C-6.35 9 -4.7 9 -3 9 C-2.67 9.99 -2.34 10.98 -2 12 C1.08759559 11.35932024 1.08759559 11.35932024 1.94921875 9.15234375 C2.19285156 8.42144531 2.43648438 7.69054687 2.6875 6.9375 C2.93886719 6.20402344 3.19023437 5.47054688 3.44921875 4.71484375 C3.63097656 4.14894531 3.81273437 3.58304687 4 3 C3.34 3 2.68 3 2 3 C1.67 3.66 1.34 4.32 1 5 C0.67 3.35 0.34 1.7 0 0 Z " fill="#332A24" transform="translate(314,327)"/>
<path d="M0 0 C0.66 0 1.32 0 2 0 C3.6107389 6.44295559 3.09228012 9.62879933 -0.25 15.4375 C-3.97988738 21.47159466 -7.09788889 23.36221092 -14 25 C-19.5376102 25.61529002 -24.88795077 24.09873208 -30 22 C-30.33 21.34 -30.66 20.68 -31 20 C-29.52031676 20.14049518 -28.04125484 20.28754826 -26.5625 20.4375 C-25.32693359 20.55931641 -25.32693359 20.55931641 -24.06640625 20.68359375 C-22 21 -22 21 -21 22 C-15.8255313 22.31046812 -11.85269066 21.58455205 -7 20 C-6.34 17.36 -5.68 14.72 -5 12 C-3.68 11.67 -2.36 11.34 -1 11 C-0.4254048 7.26513121 0 3.78706732 0 0 Z " fill="#87481C" transform="translate(372,339)"/>
<path d="M0 0 C1.32 0.33 2.64 0.66 4 1 C4.07347656 1.90492188 4.07347656 1.90492188 4.1484375 2.828125 C4.22320312 3.62734375 4.29796875 4.4265625 4.375 5.25 C4.44460938 6.03890625 4.51421875 6.8278125 4.5859375 7.640625 C4.8822336 10.02281527 4.8822336 10.02281527 6.05859375 12.0390625 C7.69393319 15.44545419 6.64725044 18.35186115 6 22 C5.67 22.66 5.34 23.32 5 24 C5.66 24.33 6.32 24.66 7 25 C6.34 25 5.68 25 5 25 C4.87625 25.639375 4.7525 26.27875 4.625 26.9375 C4.41875 27.618125 4.2125 28.29875 4 29 C3.34 29.33 2.68 29.66 2 30 C2.01740234 29.10861328 2.01740234 29.10861328 2.03515625 28.19921875 C2.1055051 21.73717453 1.688794 15.42253864 1 9 C0.90460938 8.11054688 0.80921875 7.22109375 0.7109375 6.3046875 C0.48028137 4.20242162 0.241109 2.1010927 0 0 Z " fill="#2B2018" transform="translate(351,319)"/>
<path d="M0 0 C3.96 1.98 3.96 1.98 8 4 C8 4.99 8 5.98 8 7 C9.22783203 7.33064453 9.22783203 7.33064453 10.48046875 7.66796875 C14.87188338 9.32998028 18.43312508 11.70079314 22.3125 14.3125 C28.0925353 18.13453045 33.86454919 21.76494412 40 25 C40 25.66 40 26.32 40 27 C35.78254288 25.74216191 32.41056327 24.183069 28.75 21.75 C27.80125 21.13253906 26.8525 20.51507813 25.875 19.87890625 C24.92625 19.25886719 23.9775 18.63882812 23 18 C17.44095598 14.43671742 12.49190867 11.41128449 6 10 C6 8.68 6 7.36 6 6 C4.68 7.32 3.36 8.64 2 10 C2.185625 9.236875 2.37125 8.47375 2.5625 7.6875 C3.22819173 4.91032625 3.22819173 4.91032625 2 2 C1.34 2 0.68 2 0 2 C0 1.34 0 0.68 0 0 Z " fill="#302014" transform="translate(207,261)"/>
<path d="M0 0 C3 0 3 0 5.3125 2.25 C6.6428125 3.61125 6.6428125 3.61125 8 5 C9.0725 5.61875 10.145 6.2375 11.25 6.875 C12.1575 7.57625 13.065 8.2775 14 9 C14.103125 10.051875 14.20625 11.10375 14.3125 12.1875 C15.38735966 18.14808541 19.6349094 21.05134053 24 25 C26.97598627 27.80552405 29.25165448 30.26026541 31 34 C19.08098867 24.24808164 8.24539426 13.05520758 0 0 Z " fill="#B17F5C" transform="translate(141,224)"/>
<path d="M0 0 C4.75 0.875 4.75 0.875 7 2 C7 2.66 7 3.32 7 4 C7.66 4 8.32 4 9 4 C10.125 5.625 10.125 5.625 11 8 C10.125 11.25 10.125 11.25 9 14 C5.37 12.02 1.74 10.04 -2 8 C-1.34 7.67 -0.68 7.34 0 7 C0 4.69 0 2.38 0 0 Z " fill="#443327" transform="translate(200,259)"/>
<path d="M0 0 C2.25 -0.3125 2.25 -0.3125 5 0 C7.1875 2.5 7.1875 2.5 9 5 C9.66 5 10.32 5 11 5 C10.34 3.68 9.68 2.36 9 1 C12.44164469 2.52961986 15.09151758 4.62729066 18 7 C18.66 7.33 19.32 7.66 20 8 C19.67 8.99 19.34 9.98 19 11 C19.66 11.66 20.32 12.32 21 13 C21 13.99 21 14.98 21 16 C17.55652683 14.79013105 15.4608287 13.66589776 13 11 C10.21852246 8.60483878 7.47179971 6.66723673 4.25 4.9375 C1 3 1 3 0 0 Z " fill="#71543F" transform="translate(244,294)"/>
<path d="M0 0 C1.32 0 2.64 0 4 0 C3.73958333 1.98567708 3.47916667 3.97135417 3.21875 5.95703125 C2.946767 8.15471706 2.946767 8.15471706 3 11 C3.66 10.01 4.32 9.02 5 8 C5.98095748 6.98131338 6.97702078 5.97648017 8 5 C7.43768609 8.93619738 6.38314183 11.79192446 4 15 C3.01 15 2.02 15 1 15 C1 14.34 1 13.68 1 13 C-1.31 13.33 -3.62 13.66 -6 14 C-5.67 13.34 -5.34 12.68 -5 12 C-4.34 12 -3.68 12 -3 12 C-2.87625 10.948125 -2.7525 9.89625 -2.625 8.8125 C-2.08859218 5.54041229 -1.36119965 2.99463924 0 0 Z " fill="#7B4622" transform="translate(320,332)"/>
<path d="M0 0 C0.99 0.33 1.98 0.66 3 1 C3 1.66 3 2.32 3 3 C5.475 3.99 5.475 3.99 8 5 C6.7191375 8.64553172 5.83328987 10.16671013 3 13 C-0.96 10.36 -4.92 7.72 -9 5 C-7.68 4.34 -6.36 3.68 -5 3 C-2.75 3.875 -2.75 3.875 -1 5 C-1 4.34 -1 3.68 -1 3 C-0.34 3 0.32 3 1 3 C0.67 2.01 0.34 1.02 0 0 Z " fill="#5B4433" transform="translate(300,324)"/>
<path d="M0 0 C0.66 0 1.32 0 2 0 C2.33 1.98 2.66 3.96 3 6 C3.99 5.67 4.98 5.34 6 5 C5.44893487 8.3063908 4.90012129 11.19982126 3 14 C0.875 14.75 0.875 14.75 -1 15 C-1 13.68 -1 12.36 -1 11 C-2.32 11.33 -3.64 11.66 -5 12 C-5 8.55639368 -4.20408468 7.25204608 -2.5 4.3125 C-2.0359375 3.50425781 -1.571875 2.69601562 -1.09375 1.86328125 C-0.7328125 1.24839844 -0.371875 0.63351562 0 0 Z " fill="#664127" transform="translate(312,325)"/>
<path d="M0 0 C3.65316671 1.24976756 4.78065836 1.67098753 7 5 C7 6.32 7 7.64 7 9 C7.66 9.33 8.32 9.66 9 10 C8.34 10 7.68 10 7 10 C7.10699219 10.61488281 7.21398437 11.22976563 7.32421875 11.86328125 C7.44410156 12.67152344 7.56398438 13.47976563 7.6875 14.3125 C7.81511719 15.11300781 7.94273437 15.91351563 8.07421875 16.73828125 C8 19 8 19 6.51953125 20.79296875 C6.01808594 21.19128906 5.51664062 21.58960938 5 22 C4.35903894 19.06989229 3.92407879 16.24078795 3.625 13.25 C3.08437898 8.60597682 1.6088229 4.37114146 0 0 Z " fill="#343331" transform="translate(365,329)"/>
<path d="M0 0 C0.66 0 1.32 0 2 0 C2 0.66 2 1.32 2 2 C2.66 2 3.32 2 4 2 C3.28547412 6.76350585 2.20465156 11.34201396 1 16 C-0.65 16 -2.3 16 -4 16 C-3.67 14.68 -3.34 13.36 -3 12 C-3.66 12 -4.32 12 -5 12 C-3.41037341 7.96479403 -1.71767682 3.98188718 0 0 Z " fill="#714222" transform="translate(332,338)"/>
<path d="M0 0 C0.66 0 1.32 0 2 0 C2.16435547 0.99580078 2.16435547 0.99580078 2.33203125 2.01171875 C3.2380524 7.05744627 4.30374102 10.61857915 7 15 C8.67839495 20.68789401 9.33397151 26.34881879 9.8125 32.25 C9.87775879 32.93553955 9.94301758 33.6210791 10.01025391 34.32739258 C10.3096317 38.78812168 9.84234336 41.49964398 7 45 C6.34 45 5.68 45 5 45 C5.48726563 43.99453125 5.48726563 43.99453125 5.984375 42.96875 C7.22295929 39.34827285 7.26528767 36.32191654 7.25 32.5 C7.25515625 31.2109375 7.2603125 29.921875 7.265625 28.59375 C7.01501716 25.2031733 6.41410261 23.04535206 5 20 C4.690625 18.865625 4.38125 17.73125 4.0625 16.5625 C3.13258247 12.99988451 3.13258247 12.99988451 1.375 10 C-0.24675117 6.46163381 -0.23091141 3.84852347 0 0 Z " fill="#9A4C17" transform="translate(344,304)"/>
<path d="M0 0 C8.16607836 4.02312037 8.16607836 4.02312037 11.1875 7.5625 C12 10 12 10 11.1875 12.3125 C10.795625 12.869375 10.40375 13.42625 10 14 C5.86573158 12.40989676 2.56832978 9.57551793 0 6 C-0.375 2.625 -0.375 2.625 0 0 Z " fill="#848484" transform="translate(155,234)"/>
<path d="M0 0 C8.27449001 0.42799086 15.33299888 3.04444196 23 6 C22.175 6.825 21.35 7.65 20.5 8.5 C18.2385682 11.16275632 17.65644487 12.88440321 17.6875 16.375 C17.790625 17.57125 17.89375 18.7675 18 20 C17.34 20 16.68 20 16 20 C14.44975536 16.89951072 14.71007985 14.42105782 15 11 C17 8.0625 17 8.0625 19 6 C17.88625 5.896875 16.7725 5.79375 15.625 5.6875 C10.62210212 5.06101905 5.67676579 3.90534902 1 2 C0.67 1.34 0.34 0.68 0 0 Z " fill="#AE622D" transform="translate(182,238)"/>
<path d="M0 0 C0.99 0 1.98 0 3 0 C5 3 5 3 4.625 5.6875 C4.41875 6.450625 4.2125 7.21375 4 8 C3.34 8 2.68 8 2 8 C2 8.66 2 9.32 2 10 C-2.75 11.125 -2.75 11.125 -5 10 C-4.45276317 6.62537285 -3.9451 4.91765 -2 2 C-1.34 2 -0.68 2 0 2 C0 1.34 0 0.68 0 0 Z " fill="#4B3224" transform="translate(338,347)"/>
<path d="M0 0 C4.21156106 1.54159027 8.01336141 3.62167943 11.875 5.875 C12.46152344 6.21402344 13.04804688 6.55304688 13.65234375 6.90234375 C14.83457417 7.58569892 16.01517117 8.271888 17.1940918 8.9609375 C18.44421214 9.68021723 19.70433012 10.38229333 20.97192383 11.0703125 C25.90250231 13.76600554 25.90250231 13.76600554 26.9375 16.25 C26.958125 16.8275 26.97875 17.405 27 18 C23.53498703 16.72341628 20.65160449 15.23378941 17.625 13.125 C14.90650886 11.26308152 12.20756769 9.51020861 9.3125 7.9375 C5.80093214 5.88356408 3.01309623 3.71913562 0 1 C0 0.67 0 0.34 0 0 Z " fill="#2B2D2D" transform="translate(150,229)"/>
<path d="M0 0 C4.47572479 1.20080421 7.57723873 2.97980405 11.21875 5.7109375 C13.42941641 7.31076187 15.7763945 8.63038192 18.15625 9.9609375 C20.26952265 11.151892 22.35933033 12.3737077 24.4375 13.625 C25.11683594 14.02976562 25.79617188 14.43453125 26.49609375 14.8515625 C26.99238281 15.23054688 27.48867188 15.60953125 28 16 C28 16.66 28 17.32 28 18 C24.15896834 16.57713608 20.76533092 14.78460879 17.25 12.6875 C12.81597666 10.04898241 8.35011729 7.55912501 3.7421875 5.23828125 C1.65040727 3.75152265 0.95941078 2.34907278 0 0 Z " fill="#312319" transform="translate(249,289)"/>
<path d="M0 0 C4.28379643 0.71260094 8.25093853 2.06921736 12.3125 3.5625 C12.95767578 3.79646484 13.60285156 4.03042969 14.26757812 4.27148438 C15.84621219 4.84447007 17.42327026 5.42179464 19 6 C19 6.99 19 7.98 19 9 C18.34 9.66 17.68 10.32 17 11 C12.38 8.69 7.76 6.38 3 4 C3 3.34 3 2.68 3 2 C2.01 1.67 1.02 1.34 0 1 C0 0.67 0 0.34 0 0 Z " fill="#8D6549" transform="translate(153,227)"/>
<path d="M0 0 C0.68707031 0.433125 1.37414062 0.86625 2.08203125 1.3125 C2.98308594 1.869375 3.88414062 2.42625 4.8125 3 C5.70582031 3.556875 6.59914063 4.11375 7.51953125 4.6875 C9.97422623 6.23384792 9.97422623 6.23384792 13 6 C12.34 5.01 11.68 4.02 11 3 C13.97 3.99 16.94 4.98 20 6 C20 10 20 10 19 13 C18.649375 12.34 18.29875 11.68 17.9375 11 C17.298125 10.34 16.65875 9.68 16 9 C14.453125 9.061875 14.453125 9.061875 12.875 9.125 C7.55967685 8.95353796 3.8699441 6.6066826 0 3 C0 2.01 0 1.02 0 0 Z " fill="#9A5628" transform="translate(281,319)"/>
<path d="M0 0 C5.85875807 3.0167047 11.42344488 6.46399261 16.9375 10.0625 C17.60015869 10.4857959 18.26281738 10.9090918 18.94555664 11.34521484 C24.73643327 15.17395529 24.73643327 15.17395529 26 19 C21.34586028 17.4456763 17.83092771 14.89013722 13.9375 12 C8.70079117 8.12624146 8.70079117 8.12624146 3 5 C1.25 3.5 1.25 3.5 0 2 C0 1.34 0 0.68 0 0 Z " fill="#A8A9AA" transform="translate(168,242)"/>
<path d="M0 0 C1.4589426 0.47730838 2.91713496 0.95691042 4.375 1.4375 C5.18710938 1.70433594 5.99921875 1.97117187 6.8359375 2.24609375 C9 3 9 3 11 4 C11.103125 4.969375 11.20625 5.93875 11.3125 6.9375 C11.6528125 8.4534375 11.6528125 8.4534375 12 10 C14.44288628 11.31068333 14.44288628 11.31068333 17 12 C17.33 12.66 17.66 13.32 18 14 C12.34115395 12.54901383 7.48351309 9.70951715 3 6 C2.67 5.01 2.34 4.02 2 3 C1.34 2.67 0.68 2.34 0 2 C0 1.34 0 0.68 0 0 Z " fill="#A25826" transform="translate(215,271)"/>
<path d="M0 0 C13.18181818 3.18181818 13.18181818 3.18181818 16 6 C13.69 5.67 11.38 5.34 9 5 C9.99 6.485 9.99 6.485 11 8 C6.00088076 7.52389341 3.02167317 5.96837781 -1 3 C-0.67 2.01 -0.34 1.02 0 0 Z " fill="#654835" transform="translate(284,318)"/>
<path d="M0 0 C-0.33 1.65 -0.66 3.3 -1 5 C-5.50353262 6.75747614 -9.17639811 7.19294408 -14 7 C-14.33 6.01 -14.66 5.02 -15 4 C-14.113125 3.87625 -13.22625 3.7525 -12.3125 3.625 C-8.17986452 2.84525746 -4.0719246 0 0 0 Z " fill="#373533" transform="translate(365,355)"/>
<path d="M0 0 C0.66 0 1.32 0 2 0 C2 0.66 2 1.32 2 2 C3.32 2.33 4.64 2.66 6 3 C6 6.10551666 5.4606285 7.35261084 4 10 C3.34 10 2.68 10 2 10 C1.67 10.99 1.34 11.98 1 13 C-0.04449911 9.86650268 0.06576355 9.01031744 1 6 C0.34 7.32 -0.32 8.64 -1 10 C-1.99 9.34 -2.98 8.68 -4 8 C-3.34 6.35 -2.68 4.7 -2 3 C-1.34 3 -0.68 3 0 3 C0 2.01 0 1.02 0 0 Z " fill="#3D342D" transform="translate(325,334)"/>
<path d="M0 0 C2.73572585 0.69907414 2.73572585 0.69907414 5 1 C5 1.33 5 1.66 5 2 C-1.53397524 2.25130674 -1.53397524 2.25130674 -3.890625 0.98046875 C-6.63186152 -0.2936986 -8.5073267 -0.09614623 -11.5 0.1875 C-12.4384375 0.26355469 -13.376875 0.33960938 -14.34375 0.41796875 C-17.25651765 1.05620754 -18.77651328 2.05444912 -21 4 C-20.4375 1.625 -20.4375 1.625 -19 -1 C-11.68692716 -3.95335634 -6.83236207 -3.63423514 0 0 Z " fill="#924612" transform="translate(394,301)"/>
<path d="M0 0 C1.98 0.99 1.98 0.99 4 2 C4 2.99 4 3.98 4 5 C4.99 5.33 5.98 5.66 7 6 C7 6.66 7 7.32 7 8 C7.99 8 8.98 8 10 8 C10 8.99 10 9.98 10 11 C7.03 11 4.06 11 1 11 C0.67 10.34 0.34 9.68 0 9 C0.350625 8.21625 0.70125 7.4325 1.0625 6.625 C2.30300466 4.04642399 2.30300466 4.04642399 1.125 1.6875 C0.75375 1.130625 0.3825 0.57375 0 0 Z " fill="#777777" transform="translate(164,239)"/>
<path d="M0 0 C4.12751449 0.60698743 7.3321148 2.03810791 11 4 C10.01 4.495 10.01 4.495 9 5 C10.98 7.97 10.98 7.97 13 11 C8.99542349 9.52462971 6.96100797 7.99103947 4 4.9375 C2.1474289 2.94824305 2.1474289 2.94824305 0 2 C0 1.34 0 0.68 0 0 Z " fill="#5D4431" transform="translate(244,290)"/>
<path d="M0 0 C3 0.25 3 0.25 5 2.25 C4.625 4.375 4.625 4.375 4 6.25 C0.17902761 5.71930939 -2.06171403 4.75298434 -5 2.25 C-3 0.25 -3 0.25 0 0 Z " fill="#231E1B" transform="translate(393,295.75)"/>
<path d="M0 0 C0.99 0.33 1.98 0.66 3 1 C3 1.66 3 2.32 3 3 C4.32 3.66 5.64 4.32 7 5 C6.67 5.66 6.34 6.32 6 7 C6.7425 7.2475 7.485 7.495 8.25 7.75 C11.20124062 9.09147301 12.84814974 10.60905526 15 13 C11.27683123 12.37658569 8.89999517 10.70328007 5.875 8.5 C2.55530546 6.05517657 2.55530546 6.05517657 -1 4 C-0.67 2.68 -0.34 1.36 0 0 Z " fill="#674731" transform="translate(212,270)"/>
<path d="M0 0 C2.5625 1.5 2.5625 1.5 5 4 C5.15374792 6.87728254 4.61846819 9.14553142 4 12 C2 11.0625 2 11.0625 0 9 C-0.36475845 5.97465051 -0.22893297 3.03336186 0 0 Z " fill="#3B3A39" transform="translate(363,316)"/>
<path d="M0 0 C2.375 -0.1875 2.375 -0.1875 5 0 C7 3 7 3 8 5 C5 7 5 7 2.9375 6.6875 C1 6 1 6 -1 5 C-0.67 3.35 -0.34 1.7 0 0 Z " fill="#28231F" transform="translate(306,336)"/>
<path d="M0 0 C3.79918838 0.51340384 5.43134786 1.2079868 8 4 C10.09989652 5.17574711 10.09989652 5.17574711 12 6 C12 6.33 12 6.66 12 7 C5.6915078 7.36395147 5.6915078 7.36395147 2.625 5.75 C0.83328193 3.82045747 0.35606691 2.58148508 0 0 Z " fill="#975B30" transform="translate(264,307)"/>
<path d="M0 0 C0.99 0.33 1.98 0.66 3 1 C3 1.66 3 2.32 3 3 C5.475 3.99 5.475 3.99 8 5 C7.67 5.99 7.34 6.98 7 8 C4.9375 8.6875 4.9375 8.6875 3 9 C1.68 7.02 0.36 5.04 -1 3 C-0.34 3 0.32 3 1 3 C0.67 2.01 0.34 1.02 0 0 Z " fill="#5C4131" transform="translate(300,324)"/>
<path d="M0 0 C1.85776765 3.13498292 2.20140476 5.37471432 2 9 C1.34 9 0.68 9 0 9 C-0.33 10.32 -0.66 11.64 -1 13 C-3 10 -3 10 -3 6 C-2.34 6 -1.68 6 -1 6 C-1.0309375 4.7934375 -1.0309375 4.7934375 -1.0625 3.5625 C-1 1 -1 1 0 0 Z " fill="#3D3B3A" transform="translate(366,303)"/>
<path d="M0 0 C1.4540625 0.0309375 1.4540625 0.0309375 2.9375 0.0625 C2.9375 1.3825 2.9375 2.7025 2.9375 4.0625 C-1.6875 6.1875 -1.6875 6.1875 -5.0625 5.0625 C-3.9375 0.08035714 -3.9375 0.08035714 0 0 Z " fill="#392D25" transform="translate(363.0625,269.9375)"/>
<path d="M0 0 C7.5273523 2.97592998 7.5273523 2.97592998 9.5 7.25 C9.665 8.1575 9.83 9.065 10 10 C8.68 10 7.36 10 6 10 C6 8.68 6 7.36 6 6 C4.68 7.32 3.36 8.64 2 10 C2.185625 9.236875 2.37125 8.47375 2.5625 7.6875 C3.22819173 4.91032625 3.22819173 4.91032625 2 2 C1.34 2 0.68 2 0 2 C0 1.34 0 0.68 0 0 Z " fill="#392A1E" transform="translate(207,261)"/>
<path d="M0 0 C5.67853635 1.41963409 9.53174216 4.39363961 14 8 C13.67 8.66 13.34 9.32 13 10 C11.20112771 9.09755571 9.41109185 8.17748214 7.625 7.25 C6.62726563 6.73953125 5.62953125 6.2290625 4.6015625 5.703125 C1.93420875 3.95692945 1.06347095 2.94696769 0 0 Z " fill="#3B291C" transform="translate(249,289)"/>
<path d="M0 0 C2.33944736 0.28730055 4.6739143 0.61936779 7 1 C7 1.99 7 2.98 7 4 C3.7 4.33 0.4 4.66 -3 5 C-1 1 -1 1 0 0 Z " fill="#342F2A" transform="translate(382,294)"/>
<path d="M0 0 C4.04809035 1.58897004 6.37563353 4.30625948 9.25 7.5 C9.70890625 7.99886719 10.1678125 8.49773437 10.640625 9.01171875 C14 12.74102493 14 12.74102493 14 15 C12 15 12 15 10.44921875 13.49609375 C6.72040203 9.13891767 3.24955451 4.72662474 0 0 Z " fill="#A15420" transform="translate(171,258)"/>
<path d="M0 0 C1.43931117 0.45261358 2.87638999 0.91232979 4.3125 1.375 C5.11300781 1.63023437 5.91351563 1.88546875 6.73828125 2.1484375 C9 3 9 3 12 5 C12 5.66 12 6.32 12 7 C6.75900345 6.58894145 3.75960806 5.75960806 0 2 C0 1.34 0 0.68 0 0 Z " fill="#52504D" transform="translate(144,224)"/>
<path d="M0 0 C4.33869838 -0.25521755 7.96679682 -0.4006298 12.0625 1.1875 C14 3 14 3 14.3125 5.6875 C14.1578125 6.8321875 14.1578125 6.8321875 14 8 C13.34 8 12.68 8 12 8 C11.87625 7.21625 11.7525 6.4325 11.625 5.625 C10.2707816 2.80898488 10.2707816 2.80898488 7.640625 2.22265625 C5.09797096 1.73064551 2.56997021 1.31769004 0 1 C0 0.67 0 0.34 0 0 Z " fill="#9B501C" transform="translate(386,294)"/>
<path d="M0 0 C4.75 0.875 4.75 0.875 7 2 C6 4 5 6 4 8 C3.34 8 2.68 8 2 8 C0.23537317 4.91190305 0 3.76687864 0 0 Z " fill="#8E4D20" transform="translate(200,259)"/>
<path d="M0 0 C1.32 0 2.64 0 4 0 C2.63029745 2.95012857 1.17390875 5.5652222 -1 8 C-1.99 8 -2.98 8 -4 8 C-3.40339753 4.65902615 -2.36924875 2.45699871 0 0 Z " fill="#393834" transform="translate(196,245)"/>
<path d="M0 0 C1.01320313 0.61488281 1.01320313 0.61488281 2.046875 1.2421875 C2.93890625 1.78101563 3.8309375 2.31984375 4.75 2.875 C5.63171875 3.40867187 6.5134375 3.94234375 7.421875 4.4921875 C9.58274093 5.75596666 11.74570395 6.91498835 14 8 C14 8.33 14 8.66 14 9 C8.3240938 8.65249554 4.01764046 7.2252389 0 3 C0 2.01 0 1.02 0 0 Z " fill="#AB5C25" transform="translate(281,319)"/>
<path d="M0 0 C3.21852831 0.63065757 5.50801069 1.78020695 8.25 3.5625 C8.95640625 4.01753906 9.6628125 4.47257812 10.390625 4.94140625 C11.18726563 5.46541016 11.18726563 5.46541016 12 6 C10 7 10 7 7.125 6.125 C6.09375 5.75375 5.0625 5.3825 4 5 C2.67088318 4.65023242 1.33917261 4.30903983 0 4 C0 2.68 0 1.36 0 0 Z " fill="#4B3728" transform="translate(288,316)"/>
<path d="M0 0 C0.99 0.33 1.98 0.66 3 1 C2.67 2.98 2.34 4.96 2 7 C0.68 7.33 -0.64 7.66 -2 8 C-2 6.02 -2 4.04 -2 2 C-1.34 2 -0.68 2 0 2 C0 1.34 0 0.68 0 0 Z " fill="#5E4232" transform="translate(338,350)"/>
<path d="M0 0 C0.66 0 1.32 0 2 0 C3.4412666 7.97037794 3.4412666 7.97037794 1.6875 12.0625 C0.8521875 13.0215625 0.8521875 13.0215625 0 14 C-0.66 14 -1.32 14 -2 14 C-1.505 13.0409375 -1.505 13.0409375 -1 12.0625 C0.33056928 7.98763159 0.16659199 4.24809575 0 0 Z " fill="#944B19" transform="translate(372,339)"/>
<path d="M0 0 C1.98 0.99 1.98 0.99 4 2 C3.67 4.31 3.34 6.62 3 9 C2.01 9 1.02 9 0 9 C0 6.03 0 3.06 0 0 Z " fill="#3C3835" transform="translate(369,341)"/>
<path d="M0 0 C1.77706209 2.66559313 2.87548273 5.0280615 4 8 C2.68 8 1.36 8 0 8 C-3 3.92857143 -3 3.92857143 -3 1 C-2.01 0.67 -1.02 0.34 0 0 Z " fill="#443930" transform="translate(350,311)"/>
<path d="M0 0 C3.37503669 1.1858237 5.64722731 2.27573689 8 5 C7.67 5.66 7.34 6.32 7 7 C2.33532934 5.52694611 2.33532934 5.52694611 0.6875 2.9375 C0 1 0 1 0 0 Z " fill="#928884" transform="translate(193,259)"/>
<path d="M0 0 C2.97 0 5.94 0 9 0 C9 0.99 9 1.98 9 3 C6.03 3 3.06 3 0 3 C0 2.01 0 1.02 0 0 Z " fill="#E26713" transform="translate(126,162)"/>
<path d="M0 0 C1.485 0.99 1.485 0.99 3 2 C3.66 1.34 4.32 0.68 5 0 C5.66 1.65 6.32 3.3 7 5 C5.35 4.67 3.7 4.34 2 4 C2.33 4.99 2.66 5.98 3 7 C2.34 7 1.68 7 1 7 C0.67 4.69 0.34 2.38 0 0 Z " fill="#231E19" transform="translate(363,325)"/>
<path d="M0 0 C3 4 3 4 3.07421875 6.140625 C2.71614583 8.09375 2.35807292 10.046875 2 12 C1.34 11.67 0.68 11.34 0 11 C0 7.37 0 3.74 0 0 Z " fill="#473E37" transform="translate(355,329)"/>
<path d="M0 0 C2 1 4 2 6 3 C4.68 4.32 3.36 5.64 2 7 C0.35 5.35 -1.3 3.7 -3 2 C-2.01 2 -1.02 2 0 2 C0 1.34 0 0.68 0 0 Z " fill="#6A4D39" transform="translate(301,330)"/>
<path d="M0 0 C4.61513112 1.31860889 8.09897612 3.21355437 12 6 C11.01 6.495 11.01 6.495 10 7 C7.6171875 6.00390625 7.6171875 6.00390625 4.875 4.5625 C3.96492187 4.08941406 3.05484375 3.61632812 2.1171875 3.12890625 C1.41851562 2.75636719 0.71984375 2.38382812 0 2 C0 1.34 0 0.68 0 0 Z " fill="#A8561F" transform="translate(239,285)"/>
<path d="M0 0 C0.66 0 1.32 0 2 0 C2.66 1.32 3.32 2.64 4 4 C3.01 5.485 3.01 5.485 2 7 C1.34 7 0.68 7 0 7 C0 6.34 0 5.68 0 5 C-0.66 5 -1.32 5 -2 5 C-1.34 3.35 -0.68 1.7 0 0 Z " fill="#894E25" transform="translate(207,263)"/>
<path d="M0 0 C3.88862987 1.26117725 5.89375599 2.45264167 8 6 C8 6.66 8 7.32 8 8 C4.63820226 6.55922954 2.40843732 4.75249979 0 2 C0 1.34 0 0.68 0 0 Z " fill="#AFACA8" transform="translate(157,240)"/>
<path d="M0 0 C3.94139078 1.66751148 6.7892812 4.22710649 10 7 C9.01 7.33 8.02 7.66 7 8 C5.17578125 6.85546875 5.17578125 6.85546875 3.3125 5.1875 C2.37857422 4.37345703 2.37857422 4.37345703 1.42578125 3.54296875 C0 2 0 2 0 0 Z " fill="#AC5B23" transform="translate(253,295)"/>
<path d="M0 0 C3.65316671 1.24976756 4.78065836 1.67098753 7 5 C4.69 5.33 2.38 5.66 0 6 C0 4.02 0 2.04 0 0 Z " fill="#606061" transform="translate(187,258)"/>
<path d="M0 0 C0.66 0.33 1.32 0.66 2 1 C1.67 1.66 1.34 2.32 1 3 C0.9310528 4.37342831 0.91532292 5.75002102 0.9375 7.125 C0.958125 8.40375 0.97875 9.6825 1 11 C0.34 11 -0.32 11 -1 11 C-2.50662097 7.98675805 -2.17770373 5.31713623 -2 2 C-1.34 1.34 -0.68 0.68 0 0 Z " fill="#954D1B" transform="translate(199,247)"/>
<path d="M0 0 C4.30764815 1.56641751 8.06171464 3.68336156 12 6 C11.67 6.66 11.34 7.32 11 8 C6.40378078 6.5129879 3.53027653 4.20187872 0 1 C0 0.67 0 0.34 0 0 Z " fill="#1E2120" transform="translate(150,229)"/>
<path d="M0 0 C0.66 0 1.32 0 2 0 C2 0.99 2 1.98 2 3 C2.66 3.33 3.32 3.66 4 4 C3.34 4 2.68 4 2 4 C1.87625 4.639375 1.7525 5.27875 1.625 5.9375 C1.41875 6.618125 1.2125 7.29875 1 8 C0.01 8.495 0.01 8.495 -1 9 C-0.67 6.03 -0.34 3.06 0 0 Z " fill="#2E2A25" transform="translate(354,340)"/>
<path d="M0 0 C4.43458973 1.3937282 6.87378374 3.60582235 10 7 C6.433255 7 5.89456323 6.36308045 3.3125 4.0625 C2.68988281 3.51722656 2.06726563 2.97195313 1.42578125 2.41015625 C0.95527344 1.94480469 0.48476563 1.47945313 0 1 C0 0.67 0 0.34 0 0 Z " fill="#4B3728" transform="translate(267,302)"/>
<path d="M0 0 C1.48280196 0.78483659 2.9611498 1.57809334 4.4375 2.375 C5.67306641 3.03628906 5.67306641 3.03628906 6.93359375 3.7109375 C9 5 9 5 10 7 C8.53775201 6.57576756 7.08026588 6.13509755 5.625 5.6875 C4.81289062 5.44386719 4.00078125 5.20023437 3.1640625 4.94921875 C1 4 1 4 -1 1 C-0.67 0.67 -0.34 0.34 0 0 Z " fill="#4B3627" transform="translate(226,276)"/>
<path d="M0 0 C1.3303125 0.495 1.3303125 0.495 2.6875 1 C5.70923347 1.91222143 7.88373706 2.18330958 11 2 C10.01 2.495 10.01 2.495 9 3 C9 3.99 9 4.98 9 6 C5.06326356 4.68775452 2.77280706 3.08089673 0 0 Z " fill="#383431" transform="translate(191,256)"/>
<path d="M0 0 C0.33 1.32 0.66 2.64 1 4 C0.01 4.33 -0.98 4.66 -2 5 C-2 5.66 -2 6.32 -2 7 C-3.32 6.67 -4.64 6.34 -6 6 C-2.25 1.125 -2.25 1.125 0 0 Z " fill="#403731" transform="translate(315,338)"/>
<path d="M0 0 C-0.33 1.32 -0.66 2.64 -1 4 C-3.31 3.34 -5.62 2.68 -8 2 C-5.44123378 -0.55876622 -3.37797483 -1.68898741 0 0 Z " fill="#4A3120" transform="translate(310,325)"/>
<path d="M0 0 C1.45922693 0.11409593 2.91740598 0.24165544 4.375 0.375 C5.59316406 0.47941406 5.59316406 0.47941406 6.8359375 0.5859375 C9 1 9 1 11 3 C3.57142857 3.28571429 3.57142857 3.28571429 0 1 C0 0.67 0 0.34 0 0 Z " fill="#9F6338" transform="translate(182,238)"/>
<path d="M0 0 C0.99 0 1.98 0 3 0 C4.38671875 1.53125 4.38671875 1.53125 5.6875 3.5 C6.12449219 4.1496875 6.56148437 4.799375 7.01171875 5.46875 C7.33785156 5.9740625 7.66398438 6.479375 8 7 C7.67 7.66 7.34 8.32 7 9 C5.83037314 7.69013727 4.66437056 6.3770374 3.5 5.0625 C2.8503125 4.33160156 2.200625 3.60070312 1.53125 2.84765625 C0 1 0 1 0 0 Z " fill="#C38254" transform="translate(141,224)"/>
<path d="M0 0 C0.66 0.99 1.32 1.98 2 3 C1.34 3 0.68 3 0 3 C0 4.98 0 6.96 0 9 C-0.99 8.67 -1.98 8.34 -3 8 C-2.45276317 4.62537285 -1.9451 2.91765 0 0 Z " fill="#3D2A20" transform="translate(336,349)"/>
<path d="M0 0 C0.99 0 1.98 0 3 0 C3 0.99 3 1.98 3 3 C2.34 3 1.68 3 1 3 C0.87625 3.78375 0.7525 4.5675 0.625 5.375 C0 8 0 8 -2 10 C-1.34 6.7 -0.68 3.4 0 0 Z " fill="#3C2E25" transform="translate(321,332)"/>
<path d="M0 0 C0.99 0.66 1.98 1.32 3 2 C2.67 3.32 2.34 4.64 2 6 C1.01 5.67 0.02 5.34 -1 5 C-0.34 5 0.32 5 1 5 C1 4.34 1 3.68 1 3 C-0.65 3 -2.3 3 -4 3 C-2.68 2.01 -1.36 1.02 0 0 Z " fill="#362E29" transform="translate(395,296)"/>
<path d="M0 0 C2.3125 -0.3125 2.3125 -0.3125 5 0 C6.8125 2.5 6.8125 2.5 8 5 C4.62496331 3.8141763 2.35277269 2.72426311 0 0 Z " fill="#A6A7A9" transform="translate(186,256)"/>
<path d="M0 0 C3.87132028 0.57352893 6.08172796 2.48704352 9 5 C6.75 5.3125 6.75 5.3125 4 5 C1.6875 2.5 1.6875 2.5 0 0 Z " fill="#B6B7BB" transform="translate(180,251)"/>
<path d="M0 0 C0.99 0 1.98 0 3 0 C3 0.66 3 1.32 3 2 C3.99 2.33 4.98 2.66 6 3 C5.01 4.485 5.01 4.485 4 6 C4 5.01 4 4.02 4 3 C3.34 3 2.68 3 2 3 C1.67 3.66 1.34 4.32 1 5 C0.67 3.35 0.34 1.7 0 0 Z " fill="#271F19" transform="translate(314,327)"/>
<path d="M0 0 C0.33 0.66 0.66 1.32 1 2 C1.99 1.67 2.98 1.34 4 1 C3.67 2.32 3.34 3.64 3 5 C2.01 5 1.02 5 0 5 C0 4.34 0 3.68 0 3 C-0.66 3 -1.32 3 -2 3 C-2 2.34 -2 1.68 -2 1 C-1.34 0.67 -0.68 0.34 0 0 Z " fill="#2B2723" transform="translate(348,347)"/>
<path d="M0 0 C1.32 0 2.64 0 4 0 C4 0.66 4 1.32 4 2 C4.66 2.33 5.32 2.66 6 3 C5.01 3.66 4.02 4.32 3 5 C1.5 3.625 1.5 3.625 0 2 C0 1.34 0 0.68 0 0 Z " fill="#221D1B" transform="translate(317,345)"/>
<path d="M0 0 C2.66666667 1.33333333 5.33333333 2.66666667 8 4 C6.02 4.99 6.02 4.99 4 6 C2.68 4.02 1.36 2.04 0 0 Z " fill="#4E382A" transform="translate(299,327)"/>
<path d="M0 0 C2.92879371 0.62759865 5.36095629 1.58622659 8 3 C8 3.66 8 4.32 8 5 C2.25 3.125 2.25 3.125 0 2 C0 1.34 0 0.68 0 0 Z " fill="#AC5B24" transform="translate(279,314)"/>
<path d="M0 0 C3.465 1.98 3.465 1.98 7 4 C7 4.66 7 5.32 7 6 C3.62496331 4.8141763 1.35277269 3.72426311 -1 1 C-0.67 0.67 -0.34 0.34 0 0 Z " fill="#554031" transform="translate(258,304)"/>
<path d="M0 0 C3 1 3 1 3 1 Z " fill="#000000" transform="translate(307,92)"/>
<path d="M0 0 C3 1 3 1 3 1 Z " fill="#000000" transform="translate(109,85)"/>
<path d="M0 0 C2 1 2 1 2 1 Z " fill="#000000" transform="translate(444,186)"/>
<path d="M0 0 C2 1 2 1 2 1 Z " fill="#000000" transform="translate(137,87)"/>
<path d="" fill="#000000" transform="translate(0,0)"/>
<path d="" fill="#000000" transform="translate(0,0)"/>
</svg>
