<?xml version="1.0" encoding="UTF-8"?>
<svg version="1.1" xmlns="http://www.w3.org/2000/svg" width="512" height="512">
<path d="M0 0 C1.98 0 3.96 0 6 0 C6 0.33 6 0.66 6 1 C9.62498334 1.02893932 13.24993713 1.04677792 16.875 1.0625 C17.90753906 1.07087891 18.94007813 1.07925781 20.00390625 1.08789062 C20.99003906 1.09111328 21.97617187 1.09433594 22.9921875 1.09765625 C23.90339355 1.10289307 24.81459961 1.10812988 25.75341797 1.11352539 C28.03687509 1.14885565 28.03687509 1.14885565 30 0 C38.04871493 -0.47182122 46.20344263 0.08794308 54.25 0.4375 C55.17200195 0.47665527 56.09400391 0.51581055 57.04394531 0.55615234 C73.31818623 1.31818623 73.31818623 1.31818623 75 3 C75.09071627 6.18750024 75.10992977 9.35164224 75.08764648 12.53930664 C75.08378402 13.59357629 75.07992155 14.64784594 75.07594204 15.73406315 C75.05844552 19.48945168 75.03098115 23.24470437 75 27 C74.99431834 27.69954347 74.98863667 28.39908694 74.98278284 29.1198287 C74.88533313 40.91656015 74.75902014 52.71296817 74.62907338 64.50937915 C74.5863909 68.39722897 74.54450995 72.28508729 74.50260442 76.17294556 C74.40308298 85.40380322 74.30219775 94.63464527 74.20043945 103.86547852 C74.10871847 112.18772795 74.01856679 120.50999252 73.92993164 128.83227539 C73.88626502 132.92529334 73.84255883 137.01831086 73.79882812 141.11132812 C73.7880803 142.11842811 73.77733247 143.12552809 73.76625896 144.16314626 C73.64892322 155.12939751 73.52701159 166.09556591 73.39199829 177.06161499 C73.38021203 178.02066077 73.36842577 178.97970655 73.35628235 179.96781433 C73.30958097 183.76155682 73.26282561 187.55529848 73.21541333 191.34903216 C73.07956323 202.25912861 72.9707805 213.16863867 72.91176319 224.07942486 C72.88168281 229.52148277 72.82983087 234.96326567 72.77575493 240.40513802 C72.75622472 242.83645275 72.74533583 245.2678547 72.74376106 247.69924736 C72.74114527 250.94344005 72.70922731 254.18601317 72.66967773 257.42993164 C72.68064012 258.82300757 72.68064012 258.82300757 72.69182396 260.24422646 C72.57302678 266.40342323 72.57302678 266.40342323 69.58258057 269.51676941 C68.73032898 270.0062355 67.87807739 270.4957016 67 271 C66.34298096 271.42958008 65.68596191 271.85916016 65.0090332 272.30175781 C64.36281006 272.68170898 63.71658691 273.06166016 63.05078125 273.453125 C62.29885498 273.89897949 61.54692871 274.34483398 60.7722168 274.80419922 C59.96051025 275.28131348 59.14880371 275.75842773 58.3125 276.25 C50.22492905 281.05215975 42.19123233 285.93438777 34.1875 290.875 C25.87038042 296.00622954 17.54079856 301.115372 9.1875 306.1875 C1.93705735 310.59121536 -5.29267436 315.02606717 -12.5 319.5 C-19.70732869 323.97393473 -26.93723317 328.40849176 -34.1875 332.8125 C-42.65774698 337.95983179 -51.11732579 343.12415197 -59.5625 348.3125 C-60.66118408 348.98716309 -61.75986816 349.66182617 -62.8918457 350.35693359 C-69.82409814 354.62593293 -76.68833493 358.97816773 -83.4609375 363.49609375 C-87.22978334 365.72841013 -87.22978334 365.72841013 -90 366 C-92.61181641 364.80688477 -92.61181641 364.80688477 -95.6015625 362.94140625 C-96.71829346 362.25344971 -97.83502441 361.56549316 -98.9855957 360.85668945 C-100.19884479 360.09214101 -101.4119765 359.3274063 -102.625 358.5625 C-103.88361641 357.78159853 -105.14298646 357.00191054 -106.40307617 356.22338867 C-109.00143341 354.61559989 -111.59544762 353.0011367 -114.18603516 351.38085938 C-118.80631297 348.49269354 -123.44882671 345.64142839 -128.09204102 342.7902832 C-131.31611714 340.81027861 -134.5371486 338.82539273 -137.7578125 336.83984375 C-148.44131923 330.26066966 -159.16958493 323.75479397 -169.89404297 317.24267578 C-180.9806536 310.5097283 -192.04910687 303.75075943 -203.06665039 296.90527344 C-207.69811952 294.03132243 -212.34172864 291.1793779 -217.00390625 288.35546875 C-218.01453125 287.74316406 -219.02515625 287.13085938 -220.06640625 286.5 C-221.98813303 285.33744299 -223.9111946 284.1770879 -225.8359375 283.01953125 C-227.58473013 281.96165091 -229.32197603 280.88434383 -231.04464722 279.78443909 C-233.9686938 277.94662606 -233.9686938 277.94662606 -237.11624146 276.55015564 C-240.69982514 274.68406385 -243.24483491 272.97230625 -246 270 C-247.71252633 264.01389975 -247.42421272 258.23151048 -247.20703125 252.0546875 C-247.18749449 250.24125981 -247.17332715 248.42776746 -247.16413879 246.61425781 C-247.12453123 241.72050783 -247.0111395 236.83096544 -246.88428497 231.93880463 C-246.76329792 226.77504024 -246.71096219 221.61057853 -246.65185547 216.44580078 C-246.54723292 207.9981472 -246.4043259 199.55200078 -246.23193359 191.10546875 C-246.01316449 180.32049446 -245.88592262 169.53675256 -245.80078125 158.75 C-245.51067754 124.24518862 -244.81726491 89.74689922 -244.06517792 55.2494278 C-244.00051858 52.27386446 -243.93687806 49.29828059 -243.87335205 46.32269287 C-243.77310465 41.65381517 -243.66830771 36.98506003 -243.55992508 32.31636429 C-243.52056049 30.59973607 -243.48243346 28.88307895 -243.44565964 27.16639328 C-243.26369926 18.73584191 -243.00908027 10.38167299 -242 2 C-230.5346554 0.65804054 -219.04871296 0.86632579 -207.52441406 0.88647461 C-205.25666302 0.88675703 -202.98891188 0.88659767 -200.72116089 0.8860321 C-194.59395965 0.88574629 -188.46677816 0.89160815 -182.33958149 0.89860606 C-175.92542433 0.90487552 -169.51126668 0.90544624 -163.09710693 0.90663147 C-152.34077551 0.90938214 -141.58445268 0.91561987 -130.828125 0.92456055 C-119.75455765 0.93375528 -108.68099227 0.94082601 -97.60742188 0.94506836 C-96.58163742 0.94546244 -96.58163742 0.94546244 -95.53513005 0.94586449 C-92.10404129 0.94716963 -88.67295251 0.94843332 -85.24186373 0.94967639 C-56.8279042 0.96002426 -28.41395249 0.97769578 0 1 C0 0.67 0 0.34 0 0 Z " fill="#110C08" transform="translate(347,93)"/>
<path d="M0 0 C1.98 0 3.96 0 6 0 C6 0.33 6 0.66 6 1 C9.62498334 1.02893932 13.24993713 1.04677792 16.875 1.0625 C17.90753906 1.07087891 18.94007813 1.07925781 20.00390625 1.08789062 C20.99003906 1.09111328 21.97617187 1.09433594 22.9921875 1.09765625 C23.90339355 1.10289307 24.81459961 1.10812988 25.75341797 1.11352539 C28.03687509 1.14885565 28.03687509 1.14885565 30 0 C38.04871493 -0.47182122 46.20344263 0.08794308 54.25 0.4375 C55.17200195 0.47665527 56.09400391 0.51581055 57.04394531 0.55615234 C73.31818623 1.31818623 73.31818623 1.31818623 75 3 C75.09071627 6.18750024 75.10992977 9.35164224 75.08764648 12.53930664 C75.08378402 13.59357629 75.07992155 14.64784594 75.07594204 15.73406315 C75.05844552 19.48945168 75.03098115 23.24470437 75 27 C74.99431834 27.69954347 74.98863667 28.39908694 74.98278284 29.1198287 C74.88533313 40.91656015 74.75902014 52.71296817 74.62907338 64.50937915 C74.5863909 68.39722897 74.54450995 72.28508729 74.50260442 76.17294556 C74.40308298 85.40380322 74.30219775 94.63464527 74.20043945 103.86547852 C74.10871847 112.18772795 74.01856679 120.50999252 73.92993164 128.83227539 C73.88626502 132.92529334 73.84255883 137.01831086 73.79882812 141.11132812 C73.7880803 142.11842811 73.77733247 143.12552809 73.76625896 144.16314626 C73.64892322 155.12939751 73.52701159 166.09556591 73.39199829 177.06161499 C73.38021203 178.02066077 73.36842577 178.97970655 73.35628235 179.96781433 C73.30958097 183.76155682 73.26282561 187.55529848 73.21541333 191.34903216 C73.07956323 202.25912861 72.9707805 213.16863867 72.91176319 224.07942486 C72.88168281 229.52148277 72.82983087 234.96326567 72.77575493 240.40513802 C72.75622472 242.83645275 72.74533583 245.2678547 72.74376106 247.69924736 C72.74114527 250.94344005 72.70922731 254.18601317 72.66967773 257.42993164 C72.68064012 258.82300757 72.68064012 258.82300757 72.69182396 260.24422646 C72.57302678 266.40342323 72.57302678 266.40342323 69.58258057 269.51676941 C68.73032898 270.0062355 67.87807739 270.4957016 67 271 C66.34298096 271.42958008 65.68596191 271.85916016 65.0090332 272.30175781 C64.36281006 272.68170898 63.71658691 273.06166016 63.05078125 273.453125 C62.29885498 273.89897949 61.54692871 274.34483398 60.7722168 274.80419922 C59.96051025 275.28131348 59.14880371 275.75842773 58.3125 276.25 C50.22492905 281.05215975 42.19123233 285.93438777 34.1875 290.875 C25.87038042 296.00622954 17.54079856 301.115372 9.1875 306.1875 C1.93705735 310.59121536 -5.29267436 315.02606717 -12.5 319.5 C-19.70732869 323.97393473 -26.93723317 328.40849176 -34.1875 332.8125 C-42.65774698 337.95983179 -51.11732579 343.12415197 -59.5625 348.3125 C-60.66118408 348.98716309 -61.75986816 349.66182617 -62.8918457 350.35693359 C-69.82409814 354.62593293 -76.68833493 358.97816773 -83.4609375 363.49609375 C-87.22978334 365.72841013 -87.22978334 365.72841013 -90 366 C-92.61181641 364.80688477 -92.61181641 364.80688477 -95.6015625 362.94140625 C-96.71829346 362.25344971 -97.83502441 361.56549316 -98.9855957 360.85668945 C-100.19884479 360.09214101 -101.4119765 359.3274063 -102.625 358.5625 C-103.88361641 357.78159853 -105.14298646 357.00191054 -106.40307617 356.22338867 C-109.00143341 354.61559989 -111.59544762 353.0011367 -114.18603516 351.38085938 C-118.80631297 348.49269354 -123.44882671 345.64142839 -128.09204102 342.7902832 C-131.31611714 340.81027861 -134.5371486 338.82539273 -137.7578125 336.83984375 C-148.44131923 330.26066966 -159.16958493 323.75479397 -169.89404297 317.24267578 C-180.9806536 310.5097283 -192.04910687 303.75075943 -203.06665039 296.90527344 C-207.69811952 294.03132243 -212.34172864 291.1793779 -217.00390625 288.35546875 C-218.01453125 287.74316406 -219.02515625 287.13085938 -220.06640625 286.5 C-221.98813303 285.33744299 -223.9111946 284.1770879 -225.8359375 283.01953125 C-227.58473013 281.96165091 -229.32197603 280.88434383 -231.04464722 279.78443909 C-233.9686938 277.94662606 -233.9686938 277.94662606 -237.11624146 276.55015564 C-240.69982514 274.68406385 -243.24483491 272.97230625 -246 270 C-247.71252633 264.01389975 -247.42421272 258.23151048 -247.20703125 252.0546875 C-247.18749449 250.24125981 -247.17332715 248.42776746 -247.16413879 246.61425781 C-247.12453123 241.72050783 -247.0111395 236.83096544 -246.88428497 231.93880463 C-246.76329792 226.77504024 -246.71096219 221.61057853 -246.65185547 216.44580078 C-246.54723292 207.9981472 -246.4043259 199.55200078 -246.23193359 191.10546875 C-246.01316449 180.32049446 -245.88592262 169.53675256 -245.80078125 158.75 C-245.51067754 124.24518862 -244.81726491 89.74689922 -244.06517792 55.2494278 C-244.00051858 52.27386446 -243.93687806 49.29828059 -243.87335205 46.32269287 C-243.77310465 41.65381517 -243.66830771 36.98506003 -243.55992508 32.31636429 C-243.52056049 30.59973607 -243.48243346 28.88307895 -243.44565964 27.16639328 C-243.26369926 18.73584191 -243.00908027 10.38167299 -242 2 C-230.5346554 0.65804054 -219.04871296 0.86632579 -207.52441406 0.88647461 C-205.25666302 0.88675703 -202.98891188 0.88659767 -200.72116089 0.8860321 C-194.59395965 0.88574629 -188.46677816 0.89160815 -182.33958149 0.89860606 C-175.92542433 0.90487552 -169.51126668 0.90544624 -163.09710693 0.90663147 C-152.34077551 0.90938214 -141.58445268 0.91561987 -130.828125 0.92456055 C-119.75455765 0.93375528 -108.68099227 0.94082601 -97.60742188 0.94506836 C-96.58163742 0.94546244 -96.58163742 0.94546244 -95.53513005 0.94586449 C-92.10404129 0.94716963 -88.67295251 0.94843332 -85.24186373 0.94967639 C-56.8279042 0.96002426 -28.41395249 0.97769578 0 1 C0 0.67 0 0.34 0 0 Z M-234 93 C-234.1244413 94.99640141 -234.17808572 96.99722386 -234.20532227 98.99731445 C-234.22521713 100.30528488 -234.245112 101.61325531 -234.26560974 102.96086121 C-234.28269336 104.4283328 -234.29961995 105.89580623 -234.31640625 107.36328125 C-234.33753622 108.9047743 -234.35899318 110.4462629 -234.38075256 111.98774719 C-234.57569857 126.29854489 -234.70530991 140.61041248 -234.8269043 154.92199707 C-234.9248007 166.26008284 -235.06177157 177.59670617 -235.23798275 188.93384838 C-235.36739009 197.40747788 -235.46241595 205.88109938 -235.53388309 214.35541248 C-235.57842783 219.4996121 -235.63878619 224.64255168 -235.73635864 229.78604126 C-235.82799787 234.65076938 -235.8768253 239.5140845 -235.89340019 244.37962914 C-235.90702443 246.17440777 -235.93619959 247.96914513 -235.98198128 249.76339149 C-236.57968125 259.1045913 -236.57968125 259.1045913 -233.10290527 267.32980347 C-230.78703081 268.90537066 -228.60197462 269.98057421 -226 271 C-225.12504883 271.54640137 -224.25009766 272.09280273 -223.34863281 272.65576172 C-222.64061523 273.07615723 -221.93259766 273.49655273 -221.203125 273.9296875 C-219.99378296 274.65079712 -219.99378296 274.65079712 -218.76000977 275.38647461 C-217.93170654 275.87768799 -217.10340332 276.36890137 -216.25 276.875 C-214.4723432 277.93567344 -212.69499889 278.99687076 -210.91796875 280.05859375 C-210.0676709 280.56632324 -209.21737305 281.07405273 -208.34130859 281.59716797 C-203.19593762 284.68009827 -198.09748972 287.83870413 -193 291 C-177.11079736 300.8480657 -161.18395286 310.62988969 -145.21386719 320.34619141 C-127.85476024 330.90785522 -127.85476024 330.90785522 -119.87353516 335.84228516 C-118.42314235 336.73852736 -116.97218516 337.63385626 -115.52099609 338.52880859 C-112.70078174 340.26804891 -109.8815525 342.00887722 -107.0625 343.75 C-105.71067627 344.58349976 -105.71067627 344.58349976 -104.33154297 345.43383789 C-103.47061035 345.96614014 -102.60967773 346.49844238 -101.72265625 347.046875 C-100.90297363 347.55283203 -100.08329102 348.05878906 -99.23876953 348.58007812 C-97.31931573 349.79747652 -95.47068923 351.07138987 -93.62109375 352.390625 C-90.94450375 354.34883124 -90.94450375 354.34883124 -87 354 C-87 353.34 -87 352.68 -87 352 C-86.30648437 351.74734375 -85.61296875 351.4946875 -84.8984375 351.234375 C-81.60139928 349.83024552 -78.68729002 348.11400262 -75.625 346.25 C-74.9870752 345.86295898 -74.34915039 345.47591797 -73.69189453 345.07714844 C-72.25646473 344.20545718 -70.82212032 343.33197692 -69.38867188 342.45703125 C-66.80879288 340.88336835 -64.22494173 339.31636372 -61.640625 337.75 C-51.48703396 331.58983506 -41.36605116 325.38000086 -31.27807617 319.11303711 C-23.16719624 314.08379158 -15.00563055 309.1391648 -6.84268188 304.19515991 C0.39040176 299.81323125 7.60276556 295.40403996 14.75585938 290.89257812 C22.73865808 285.87698654 30.8223913 281.02364886 38.89257812 276.15039062 C50.55831371 269.87319206 50.55831371 269.87319206 61 262 C64.11175476 223.2406622 62.06321449 183.3562382 62.03004074 144.51511383 C62.0254657 138.56549653 62.0235464 132.61587834 62.0213623 126.66625977 C62.01674964 115.1108376 62.00934088 103.55541925 62 92 C24.4357667 91.977135 -13.12846556 91.95950247 -50.69270441 91.94893467 C-55.12269162 91.94768389 -59.55267882 91.94638958 -63.98266602 91.94506836 C-64.86463506 91.94480605 -65.74660411 91.94454374 -66.65529949 91.94427348 C-80.95534931 91.9399165 -95.25539512 91.93202879 -109.55544256 91.9228472 C-124.21735804 91.91351145 -138.87927141 91.90794456 -153.54118973 91.90591151 C-162.59587761 91.90453611 -171.65055419 91.90018466 -180.70523859 91.89208353 C-186.90568934 91.88681704 -193.10613421 91.88519548 -199.30658703 91.88649862 C-202.88941512 91.88714216 -206.47222338 91.88612279 -210.05504799 91.88079453 C-213.93017437 91.8750733 -217.8052745 91.8769989 -221.68040466 91.87974548 C-223.39778002 91.87537622 -223.39778002 91.87537622 -225.14984983 91.87091869 C-226.69423895 91.87390526 -226.69423895 91.87390526 -228.26982784 91.87695217 C-229.61346823 91.87638259 -229.61346823 91.87638259 -230.98425287 91.8758015 C-232.99724756 91.77648653 -232.99724756 91.77648653 -234 93 Z " fill="#F26E14" transform="translate(347,93)"/>
<path d="M0 0 C0 0.33 0 0.66 0 1 C2.31 1.33 4.62 1.66 7 2 C7 1.34 7 0.68 7 0 C33.52856145 0.10183709 63.57984289 12.28992145 87 24 C87 24.99 87 25.98 87 27 C79.25 28.125 79.25 28.125 77 27 C77.474375 27.391875 77.94875 27.78375 78.4375 28.1875 C80.35179633 30.40808374 80.61266988 32.13375709 81 35 C81.33 33.02 81.66 31.04 82 29 C83.98 29 85.96 29 88 29 C89.53101034 104.24915831 89.53101034 104.24915831 70.5625 133.375 C68.60868568 136.40078284 66.73916134 139.344067 65.25 142.625 C64 145 64 145 61 146 C59.60560336 146.06665376 58.20830125 146.08538199 56.8125 146.0625 C55.554375 146.041875 54.29625 146.02125 53 146 C55.891052 140.61445624 58.01930942 137.22537324 64 135 C62.68 134.67 61.36 134.34 60 134 C59.35933594 134.85722656 58.71867188 135.71445312 58.05859375 136.59765625 C46.91823284 151.38655028 33.90688865 162.48832985 18 172 C18.99 172.33 19.98 172.66 21 173 C21 173.66 21 174.32 21 175 C32.53173312 170.2169516 41.4143578 162.6081549 50.73925781 154.48486328 C54.78959873 151 54.78959873 151 57 151 C51.50210225 163.80023374 31.95324164 174.1568521 20 180 C18.98164063 180.50789062 17.96328125 181.01578125 16.9140625 181.5390625 C9.07854357 185.29927132 9.07854357 185.29927132 4 185 C4 184.34 4 183.68 4 183 C4.99 182.67 5.98 182.34 7 182 C6.34 181.34 5.68 180.68 5 180 C6.65 179.34 8.3 178.68 10 178 C10 177.34 10 176.68 10 176 C9.154375 176.515625 8.30875 177.03125 7.4375 177.5625 C3.25865509 179.31001696 1.38978962 178.95853001 -3 178 C-17.47343739 171.33303472 -29.54894345 160.88013492 -41 150 C-41.71929687 149.35675781 -42.43859375 148.71351563 -43.1796875 148.05078125 C-59.08258188 133.32942721 -70.11376262 108.3813572 -72 87 C-72.15569724 82.42064399 -72.16395415 77.84342649 -72.16796875 73.26171875 C-72.17296135 71.28604668 -72.17296135 71.28604668 -72.17805481 69.27046204 C-72.18401429 66.49597349 -72.18589766 63.72151597 -72.18530273 60.94702148 C-72.18520051 57.38815419 -72.19892881 53.82948369 -72.21607494 50.27066326 C-72.22983176 46.87184505 -72.22928199 43.47306449 -72.23046875 40.07421875 C-72.23765427 38.79407394 -72.24483978 37.51392914 -72.25224304 36.19499207 C-72.24916641 35.01649185 -72.24608978 33.83799164 -72.24291992 32.6237793 C-72.24434494 31.5834404 -72.24576996 30.5431015 -72.24723816 29.47123718 C-72 27 -72 27 -70 25 C-70 24.34 -70 23.68 -70 23 C-53.21765012 16.21511292 -36.25798003 10.340236 -19.0168457 4.84863281 C-18.23404739 4.59918411 -17.45124908 4.34973541 -16.64472961 4.09272766 C-15.16497758 3.62225786 -13.68460686 3.15372827 -12.20353699 2.68742371 C-3.43222872 -0.09032181 -3.43222872 -0.09032181 0 0 Z " fill="#A67F49" transform="translate(255,212)"/>
<path d="M0 0 C1.98 0 3.96 0 6 0 C6 0.33 6 0.66 6 1 C9.62498334 1.02893932 13.24993713 1.04677792 16.875 1.0625 C17.90753906 1.07087891 18.94007813 1.07925781 20.00390625 1.08789062 C20.99003906 1.09111328 21.97617187 1.09433594 22.9921875 1.09765625 C23.90339355 1.10289307 24.81459961 1.10812988 25.75341797 1.11352539 C28.03687509 1.14885565 28.03687509 1.14885565 30 0 C38.04871493 -0.47182122 46.20344263 0.08794308 54.25 0.4375 C55.17200195 0.47665527 56.09400391 0.51581055 57.04394531 0.55615234 C73.31818623 1.31818623 73.31818623 1.31818623 75 3 C75.09071627 6.18750024 75.10992977 9.35164224 75.08764648 12.53930664 C75.08378402 13.59357629 75.07992155 14.64784594 75.07594204 15.73406315 C75.05844552 19.48945168 75.03098115 23.24470437 75 27 C74.99431834 27.69954347 74.98863667 28.39908694 74.98278284 29.1198287 C74.88533313 40.91656015 74.75902014 52.71296817 74.62907338 64.50937915 C74.5863909 68.39722897 74.54450995 72.28508729 74.50260442 76.17294556 C74.40308298 85.40380322 74.30219775 94.63464527 74.20043945 103.86547852 C74.10871847 112.18772795 74.01856679 120.50999252 73.92993164 128.83227539 C73.88626502 132.92529334 73.84255883 137.01831086 73.79882812 141.11132812 C73.7880803 142.11842811 73.77733247 143.12552809 73.76625896 144.16314626 C73.64892322 155.12939751 73.52701159 166.09556591 73.39199829 177.06161499 C73.38021203 178.02066077 73.36842577 178.97970655 73.35628235 179.96781433 C73.30958097 183.76155682 73.26282561 187.55529848 73.21541333 191.34903216 C73.07956323 202.25912861 72.9707805 213.16863867 72.91176319 224.07942486 C72.88168281 229.52148277 72.82983087 234.96326567 72.77575493 240.40513802 C72.75622472 242.83645275 72.74533583 245.2678547 72.74376106 247.69924736 C72.74114527 250.94344005 72.70922731 254.18601317 72.66967773 257.42993164 C72.68064012 258.82300757 72.68064012 258.82300757 72.69182396 260.24422646 C72.57302678 266.40342323 72.57302678 266.40342323 69.58258057 269.51676941 C68.73032898 270.0062355 67.87807739 270.4957016 67 271 C66.34298096 271.42958008 65.68596191 271.85916016 65.0090332 272.30175781 C64.36281006 272.68170898 63.71658691 273.06166016 63.05078125 273.453125 C62.29885498 273.89897949 61.54692871 274.34483398 60.7722168 274.80419922 C59.96051025 275.28131348 59.14880371 275.75842773 58.3125 276.25 C50.22492905 281.05215975 42.19123233 285.93438777 34.1875 290.875 C25.87038042 296.00622954 17.54079856 301.115372 9.1875 306.1875 C1.93705735 310.59121536 -5.29267436 315.02606717 -12.5 319.5 C-19.70732869 323.97393473 -26.93723317 328.40849176 -34.1875 332.8125 C-42.65774698 337.95983179 -51.11732579 343.12415197 -59.5625 348.3125 C-60.66118408 348.98716309 -61.75986816 349.66182617 -62.8918457 350.35693359 C-69.82409814 354.62593293 -76.68833493 358.97816773 -83.4609375 363.49609375 C-87.22978334 365.72841013 -87.22978334 365.72841013 -90 366 C-92.61181641 364.80688477 -92.61181641 364.80688477 -95.6015625 362.94140625 C-96.71829346 362.25344971 -97.83502441 361.56549316 -98.9855957 360.85668945 C-100.19884479 360.09214101 -101.4119765 359.3274063 -102.625 358.5625 C-103.88361641 357.78159853 -105.14298646 357.00191054 -106.40307617 356.22338867 C-109.00143341 354.61559989 -111.59544762 353.0011367 -114.18603516 351.38085938 C-118.80631297 348.49269354 -123.44882671 345.64142839 -128.09204102 342.7902832 C-131.31611714 340.81027861 -134.5371486 338.82539273 -137.7578125 336.83984375 C-148.44131923 330.26066966 -159.16958493 323.75479397 -169.89404297 317.24267578 C-180.9806536 310.5097283 -192.04910687 303.75075943 -203.06665039 296.90527344 C-207.69811952 294.03132243 -212.34172864 291.1793779 -217.00390625 288.35546875 C-218.01453125 287.74316406 -219.02515625 287.13085938 -220.06640625 286.5 C-221.98813303 285.33744299 -223.9111946 284.1770879 -225.8359375 283.01953125 C-227.58473013 281.96165091 -229.32197603 280.88434383 -231.04464722 279.78443909 C-233.9686938 277.94662606 -233.9686938 277.94662606 -237.11624146 276.55015564 C-240.69982514 274.68406385 -243.24483491 272.97230625 -246 270 C-247.71252633 264.01389975 -247.42421272 258.23151048 -247.20703125 252.0546875 C-247.18749449 250.24125981 -247.17332715 248.42776746 -247.16413879 246.61425781 C-247.12453123 241.72050783 -247.0111395 236.83096544 -246.88428497 231.93880463 C-246.76329792 226.77504024 -246.71096219 221.61057853 -246.65185547 216.44580078 C-246.54723292 207.9981472 -246.4043259 199.55200078 -246.23193359 191.10546875 C-246.01316449 180.32049446 -245.88592262 169.53675256 -245.80078125 158.75 C-245.51067754 124.24518862 -244.81726491 89.74689922 -244.06517792 55.2494278 C-244.00051858 52.27386446 -243.93687806 49.29828059 -243.87335205 46.32269287 C-243.77310465 41.65381517 -243.66830771 36.98506003 -243.55992508 32.31636429 C-243.52056049 30.59973607 -243.48243346 28.88307895 -243.44565964 27.16639328 C-243.26369926 18.73584191 -243.00908027 10.38167299 -242 2 C-230.5346554 0.65804054 -219.04871296 0.86632579 -207.52441406 0.88647461 C-205.25666302 0.88675703 -202.98891188 0.88659767 -200.72116089 0.8860321 C-194.59395965 0.88574629 -188.46677816 0.89160815 -182.33958149 0.89860606 C-175.92542433 0.90487552 -169.51126668 0.90544624 -163.09710693 0.90663147 C-152.34077551 0.90938214 -141.58445268 0.91561987 -130.828125 0.92456055 C-119.75455765 0.93375528 -108.68099227 0.94082601 -97.60742188 0.94506836 C-96.58163742 0.94546244 -96.58163742 0.94546244 -95.53513005 0.94586449 C-92.10404129 0.94716963 -88.67295251 0.94843332 -85.24186373 0.94967639 C-56.8279042 0.96002426 -28.41395249 0.97769578 0 1 C0 0.67 0 0.34 0 0 Z M-237 7 C-237.84498253 33.71898515 -237.84498253 33.71898515 -238.38891602 60.44018555 C-238.41840748 62.35842206 -238.44811918 64.27665519 -238.47802734 66.19488525 C-238.55677595 71.2877165 -238.63237719 76.38058946 -238.70718122 81.47347999 C-238.78695871 86.87433781 -238.86939552 92.27515524 -238.95140076 97.67597961 C-239.08848717 106.73163228 -239.22347968 115.78731429 -239.35717773 124.84301758 C-239.51052819 135.22800973 -239.66729404 145.6129461 -239.82587105 155.99785966 C-239.98007454 166.1020008 -240.13176955 176.20617821 -240.2823925 186.31037331 C-240.3457795 190.55957089 -240.41000833 194.80875441 -240.47497749 199.05792809 C-240.50609108 201.10345299 -240.53718307 203.14897821 -240.56825256 205.19450378 C-240.59102106 206.68228802 -240.59102106 206.68228802 -240.61424953 208.2001285 C-240.68616301 212.98138366 -240.75154056 217.76255637 -240.80164433 222.54409313 C-240.82068017 224.33932236 -240.83977001 226.13455101 -240.85891724 227.92977905 C-240.86792704 228.79072491 -240.87693685 229.65167076 -240.88621968 230.53870589 C-240.94344366 235.31495651 -241.0572392 240.08403631 -241.2412284 244.85707563 C-241.31890286 246.93641488 -241.38030987 249.0155263 -241.43555355 251.09557056 C-241.50414624 253.52655051 -241.60290947 255.95698291 -241.7403574 258.38504314 C-241.9139535 264.22089593 -241.9139535 264.22089593 -239.26440907 269.22843742 C-235.74055972 272.33515966 -232.05147178 274.72277845 -227.67578125 276.46875 C-221.6191287 279.08352556 -216.20040108 282.43189507 -210.625 285.9375 C-208.67123898 287.12693682 -206.7155061 288.31314074 -204.7578125 289.49609375 C-199.31873572 292.79910668 -193.90575304 296.14280202 -188.5 299.5 C-180.34009612 304.56550874 -172.14643601 309.57300354 -163.9375 314.55859375 C-155.50933536 319.6809321 -147.11036805 324.84992918 -138.71459961 330.02514648 C-130.50362615 335.08319443 -122.27722829 340.11536918 -114.02001953 345.09765625 C-109.69201805 347.71597127 -105.40282049 350.36729204 -101.1875 353.1640625 C-100.45289551 353.64568848 -99.71829102 354.12731445 -98.96142578 354.62353516 C-97.61597743 355.51115952 -96.28008128 356.41352075 -94.95654297 357.33349609 C-93.01025204 358.67042886 -93.01025204 358.67042886 -90 360 C-86.49637605 358.92780237 -83.50484621 357.21548114 -80.39453125 355.3046875 C-79.50725342 354.76215332 -78.61997559 354.21961914 -77.70581055 353.66064453 C-76.75101807 353.07138184 -75.79622559 352.48211914 -74.8125 351.875 C-73.80292236 351.25608887 -72.79334473 350.63717773 -71.75317383 349.99951172 C-68.49971011 348.00356151 -65.24971449 346.00204764 -62 344 C-59.87253195 342.69248683 -57.74492853 341.3851939 -55.6171875 340.078125 C-49.07503483 336.05709458 -42.53717996 332.02910826 -36 328 C-22.58108744 319.72942281 -9.15466991 311.47276506 4.31713867 303.28857422 C11.5606859 298.88476659 18.7832663 294.44759015 26 290 C61.08514341 268.37864581 61.08514341 268.37864581 64.59869385 266.92443848 C67.3784137 265.12737166 67.3784137 265.12737166 67.65049744 261.44038391 C67.68839281 259.90639443 67.69826797 258.37157618 67.68725586 256.8371582 C67.70766906 255.55415738 67.70766906 255.55415738 67.72849464 254.24523735 C67.76860785 251.32600178 67.77268588 248.40777451 67.77734375 245.48828125 C67.79877583 243.36361018 67.82235956 241.23895994 67.84788513 239.11433411 C67.89960939 234.3666042 67.93442284 229.61910852 67.95770264 224.87115479 C67.99510824 217.27174082 68.06321442 209.67285032 68.13568044 202.07371306 C68.30087719 184.59135943 68.41357708 167.10879463 68.5174135 149.62598622 C68.55672766 143.0420998 68.59991071 136.45824354 68.64418942 129.87438887 C68.69360421 122.51900134 68.74070465 115.16360061 68.78675652 107.8081913 C68.80569656 104.783965 68.82522905 101.75974366 68.84536934 98.73552513 C69.04503567 68.15629023 69 37.58108064 69 7 C-31.98 7 -132.96 7 -237 7 Z " fill="#030100" transform="translate(347,93)"/>
<path d="M0 0 C1.34364039 0.00056958 1.34364039 0.00056958 2.71442503 0.00115067 C3.74401777 -0.00084038 4.77361051 -0.00283143 5.83440304 -0.00488281 C7.5517784 -0.00051355 7.5517784 -0.00051355 9.30384821 0.00394398 C11.11210176 0.00266234 11.11210176 0.00266234 12.9568857 0.00135481 C16.3181121 -0.0000134 19.67928098 0.00313417 23.04050046 0.00813287 C26.65946695 0.01243399 30.27843152 0.01099119 33.89739984 0.0102306 C40.17253094 0.00970515 46.44765168 0.01285415 52.72278017 0.01846844 C61.79566628 0.02658059 70.86854736 0.02919837 79.9414367 0.03045643 C94.6600573 0.0326474 109.37867238 0.0393087 124.09728998 0.04875904 C138.39872199 0.057932 152.7001525 0.0650134 167.00158685 0.06926686 C168.32293831 0.06966094 168.32293831 0.06966094 169.67098374 0.07006299 C174.09001412 0.07136798 178.5090445 0.0726317 182.9280749 0.07387489 C219.61347146 0.0842489 256.29886173 0.10186844 292.98425287 0.1241985 C292.98411408 1.3267374 292.98397529 2.5292763 292.9838323 3.76825577 C292.9825456 15.29982935 292.9816192 26.83140291 292.98101461 38.36297655 C292.98069331 44.28641022 292.9802602 50.20984384 292.9795379 56.13327748 C292.90517689 109.06339259 292.90517689 109.06339259 293.10900968 161.992827 C293.08217132 169.00468541 293.08217132 169.00468541 290.08666986 172.0591045 C287.78399463 173.61970503 285.47780123 174.89636926 282.98425287 176.1241985 C281.61406 176.98754811 281.61406 176.98754811 280.21618646 177.86833912 C279.44613275 178.33433522 278.67607904 178.80033131 277.88269037 179.2804485 C276.99202875 179.82088795 276.10136713 180.3613274 275.18371576 180.91814381 C274.25164301 181.48114186 273.31957025 182.0441399 272.35925287 182.6241985 C270.32408537 183.85855494 268.28892946 185.0929305 266.25378412 186.3273235 C265.21818353 186.9544524 264.18258295 187.58158131 263.11560053 188.22771412 C258.08967135 191.27164191 253.06734667 194.32147984 248.04675287 197.3741985 C247.07745844 197.96354176 246.108164 198.55288502 245.10949701 199.16008717 C239.81591447 202.38378086 234.54224491 205.63541362 229.29675287 208.9366985 C222.01398361 213.51988729 214.65656516 217.97877808 207.29675287 222.4366985 C196.34804689 229.06929022 185.43871077 235.76187868 174.5667724 242.51970631 C169.87555628 245.43430948 165.17975616 248.3415092 160.48425287 251.2491985 C159.16566278 252.06662525 159.16566278 252.06662525 157.82043451 252.90056568 C156.22116838 253.89123656 154.62091174 254.88031124 153.01940912 255.86736256 C151.34638373 256.9005601 149.68000009 257.94450485 148.01550287 258.991386 C145.98425287 260.1241985 145.98425287 260.1241985 143.98425287 260.1241985 C143.98425287 260.7841985 143.98425287 261.4441985 143.98425287 262.1241985 C140.10493345 261.54676726 137.41985954 260.41513749 134.09753412 258.350761 C133.16876459 257.77906178 132.23999506 257.20736256 131.283081 256.61833912 C130.29759271 256.00152272 129.31210443 255.38470631 128.29675287 254.7491985 C127.26872553 254.11433522 126.24069818 253.47947193 125.1815185 252.82537037 C123.09006994 251.53363151 121.00037449 250.23904972 118.91247553 248.94158131 C114.94899298 246.48167102 110.96743079 244.05202719 106.98425287 241.6241985 C105.53887538 240.74019016 104.09356426 239.85607331 102.64831537 238.97185475 C99.20900259 236.86988656 95.76544453 234.77500744 92.32019037 232.68279225 C83.21757994 227.15406575 74.12567826 221.61421045 65.10949701 215.94548756 C58.39311339 211.73295541 51.61188608 207.62795075 44.83508295 203.51360279 C37.3960156 198.99337654 29.98708733 194.42651674 22.59191889 189.83489186 C15.88492237 185.67296959 9.15344212 181.5523688 2.40295404 177.4613567 C-2.90846403 174.2314816 -2.90846403 174.2314816 -4.01574713 173.1241985 C-4.11648088 170.68517563 -4.15190517 168.27449132 -4.14514166 165.83489186 C-4.14686849 165.06436576 -4.14859532 164.29383967 -4.15037447 163.4999643 C-4.15476445 160.90463603 -4.15175632 158.30937152 -4.14855963 155.71404225 C-4.14961793 153.86959013 -4.15100337 152.02513818 -4.15269476 150.18068653 C-4.15552159 145.18108276 -4.15107263 140.18151047 -4.14451987 135.18191105 C-4.140762 132.07399922 -4.13868566 128.96609039 -4.1370545 125.85817677 C-4.11895649 96.59510362 -3.96151916 67.33462033 -3.60958105 38.07361943 C-3.5781772 35.43081335 -3.5484399 32.78799249 -3.51898199 30.14516407 C-3.47235045 26.02000787 -3.42010344 21.89496232 -3.36293226 17.76993901 C-3.34259244 16.26160524 -3.32379988 14.75324973 -3.30663878 13.24487644 C-3.28286176 11.20369447 -3.25217873 9.16259634 -3.2210694 7.12151295 C-3.20552511 5.980033 -3.18998083 4.83855305 -3.17396551 3.6624828 C-2.95702939 0.18219478 -2.95702939 0.18219478 0 0 Z M0.98425287 7.1241985 C0.26875994 28.55729202 -0.24143625 49.98032807 -0.47277838 71.42497975 C-0.48028923 72.11365501 -0.48780008 72.80233028 -0.49553853 73.5118745 C-0.56642541 80.03648378 -0.63474498 86.5611151 -0.69627863 93.08581978 C-0.77409347 101.32005647 -0.86587197 109.55389347 -0.97533214 117.78777206 C-1.05218671 123.65330974 -1.11370729 129.51888719 -1.16373849 135.38471437 C-1.19381567 138.86324697 -1.23057455 142.34139942 -1.2840367 145.81965786 C-1.34276211 149.66368539 -1.36980731 153.50757323 -1.39392096 157.3519817 C-1.41608176 158.49200138 -1.43824255 159.63202107 -1.46107489 160.8065868 C-1.46254523 161.84982105 -1.46401556 162.89305531 -1.46553046 163.96790272 C-1.47529315 164.87264489 -1.48505585 165.77738707 -1.49511439 166.70954567 C-0.66483994 170.89177657 2.28044973 172.6512719 5.67541498 174.93254811 C6.69385492 175.54106617 7.71229486 176.14958424 8.76159662 176.77654225 C9.59955271 177.2809383 9.59955271 177.2809383 10.4544372 177.79552418 C11.65162385 178.5153188 12.85038339 179.23250274 14.05056757 179.9472881 C16.59262459 181.46124547 19.12711366 182.98766794 21.66209406 184.51343495 C22.94544721 185.28571889 24.22919034 186.05735517 25.51332086 186.82834584 C30.97166935 190.10733068 36.3911202 193.44652256 41.79675287 196.8116985 C49.00178742 201.2894863 56.23321033 205.72130448 63.48425287 210.1241985 C70.7353039 214.52709766 77.96625955 218.95964075 85.17175287 223.4366985 C91.08362896 227.10949491 97.01024708 230.75658085 102.96081537 234.366386 C103.56248529 234.73139714 104.16415521 235.09640827 104.78405756 235.47248036 C107.82757749 237.3177308 110.8730005 239.15976543 113.92077631 240.99797779 C119.0392911 244.08938805 124.14165131 247.19338235 129.14831537 250.46404225 C129.88654535 250.9433318 130.62477533 251.42262135 131.38537592 251.91643482 C132.69229964 252.7717875 133.99147554 253.63916629 135.28039545 254.52141529 C138.52965459 256.65036713 138.52965459 256.65036713 142.30480951 256.92742115 C145.52354678 255.96253317 147.99703982 254.5282162 150.85925287 252.7648235 C151.41647531 252.42431462 151.97369776 252.08380574 152.54780573 251.7329784 C154.36440443 250.62045215 156.17428135 249.49746817 157.98425287 248.3741985 C159.25168299 247.59515846 160.51950945 246.81676288 161.78771967 246.03899342 C164.94764006 244.09848488 168.10212476 242.14936198 171.25421137 240.19615895 C173.73192155 238.66093143 176.21178448 237.12918999 178.69128412 235.59685475 C181.23550121 234.02300359 183.77885466 232.44781561 186.32019037 230.86931568 C192.68561852 226.91674882 199.07975158 223.01308481 205.48425287 219.1241985 C212.8389891 214.65814102 220.1739825 210.16267814 227.48425287 205.6241985 C234.69154941 201.15021344 241.9214582 196.71565939 249.17175287 192.3116985 C257.32343488 187.35859062 265.46534988 182.38996077 273.59255975 177.39681202 C274.76573555 176.6762404 275.9392156 175.95616389 277.11300653 175.23659474 C278.74542204 174.23567741 280.37658702 173.23272145 282.00769037 172.22966725 C282.94532221 171.65369801 283.88295404 171.07772877 284.84899896 170.48430592 C286.88469391 169.29592561 286.88469391 169.29592561 287.98425287 168.1241985 C288.10891336 165.88989156 288.16237106 163.65160993 288.18957514 161.41399342 C288.1994719 160.70539079 288.20936867 159.99678816 288.21956533 159.26671273 C288.25151672 156.87939913 288.27617423 154.49206832 288.30065912 152.10466725 C288.32137106 150.40638038 288.34241513 148.70809753 288.36376947 147.00981861 C288.4200396 142.40274028 288.4692581 137.79561115 288.51668161 133.18843418 C288.5466358 130.32289813 288.57849205 127.4573893 288.61093134 124.59188038 C288.85102115 103.24875722 289.01965074 81.90621612 289.04675287 60.5616985 C289.04830881 59.33744663 289.04830881 59.33744663 289.04989618 58.08846241 C289.0673752 41.10036995 289.02073872 24.11224188 288.98425287 7.1241985 C216.69715668 6.54852418 144.41025989 6.01862729 72.12053812 6.00136787 C67.10728271 6.00008332 62.09403322 5.99633592 57.08077997 5.99163014 C50.3573428 5.9855468 43.6339316 5.98551007 36.91049188 5.98987919 C34.45857754 5.99087048 32.00666198 5.99030104 29.55474848 5.98804051 C26.22092333 5.98549828 22.88716485 5.98927295 19.55334467 5.99480397 C18.59091191 5.99277722 17.62847915 5.99075047 16.63688177 5.9886623 C11.3276822 6.00535634 6.23828902 6.35025609 0.98425287 7.1241985 Z " fill="#050200" transform="translate(116.01574712991714,184.8758015036583)"/>
<path d="M0 0 C1.98 0 3.96 0 6 0 C7.53101034 75.24915831 7.53101034 75.24915831 -11.4375 104.375 C-13.39131432 107.40078284 -15.26083866 110.344067 -16.75 113.625 C-18 116 -18 116 -21 117 C-22.39439664 117.06665376 -23.79169875 117.08538199 -25.1875 117.0625 C-26.445625 117.041875 -27.70375 117.02125 -29 117 C-26.108948 111.61445624 -23.98069058 108.22537324 -18 106 C-19.98 105.505 -19.98 105.505 -22 105 C-22.64066406 105.85722656 -23.28132813 106.71445312 -23.94140625 107.59765625 C-35.08176716 122.38655028 -48.09311135 133.48832985 -64 143 C-63.01 143.33 -62.02 143.66 -61 144 C-61 144.66 -61 145.32 -61 146 C-49.46826688 141.2169516 -40.5856422 133.6081549 -31.26074219 125.48486328 C-27.21040127 122 -27.21040127 122 -25 122 C-30.49789775 134.80023374 -50.04675836 145.1568521 -62 151 C-63.01835937 151.50789062 -64.03671875 152.01578125 -65.0859375 152.5390625 C-72.92145643 156.29927132 -72.92145643 156.29927132 -78 156 C-78 155.34 -78 154.68 -78 154 C-77.01 153.67 -76.02 153.34 -75 153 C-75.66 152.34 -76.32 151.68 -77 151 C-74.525 150.01 -74.525 150.01 -72 149 C-72 148.34 -72 147.68 -72 147 C-72.845625 147.515625 -73.69125 148.03125 -74.5625 148.5625 C-78.68668132 150.28715764 -80.72260389 150.18816558 -85 149 C-87.1875 147.1875 -87.1875 147.1875 -89 145 C-90.11375 143.88625 -90.11375 143.88625 -91.25 142.75 C-91.8275 142.1725 -92.405 141.595 -93 141 C-92.44054687 141.00902344 -91.88109375 141.01804687 -91.3046875 141.02734375 C-69.80754226 140.23243323 -44.52947522 117.52947522 -30 103 C-26.50715644 99.0274526 -23.50339667 94.72914745 -20.48828125 90.390625 C-20.04613281 89.75922607 -19.60398437 89.12782715 -19.1484375 88.47729492 C-18.27352756 87.22328932 -17.40726543 85.96319508 -16.55078125 84.6965332 C-14.27559736 81.4200314 -12.54081403 79.71458337 -9 78 C-8.40019612 76.19293414 -8.40019612 76.19293414 -8.4375 74 C-8.09400678 68.21926052 -7.14054366 62.6379385 -6.10327148 56.94921875 C-3.88559807 44.31059234 -3.73918037 31.5437105 -3.4375 18.75 C-3.39419777 17.02212743 -3.35058025 15.29426273 -3.30664062 13.56640625 C-3.20079673 9.37768593 -3.09920366 5.18888263 -3 1 C-2.67 1 -2.34 1 -2 1 C-1.505 3.475 -1.505 3.475 -1 6 C-0.67 4.02 -0.34 2.04 0 0 Z " fill="#8A6834" transform="translate(337,241)"/>
<path d="M0 0 C0 0.33 0 0.66 0 1 C2.31 1.33 4.62 1.66 7 2 C7 1.34 7 0.68 7 0 C33.52856145 0.10183709 63.57984289 12.28992145 87 24 C87 24.99 87 25.98 87 27 C79.25 28.125 79.25 28.125 77 27 C77.99 27.99 77.99 27.99 79 29 C79.23762889 32.12312256 79.33065931 35.12467332 79.3125 38.25 C79.30976074 39.20060303 79.30702148 40.15120605 79.30419922 41.13061523 C79.18398924 49.81405934 78.47645398 58.42649255 77.625 67.0625 C77.49907471 68.36413086 77.37314941 69.66576172 77.2434082 71.00683594 C76.05536097 82.27292866 76.05536097 82.27292866 74 86 C71.875 86.8125 71.875 86.8125 70 87 C69.81133224 64.35116165 69.81133224 64.35116165 70.77734375 54.21484375 C71.24306498 47.49048279 71.07261089 40.73667731 71 34 C52.93582722 24.34548805 33.85034867 16.73311757 14.4375 10.25 C13.43404541 9.90259766 12.43059082 9.55519531 11.39672852 9.19726562 C10.43951904 8.88982422 9.48230957 8.58238281 8.49609375 8.265625 C7.26137329 7.86005371 7.26137329 7.86005371 6.00170898 7.44628906 C-1.5934143 6.31705886 -9.05626691 8.30497741 -16.3125 10.44140625 C-17.16569824 10.68737045 -18.01889648 10.93333466 -18.89794922 11.18675232 C-20.69417539 11.70767143 -22.48909082 12.23313001 -24.28271484 12.76293945 C-26.96151426 13.55117558 -29.64612937 14.31644903 -32.33203125 15.08007812 C-42.03663579 17.8929536 -51.26497807 21.15190514 -60.40478516 25.4825592 C-65.73228005 28 -65.73228005 28 -69 28 C-68.45702865 52.0871801 -67.88266435 75.9233156 -63.2331543 99.64306641 C-63.05953369 100.54847168 -62.88591309 101.45387695 -62.70703125 102.38671875 C-62.46690308 103.58107544 -62.46690308 103.58107544 -62.22192383 104.79956055 C-61.9862431 107.13640371 -62.2928058 108.77562202 -63 111 C-64.35844213 106.67408719 -65.68881666 102.340469 -67 98 C-67.33451172 96.9171875 -67.33451172 96.9171875 -67.67578125 95.8125 C-69.16644347 90.53259716 -69.44334657 85.22112763 -69.75390625 79.7578125 C-69.82675235 77.04154099 -69.82675235 77.04154099 -71 75 C-72.45279633 65.94320587 -72.18619356 56.61805699 -72.18530273 47.47192383 C-72.18752258 44.91145992 -72.20583497 42.35140553 -72.22460938 39.79101562 C-72.22753802 38.16145979 -72.22952635 36.53190194 -72.23046875 34.90234375 C-72.23765427 34.13784409 -72.24483978 33.37334442 -72.25224304 32.5856781 C-72.22886957 27.22886957 -72.22886957 27.22886957 -70 25 C-70 24.34 -70 23.68 -70 23 C-53.21765012 16.21511292 -36.25798003 10.340236 -19.0168457 4.84863281 C-18.23404739 4.59918411 -17.45124908 4.34973541 -16.64472961 4.09272766 C-15.16497758 3.62225786 -13.68460686 3.15372827 -12.20353699 2.68742371 C-3.43222872 -0.09032181 -3.43222872 -0.09032181 0 0 Z " fill="#C09D65" transform="translate(255,212)"/>
<path d="M0 0 C4.62 0 9.24 0 14 0 C14 8.91 14 17.82 14 27 C20.6 27 27.2 27 34 27 C34 18.09 34 9.18 34 0 C38.62 0 43.24 0 48 0 C48 17.49 48 34.98 48 53 C43.38 53 38.76 53 34 53 C34 48.71 34 44.42 34 40 C27.4 40 20.8 40 14 40 C14 44.62 14 49.24 14 54 C9.38 54 4.76 54 0 54 C0 36.18 0 18.36 0 0 Z " fill="#030100" transform="translate(350,115)"/>
<path d="M0 0 C1.98 0 3.96 0 6 0 C6.65889805 32.38483896 6.1745809 64.43403092 -6 95 C-6.66 93.68 -7.32 92.36 -8 91 C-7.01 90.505 -7.01 90.505 -6 90 C-5.34786708 87.97536745 -5.34786708 87.97536745 -5 86 C-6.32 86 -7.64 86 -9 86 C-9 86.99 -9 87.98 -9 89 C-10.33333333 90.33333333 -11.66666667 91.66666667 -13 93 C-14.06011943 94.96879323 -15.07470849 96.96435867 -16 99 C-16.66 98.67 -17.32 98.34 -18 98 C-17.68546875 97.36835938 -17.3709375 96.73671875 -17.046875 96.0859375 C-11.68735796 84.88260971 -8.96471083 73.53258674 -6.8125 61.375 C-6.64548584 60.43366211 -6.47847168 59.49232422 -6.30639648 58.52246094 C-4.07859616 45.31847299 -3.75241774 32.10508299 -3.4375 18.75 C-3.39419777 17.02212743 -3.35058025 15.29426273 -3.30664062 13.56640625 C-3.20079673 9.37768593 -3.09920366 5.18888263 -3 1 C-2.67 1 -2.34 1 -2 1 C-1.67 2.65 -1.34 4.3 -1 6 C-0.67 4.02 -0.34 2.04 0 0 Z " fill="#654921" transform="translate(337,241)"/>
<path d="M0 0 C0 0.33 0 0.66 0 1 C2.31 1.33 4.62 1.66 7 2 C7 1.34 7 0.68 7 0 C33.52856145 0.10183709 63.57984289 12.28992145 87 24 C87 24.99 87 25.98 87 27 C79.25 28.125 79.25 28.125 77 27 C77.33 27.99 77.66 28.98 78 30 C73.95317891 29.27988898 70.54104042 27.31491536 66.9375 25.4375 C53.53605206 18.64545177 40.43854866 12.81767287 25.63671875 9.9453125 C22.28641329 9.29360331 19.00361306 8.50162168 15.70703125 7.6171875 C14.81814209 7.3802417 13.92925293 7.1432959 13.01342773 6.89916992 C11.30563343 6.43852216 9.60046915 5.96796178 7.89868164 5.4855957 C-0.93248573 3.14278113 -7.5536097 4.93225703 -16 7.9375 C-20.9950942 9.68919259 -25.9383849 11.29910562 -31.08789062 12.5324707 C-44.16475073 15.72988989 -56.5944913 20.86358336 -69 26 C-69.33 25.01 -69.66 24.02 -70 23 C-53.21765012 16.21511292 -36.25798003 10.340236 -19.0168457 4.84863281 C-18.23404739 4.59918411 -17.45124908 4.34973541 -16.64472961 4.09272766 C-15.16497758 3.62225786 -13.68460686 3.15372827 -12.20353699 2.68742371 C-3.43222872 -0.09032181 -3.43222872 -0.09032181 0 0 Z " fill="#B37A3C" transform="translate(255,212)"/>
<path d="M0 0 C0.75925781 -0.01998047 1.51851562 -0.03996094 2.30078125 -0.06054688 C5.59585276 -0.05766152 8.07810901 0.21037871 10.99609375 1.78125 C13.45273359 6.12025024 13.11651003 10.47915005 13.0625 15.375 C13.08634766 16.36435547 13.11019531 17.35371094 13.13476562 18.37304688 C13.12548779 22.97176097 12.99366667 25.66946858 10.46875 29.59765625 C6.73393065 31.9122614 3.69866635 32.10935272 -0.5625 31.9375 C-1.62307617 31.94136719 -1.62307617 31.94136719 -2.70507812 31.9453125 C-6.95543464 31.8654936 -9.49493635 31.48126245 -12.5 28.4375 C-13.01757812 25.84960938 -13.01757812 25.84960938 -13.03125 22.78125 C-13.03640625 21.67652344 -13.0415625 20.57179687 -13.046875 19.43359375 C-13.03140625 18.27988281 -13.0159375 17.12617188 -13 15.9375 C-13.01546875 14.78378906 -13.0309375 13.63007813 -13.046875 12.44140625 C-13.04171875 11.33667969 -13.0365625 10.23195312 -13.03125 9.09375 C-13.02448242 7.57491211 -13.02448242 7.57491211 -13.01757812 6.02539062 C-12.5 3.4375 -12.5 3.4375 -10.71484375 1.61108398 C-7.2742329 -0.21199983 -3.79786121 -0.0354639 0 0 Z " fill="#070300" transform="translate(195.5,142.5625)"/>
<path d="M0 0 C0.7115625 -0.00708984 1.423125 -0.01417969 2.15625 -0.02148438 C5.21858589 0.01565216 7.68269251 0.29553354 10.48828125 1.55078125 C12.73857985 4.35929346 12.35598569 6.52821868 12.1875 10.0625 C12.10075222 12.18664832 12.0322072 14.31182506 12 16.4375 C12.33 16.7675 12.66 17.0975 13 17.4375 C13.2734375 19.58203125 13.2734375 19.58203125 13.375 22.25 C13.44847656 23.55904297 13.44847656 23.55904297 13.5234375 24.89453125 C13 27.4375 13 27.4375 10.98046875 29.734375 C7.24418265 31.86939563 4.12143021 31.99388344 -0.0625 31.875 C-0.76955078 31.88208984 -1.47660156 31.88917969 -2.20507812 31.89648438 C-5.2642919 31.85914186 -7.69008333 31.58001286 -10.48046875 30.296875 C-12.676619 27.6095549 -12.39690807 25.6656126 -12.25 22.25 C-12.21390625 21.16332031 -12.1778125 20.07664063 -12.140625 18.95703125 C-12.09421875 18.12558594 -12.0478125 17.29414063 -12 16.4375 C-11.34 16.4375 -10.68 16.4375 -10 16.4375 C-10 15.7775 -10 15.1175 -10 14.4375 C-10.66 14.4375 -11.32 14.4375 -12 14.4375 C-12.10867302 12.85570385 -12.18589827 11.27172847 -12.25 9.6875 C-12.29640625 8.80578125 -12.3428125 7.9240625 -12.390625 7.015625 C-12 4.4375 -12 4.4375 -10.484375 2.13671875 C-7.06264234 -0.20361727 -3.99657898 -0.11222278 0 0 Z " fill="#070300" transform="translate(131,142.5625)"/>
<path d="M0 0 C2.31 0.33 4.62 0.66 7 1 C5 3 5 3 1.5625 4.3125 C-2.28529119 6.13513793 -3.22277533 7.24808125 -5 11 C-5.33 11.33 -5.66 11.66 -6 12 C-4.02 12.33 -2.04 12.66 0 13 C-0.66 15.31 -1.32 17.62 -2 20 C-2.495 19.01 -2.495 19.01 -3 18 C-3.90878906 18.72703125 -3.90878906 18.72703125 -4.8359375 19.46875 C-6.6069302 20.88554416 -8.37916338 22.30078852 -10.15234375 23.71484375 C-11.94552588 25.15381707 -13.73063171 26.60297064 -15.50390625 28.06640625 C-31.13069804 40.88388715 -31.13069804 40.88388715 -39 42 C-39 41.34 -39 40.68 -39 40 C-40.65 40 -42.3 40 -44 40 C-40.64886695 37.23667872 -37.23121834 34.82029898 -33.5625 32.5 C-20.34963872 23.75116337 -8.93758685 13.12708068 0 0 Z " fill="#6A491F" transform="translate(315,345)"/>
<path d="M0 0 C2.64 0 5.28 0 8 0 C9.18573642 4.14061682 10.34506231 8.28819683 11.5 12.4375 C11.83386719 13.60216797 12.16773438 14.76683594 12.51171875 15.96679688 C14.32379309 22.53094374 15.40785234 28.19032258 15 35 C12.36 35 9.72 35 7 35 C6.82984375 34.09121094 6.6596875 33.18242187 6.484375 32.24609375 C4.91801599 24.1226893 3.05264938 16.19462143 0.76953125 8.2421875 C0.0800294 5.33717969 -0.16220885 2.96450658 0 0 Z " fill="#0D0601" transform="translate(147,141)"/>
<path d="M0 0 C0 10.56 0 21.12 0 32 C-2.64 32 -5.28 32 -8 32 C-8 25.07 -8 18.14 -8 11 C-9.65 11.33 -11.3 11.66 -13 12 C-13 9.36 -13 6.72 -13 4 C-11.2097939 3.32942113 -9.41778511 2.6636531 -7.625 2 C-6.62726563 1.62875 -5.62953125 1.2575 -4.6015625 0.875 C-2 0 -2 0 0 0 Z " fill="#050200" transform="translate(178,142)"/>
<path d="M0 0 C26.52856145 0.10183709 56.57984289 12.28992145 80 24 C80 24.99 80 25.98 80 27 C76.04418317 25.72331854 72.21213077 24.30421793 68.38671875 22.6796875 C56.71405513 17.78390706 45.05292617 13.13792632 33 9.25 C31.93869873 8.90308105 30.87739746 8.55616211 29.78393555 8.19873047 C28.80336182 7.89080566 27.82278809 7.58288086 26.8125 7.265625 C25.52279297 6.86005371 25.52279297 6.86005371 24.20703125 6.44628906 C21.83943487 5.77686391 21.83943487 5.77686391 19 7 C12.60571169 7.53285736 7.09140372 5.85055303 1 4 C0.67 2.68 0.34 1.36 0 0 Z " fill="#CF6216" transform="translate(262,212)"/>
<path d="M0 0 C1.32 0 2.64 0 4 0 C3.32703961 3.8134422 2.26852302 7.34366895 1 11 C0.773125 11.9075 0.54625 12.815 0.3125 13.75 C-1.35804441 17.88658616 -3.79928228 21.15453797 -6.44140625 24.73046875 C-8.15325952 26.99914531 -8.15325952 26.99914531 -9 30 C-11.75078884 30.91692961 -13.35948913 31.10886083 -16.1875 31.0625 C-18.0746875 31.0315625 -18.0746875 31.0315625 -20 31 C-17.108948 25.61445624 -14.98069058 22.22537324 -9 20 C-9.99 19.67 -10.98 19.34 -12 19 C-11.49396008 16.83125748 -11.00016187 15.00032373 -10 13 C-9.01 12.67 -8.02 12.34 -7 12 C-5.87483915 10.16715557 -5.87483915 10.16715557 -5 8 C-4.0625 5.8125 -4.0625 5.8125 -3 4 C-2.01 3.67 -1.02 3.34 0 3 C0 2.01 0 1.02 0 0 Z " fill="#C66218" transform="translate(328,327)"/>
<path d="M0 0 C-5.49789775 12.80023374 -25.04675836 23.1568521 -37 29 C-38.01835937 29.50789063 -39.03671875 30.01578125 -40.0859375 30.5390625 C-47.92145643 34.29927132 -47.92145643 34.29927132 -53 34 C-53 33.34 -53 32.68 -53 32 C-52.01 31.67 -51.02 31.34 -50 31 C-50.66 30.34 -51.32 29.68 -52 29 C-50.35 28.34 -48.7 27.68 -47 27 C-47 26.01 -47 25.02 -47 24 C-43.91111478 21.94074319 -43.29064073 21.7609626 -39.8125 21.875 C-38.554375 21.91625 -37.29625 21.9575 -36 22 C-36 22.66 -36 23.32 -36 24 C-24.46826688 19.2169516 -15.5856422 11.6081549 -6.26074219 3.48486328 C-2.21040127 0 -2.21040127 0 0 0 Z " fill="#CC6115" transform="translate(312,363)"/>
<path d="M0 0 C1.98 0 3.96 0 6 0 C6 9.9 6 19.8 6 30 C4.02 30.33 2.04 30.66 0 31 C-0.33 28.69 -0.66 26.38 -1 24 C-0.01 23.34 0.98 22.68 2 22 C1.01 21.67 0.02 21.34 -1 21 C-0.67 19.35 -0.34 17.7 0 16 C-0.66 16 -1.32 16 -2 16 C-2 17.98 -2 19.96 -2 22 C-2.33 22 -2.66 22 -3 22 C-3 15.07 -3 8.14 -3 1 C-2.67 1 -2.34 1 -2 1 C-1.67 2.65 -1.34 4.3 -1 6 C-0.67 4.02 -0.34 2.04 0 0 Z " fill="#9A5D24" transform="translate(337,241)"/>
<path d="M0 0 C2.62019455 2.62019455 2.2240117 3.78153599 2.3125 7.4375 C3.86386969 30.94075074 13.80688251 53.32390733 29.75 70.44140625 C31 72 31 72 31 74 C19.84736786 69.18857684 12.38510947 54.19926274 7.93359375 43.515625 C2.92496057 30.01955903 -1.90692566 16.59083349 -1 2 C-0.67 1.34 -0.34 0.68 0 0 Z " fill="#E27120" transform="translate(184,287)"/>
<path d="M0 0 C0 0.33 0 0.66 0 1 C1.65 1.33 3.3 1.66 5 2 C5 2.33 5 2.66 5 3 C4.34257812 3.07476562 3.68515625 3.14953125 3.0078125 3.2265625 C-4.50234602 4.26455189 -11.37884732 6.28902741 -18.50341797 8.79150391 C-22.66417227 10.24984598 -26.79144875 11.50317707 -31.07910156 12.53027344 C-44.15906266 15.72877943 -56.59142778 20.86231493 -69 26 C-69.33 25.01 -69.66 24.02 -70 23 C-53.21765012 16.21511292 -36.25798003 10.340236 -19.0168457 4.84863281 C-18.23404739 4.59918411 -17.45124908 4.34973541 -16.64472961 4.09272766 C-15.16497758 3.62225786 -13.68460686 3.15372827 -12.20353699 2.68742371 C-3.43222872 -0.09032181 -3.43222872 -0.09032181 0 0 Z " fill="#D1661A" transform="translate(255,212)"/>
<path d="M0 0 C0.495 0.804375 0.99 1.60875 1.5 2.4375 C4.95695939 5.98088338 7.14788209 5.7573941 12 6 C11.319375 6.66 10.63875 7.32 9.9375 8 C7.23797743 12.17990592 8.0280147 14.22107226 9 19 C7.1746875 18.6596875 7.1746875 18.6596875 5.3125 18.3125 C2.02379309 17.88023657 1.12653537 17.93936847 -2 19.4375 C-2.99 20.2109375 -2.99 20.2109375 -4 21 C-4 18.03 -4 15.06 -4 12 C-6.475 11.01 -6.475 11.01 -9 10 C-9 9.34 -9 8.68 -9 8 C-7.6078125 7.9690625 -7.6078125 7.9690625 -6.1875 7.9375 C-2.99303786 7.37155641 -2.99303786 7.37155641 -1.93359375 5.375 C-1.20025229 3.61781467 -0.59224075 1.80962451 0 0 Z " fill="#D9AF2E" transform="translate(290,324)"/>
<path d="M0 0 C1.50559539 1.96382007 2.89131683 3.78263366 4 6 C5.89533342 6.46523063 5.89533342 6.46523063 8.0625 6.625 C9.361875 6.74875 10.66125 6.8725 12 7 C11.319375 7.66 10.63875 8.32 9.9375 9 C7.23797743 13.17990592 8.0280147 15.22107226 9 20 C7.783125 19.608125 6.56625 19.21625 5.3125 18.8125 C1.96338172 17.94993845 1.29462515 17.86496347 -2 19.375 C-2.66 19.91125 -3.32 20.4475 -4 21 C-4.0825 19.7625 -4.165 18.525 -4.25 17.25 C-4.63475459 14.01117036 -4.90024003 13.12092117 -7.0625 10.5 C-7.701875 10.005 -8.34125 9.51 -9 9 C-5.535 8.505 -5.535 8.505 -2 8 C-1.7834375 6.576875 -1.7834375 6.576875 -1.5625 5.125 C-1 2 -1 2 0 0 Z " fill="#EAD562" transform="translate(214,291)"/>
<path d="M0 0 C0.66 0 1.32 0 2 0 C2.66 2.31 3.32 4.62 4 7 C6.64 7 9.28 7 12 7 C11.154375 7.66 10.30875 8.32 9.4375 9 C6.81089794 11.6303496 6.81089794 11.6303496 6.890625 14.11328125 C7.15774969 16.09211284 7.57033783 18.04999475 8 20 C7.29875 19.649375 6.5975 19.29875 5.875 18.9375 C2.46587588 17.82582909 0.4638228 18.24699504 -3 19 C-3.99 19 -4.98 19 -6 19 C-5.5978125 17.4221875 -5.5978125 17.4221875 -5.1875 15.8125 C-4.5625 11.85416667 -4.5625 11.85416667 -7.4375 9.0625 C-8.283125 8.381875 -9.12875 7.70125 -10 7 C-7.36 7 -4.72 7 -2 7 C-1.34 4.69 -0.68 2.38 0 0 Z " fill="#DAAF2A" transform="translate(260,239)"/>
<path d="M0 0 C1.9451 2.91765 2.45276317 4.62537285 3 8 C5.31 8.33 7.62 8.66 10 9 C9.360625 9.495 8.72125 9.99 8.0625 10.5 C5.18484731 13.98806387 5.29769264 16.53461041 5 21 C4.34 20.46375 3.68 19.9275 3 19.375 C-1.32408255 17.39312883 -3.54535291 18.56545263 -8 20 C-7.7525 18.783125 -7.505 17.56625 -7.25 16.3125 C-6.77449455 12.74303912 -6.86144326 12.21453947 -8.9375 9 C-9.618125 8.34 -10.29875 7.68 -11 7 C-8.36 7 -5.72 7 -3 7 C-2.690625 6.21625 -2.38125 5.4325 -2.0625 4.625 C-1 2 -1 2 0 0 Z " fill="#D9AC28" transform="translate(307,291)"/>
<path d="M0 0 C0.66 0.33 1.32 0.66 2 1 C1.9175 2.093125 1.835 3.18625 1.75 4.3125 C1.57398486 8.03516815 1.57398486 8.03516815 4 9.8125 C4.66 10.204375 5.32 10.59625 6 11 C6 11.66 6 12.32 6 13 C3.69 13.33 1.38 13.66 -1 14 C-1.66 15.98 -2.32 17.96 -3 20 C-3.66 20 -4.32 20 -5 20 C-5.350625 19.030625 -5.70125 18.06125 -6.0625 17.0625 C-7.75003667 13.60565398 -7.75003667 13.60565398 -11.6875 13.125 C-13.3271875 13.063125 -13.3271875 13.063125 -15 13 C-14.34 12.319375 -13.68 11.63875 -13 10.9375 C-10.56114128 7.35542625 -10.66707415 5.24480464 -11 1 C-9.39125 1.5878125 -9.39125 1.5878125 -7.75 2.1875 C-4.10114009 3.41296883 -4.10114009 3.41296883 -1.5625 1.625 C-0.7890625 0.820625 -0.7890625 0.820625 0 0 Z " fill="#F1DF80" transform="translate(233,256)"/>
<path d="M0 0 C0.99 0.5259375 0.99 0.5259375 2 1.0625 C6.0513091 2.32853409 8.83374555 1.70614482 13 1 C12.9071875 2.5778125 12.9071875 2.5778125 12.8125 4.1875 C13.0077786 8.15816493 13.70325068 9.84196969 16 13 C13.69 13 11.38 13 9 13 C8.34 14.98 7.68 16.96 7 19 C6.34 19 5.68 19 5 19 C4.34 17.35 3.68 15.7 3 14 C0.36 13.67 -2.28 13.34 -5 13 C-4.175 12.34 -3.35 11.68 -2.5 11 C0.85305515 6.97633382 0.43160977 5.09299533 0 0 Z " fill="#D2A62A" transform="translate(287,256)"/>
<path d="M0 0 C0.70125 0.350625 1.4025 0.70125 2.125 1.0625 C6.47593499 2.48128315 9.75566429 1.41477857 14 0 C13.731875 1.216875 13.46375 2.43375 13.1875 3.6875 C12.82432666 5.86686693 12.82432666 5.86686693 13 8 C15.27127334 11.02409364 15.27127334 11.02409364 18 13 C15.36 13 12.72 13 10 13 C9.34 14.98 8.68 16.96 8 19 C7.34 19 6.68 19 6 19 C5.34 17.02 4.68 15.04 4 13 C1.36 13 -1.28 13 -4 13 C-3.154375 12.34 -2.30875 11.68 -1.4375 11 C1.18910206 8.3696504 1.18910206 8.3696504 1.109375 5.88671875 C0.84225031 3.90788716 0.42966217 1.95000525 0 0 Z " fill="#F2E186" transform="translate(254,340)"/>
<path d="M0 0 C2 2 2 2 2.8125 4.5 C3.79728463 7.23553696 3.79728463 7.23553696 6.625 8.3125 C7.40875 8.539375 8.1925 8.76625 9 9 C8.34 9.495 7.68 9.99 7 10.5 C4.1172783 14.10340212 4.69799003 16.46985042 5 21 C4.34 20.484375 3.68 19.96875 3 19.4375 C-1.14659826 17.45058833 -3.53020565 18.16664851 -8 19 C-7.7525 17.783125 -7.505 16.56625 -7.25 15.3125 C-6.77449455 11.74303912 -6.86144326 11.21453947 -8.9375 8 C-9.618125 7.34 -10.29875 6.68 -11 6 C-9.741875 5.938125 -8.48375 5.87625 -7.1875 5.8125 C-4.99662023 5.61479712 -4.99662023 5.61479712 -3 5 C-0.93545998 2.59256899 -0.93545998 2.59256899 0 0 Z " fill="#ECD773" transform="translate(231,324)"/>
<path d="M0 0 C0.66 0 1.32 0 2 0 C1.67 1.65 1.34 3.3 1 5 C2.65 5 4.3 5 6 5 C4.625 6.5 4.625 6.5 3 8 C2.34 8 1.68 8 1 8 C1.01160156 8.77601563 1.02320313 9.55203125 1.03515625 10.3515625 C1.23086705 33.78094168 -0.7274887 62.8454458 -14 83 C-14.66 82.67 -15.32 82.34 -16 82 C-15.68546875 81.36835938 -15.3709375 80.73671875 -15.046875 80.0859375 C-4.43459702 57.90244077 -2.52584056 33.10881397 -1.23364258 8.88647461 C-0.99048659 5.88246919 -0.53560064 2.96464717 0 0 Z " fill="#130E07" transform="translate(335,257)"/>
<path d="M0 0 C0.66 0.33 1.32 0.66 2 1 C1.67 1.99 1.34 2.98 1 4 C-1.63016156 4.97357982 -4.14430093 5.74520906 -6.84765625 6.453125 C-7.65174423 6.67643494 -8.45583221 6.89974487 -9.2842865 7.12982178 C-11.87390476 7.84853115 -14.46747331 8.55108887 -17.0625 9.25 C-20.4324049 10.15789013 -23.79864377 11.07710986 -27.16015625 12.015625 C-27.9868985 12.24568237 -28.81364075 12.47573975 -29.66543579 12.71276855 C-36.0519031 14.5613981 -42.0346512 16.99205519 -47.97389221 19.97906494 C-52.50107972 22.16609024 -52.50107972 22.16609024 -55.43774414 21.18847656 C-56.21106079 20.60018066 -56.21106079 20.60018066 -57 20 C-52.34590843 17.96950428 -47.67775735 15.97510673 -43 14 C-41.99324219 13.57074219 -40.98648438 13.14148438 -39.94921875 12.69921875 C-32.08907876 9.50310885 -24.07137818 7.27220022 -15.86523438 5.14257812 C-11.62821531 4.03555453 -7.5301768 2.87532038 -3.45703125 1.2578125 C-2.31621094 0.84273437 -1.17539063 0.42765625 0 0 Z " fill="#C59D63" transform="translate(244,217)"/>
<path d="M0 0 C5 2 5 2 7.4375 3.375 C10.21988407 4.36893468 10.21988407 4.36893468 13.1875 2.125 C14.115625 1.42375 15.04375 0.7225 16 0 C16.66 0 17.32 0 18 0 C17.34 3.63 16.68 7.26 16 11 C17.32 11.66 18.64 12.32 20 13 C21.75 15.125 21.75 15.125 23 17 C22.31292969 17.06316406 21.62585938 17.12632812 20.91796875 17.19140625 C15.67039421 17.69404067 15.67039421 17.69404067 11.66796875 20.69140625 C10.74192582 22.82547627 10.74192582 22.82547627 10 26 C9.34 26 8.68 26 8 26 C7.71125 24.88625 7.4225 23.7725 7.125 22.625 C6.41138357 20.63305895 6.41138357 20.63305895 5 19 C1.72147142 17.76989185 -1.52346897 17.31960604 -5 17 C-3.38405168 14.95880212 -1.7143618 12.95927063 0 11 C0.66 11 1.32 11 2 11 C1.34 7.37 0.68 3.74 0 0 Z M2 3 C2.268125 4.216875 2.53625 5.43375 2.8125 6.6875 C3.109375 8.88671875 3.109375 8.88671875 3 11 C0.5625 14 0.5625 14 -2 16 C0.64 16 3.28 16 6 16 C6.66 17.98 7.32 19.96 8 22 C8.66 22 9.32 22 10 22 C10.66 20.02 11.32 18.04 12 16 C14.64 16 17.28 16 20 16 C19.154375 15.34 18.30875 14.68 17.4375 14 C15 11 15 11 14.890625 8.88671875 C15.15774969 6.90788716 15.57033783 4.95000525 16 3 C15.29875 3.350625 14.5975 3.70125 13.875 4.0625 C9.52406501 5.48128315 6.24433571 4.41477857 2 3 Z " fill="#2B2110" transform="translate(252,337)"/>
<path d="M0 0 C0.99 0.33 1.98 0.66 3 1 C4.1875 4.0625 4.1875 4.0625 5 7 C8.63 7 12.26 7 16 7 C14 11 14 11 11.75 13.1875 C9.69290405 16.49354707 9.92558239 17.159872 10.75 20.8125 C11.14353243 22.21503129 11.55296694 23.61359341 12 25 C11.278125 24.690625 10.55625 24.38125 9.8125 24.0625 C5.0314071 21.98970843 5.0314071 21.98970843 0.12890625 22.83203125 C-1.61731328 23.82635746 -3.31290946 24.90835318 -5 26 C-5 22.37 -5 18.74 -5 15 C-7.475 14.01 -7.475 14.01 -10 13 C-10.66 12.01 -11.32 11.02 -12 10 C-5.375 8 -5.375 8 -2 8 C-1.855625 7.236875 -1.71125 6.47375 -1.5625 5.6875 C-1 3 -1 3 0 0 Z M1 2 C-0.25664978 4.90600261 -1 6.79604584 -1 10 C-3.31 10.33 -5.62 10.66 -8 11 C-7.360625 11.495 -6.72125 11.99 -6.0625 12.5 C-3.18484731 15.98806387 -3.29769264 18.53461041 -3 23 C-2.34 22.46375 -1.68 21.9275 -1 21.375 C3.32408255 19.39312883 5.54535291 20.56545263 10 22 C9.7525 20.783125 9.505 19.56625 9.25 18.3125 C8.77449455 14.74303912 8.86144326 14.21453947 10.9375 11 C11.618125 10.34 12.29875 9.68 13 9 C11.1128125 8.938125 11.1128125 8.938125 9.1875 8.875 C6.98046875 8.62109375 6.98046875 8.62109375 5 8 C3 4.9375 3 4.9375 2 2 C1.67 2 1.34 2 1 2 Z " fill="#271E10" transform="translate(213,289)"/>
<path d="M0 0 C2.61047801 1.305239 2.68066423 2.35826574 3.625 5.0625 C4.01558594 6.16271484 4.01558594 6.16271484 4.4140625 7.28515625 C4.60742188 7.85105469 4.80078125 8.41695313 5 9 C7.64 9.33 10.28 9.66 13 10 C13 10.99 13 11.98 13 13 C12.01 13.515625 11.02 14.03125 10 14.5625 C6.77720631 16.62795457 6.77720631 16.62795457 6.6015625 19.48046875 C6.6229695 22.01006299 6.74073835 24.48420175 7 27 C4.50638429 25.79618552 2.31856917 24.54571278 0 23 C-3.60426649 23.37939647 -6.66520107 24.63931281 -10 26 C-9.86980469 25.26394531 -9.73960937 24.52789062 -9.60546875 23.76953125 C-9.18347373 20.78401507 -8.88108441 18.01535966 -9 15 C-11.25057567 11.91201326 -11.25057567 11.91201326 -14 10 C-14 9.34 -14 8.68 -14 8 C-13.32453125 8.00902344 -12.6490625 8.01804687 -11.953125 8.02734375 C-6.68808819 8.03217693 -6.68808819 8.03217693 -2.4453125 5.375 C-1.21363994 3.23991035 -1.21363994 3.23991035 0 0 Z M0 3 C-2.28692024 6.23764755 -2.28692024 6.23764755 -3 10 C-5.64 10 -8.28 10 -11 10 C-9.9790625 10.99 -9.9790625 10.99 -8.9375 12 C-6.23797743 16.17990592 -7.0280147 18.22107226 -8 23 C-6.783125 22.608125 -5.56625 22.21625 -4.3125 21.8125 C-0.96338172 20.94993845 -0.29462515 20.86496347 3 22.375 C3.66 22.91125 4.32 23.4475 5 24 C5.0825 22.7625 5.165 21.525 5.25 20.25 C5.63475459 17.01117036 5.90024003 16.12092117 8.0625 13.5 C8.701875 13.005 9.34125 12.51 10 12 C7.69 11.67 5.38 11.34 3 11 C2.34 8.36 1.68 5.72 1 3 C0.67 3 0.34 3 0 3 Z " fill="#221A0D" transform="translate(307,288)"/>
<path d="M0 0 C2.57714966 1.00938362 5.04722217 2.02479164 7.5 3.3125 C10.1004201 4.33023693 10.1004201 4.33023693 12.6875 2.625 C13.450625 2.08875 14.21375 1.5525 15 1 C15.66 1 16.32 1 17 1 C16.94199219 1.66386719 16.88398438 2.32773438 16.82421875 3.01171875 C16.43052333 9.00201635 16.43052333 9.00201635 19.5 14 C20.7375 14.99 20.7375 14.99 22 16 C22 16.66 22 17.32 22 18 C18.7 18 15.4 18 12 18 C11.690625 18.94875 11.38125 19.8975 11.0625 20.875 C10 24 10 24 9 26 C8.34 26 7.68 26 7 26 C6.5359375 24.329375 6.5359375 24.329375 6.0625 22.625 C5.34029672 20.64496329 5.34029672 20.64496329 4 19 C1.05762133 17.78444286 -1.84371486 17.32423055 -5 17 C-3.63016497 13.83884224 -3.0109362 13.0072908 0 11 C0.36460453 8.33346095 0.36460453 8.33346095 0.1875 5.375 C0.16042969 4.37210937 0.13335937 3.36921875 0.10546875 2.3359375 C0.07066406 1.56507813 0.03585937 0.79421875 0 0 Z M2 3 C2.103125 4.216875 2.20625 5.43375 2.3125 6.6875 C2.34591521 10.45005227 2.09330298 10.88803642 -0.5 14 C-1.325 14.66 -2.15 15.32 -3 16 C-0.36 16.33 2.28 16.66 5 17 C5.66 18.65 6.32 20.3 7 22 C7.66 22 8.32 22 9 22 C9.66 20.02 10.32 18.04 11 16 C13.31 16 15.62 16 18 16 C17.505 15.319375 17.01 14.63875 16.5 13.9375 C14.69634889 10.40534991 14.76978647 7.91363009 15 4 C13.783125 4.20625 12.56625 4.4125 11.3125 4.625 C7.65193227 5.09963844 5.32388488 4.76581384 2 3 Z " fill="#241C0E" transform="translate(285,253)"/>
<path d="M0 0 C5.40463617 0.59422701 10.14993726 1.89216553 15.25 3.75 C16.36870483 4.150979 16.36870483 4.150979 17.51000977 4.56005859 C22.62221859 6.42155441 27.58248461 8.50322168 32.49609375 10.84375 C35.89861507 12.41496109 39.38901246 13.71739743 42.90625 15.0078125 C45.13525606 16.06409522 46.3312866 17.21076841 48 19 C48.99 19.66 49.98 20.32 51 21 C51 21.66 51 22.32 51 23 C46.9535343 22.27995222 43.54029141 20.31592762 39.9375 18.4375 C28.42441114 12.56563695 16.35382838 6.62224811 3.71484375 3.66796875 C2 3 2 3 0 0 Z " fill="#CE6519" transform="translate(282,219)"/>
<path d="M0 0 C2.97 0 5.94 0 9 0 C9 4.95 9 9.9 9 15 C6.03 15 3.06 15 0 15 C0 10.05 0 5.1 0 0 Z " fill="#EB6A13" transform="translate(191,151)"/>
<path d="M0 0 C0.66 0 1.32 0 2 0 C2.66 2.97 3.32 5.94 4 9 C6.97 9.33 9.94 9.66 13 10 C12.34 11.32 11.68 12.64 11 14 C10.67 13.01 10.34 12.02 10 11 C8.576875 11.061875 8.576875 11.061875 7.125 11.125 C4 11 4 11 2 9 C1.30251417 7.68252676 0.63040043 6.35085807 0 5 C-0.350625 5.639375 -0.70125 6.27875 -1.0625 6.9375 C-3.77184206 9.82163832 -6.15858911 9.7100822 -10 10 C-9.319375 10.556875 -8.63875 11.11375 -7.9375 11.6875 C-6 14 -6 14 -6.1875 16.5625 C-6.79166667 18.375 -7.39583333 20.1875 -8 22 C-7.443125 21.649375 -6.88625 21.29875 -6.3125 20.9375 C-2.55681863 19.41492647 0.2832512 20.76108373 4 22 C4 20.02 4 18.04 4 16 C5.65 15.34 7.3 14.68 9 14 C8.01 15.485 8.01 15.485 7 17 C6.54605448 19.27912938 6.54605448 19.27912938 6.375 21.6875 C6.30023438 22.49574219 6.22546875 23.30398438 6.1484375 24.13671875 C6.09945312 24.75160156 6.05046875 25.36648438 6 26 C1.19254658 24.13043478 1.19254658 24.13043478 -0.9375 22.6875 C-3.20816137 21.67412976 -3.20816137 21.67412976 -6.125 23.375 C-7.07375 23.91125 -8.0225 24.4475 -9 25 C-9.66 25 -10.32 25 -11 25 C-10.4740625 23.4221875 -10.4740625 23.4221875 -9.9375 21.8125 C-9.04017383 18.16337356 -8.74742063 16.46868134 -10 13 C-10.98020375 11.9805881 -11.97803008 10.97753644 -13 10 C-13 9.01 -13 8.02 -13 7 C-10.03 7 -7.06 7 -4 7 C-2.68 4.69 -1.36 2.38 0 0 Z " fill="#2F2410" transform="translate(231,321)"/>
<path d="M0 0 C0.66 0 1.32 0 2 0 C3.32 2.31 4.64 4.62 6 7 C8.97 7 11.94 7 15 7 C14 11 14 11 12.375 12.3125 C10.61083276 14.08348053 10.61083276 14.08348053 11.25 17.4375 C11.78515304 19.97947695 12.35879509 22.484929 13 25 C12.33613281 24.73703125 11.67226563 24.4740625 10.98828125 24.203125 C8.30760665 23.24825697 5.81323231 22.44374108 3 22 C-0.02863914 23.63681896 -0.02863914 23.63681896 -2 26 C-2.66 26 -3.32 26 -4 26 C-4.00257813 25.39671875 -4.00515625 24.7934375 -4.0078125 24.171875 C-4.12956464 21.65566402 -4.33087889 19.43240251 -5 17 C-7.93942994 14.59478763 -7.93942994 14.59478763 -11 13 C-11 12.01 -11 11.02 -11 10 C-6.545 9.505 -6.545 9.505 -2 9 C-1.34 6.03 -0.68 3.06 0 0 Z M1 3 C0.62875 4.134375 0.2575 5.26875 -0.125 6.4375 C-0.93359375 8.375 -0.93359375 8.375 -2 10 C-5.1875 10.9375 -5.1875 10.9375 -8 11 C-8 11.66 -8 12.32 -8 13 C-5.525 13.99 -5.525 13.99 -3 15 C-3 17.97 -3 20.94 -3 24 C-2.34 23.484375 -1.68 22.96875 -1 22.4375 C3.14659826 20.45058833 5.53020565 21.16664851 10 22 C9.7525 20.783125 9.505 19.56625 9.25 18.3125 C8.77449455 14.74303912 8.86144326 14.21453947 10.9375 11 C11.618125 10.34 12.29875 9.68 13 9 C11.7625 8.938125 10.525 8.87625 9.25 8.8125 C5.69449876 8.39643071 5.15360875 8.15744896 2.5 5.4375 C1.7575 4.2309375 1.7575 4.2309375 1 3 Z " fill="#231A0D" transform="translate(289,321)"/>
<path d="M0 0 C0.66 0 1.32 0 2 0 C2.99 2.97 3.98 5.94 5 9 C8.3 9 11.6 9 15 9 C13.4840625 10.423125 13.4840625 10.423125 11.9375 11.875 C9.82813593 14.28076183 9.03498319 15.46436854 8.82421875 18.69140625 C9.09567048 21.16972525 9.46139839 23.5665 10 26 C7.4264824 24.97059296 4.98114096 23.98936157 2.5625 22.625 C-0.21988407 21.63106532 -0.21988407 21.63106532 -3.1875 23.875 C-4.115625 24.57625 -5.04375 25.2775 -6 26 C-6.66 26 -7.32 26 -8 26 C-7.34 22.37 -6.68 18.74 -6 15 C-7.32 14.34 -8.64 13.68 -10 13 C-10.66 11.68 -11.32 10.36 -12 9 C-9.03 9 -6.06 9 -3 9 C-2.01 6.03 -1.02 3.06 0 0 Z M0 3 C-0.66 5.31 -1.32 7.62 -2 10 C-4.64 10 -7.28 10 -10 10 C-8.7315625 10.99 -8.7315625 10.99 -7.4375 12 C-5 15 -5 15 -4.890625 17.11328125 C-5.15774969 19.09211284 -5.57033783 21.04999475 -6 23 C-5.29875 22.649375 -4.5975 22.29875 -3.875 21.9375 C0.47593499 20.51871685 3.75566429 21.58522143 8 23 C7.731875 21.783125 7.46375 20.56625 7.1875 19.3125 C6.890625 17.11328125 6.890625 17.11328125 7 15 C9.4375 12 9.4375 12 12 10 C9.36 10 6.72 10 4 10 C3.34 7.69 2.68 5.38 2 3 C1.34 3 0.68 3 0 3 Z " fill="#261D0D" transform="translate(260,236)"/>
<path d="M0 0 C-0.21269531 0.99580078 -0.21269531 0.99580078 -0.4296875 2.01171875 C-0.8890234 4.77176343 -1.19264476 7.2045105 -1 10 C0.74210399 12.34245983 2.50875579 13.373065 5 15 C5 15.66 5 16.32 5 17 C4.07767578 17.09474609 4.07767578 17.09474609 3.13671875 17.19140625 C-1.68673839 17.76541311 -1.68673839 17.76541311 -5.265625 20.69140625 C-6.19165553 22.82891351 -6.19165553 22.82891351 -7 26 C-7.66 26 -8.32 26 -9 26 C-12 20.25 -12 20.25 -12 18 C-15.3 18 -18.6 18 -22 18 C-20 14 -20 14 -18.4375 12.5625 C-16.54736879 10.50800956 -16.3675753 8.72005723 -16 6 C-15.34 6.66 -14.68 7.32 -14 8 C-14.31865778 11.29279709 -15.54515351 12.86535088 -18 15 C-16.88625 15.20625 -15.7725 15.4125 -14.625 15.625 C-11 17 -11 17 -9.5625 20.125 C-9.376875 21.07375 -9.19125 22.0225 -9 23 C-8.34 23 -7.68 23 -7 23 C-6.855625 22.030625 -6.71125 21.06125 -6.5625 20.0625 C-6 17 -6 17 -5 16 C-2.66702567 15.95907063 -0.33294775 15.95758277 2 16 C2 15.34 2 14.68 2 14 C1.360625 13.690625 0.72125 13.38125 0.0625 13.0625 C-2 12 -2 12 -3 11 C-3.04092937 8.66702567 -3.04241723 6.33294775 -3 4 C-4.0828125 4.804375 -4.0828125 4.804375 -5.1875 5.625 C-8 7 -8 7 -10.75 6.3125 C-13 5 -13 5 -14 3 C-13.13375 3.2475 -12.2675 3.495 -11.375 3.75 C-6.27946527 4.12744702 -4.5549523 0 0 0 Z " fill="#2B2110" transform="translate(237,253)"/>
<path d="M0 0 C2.31 0.33 4.62 0.66 7 1 C5 3 5 3 1.5625 4.3125 C-2.56529463 6.26777114 -2.7353853 7.21523015 -5 11 C-7.13198475 13.49308572 -9.42851454 15.80884584 -11.75 18.125 C-12.73395752 19.10871582 -12.73395752 19.10871582 -13.73779297 20.11230469 C-20.28795006 26.51433873 -27.40099868 31.90958466 -35 37 C-35.88429688 37.61359375 -36.76859375 38.2271875 -37.6796875 38.859375 C-40 40 -40 40 -42.3125 39.6875 C-42.869375 39.460625 -43.42625 39.23375 -44 39 C-43.01902344 38.42894531 -42.03804688 37.85789062 -41.02734375 37.26953125 C-24.75908959 27.58130646 -10.71722043 15.74091751 0 0 Z " fill="#0D0905" transform="translate(315,345)"/>
<path d="M0 0 C1.32 0 2.64 0 4 0 C3.32703961 3.8134422 2.26852302 7.34366895 1 11 C0.62875 12.11375 0.2575 13.2275 -0.125 14.375 C-0.41375 15.24125 -0.7025 16.1075 -1 17 C-2.0725 16.979375 -3.145 16.95875 -4.25 16.9375 C-7.14790424 16.9857984 -9.28612141 17.13155885 -12 18 C-11.1875 15.5625 -11.1875 15.5625 -10 13 C-9.01 12.67 -8.02 12.34 -7 12 C-5.87483915 10.16715557 -5.87483915 10.16715557 -5 8 C-4.0625 5.8125 -4.0625 5.8125 -3 4 C-2.01 3.67 -1.02 3.34 0 3 C0 2.01 0 1.02 0 0 Z " fill="#B15E1A" transform="translate(328,327)"/>
<path d="M0 0 C2.67044298 2.67044298 2.28992741 4.14543808 2.4375 7.875 C2.71545855 12.53852686 3.32369682 16.74631369 4.5625 21.25 C5.96326846 26.36348487 6.26428127 30.71437467 6 36 C5.67 36 5.34 36 5 36 C4.26227516 33.55567171 3.52737866 31.11056061 2.796875 28.6640625 C2.16297609 26.54485145 1.52047229 24.42821473 0.875 22.3125 C-0.79929502 15.97409741 -3.0944066 6.18881319 0 0 Z " fill="#C35F19" transform="translate(184,287)"/>
<path d="M0 0 C0.70125 0.350625 1.4025 0.70125 2.125 1.0625 C6.47593499 2.48128315 9.75566429 1.41477857 14 0 C13.67447917 1.98567708 13.34895833 3.97135417 13.0234375 5.95703125 C12.80422152 8.31755824 12.80422152 8.31755824 15 11 C13.35 10.67 11.7 10.34 10 10 C9.67 8.68 9.34 7.36 9 6 C5.72226496 6.75150023 5.72226496 6.75150023 4 10 C1.375 10.6875 1.375 10.6875 -1 11 C-0.649375 10.29875 -0.29875 9.5975 0.0625 8.875 C1.1639193 5.49731414 0.79516141 3.41919407 0 0 Z " fill="#ECC845" transform="translate(254,340)"/>
<path d="M0 0 C-4.05455335 9.43983189 -15.96490441 15.93952605 -24 22 C-24.99 21.34 -25.98 20.68 -27 20 C-26.46632813 19.5875 -25.93265625 19.175 -25.3828125 18.75 C-14.79624321 10.55401558 -14.79624321 10.55401558 -4.5 2 C-2 0 -2 0 0 0 Z " fill="#CB6015" transform="translate(312,363)"/>
<path d="M0 0 C0.33 0 0.66 0 1 0 C1 4 1 8 1 12 C1.598125 12.0825 2.19625 12.165 2.8125 12.25 C5.5966296 13.20455872 6.43311142 14.57132271 8 17 C7.113125 16.773125 6.22625 16.54625 5.3125 16.3125 C1.42209376 15.94548054 0.08559304 16.73118159 -3 19 C-3.0825 17.7625 -3.165 16.525 -3.25 15.25 C-3.63475459 12.01117036 -3.90024003 11.12092117 -6.0625 8.5 C-6.701875 8.005 -7.34125 7.51 -8 7 C-4.535 6.505 -4.535 6.505 -1 6 C-0.67 4.02 -0.34 2.04 0 0 Z " fill="#DFB534" transform="translate(213,293)"/>
<path d="M0 0 C1.9451 2.91765 2.45276317 4.62537285 3 8 C5.31 8.33 7.62 8.66 10 9 C10 9.33 10 9.66 10 10 C7.36 10.33 4.72 10.66 2 11 C2.33 12.98 2.66 14.96 3 17 C2.34 16.67 1.68 16.34 1 16 C1 15.34 1 14.68 1 14 C0.21625 14.515625 -0.5675 15.03125 -1.375 15.5625 C-2.24125 16.036875 -3.1075 16.51125 -4 17 C-4.66 16.67 -5.32 16.34 -6 16 C-5.34 15.34 -4.68 14.68 -4 14 C-3.3574765 11.93125966 -3.3574765 11.93125966 -3 10 C-4.32 9.67 -5.64 9.34 -7 9 C-5 8 -5 8 -1 9 C-0.67 6.03 -0.34 3.06 0 0 Z " fill="#E8CA56" transform="translate(307,291)"/>
<path d="M0 0 C-0.598125 0.28875 -1.19625 0.5775 -1.8125 0.875 C-4.19327792 2.04742026 -4.19327792 2.04742026 -7 4 C-9.59544884 5.04157598 -12.1878292 6.03865186 -14.8125 7 C-15.51181641 7.26039063 -16.21113281 7.52078125 -16.93164062 7.7890625 C-20.93038751 9.27035695 -24.94574662 10.67616216 -29 12 C-29.66 11.34 -30.32 10.68 -31 10 C-23.99192609 6.94250449 -16.964326 3.92719927 -9.875 1.0625 C-8.84117187 0.64097656 -7.80734375 0.21945313 -6.7421875 -0.21484375 C-3.93689998 -1.0180671 -2.68128782 -1.03274483 0 0 Z " fill="#CD9556" transform="translate(218,227)"/>
<path d="M0 0 C0.33 0 0.66 0 1 0 C1.33 2.97 1.66 5.94 2 9 C3.65 8.67 5.3 8.34 7 8 C6.67 8.66 6.34 9.32 6 10 C5.34 10 4.68 10 4 10 C4.66 11.98 5.32 13.96 6 16 C3.5625 15.1875 3.5625 15.1875 1 14 C0.67 13.01 0.34 12.02 0 11 C-2.97 10.67 -5.94 10.34 -9 10 C-9 9.34 -9 8.68 -9 8 C-7.6078125 7.9690625 -7.6078125 7.9690625 -6.1875 7.9375 C-2.99303786 7.37155641 -2.99303786 7.37155641 -1.93359375 5.375 C-1.20025229 3.61781467 -0.59224075 1.80962451 0 0 Z " fill="#EAD066" transform="translate(290,324)"/>
<path d="M0 0 C0.66 0 1.32 0 2 0 C1.67 1.65 1.34 3.3 1 5 C2.65 5 4.3 5 6 5 C4.625 6.5 4.625 6.5 3 8 C2.34 8 1.68 8 1 8 C1.01160156 8.77601563 1.02320313 9.55203125 1.03515625 10.3515625 C1.10418029 18.61472608 0.69121931 26.76708427 0 35 C-0.33 35 -0.66 35 -1 35 C-2.30980234 23.23192978 -2.12908948 11.67390586 0 0 Z " fill="#1A130A" transform="translate(335,257)"/>
<path d="M0 0 C1.093125 0.33 2.18625 0.66 3.3125 1 C6.84578884 2.13086649 6.84578884 2.13086649 10 2 C9.01 3.485 9.01 3.485 8 5 C6.68 4.67 5.36 4.34 4 4 C4 4.33 4 4.66 4 5 C3.66666667 6.33333333 3.33333333 7.66666667 3 9 C3 9.33 3 9.66 3 10 C3.99 10.33 4.98 10.66 6 11 C6 12.98 6 14.96 6 17 C5.649375 16.360625 5.29875 15.72125 4.9375 15.0625 C2.22815794 12.17836168 -0.15858911 12.2899178 -4 12 C-3.34 11.319375 -2.68 10.63875 -2 9.9375 C0.43885872 6.35542625 0.33292585 4.24480464 0 0 Z " fill="#E0B626" transform="translate(222,257)"/>
<path d="M0 0 C2.61047801 1.305239 2.68066423 2.35826574 3.625 5.0625 C4.01558594 6.16271484 4.01558594 6.16271484 4.4140625 7.28515625 C4.60742188 7.85105469 4.80078125 8.41695313 5 9 C7.64 9.33 10.28 9.66 13 10 C13 10.99 13 11.98 13 13 C11.02 13.99 11.02 13.99 9 15 C9 14.34 9 13.68 9 13 C8.071875 12.79375 7.14375 12.5875 6.1875 12.375 C3 11 3 11 1.125 7.875 C0.75375 6.92625 0.3825 5.9775 0 5 C-0.45375 5.825 -0.9075 6.65 -1.375 7.5 C-4.43867469 10.41778542 -5.18633543 10.34127949 -9.25 10.3125 C-10.83473048 10.23234745 -12.41906283 10.1357675 -14 10 C-14 9.34 -14 8.68 -14 8 C-13.32453125 8.00902344 -12.6490625 8.01804687 -11.953125 8.02734375 C-6.68808819 8.03217693 -6.68808819 8.03217693 -2.4453125 5.375 C-1.21363994 3.23991035 -1.21363994 3.23991035 0 0 Z " fill="#2F2413" transform="translate(307,288)"/>
<path d="M0 0 C0.9075 0.78375 1.815 1.5675 2.75 2.375 C7.1563871 6.16089586 11.64537131 9.84612992 16.1328125 13.53515625 C18.90646078 15.91958685 21.45148585 18.38147173 24 21 C14.93474359 17.72511679 6.4893895 9.99065758 0 3 C0 2.01 0 1.02 0 0 Z " fill="#B89661" transform="translate(215,360)"/>
<path d="M0 0 C1.98 0 3.96 0 6 0 C6 4.62 6 9.24 6 14 C4.02 14 2.04 14 0 14 C-0.99 14.495 -0.99 14.495 -2 15 C-2 12.69 -2 10.38 -2 8 C-1.67 8.99 -1.34 9.98 -1 11 C1.47266765 10.65555119 1.47266765 10.65555119 4 10 C4.33 9.34 4.66 8.68 5 8 C4.01 7.67 3.02 7.34 2 7 C2.99 6.01 3.98 5.02 5 4 C3.35 4.33 1.7 4.66 0 5 C0 3.35 0 1.7 0 0 Z " fill="#68461D" transform="translate(337,241)"/>
<path d="M0 0 C1.4606285 2.64738916 2 3.89448334 2 7 C5.465 6.505 5.465 6.505 9 6 C6 8 6 8 4 8 C4.33 10.31 4.66 12.62 5 15 C4.67 14.34 4.34 13.68 4 13 C2.02 13 0.04 13 -2 13 C-2 11.35 -2 9.7 -2 8 C-3.32 7.34 -4.64 6.68 -6 6 C-4.02 6 -2.04 6 0 6 C0 4.02 0 2.04 0 0 Z " fill="#F2E079" transform="translate(260,241)"/>
<path d="M0 0 C0.99 0.33 1.98 0.66 3 1 C2.8453125 2.5778125 2.8453125 2.5778125 2.6875 4.1875 C3.07499189 8.91490102 4.52536163 9.95969142 8 13 C8 13.66 8 14.32 8 15 C4.7 15 1.4 15 -2 15 C-2.66 16.98 -3.32 18.96 -4 21 C-4.99 20.34 -5.98 19.68 -7 19 C-6.34 19 -5.68 19 -5 19 C-4.34 17.02 -3.68 15.04 -3 13 C-1.02 12.67 0.96 12.34 3 12 C2.505 11.505 2.01 11.01 1.5 10.5 C-0.66978095 6.88369842 -0.20888419 4.17768384 0 0 Z " fill="#3C2E14" transform="translate(299,256)"/>
<path d="M0 0 C7.36988707 1.966369 14.13045202 4.69582578 21 8 C20.67 8.66 20.34 9.32 20 10 C14.86708471 10.63787685 11.49871502 8.44233425 7.1875 6 C6.14819336 5.42765625 6.14819336 5.42765625 5.08789062 4.84375 C3.38673572 3.90518177 1.69263947 2.9538396 0 2 C0 1.34 0 0.68 0 0 Z " fill="#A17A46" transform="translate(319,230)"/>
<path d="M0 0 C-0.14179688 0.66386719 -0.28359375 1.32773438 -0.4296875 2.01171875 C-0.8890234 4.77176343 -1.19264476 7.2045105 -1 10 C0.74210399 12.34245983 2.50875579 13.373065 5 15 C5 15.66 5 16.32 5 17 C2.36 17 -0.28 17 -3 17 C-3 16.67 -3 16.34 -3 16 C-1.35 16 0.3 16 2 16 C2 15.34 2 14.68 2 14 C1.360625 13.690625 0.72125 13.38125 0.0625 13.0625 C-2 12 -2 12 -3 11 C-3.04092937 8.66702567 -3.04241723 6.33294775 -3 4 C-4.0828125 4.804375 -4.0828125 4.804375 -5.1875 5.625 C-8 7 -8 7 -10.75 6.3125 C-13 5 -13 5 -14 3 C-13.13375 3.2475 -12.2675 3.495 -11.375 3.75 C-6.27946527 4.12744702 -4.5549523 0 0 0 Z " fill="#2B210F" transform="translate(237,253)"/>
<path d="M0 0 C0.66 0.33 1.32 0.66 2 1 C0.6875 3.9375 0.6875 3.9375 -1 7 C-3.75078884 7.91692961 -5.35948913 8.10886083 -8.1875 8.0625 C-10.0746875 8.0315625 -10.0746875 8.0315625 -12 8 C-10.68 5.69 -9.36 3.38 -8 1 C-7.67 1.66 -7.34 2.32 -7 3 C-5.88625 2.484375 -4.7725 1.96875 -3.625 1.4375 C-2.42875 0.963125 -1.2325 0.48875 0 0 Z " fill="#8E511A" transform="translate(320,350)"/>
<path d="M0 0 C0.309375 0.8971875 0.309375 0.8971875 0.625 1.8125 C2.50926082 4.81018767 4.81132084 5.61361776 8 7 C7.34 7.495 6.68 7.99 6 8.5 C3.1172783 12.10340212 3.69799003 14.46985042 4 19 C3.29875 18.505 2.5975 18.01 1.875 17.5 C-1.37119719 15.8063319 -3.39340156 15.74837685 -7 16 C-6.34 15.01 -5.68 14.02 -5 13 C-2.4375 12.75 -2.4375 12.75 0 13 C0.33 13.33 0.66 13.66 1 14 C1.66 12.02 2.32 10.04 3 8 C2.01 7.67 1.02 7.34 0 7 C0 4.69 0 2.38 0 0 Z " fill="#DCAA27" transform="translate(232,326)"/>
<path d="M0 0 C-0.66 3.63 -1.32 7.26 -2 11 C-0.68 11.66 0.64 12.32 2 13 C3.75 15.125 3.75 15.125 5 17 C2.03 17 -0.94 17 -4 17 C-4 16.67 -4 16.34 -4 16 C-2.35 15.67 -0.7 15.34 1 15 C-0.65 13.68 -2.3 12.36 -4 11 C-3.125 5.25 -3.125 5.25 -2 3 C-3.0828125 3.7734375 -3.0828125 3.7734375 -4.1875 4.5625 C-7.4195366 6.21442982 -8.61608307 6.06351675 -12 5 C-11.46375 4.9175 -10.9275 4.835 -10.375 4.75 C-6.62280988 3.56509786 -3.91398662 0 0 0 Z " fill="#261D0C" transform="translate(270,337)"/>
<path d="M0 0 C1.32 0 2.64 0 4 0 C3.3605547 3.70878274 3.3605547 3.70878274 1.375 5.3125 C-0.38916724 7.08348053 -0.38916724 7.08348053 0.25 10.4375 C0.78515304 12.97947695 1.35879509 15.484929 2 18 C1.31292969 17.7834375 0.62585938 17.566875 -0.08203125 17.34375 C-0.98308594 17.0653125 -1.88414062 16.786875 -2.8125 16.5 C-3.70582031 16.2215625 -4.59914063 15.943125 -5.51953125 15.65625 C-8.05573395 14.87211649 -8.05573395 14.87211649 -11 15 C-10.34 14.34 -9.68 13.68 -9 13 C-6.0574037 13.30652045 -3.65457692 13.67271154 -1 15 C-1.350625 14.2575 -1.70125 13.515 -2.0625 12.75 C-3.08696684 9.74489728 -3.24948927 8.85597548 -2 6 C-0.71937515 4.2925002 0.6072711 2.61736259 2 1 C1.34 0.67 0.68 0.34 0 0 Z " fill="#2F2312" transform="translate(300,328)"/>
<path d="M0 0 C1.8871875 0.061875 1.8871875 0.061875 3.8125 0.125 C4.1425 1.115 4.4725 2.105 4.8125 3.125 C-1.9375 7.125 -1.9375 7.125 -4.1875 7.125 C-4.1875 6.465 -4.1875 5.805 -4.1875 5.125 C-5.1775 5.125 -6.1675 5.125 -7.1875 5.125 C-7.1875 4.135 -7.1875 3.145 -7.1875 2.125 C-4.09861478 0.06574319 -3.47814073 -0.1140374 0 0 Z " fill="#89521C" transform="translate(272.1875,384.875)"/>
<path d="M0 0 C0.66 0 1.32 0 2 0 C2.66 2.97 3.32 5.94 4 9 C6.97 9.33 9.94 9.66 13 10 C12.34 11.32 11.68 12.64 11 14 C10.67 13.01 10.34 12.02 10 11 C8.576875 11.061875 8.576875 11.061875 7.125 11.125 C4 11 4 11 2 9 C1.30251417 7.68252676 0.63040043 6.35085807 0 5 C-0.33 5.66 -0.66 6.32 -1 7 C-3 9 -3 9 -4.98046875 9.265625 C-6.98888143 9.25140615 -8.99584122 9.13142025 -11 9 C-11 8.67 -11 8.34 -11 8 C-9.9275 7.979375 -8.855 7.95875 -7.75 7.9375 C-4.07050859 7.40918155 -4.07050859 7.40918155 -2.64453125 5.375 C-1.67093205 3.63165991 -0.82627341 1.8178015 0 0 Z " fill="#241C0D" transform="translate(231,321)"/>
<path d="M0 0 C0 2.62113708 -0.31292445 4.50935112 -1 7 C0.32 7.33 1.64 7.66 3 8 C1 9 1 9 -2 9 C-2.33 10.98 -2.66 12.96 -3 15 C-3.33 15 -3.66 15 -4 15 C-4.33 13.02 -4.66 11.04 -5 9 C-6.65 8.67 -8.3 8.34 -10 8 C-9.01 7.34 -8.02 6.68 -7 6 C-6.690625 5.319375 -6.38125 4.63875 -6.0625 3.9375 C-5 2 -5 2 -2.9375 1.3125 C-2.298125 1.209375 -1.65875 1.10625 -1 1 C-0.67 0.67 -0.34 0.34 0 0 Z " fill="#F2E589" transform="translate(297,259)"/>
<path d="M0 0 C-3 1.5 -3 1.5 -6 3 C-5.34 3.309375 -4.68 3.61875 -4 3.9375 C-1.55823502 6.45557014 -1.72857594 7.28107372 -1.75 10.6875 C-1.81423833 12.1259798 -1.89163547 13.56416999 -2 15 C-2.66 14.67 -3.32 14.34 -4 14 C-4 11.36 -4 8.72 -4 6 C-4.78375 5.731875 -5.5675 5.46375 -6.375 5.1875 C-9 4 -9 4 -11 1 C-3.57142857 -1.42857143 -3.57142857 -1.42857143 0 0 Z " fill="#392D16" transform="translate(212,298)"/>
<path d="M0 0 C0 0.33 0 0.66 0 1 C2.475 1.495 2.475 1.495 5 2 C5 2.33 5 2.66 5 3 C2.04397804 3.49995117 -0.91265823 3.99496398 -3.87109375 4.48046875 C-5.67834023 4.78054838 -7.48416195 5.09021137 -9.28515625 5.42578125 C-11.125 5.75 -11.125 5.75 -14 6 C-14.66 5.34 -15.32 4.68 -16 4 C-14.274773 3.32320342 -12.54461061 2.65898 -10.8125 2 C-9.84957031 1.62875 -8.88664063 1.2575 -7.89453125 0.875 C-5.07817642 0.02363228 -2.91835561 -0.17072647 0 0 Z " fill="#B25919" transform="translate(255,212)"/>
<path d="M0 0 C1.32 0 2.64 0 4 0 C4.66 1.98 5.32 3.96 6 6 C6.66 6 7.32 6 8 6 C8.66 4.02 9.32 2.04 10 0 C12.31 0.33 14.62 0.66 17 1 C17 1.33 17 1.66 17 2 C16.071875 2.020625 15.14375 2.04125 14.1875 2.0625 C10.99303786 2.62844359 10.99303786 2.62844359 9.93359375 4.625 C9.20025229 6.38218533 8.59224075 8.19037549 8 10 C7.34 10 6.68 10 6 10 C5.4121875 8.2984375 5.4121875 8.2984375 4.8125 6.5625 C3.41389118 2.79660949 3.41389118 2.79660949 0.3125 2.0625 C-0.8321875 2.0315625 -0.8321875 2.0315625 -2 2 C-1.34 1.34 -0.68 0.68 0 0 Z " fill="#3A2D14" transform="translate(254,353)"/>
<path d="M0 0 C0.33 0 0.66 0 1 0 C1 1.98 1 3.96 1 6 C-0.32 6 -1.64 6 -3 6 C-2.67 7.65 -2.34 9.3 -2 11 C-2.99 11.66 -3.98 12.32 -5 13 C-4.9175 12.278125 -4.835 11.55625 -4.75 10.8125 C-5.07426559 7.16451206 -6.57319587 5.65431702 -9 3 C-5.92382812 2.70703125 -5.92382812 2.70703125 -2.84765625 2.4140625 C-2.23792969 2.27742188 -1.62820312 2.14078125 -1 2 C-0.67 1.34 -0.34 0.68 0 0 Z " fill="#DAA820" transform="translate(229,327)"/>
<path d="M0 0 C0.33 0.639375 0.66 1.27875 1 1.9375 C4.02329832 5.0552764 6.73656724 4.72043064 11 5 C10.34 5.721875 9.68 6.44375 9 7.1875 C6.8464147 10.21597933 6.58823246 11.39703406 7 15 C6.34 14.67 5.68 14.34 5 14 C4.3125 11 4.3125 11 4 8 C4.33 7.67 4.66 7.34 5 7 C3.68 7 2.36 7 1 7 C0.67 4.69 0.34 2.38 0 0 Z " fill="#CB9A24" transform="translate(215,293)"/>
<path d="M0 0 C5.875 1.875 5.875 1.875 7 3 C9.67058851 3.14115161 12.32432238 3.04247107 15 3 C15.33 2.34 15.66 1.68 16 1 C16 2.32 16 3.64 16 5 C14.02 5 12.04 5 10 5 C10 6.98 10 8.96 10 11 C9.01 11.495 9.01 11.495 8 12 C7.79375 10.9275 7.5875 9.855 7.375 8.75 C5.73616922 4.28046152 4.05378956 3.29127236 0 1 C0 0.67 0 0.34 0 0 Z " fill="#28180B" transform="translate(327,236)"/>
<path d="M0 0 C3.3 0 6.6 0 10 0 C10 1.32 10 2.64 10 4 C6.7 4 3.4 4 0 4 C0 2.68 0 1.36 0 0 Z " fill="#D66112" transform="translate(126,162)"/>
<path d="M0 0 C2.31 0.33 4.62 0.66 7 1 C5 3 5 3 1.5625 4.3125 C-2.34436893 6.16312212 -3.09008443 7.27566463 -5 11 C-5.99 11.66 -6.98 12.32 -8 13 C-7.39665691 9.29496359 -5.77525763 7.14031852 -3.4375 4.25 C-2.79683594 3.45078125 -2.15617187 2.6515625 -1.49609375 1.828125 C-1.00238281 1.22484375 -0.50867188 0.6215625 0 0 Z " fill="#311E0D" transform="translate(315,345)"/>
<path d="M0 0 C0.66 0 1.32 0 2 0 C2.66 2.31 3.32 4.62 4 7 C6.64 7 9.28 7 12 7 C10.35 8.65 8.7 10.3 7 12 C6.34 11.01 5.68 10.02 5 9 C4.01 9 3.02 9 2 9 C1.34 6.03 0.68 3.06 0 0 Z " fill="#D0A12C" transform="translate(260,239)"/>
<path d="M0 0 C-1.29364853 3.8809456 -2.90703342 4.56689295 -6.3125 6.75 C-7.27800781 7.38421875 -8.24351562 8.0184375 -9.23828125 8.671875 C-12 10 -12 10 -14.35546875 9.703125 C-14.89816406 9.47109375 -15.44085938 9.2390625 -16 9 C-13.71180854 7.49445366 -11.41978831 5.99542957 -9.125 4.5 C-8.47402344 4.07074219 -7.82304687 3.64148438 -7.15234375 3.19921875 C-2.2265625 0 -2.2265625 0 0 0 Z " fill="#191209" transform="translate(287,375)"/>
<path d="M0 0 C0.33 0.66 0.66 1.32 1 2 C1.99 2 2.98 2 4 2 C4 2.66 4 3.32 4 4 C4.66 4.33 5.32 4.66 6 5 C2.49223216 6.60355101 -0.14354879 7.22036864 -4 7 C-4 6.34 -4 5.68 -4 5 C-3.01 4.67 -2.02 4.34 -1 4 C-1.66 3.34 -2.32 2.68 -3 2 C-2.01 1.34 -1.02 0.68 0 0 Z " fill="#8D4915" transform="translate(263,390)"/>
<path d="M0 0 C0.33 0 0.66 0 1 0 C1 4.29 1 8.58 1 13 C0.01 13 -0.98 13 -2 13 C-2.33 12.34 -2.66 11.68 -3 11 C-5.01669827 9.86649466 -5.01669827 9.86649466 -7 9 C-5 8 -5 8 -1 9 C-0.67 6.03 -0.34 3.06 0 0 Z " fill="#F0E288" transform="translate(307,291)"/>
<path d="M0 0 C0 4 0 4 -1 7 C-2.65 7 -4.3 7 -6 7 C-6.33 5.68 -6.66 4.36 -7 3 C-2.25 0 -2.25 0 0 0 Z " fill="#B95A15" transform="translate(342,245)"/>
<path d="M0 0 C0.66 0.66 1.32 1.32 2 2 C1.68134222 5.29279709 0.45484649 6.86535088 -2 9 C0.97 9.495 0.97 9.495 4 10 C4 10.33 4 10.66 4 11 C0.7 11.33 -2.6 11.66 -6 12 C-4 8 -4 8 -2.4375 6.5625 C-0.54736879 4.50800956 -0.3675753 2.72005723 0 0 Z " fill="#362910" transform="translate(221,259)"/>
<path d="M0 0 C0.66 0 1.32 0 2 0 C1.67 1.65 1.34 3.3 1 5 C2.65 5 4.3 5 6 5 C4.625 6.5 4.625 6.5 3 8 C2.34 8 1.68 8 1 8 C0.67 9.98 0.34 11.96 0 14 C-0.33 14 -0.66 14 -1 14 C-1.08333357 9.1666528 -0.95261487 4.76307437 0 0 Z " fill="#482C12" transform="translate(335,257)"/>
<path d="M0 0 C2.64 0 5.28 0 8 0 C8 1.32 8 2.64 8 4 C5.36 4 2.72 4 0 4 C0 2.68 0 1.36 0 0 Z " fill="#DC6412" transform="translate(127,151)"/>
<path d="M0 0 C-0.32552083 1.98567708 -0.65104167 3.97135417 -0.9765625 5.95703125 C-1.19577848 8.31755824 -1.19577848 8.31755824 1 11 C-0.32 10.67 -1.64 10.34 -3 10 C-3 8.02 -3 6.04 -3 4 C-5.31 4 -7.62 4 -10 4 C-10.33 3.34 -10.66 2.68 -11 2 C-9.6078125 2.061875 -9.6078125 2.061875 -8.1875 2.125 C-4.72190539 1.98909433 -3.24974144 0 0 0 Z " fill="#CB9B26" transform="translate(268,340)"/>
<path d="M0 0 C-1 3 -1 3 -3.28515625 4.16796875 C-4.20167969 4.50441406 -5.11820313 4.84085938 -6.0625 5.1875 C-7.44115234 5.70376953 -7.44115234 5.70376953 -8.84765625 6.23046875 C-9.55792969 6.48441406 -10.26820313 6.73835937 -11 7 C-11.33 6.01 -11.66 5.02 -12 4 C-10.3767313 3.3291288 -8.75132422 2.66342971 -7.125 2 C-6.22007812 1.62875 -5.31515625 1.2575 -4.3828125 0.875 C-2 0 -2 0 0 0 Z " fill="#BF5A14" transform="translate(197,231)"/>
<path d="M0 0 C2.97 0 5.94 0 9 0 C9.33 0.66 9.66 1.32 10 2 C7.36 2 4.72 2 2 2 C1.34 3.98 0.68 5.96 0 8 C-0.66 8 -1.32 8 -2 8 C-1.34 5.36 -0.68 2.72 0 0 Z " fill="#DBAF2C" transform="translate(262,351)"/>
<path d="M0 0 C0.33 0.99 0.66 1.98 1 3 C2.65 3.33 4.3 3.66 6 4 C6 5.98 6 7.96 6 10 C5.649375 9.360625 5.29875 8.72125 4.9375 8.0625 C2.22815794 5.17836168 -0.15858911 5.2899178 -4 5 C-2.68 3.35 -1.36 1.7 0 0 Z " fill="#D5A620" transform="translate(222,264)"/>
<path d="M0 0 C3.3 0 6.6 0 10 0 C10 0.66 10 1.32 10 2 C7.69 2.33 5.38 2.66 3 3 C2.34 4.98 1.68 6.96 1 9 C0.34 8.67 -0.32 8.34 -1 8 C-0.67 5.36 -0.34 2.72 0 0 Z " fill="#CEA022" transform="translate(229,267)"/>
<path d="M0 0 C0.99 0.33 1.98 0.66 3 1 C2.814375 1.515625 2.62875 2.03125 2.4375 2.5625 C1.84580483 5.85908739 2.432733 8.72245735 3 12 C-1.875 10.25 -1.875 10.25 -3 8 C-1.68 8.33 -0.36 8.66 1 9 C0.84402344 8.43410156 0.68804687 7.86820312 0.52734375 7.28515625 C0.33269531 6.55167969 0.13804687 5.81820312 -0.0625 5.0625 C-0.35833984 3.96615234 -0.35833984 3.96615234 -0.66015625 2.84765625 C-0.77230469 2.23792969 -0.88445312 1.62820312 -1 1 C-0.67 0.67 -0.34 0.34 0 0 Z " fill="#312512" transform="translate(267,250)"/>
<path d="M0 0 C1.60597325 0.45196245 3.20972508 0.91182327 4.8125 1.375 C6.15248047 1.75785156 6.15248047 1.75785156 7.51953125 2.1484375 C10 3 10 3 13 5 C10.31143576 6.00821159 8.58296785 6.22736824 5.88671875 5.17578125 C3.89205069 4.16604698 1.9353228 3.11893353 0 2 C0 1.34 0 0.68 0 0 Z " fill="#AB8047" transform="translate(319,230)"/>
<path d="M0 0 C-0.99 0.33 -1.98 0.66 -3 1 C-2.34 2.98 -1.68 4.96 -1 7 C-3.4375 6.1875 -3.4375 6.1875 -6 5 C-6.33 4.01 -6.66 3.02 -7 2 C-7.66 1.67 -8.32 1.34 -9 1 C-2.25 -1.125 -2.25 -1.125 0 0 Z " fill="#F6EC95" transform="translate(297,333)"/>
<path d="M0 0 C0.66 0.33 1.32 0.66 2 1 C1.95875 2.093125 1.9175 3.18625 1.875 4.3125 C1.67925334 8.08892229 1.67925334 8.08892229 4 11 C2.02 10.34 0.04 9.68 -2 9 C-1.125 1.125 -1.125 1.125 0 0 Z " fill="#D6A627" transform="translate(233,256)"/>
<path d="M0 0 C0.99 0.33 1.98 0.66 3 1 C3.625 2.8125 3.625 2.8125 4 5 C4.185625 5.7425 4.37125 6.485 4.5625 7.25 C4.706875 7.8275 4.85125 8.405 5 9 C3.02 9.66 1.04 10.32 -1 11 C-0.649375 10.29875 -0.29875 9.5975 0.0625 8.875 C1.1639193 5.49731414 0.79516141 3.41919407 0 0 Z " fill="#E0B628" transform="translate(254,340)"/>
<path d="M0 0 C3 1.125 3 1.125 5 2.125 C5 3.115 5 4.105 5 5.125 C1.08788267 3.96914715 -1.8745041 2.76965038 -5 0.125 C-3 -0.875 -3 -0.875 0 0 Z " fill="#BD5813" transform="translate(337,233.875)"/>
<path d="M0 0 C2.31 0 4.62 0 7 0 C6.67 0.66 6.34 1.32 6 2 C5.34 2 4.68 2 4 2 C4 2.66 4 3.32 4 4 C2.02 4 0.04 4 -2 4 C-1.34 2.68 -0.68 1.36 0 0 Z " fill="#CD6317" transform="translate(268,385)"/>
<path d="M0 0 C5.35152885 0.32433508 8.28280043 3.49704824 12 7 C11.01 7.495 11.01 7.495 10 8 C8.33055479 6.85821872 6.6645052 5.71147095 5 4.5625 C4.071875 3.92441406 3.14375 3.28632813 2.1875 2.62890625 C1.465625 2.09136719 0.74375 1.55382812 0 1 C0 0.67 0 0.34 0 0 Z " fill="#AE905E" transform="translate(227,373)"/>
<path d="M0 0 C1.32 0 2.64 0 4 0 C3.67 1.65 3.34 3.3 3 5 C1.68 5.33 0.36 5.66 -1 6 C-0.67 4.02 -0.34 2.04 0 0 Z " fill="#BD9E68" transform="translate(321,315)"/>
<path d="M0 0 C0.5775 0.763125 1.155 1.52625 1.75 2.3125 C3.83357198 5.00891579 3.83357198 5.00891579 6.25 6.6875 C6.8275 7.120625 7.405 7.55375 8 8 C8 8.66 8 9.32 8 10 C5.36 10 2.72 10 0 10 C0 9.67 0 9.34 0 9 C1.65 9 3.3 9 5 9 C5 8.34 5 7.68 5 7 C4.360625 6.773125 3.72125 6.54625 3.0625 6.3125 C1 5 1 5 0.25 2.375 C0.1675 1.59125 0.085 0.8075 0 0 Z " fill="#1B150A" transform="translate(234,260)"/>
<path d="M0 0 C0.66 0.33 1.32 0.66 2 1 C2 4.3 2 7.6 2 11 C1.67 10.34 1.34 9.68 1 9 C0.01 8.67 -0.98 8.34 -2 8 C-2 6 -2 6 0 4 C-0.66 3.01 -1.32 2.02 -2 1 C-1.34 0.67 -0.68 0.34 0 0 Z " fill="#714A1E" transform="translate(341,255)"/>
<path d="M0 0 C1.0828125 0.2475 1.0828125 0.2475 2.1875 0.5 C4.86427545 0.97587119 7.28949487 1.077443 10 1 C8 4 8 4 5.6171875 4.51171875 C4.71226562 4.56972656 3.80734375 4.62773437 2.875 4.6875 C1.96492188 4.75324219 1.05484375 4.81898438 0.1171875 4.88671875 C-0.93082031 4.94279297 -0.93082031 4.94279297 -2 5 C-1.34 3.35 -0.68 1.7 0 0 Z " fill="#5B3714" transform="translate(318,340)"/>
<path d="M0 0 C0.99 0 1.98 0 3 0 C2.67 2.31 2.34 4.62 2 7 C1.01 6.67 0.02 6.34 -1 6 C-0.67 4.02 -0.34 2.04 0 0 Z " fill="#BF9F68" transform="translate(324,305)"/>
<path d="M0 0 C0.33 0 0.66 0 1 0 C1 1.65 1 3.3 1 5 C0.195625 5.12375 -0.60875 5.2475 -1.4375 5.375 C-2.7059375 5.684375 -2.7059375 5.684375 -4 6 C-4.33 6.66 -4.66 7.32 -5 8 C-6.32 6.68 -7.64 5.36 -9 4 C-6.36 4 -3.72 4 -1 4 C-0.67 2.68 -0.34 1.36 0 0 Z " fill="#D0A428" transform="translate(259,242)"/>
<path d="M0 0 C2.01822917 0.06510417 4.03645833 0.13020833 6.0546875 0.1953125 C6.0546875 2.1753125 6.0546875 4.1553125 6.0546875 6.1953125 C5.3946875 4.8753125 4.7346875 3.5553125 4.0546875 2.1953125 C1.4146875 2.1953125 -1.2253125 2.1953125 -3.9453125 2.1953125 C-1.9453125 0.1953125 -1.9453125 0.1953125 0 0 Z " fill="#D8AB25" transform="translate(253.9453125,350.8046875)"/>
<path d="M0 0 C-2.93828597 2.50298434 -5.17902761 3.46930939 -9 4 C-9 3.01 -9 2.02 -9 1 C-6.04335481 -0.4783226 -3.25770263 -0.06032783 0 0 Z " fill="#D16618" transform="translate(322,349)"/>
<path d="M0 0 C1.5625 1.25 1.5625 1.25 3 3 C2.6875 5.1875 2.6875 5.1875 2 7 C0.35 7.33 -1.3 7.66 -3 8 C-2.34 7.01 -1.68 6.02 -1 5 C-0.61500109 3.34450469 -0.27206865 1.6777567 0 0 Z " fill="#E1AC1A" transform="translate(288,259)"/>
<path d="M0 0 C0.33 0.99 0.66 1.98 1 3 C3.31 3.33 5.62 3.66 8 4 C7.67 4.66 7.34 5.32 7 6 C5.824375 5.9690625 5.824375 5.9690625 4.625 5.9375 C2.01885039 5.81315937 2.01885039 5.81315937 0 7 C0 4.69 0 2.38 0 0 Z " fill="#603914" transform="translate(335,249)"/>
<path d="M0 0 C6.625 -0.25 6.625 -0.25 10 2 C10 2.66 10 3.32 10 4 C6.44219804 3.39009109 3.3171411 2.4216319 0 1 C0 0.67 0 0.34 0 0 Z " fill="#DA7021" transform="translate(310,231)"/>
<path d="M0 0 C1.4370809 -0.05422947 2.87475462 -0.09289723 4.3125 -0.125 C5.11300781 -0.14820313 5.91351563 -0.17140625 6.73828125 -0.1953125 C9 0 9 0 12 2 C12 2.66 12 3.32 12 4 C6.06 2.515 6.06 2.515 0 1 C0 0.67 0 0.34 0 0 Z " fill="#BF5C16" transform="translate(296,221)"/>
<path d="M0 0 C-0.33 0.99 -0.66 1.98 -1 3 C-5.455 3.495 -5.455 3.495 -10 4 C-9.67 3.34 -9.34 2.68 -9 2 C-2.88888889 0 -2.88888889 0 0 0 Z " fill="#C96318" transform="translate(329,338)"/>
<path d="M0 0 C0.33 0 0.66 0 1 0 C1 2.31 1 4.62 1 7 C-3.455 7.495 -3.455 7.495 -8 8 C-8 7.34 -8 6.68 -8 6 C-6.576875 5.9071875 -6.576875 5.9071875 -5.125 5.8125 C-4.09375 5.544375 -3.0625 5.27625 -2 5 C-0.54708727 2.53744315 -0.54708727 2.53744315 0 0 Z " fill="#CB9422" transform="translate(289,326)"/>
<path d="M0 0 C1.65 1.65 3.3 3.3 5 5 C3.6078125 4.7215625 3.6078125 4.7215625 2.1875 4.4375 C-1.01343771 3.75876119 -1.01343771 3.75876119 -4 5 C-3 2 -3 2 0 0 Z " fill="#D6A11C" transform="translate(216,305)"/>
<path d="M0 0 C1.134375 0.020625 2.26875 0.04125 3.4375 0.0625 C3.7675 0.7225 4.0975 1.3825 4.4375 2.0625 C2.1275 2.0625 -0.1825 2.0625 -2.5625 2.0625 C-3.2225 3.3825 -3.8825 4.7025 -4.5625 6.0625 C-4.605221 4.39638095 -4.60313832 2.72867115 -4.5625 1.0625 C-3.5625 0.0625 -3.5625 0.0625 0 0 Z " fill="#E2B326" transform="translate(298.5625,266.9375)"/>
<path d="M0 0 C3.73487777 0.4979837 5.81237635 0.87491756 9 3 C9 3.66 9 4.32 9 5 C5.12867972 4.42647107 2.91827204 2.51295648 0 0 Z " fill="#E27321" transform="translate(324,237)"/>
<path d="M0 0 C-2.57089417 2.11180592 -4.63060567 3.66306057 -8 4 C-8.66 3.34 -9.32 2.68 -10 2 C-6.5980513 -0.09350689 -3.94727588 -0.17942163 0 0 Z " fill="#C3985D" transform="translate(197,235)"/>
<path d="M0 0 C2.97 0.33 5.94 0.66 9 1 C9 1.99 9 2.98 9 4 C6.03 3.01 3.06 2.02 0 1 C0 0.67 0 0.34 0 0 Z " fill="#9E6D39" transform="translate(310,228)"/>
<path d="M0 0 C2.31 0 4.62 0 7 0 C6.01 0.33 5.02 0.66 4 1 C4 1.66 4 2.32 4 3 C2.02 3.33 0.04 3.66 -2 4 C-1.34 2.68 -0.68 1.36 0 0 Z " fill="#65421A" transform="translate(323,336)"/>
<path d="M0 0 C1.5 1.375 1.5 1.375 3 3 C3 3.66 3 4.32 3 5 C4.65 5 6.3 5 8 5 C6 7 6 7 3.375 7.125 C2.59125 7.08375 1.8075 7.0425 1 7 C0.67 4.69 0.34 2.38 0 0 Z " fill="#E7BE31" transform="translate(291,326)"/>
<path d="M0 0 C-0.66 1.32 -1.32 2.64 -2 4 C-3.32 4 -4.64 4 -6 4 C-6 3.01 -6 2.02 -6 1 C-4 0 -4 0 0 0 Z " fill="#B75F1A" transform="translate(342,264)"/>
<path d="M0 0 C-0.66 1.65 -1.32 3.3 -2 5 C-4.97 4.505 -4.97 4.505 -8 4 C-4.5 0 -4.5 0 0 0 Z " fill="#794A1B" transform="translate(325,345)"/>
<path d="M0 0 C2.625 -0.1875 2.625 -0.1875 5 0 C5.66 1.32 6.32 2.64 7 4 C4.03 3.67 1.06 3.34 -2 3 C-1.34 2.01 -0.68 1.02 0 0 Z " fill="#CE9C1E" transform="translate(227,339)"/>
<path d="M0 0 C0.66 0 1.32 0 2 0 C2 2.31 2 4.62 2 7 C1.34 6.34 0.68 5.68 0 5 C-1.31747324 4.30251417 -2.64914193 3.63040043 -4 3 C-3.01 2.67 -2.02 2.34 -1 2 C-0.67 1.34 -0.34 0.68 0 0 Z " fill="#F1D740" transform="translate(232,335)"/>
<path d="M0 0 C3.2542015 2.83430453 4.5206753 4.68607774 5 9 C4.34 9 3.68 9 3 9 C0 3.375 0 3.375 0 0 Z " fill="#E7C435" transform="translate(294,334)"/>
<path d="M0 0 C0 0.99 0 1.98 0 3 C-2.31 3 -4.62 3 -7 3 C-7 2.34 -7 1.68 -7 1 C-4 0 -4 0 0 0 Z " fill="#C16018" transform="translate(330,333)"/>
<path d="M0 0 C1.98 0 3.96 0 6 0 C5.6875 1.9375 5.6875 1.9375 5 4 C4.01 4.33 3.02 4.66 2 5 C2 3.68 2 2.36 2 1 C1.34 0.67 0.68 0.34 0 0 Z " fill="#F8F4A4" transform="translate(211,301)"/>
<path d="M0 0 C0.61875 0.928125 0.61875 0.928125 1.25 1.875 C3.05573879 4.06768281 4.4090534 4.92788417 7 6 C5.02 6.33 3.04 6.66 1 7 C0.67 4.69 0.34 2.38 0 0 Z " fill="#E3B51F" transform="translate(215,293)"/>
<path d="M0 0 C-0.33 0.99 -0.66 1.98 -1 3 C-2.65 3.33 -4.3 3.66 -6 4 C-6 3.34 -6 2.68 -6 2 C-6.66 1.67 -7.32 1.34 -8 1 C-2.25 -1.125 -2.25 -1.125 0 0 Z " fill="#C89A5D" transform="translate(246,218)"/>
<path d="M0 0 C0 0.99 0 1.98 0 3 C-1.98 3.99 -1.98 3.99 -4 5 C-4 4.34 -4 3.68 -4 3 C-4.99 2.34 -5.98 1.68 -7 1 C-4 0 -4 0 0 0 Z " fill="#47381A" transform="translate(320,298)"/>
<path d="M0 0 C3 1 3 1 3 1 Z " fill="#000000" transform="translate(307,92)"/>
<path d="M0 0 C3 1 3 1 3 1 Z " fill="#000000" transform="translate(109,85)"/>
<path d="M0 0 C2 1 2 1 2 1 Z " fill="#000000" transform="translate(444,186)"/>
<path d="M0 0 C2 1 2 1 2 1 Z " fill="#000000" transform="translate(137,87)"/>
<path d="" fill="#000000" transform="translate(0,0)"/>
<path d="" fill="#000000" transform="translate(0,0)"/>
</svg>
