<?xml version="1.0" encoding="UTF-8"?>
<svg version="1.1" xmlns="http://www.w3.org/2000/svg" width="512" height="512">
<path d="M0 0 C1.98 0 3.96 0 6 0 C6 0.33 6 0.66 6 1 C9.62498334 1.02893932 13.24993713 1.04677792 16.875 1.0625 C17.90753906 1.07087891 18.94007813 1.07925781 20.00390625 1.08789062 C20.99003906 1.09111328 21.97617187 1.09433594 22.9921875 1.09765625 C23.90339355 1.10289307 24.81459961 1.10812988 25.75341797 1.11352539 C28.03687509 1.14885565 28.03687509 1.14885565 30 0 C38.04871493 -0.47182122 46.20344263 0.08794308 54.25 0.4375 C55.17200195 0.47665527 56.09400391 0.51581055 57.04394531 0.55615234 C73.31818623 1.31818623 73.31818623 1.31818623 75 3 C75.09071627 6.18750024 75.10992977 9.35164224 75.08764648 12.53930664 C75.08378402 13.59357629 75.07992155 14.64784594 75.07594204 15.73406315 C75.05844552 19.48945168 75.03098115 23.24470437 75 27 C74.99431834 27.69954347 74.98863667 28.39908694 74.98278284 29.1198287 C74.88533313 40.91656015 74.75902014 52.71296817 74.62907338 64.50937915 C74.5863909 68.39722897 74.54450995 72.28508729 74.50260442 76.17294556 C74.40308298 85.40380322 74.30219775 94.63464527 74.20043945 103.86547852 C74.10871847 112.18772795 74.01856679 120.50999252 73.92993164 128.83227539 C73.88626502 132.92529334 73.84255883 137.01831086 73.79882812 141.11132812 C73.7880803 142.11842811 73.77733247 143.12552809 73.76625896 144.16314626 C73.64892322 155.12939751 73.52701159 166.09556591 73.39199829 177.06161499 C73.38021203 178.02066077 73.36842577 178.97970655 73.35628235 179.96781433 C73.30958097 183.76155682 73.26282561 187.55529848 73.21541333 191.34903216 C73.07956323 202.25912861 72.9707805 213.16863867 72.91176319 224.07942486 C72.88168281 229.52148277 72.82983087 234.96326567 72.77575493 240.40513802 C72.75622472 242.83645275 72.74533583 245.2678547 72.74376106 247.69924736 C72.74114527 250.94344005 72.70922731 254.18601317 72.66967773 257.42993164 C72.68064012 258.82300757 72.68064012 258.82300757 72.69182396 260.24422646 C72.57302678 266.40342323 72.57302678 266.40342323 69.58258057 269.51676941 C68.73032898 270.0062355 67.87807739 270.4957016 67 271 C66.34298096 271.42958008 65.68596191 271.85916016 65.0090332 272.30175781 C64.36281006 272.68170898 63.71658691 273.06166016 63.05078125 273.453125 C62.29885498 273.89897949 61.54692871 274.34483398 60.7722168 274.80419922 C59.96051025 275.28131348 59.14880371 275.75842773 58.3125 276.25 C50.22492905 281.05215975 42.19123233 285.93438777 34.1875 290.875 C25.87038042 296.00622954 17.54079856 301.115372 9.1875 306.1875 C1.93705735 310.59121536 -5.29267436 315.02606717 -12.5 319.5 C-19.70732869 323.97393473 -26.93723317 328.40849176 -34.1875 332.8125 C-42.65774698 337.95983179 -51.11732579 343.12415197 -59.5625 348.3125 C-60.66118408 348.98716309 -61.75986816 349.66182617 -62.8918457 350.35693359 C-69.82409814 354.62593293 -76.68833493 358.97816773 -83.4609375 363.49609375 C-87.22978334 365.72841013 -87.22978334 365.72841013 -90 366 C-92.61181641 364.80688477 -92.61181641 364.80688477 -95.6015625 362.94140625 C-96.71829346 362.25344971 -97.83502441 361.56549316 -98.9855957 360.85668945 C-100.19884479 360.09214101 -101.4119765 359.3274063 -102.625 358.5625 C-103.88361641 357.78159853 -105.14298646 357.00191054 -106.40307617 356.22338867 C-109.00143341 354.61559989 -111.59544762 353.0011367 -114.18603516 351.38085938 C-118.80631297 348.49269354 -123.44882671 345.64142839 -128.09204102 342.7902832 C-131.31611714 340.81027861 -134.5371486 338.82539273 -137.7578125 336.83984375 C-148.44131923 330.26066966 -159.16958493 323.75479397 -169.89404297 317.24267578 C-180.9806536 310.5097283 -192.04910687 303.75075943 -203.06665039 296.90527344 C-207.69811952 294.03132243 -212.34172864 291.1793779 -217.00390625 288.35546875 C-218.01453125 287.74316406 -219.02515625 287.13085938 -220.06640625 286.5 C-221.98813303 285.33744299 -223.9111946 284.1770879 -225.8359375 283.01953125 C-227.58473013 281.96165091 -229.32197603 280.88434383 -231.04464722 279.78443909 C-233.9686938 277.94662606 -233.9686938 277.94662606 -237.11624146 276.55015564 C-240.69982514 274.68406385 -243.24483491 272.97230625 -246 270 C-247.71252633 264.01389975 -247.42421272 258.23151048 -247.20703125 252.0546875 C-247.18749449 250.24125981 -247.17332715 248.42776746 -247.16413879 246.61425781 C-247.12453123 241.72050783 -247.0111395 236.83096544 -246.88428497 231.93880463 C-246.76329792 226.77504024 -246.71096219 221.61057853 -246.65185547 216.44580078 C-246.54723292 207.9981472 -246.4043259 199.55200078 -246.23193359 191.10546875 C-246.01316449 180.32049446 -245.88592262 169.53675256 -245.80078125 158.75 C-245.51067754 124.24518862 -244.81726491 89.74689922 -244.06517792 55.2494278 C-244.00051858 52.27386446 -243.93687806 49.29828059 -243.87335205 46.32269287 C-243.77310465 41.65381517 -243.66830771 36.98506003 -243.55992508 32.31636429 C-243.52056049 30.59973607 -243.48243346 28.88307895 -243.44565964 27.16639328 C-243.26369926 18.73584191 -243.00908027 10.38167299 -242 2 C-230.5346554 0.65804054 -219.04871296 0.86632579 -207.52441406 0.88647461 C-205.25666302 0.88675703 -202.98891188 0.88659767 -200.72116089 0.8860321 C-194.59395965 0.88574629 -188.46677816 0.89160815 -182.33958149 0.89860606 C-175.92542433 0.90487552 -169.51126668 0.90544624 -163.09710693 0.90663147 C-152.34077551 0.90938214 -141.58445268 0.91561987 -130.828125 0.92456055 C-119.75455765 0.93375528 -108.68099227 0.94082601 -97.60742188 0.94506836 C-96.58163742 0.94546244 -96.58163742 0.94546244 -95.53513005 0.94586449 C-92.10404129 0.94716963 -88.67295251 0.94843332 -85.24186373 0.94967639 C-56.8279042 0.96002426 -28.41395249 0.97769578 0 1 C0 0.67 0 0.34 0 0 Z " fill="#0E0A07" transform="translate(347,93)"/>
<path d="M0 0 C1.98 0 3.96 0 6 0 C6 0.33 6 0.66 6 1 C9.62498334 1.02893932 13.24993713 1.04677792 16.875 1.0625 C17.90753906 1.07087891 18.94007813 1.07925781 20.00390625 1.08789062 C20.99003906 1.09111328 21.97617187 1.09433594 22.9921875 1.09765625 C23.90339355 1.10289307 24.81459961 1.10812988 25.75341797 1.11352539 C28.03687509 1.14885565 28.03687509 1.14885565 30 0 C38.04871493 -0.47182122 46.20344263 0.08794308 54.25 0.4375 C55.17200195 0.47665527 56.09400391 0.51581055 57.04394531 0.55615234 C73.31818623 1.31818623 73.31818623 1.31818623 75 3 C75.09071627 6.18750024 75.10992977 9.35164224 75.08764648 12.53930664 C75.08378402 13.59357629 75.07992155 14.64784594 75.07594204 15.73406315 C75.05844552 19.48945168 75.03098115 23.24470437 75 27 C74.99431834 27.69954347 74.98863667 28.39908694 74.98278284 29.1198287 C74.88533313 40.91656015 74.75902014 52.71296817 74.62907338 64.50937915 C74.5863909 68.39722897 74.54450995 72.28508729 74.50260442 76.17294556 C74.40308298 85.40380322 74.30219775 94.63464527 74.20043945 103.86547852 C74.10871847 112.18772795 74.01856679 120.50999252 73.92993164 128.83227539 C73.88626502 132.92529334 73.84255883 137.01831086 73.79882812 141.11132812 C73.7880803 142.11842811 73.77733247 143.12552809 73.76625896 144.16314626 C73.64892322 155.12939751 73.52701159 166.09556591 73.39199829 177.06161499 C73.38021203 178.02066077 73.36842577 178.97970655 73.35628235 179.96781433 C73.30958097 183.76155682 73.26282561 187.55529848 73.21541333 191.34903216 C73.07956323 202.25912861 72.9707805 213.16863867 72.91176319 224.07942486 C72.88168281 229.52148277 72.82983087 234.96326567 72.77575493 240.40513802 C72.75622472 242.83645275 72.74533583 245.2678547 72.74376106 247.69924736 C72.74114527 250.94344005 72.70922731 254.18601317 72.66967773 257.42993164 C72.68064012 258.82300757 72.68064012 258.82300757 72.69182396 260.24422646 C72.57302678 266.40342323 72.57302678 266.40342323 69.58258057 269.51676941 C68.73032898 270.0062355 67.87807739 270.4957016 67 271 C66.34298096 271.42958008 65.68596191 271.85916016 65.0090332 272.30175781 C64.36281006 272.68170898 63.71658691 273.06166016 63.05078125 273.453125 C62.29885498 273.89897949 61.54692871 274.34483398 60.7722168 274.80419922 C59.96051025 275.28131348 59.14880371 275.75842773 58.3125 276.25 C50.22492905 281.05215975 42.19123233 285.93438777 34.1875 290.875 C25.87038042 296.00622954 17.54079856 301.115372 9.1875 306.1875 C1.93705735 310.59121536 -5.29267436 315.02606717 -12.5 319.5 C-19.70732869 323.97393473 -26.93723317 328.40849176 -34.1875 332.8125 C-42.65774698 337.95983179 -51.11732579 343.12415197 -59.5625 348.3125 C-60.66118408 348.98716309 -61.75986816 349.66182617 -62.8918457 350.35693359 C-69.82409814 354.62593293 -76.68833493 358.97816773 -83.4609375 363.49609375 C-87.22978334 365.72841013 -87.22978334 365.72841013 -90 366 C-92.61181641 364.80688477 -92.61181641 364.80688477 -95.6015625 362.94140625 C-96.71829346 362.25344971 -97.83502441 361.56549316 -98.9855957 360.85668945 C-100.19884479 360.09214101 -101.4119765 359.3274063 -102.625 358.5625 C-103.88361641 357.78159853 -105.14298646 357.00191054 -106.40307617 356.22338867 C-109.00143341 354.61559989 -111.59544762 353.0011367 -114.18603516 351.38085938 C-118.80631297 348.49269354 -123.44882671 345.64142839 -128.09204102 342.7902832 C-131.31611714 340.81027861 -134.5371486 338.82539273 -137.7578125 336.83984375 C-148.44131923 330.26066966 -159.16958493 323.75479397 -169.89404297 317.24267578 C-180.9806536 310.5097283 -192.04910687 303.75075943 -203.06665039 296.90527344 C-207.69811952 294.03132243 -212.34172864 291.1793779 -217.00390625 288.35546875 C-218.01453125 287.74316406 -219.02515625 287.13085938 -220.06640625 286.5 C-221.98813303 285.33744299 -223.9111946 284.1770879 -225.8359375 283.01953125 C-227.58473013 281.96165091 -229.32197603 280.88434383 -231.04464722 279.78443909 C-233.9686938 277.94662606 -233.9686938 277.94662606 -237.11624146 276.55015564 C-240.69982514 274.68406385 -243.24483491 272.97230625 -246 270 C-247.71252633 264.01389975 -247.42421272 258.23151048 -247.20703125 252.0546875 C-247.18749449 250.24125981 -247.17332715 248.42776746 -247.16413879 246.61425781 C-247.12453123 241.72050783 -247.0111395 236.83096544 -246.88428497 231.93880463 C-246.76329792 226.77504024 -246.71096219 221.61057853 -246.65185547 216.44580078 C-246.54723292 207.9981472 -246.4043259 199.55200078 -246.23193359 191.10546875 C-246.01316449 180.32049446 -245.88592262 169.53675256 -245.80078125 158.75 C-245.51067754 124.24518862 -244.81726491 89.74689922 -244.06517792 55.2494278 C-244.00051858 52.27386446 -243.93687806 49.29828059 -243.87335205 46.32269287 C-243.77310465 41.65381517 -243.66830771 36.98506003 -243.55992508 32.31636429 C-243.52056049 30.59973607 -243.48243346 28.88307895 -243.44565964 27.16639328 C-243.26369926 18.73584191 -243.00908027 10.38167299 -242 2 C-230.5346554 0.65804054 -219.04871296 0.86632579 -207.52441406 0.88647461 C-205.25666302 0.88675703 -202.98891188 0.88659767 -200.72116089 0.8860321 C-194.59395965 0.88574629 -188.46677816 0.89160815 -182.33958149 0.89860606 C-175.92542433 0.90487552 -169.51126668 0.90544624 -163.09710693 0.90663147 C-152.34077551 0.90938214 -141.58445268 0.91561987 -130.828125 0.92456055 C-119.75455765 0.93375528 -108.68099227 0.94082601 -97.60742188 0.94506836 C-96.58163742 0.94546244 -96.58163742 0.94546244 -95.53513005 0.94586449 C-92.10404129 0.94716963 -88.67295251 0.94843332 -85.24186373 0.94967639 C-56.8279042 0.96002426 -28.41395249 0.97769578 0 1 C0 0.67 0 0.34 0 0 Z M-234 93 C-234.1244413 94.99640141 -234.17808572 96.99722386 -234.20532227 98.99731445 C-234.22521713 100.30528488 -234.245112 101.61325531 -234.26560974 102.96086121 C-234.28269336 104.4283328 -234.29961995 105.89580623 -234.31640625 107.36328125 C-234.33753622 108.9047743 -234.35899318 110.4462629 -234.38075256 111.98774719 C-234.57569857 126.29854489 -234.70530991 140.61041248 -234.8269043 154.92199707 C-234.9248007 166.26008284 -235.06177157 177.59670617 -235.23798275 188.93384838 C-235.36739009 197.40747788 -235.46241595 205.88109938 -235.53388309 214.35541248 C-235.57842783 219.4996121 -235.63878619 224.64255168 -235.73635864 229.78604126 C-235.82799787 234.65076938 -235.8768253 239.5140845 -235.89340019 244.37962914 C-235.90702443 246.17440777 -235.93619959 247.96914513 -235.98198128 249.76339149 C-236.57968125 259.1045913 -236.57968125 259.1045913 -233.10290527 267.32980347 C-230.78703081 268.90537066 -228.60197462 269.98057421 -226 271 C-225.12504883 271.54640137 -224.25009766 272.09280273 -223.34863281 272.65576172 C-222.64061523 273.07615723 -221.93259766 273.49655273 -221.203125 273.9296875 C-219.99378296 274.65079712 -219.99378296 274.65079712 -218.76000977 275.38647461 C-217.93170654 275.87768799 -217.10340332 276.36890137 -216.25 276.875 C-214.4723432 277.93567344 -212.69499889 278.99687076 -210.91796875 280.05859375 C-210.0676709 280.56632324 -209.21737305 281.07405273 -208.34130859 281.59716797 C-203.19593762 284.68009827 -198.09748972 287.83870413 -193 291 C-177.11079736 300.8480657 -161.18395286 310.62988969 -145.21386719 320.34619141 C-127.85476024 330.90785522 -127.85476024 330.90785522 -119.87353516 335.84228516 C-118.42314235 336.73852736 -116.97218516 337.63385626 -115.52099609 338.52880859 C-112.70078174 340.26804891 -109.8815525 342.00887722 -107.0625 343.75 C-105.71067627 344.58349976 -105.71067627 344.58349976 -104.33154297 345.43383789 C-103.47061035 345.96614014 -102.60967773 346.49844238 -101.72265625 347.046875 C-100.90168457 347.55154297 -100.08071289 348.05621094 -99.23486328 348.57617188 C-97.31516261 349.79921036 -95.50814582 351.09591434 -93.68359375 352.453125 C-91.17626814 354.17953836 -91.17626814 354.17953836 -88.6484375 354.07421875 C-84.66071848 352.45678109 -81.21266131 350.17124483 -77.625 347.8125 C-75.91129267 346.70787039 -74.1963978 345.60508147 -72.48046875 344.50390625 C-71.58247559 343.92656738 -70.68448242 343.34922852 -69.75927734 342.75439453 C-65.19344666 339.85136327 -60.56622574 337.05126107 -55.9375 334.25 C-47.6053011 329.19824418 -39.29440993 324.11357385 -31 319 C-22.74468701 313.91166967 -14.47607868 308.84646015 -6.1875 303.8125 C1.92326459 298.88612589 10.00358716 293.91335241 18.06518555 288.90698242 C25.6549321 284.19934546 33.28241107 279.55488458 40.92382812 274.93164062 C51.51934339 269.18442675 51.51934339 269.18442675 61 262 C64.11175476 223.2406622 62.06321449 183.3562382 62.03004074 144.51511383 C62.0254657 138.56549653 62.0235464 132.61587834 62.0213623 126.66625977 C62.01674964 115.1108376 62.00934088 103.55541925 62 92 C24.4357667 91.977135 -13.12846556 91.95950247 -50.69270441 91.94893467 C-55.12269162 91.94768389 -59.55267882 91.94638958 -63.98266602 91.94506836 C-64.86463506 91.94480605 -65.74660411 91.94454374 -66.65529949 91.94427348 C-80.95534931 91.9399165 -95.25539512 91.93202879 -109.55544256 91.9228472 C-124.21735804 91.91351145 -138.87927141 91.90794456 -153.54118973 91.90591151 C-162.59587761 91.90453611 -171.65055419 91.90018466 -180.70523859 91.89208353 C-186.90568934 91.88681704 -193.10613421 91.88519548 -199.30658703 91.88649862 C-202.88941512 91.88714216 -206.47222338 91.88612279 -210.05504799 91.88079453 C-213.93017437 91.8750733 -217.8052745 91.8769989 -221.68040466 91.87974548 C-223.39778002 91.87537622 -223.39778002 91.87537622 -225.14984983 91.87091869 C-226.69423895 91.87390526 -226.69423895 91.87390526 -228.26982784 91.87695217 C-229.61346823 91.87638259 -229.61346823 91.87638259 -230.98425287 91.8758015 C-232.99724756 91.77648653 -232.99724756 91.77648653 -234 93 Z " fill="#F26E14" transform="translate(347,93)"/>
<path d="M0 0 C4.60577095 -0.161606 8.48173182 -0.1416736 12.90625 1.31640625 C14.55685648 1.85531695 16.228861 2.32868728 17.90625 2.77734375 C33.70659468 7.1600584 47.36479664 16.60060641 57 30 C58.4375 33.5 58.4375 33.5 59 36 C59.66 36 60.32 36 61 36 C66.47207753 47.52629096 69.56066327 57.1047447 69 70 C64.05 70 59.1 70 54 70 C53.505 71.98 53.505 71.98 53 74 C58.28 74 63.56 74 69 74 C69.87348132 83.78299074 66.72412407 94.41269035 62 103 C61.34 103 60.68 103 60 103 C59.74347656 103.72574219 59.48695313 104.45148438 59.22265625 105.19921875 C54.93401745 115.023353 45.33471722 123.93788967 36 129 C35.34 129 34.68 129 34 129 C33.67 129.99 33.34 130.98 33 132 C30.93359375 132.73046875 30.93359375 132.73046875 28.4375 133.1875 C27.61121094 133.34605469 26.78492188 133.50460937 25.93359375 133.66796875 C25.29550781 133.77753906 24.65742188 133.88710938 24 134 C24 134.66 24 135.32 24 136 C15.98009959 139.23610017 8.57123899 139.61390815 0 140 C0 135.38 0 130.76 0 126 C-1.65 126.33 -3.3 126.66 -5 127 C-4.505 133.435 -4.505 133.435 -4 140 C-8.29 140.33 -12.58 140.66 -17 141 C-17.33 140.01 -17.66 139.02 -18 138 C-20.31 137.67 -22.62 137.34 -25 137 C-25 136.34 -25 135.68 -25 135 C-25.58007812 134.89042969 -26.16015625 134.78085937 -26.7578125 134.66796875 C-31.59746277 133.6856635 -35.65366116 132.45178089 -40 130 C-40 129.34 -40 128.68 -40 128 C-40.66 127.814375 -41.32 127.62875 -42 127.4375 C-52.83582927 122.24533181 -60.37842314 111.21822535 -66 101 C-66.69996094 99.75863281 -66.69996094 99.75863281 -67.4140625 98.4921875 C-71.74391892 90.41485302 -73.12262252 83.12980414 -73 74 C-71.94039062 73.93941406 -70.88078125 73.87882812 -69.7890625 73.81640625 C-68.40102779 73.73199873 -67.01300768 73.64735083 -65.625 73.5625 C-64.92632812 73.52318359 -64.22765625 73.48386719 -63.5078125 73.44335938 C-59.62639508 73.25719866 -59.62639508 73.25719866 -56 72 C-54.30456409 71.90948931 -52.60556022 71.88245128 -50.90771484 71.88647461 C-49.31629166 71.88658791 -49.31629166 71.88658791 -47.69271851 71.88670349 C-45.96923691 71.89444542 -45.96923691 71.89444542 -44.2109375 71.90234375 C-43.03737701 71.9037587 -41.86381653 71.90517365 -40.6546936 71.90663147 C-36.89477015 71.91224311 -33.13490555 71.92479762 -29.375 71.9375 C-26.83073002 71.9425135 -24.28645912 71.94707667 -21.7421875 71.95117188 C-15.49477147 71.96221632 -9.24738994 71.97896582 -3 72 C-3.00999275 71.01734161 -3.00999275 71.01734161 -3.02018738 70.01483154 C-3.08651325 63.20183211 -3.1317893 56.38892426 -3.16479492 49.57568359 C-3.17988936 47.03235143 -3.20036688 44.48904533 -3.22631836 41.94580078 C-3.26267177 38.2919268 -3.27971997 34.63839671 -3.29296875 30.984375 C-3.30845261 29.84570984 -3.32393646 28.70704468 -3.33988953 27.53387451 C-3.34011612 26.47307678 -3.34034271 25.41227905 -3.34057617 24.31933594 C-3.34723801 23.38667908 -3.35389984 22.45402222 -3.36076355 21.49310303 C-2.93305955 18.53739942 -1.82302364 17.31014068 0 15 C0.21326685 12.3270555 0.28545631 9.9073788 0.1875 7.25 C0.17396484 6.55261719 0.16042969 5.85523438 0.14648438 5.13671875 C0.1112945 3.42414459 0.05749155 1.71197059 0 0 Z " fill="#130D09" transform="translate(262,229)"/>
<path d="M0 0 C1.98 0 3.96 0 6 0 C6 0.33 6 0.66 6 1 C9.62498334 1.02893932 13.24993713 1.04677792 16.875 1.0625 C17.90753906 1.07087891 18.94007813 1.07925781 20.00390625 1.08789062 C20.99003906 1.09111328 21.97617187 1.09433594 22.9921875 1.09765625 C23.90339355 1.10289307 24.81459961 1.10812988 25.75341797 1.11352539 C28.03687509 1.14885565 28.03687509 1.14885565 30 0 C38.04871493 -0.47182122 46.20344263 0.08794308 54.25 0.4375 C55.17200195 0.47665527 56.09400391 0.51581055 57.04394531 0.55615234 C73.31818623 1.31818623 73.31818623 1.31818623 75 3 C75.09071627 6.18750024 75.10992977 9.35164224 75.08764648 12.53930664 C75.08378402 13.59357629 75.07992155 14.64784594 75.07594204 15.73406315 C75.05844552 19.48945168 75.03098115 23.24470437 75 27 C74.99431834 27.69954347 74.98863667 28.39908694 74.98278284 29.1198287 C74.88533313 40.91656015 74.75902014 52.71296817 74.62907338 64.50937915 C74.5863909 68.39722897 74.54450995 72.28508729 74.50260442 76.17294556 C74.40308298 85.40380322 74.30219775 94.63464527 74.20043945 103.86547852 C74.10871847 112.18772795 74.01856679 120.50999252 73.92993164 128.83227539 C73.88626502 132.92529334 73.84255883 137.01831086 73.79882812 141.11132812 C73.7880803 142.11842811 73.77733247 143.12552809 73.76625896 144.16314626 C73.64892322 155.12939751 73.52701159 166.09556591 73.39199829 177.06161499 C73.38021203 178.02066077 73.36842577 178.97970655 73.35628235 179.96781433 C73.30958097 183.76155682 73.26282561 187.55529848 73.21541333 191.34903216 C73.07956323 202.25912861 72.9707805 213.16863867 72.91176319 224.07942486 C72.88168281 229.52148277 72.82983087 234.96326567 72.77575493 240.40513802 C72.75622472 242.83645275 72.74533583 245.2678547 72.74376106 247.69924736 C72.74114527 250.94344005 72.70922731 254.18601317 72.66967773 257.42993164 C72.68064012 258.82300757 72.68064012 258.82300757 72.69182396 260.24422646 C72.57302678 266.40342323 72.57302678 266.40342323 69.58258057 269.51676941 C68.73032898 270.0062355 67.87807739 270.4957016 67 271 C66.34298096 271.42958008 65.68596191 271.85916016 65.0090332 272.30175781 C64.36281006 272.68170898 63.71658691 273.06166016 63.05078125 273.453125 C62.29885498 273.89897949 61.54692871 274.34483398 60.7722168 274.80419922 C59.96051025 275.28131348 59.14880371 275.75842773 58.3125 276.25 C50.22492905 281.05215975 42.19123233 285.93438777 34.1875 290.875 C25.87038042 296.00622954 17.54079856 301.115372 9.1875 306.1875 C1.93705735 310.59121536 -5.29267436 315.02606717 -12.5 319.5 C-19.70732869 323.97393473 -26.93723317 328.40849176 -34.1875 332.8125 C-42.65774698 337.95983179 -51.11732579 343.12415197 -59.5625 348.3125 C-60.66118408 348.98716309 -61.75986816 349.66182617 -62.8918457 350.35693359 C-69.82409814 354.62593293 -76.68833493 358.97816773 -83.4609375 363.49609375 C-87.22978334 365.72841013 -87.22978334 365.72841013 -90 366 C-92.61181641 364.80688477 -92.61181641 364.80688477 -95.6015625 362.94140625 C-96.71829346 362.25344971 -97.83502441 361.56549316 -98.9855957 360.85668945 C-100.19884479 360.09214101 -101.4119765 359.3274063 -102.625 358.5625 C-103.88361641 357.78159853 -105.14298646 357.00191054 -106.40307617 356.22338867 C-109.00143341 354.61559989 -111.59544762 353.0011367 -114.18603516 351.38085938 C-118.80631297 348.49269354 -123.44882671 345.64142839 -128.09204102 342.7902832 C-131.31611714 340.81027861 -134.5371486 338.82539273 -137.7578125 336.83984375 C-148.44131923 330.26066966 -159.16958493 323.75479397 -169.89404297 317.24267578 C-180.9806536 310.5097283 -192.04910687 303.75075943 -203.06665039 296.90527344 C-207.69811952 294.03132243 -212.34172864 291.1793779 -217.00390625 288.35546875 C-218.01453125 287.74316406 -219.02515625 287.13085938 -220.06640625 286.5 C-221.98813303 285.33744299 -223.9111946 284.1770879 -225.8359375 283.01953125 C-227.58473013 281.96165091 -229.32197603 280.88434383 -231.04464722 279.78443909 C-233.9686938 277.94662606 -233.9686938 277.94662606 -237.11624146 276.55015564 C-240.69982514 274.68406385 -243.24483491 272.97230625 -246 270 C-247.71252633 264.01389975 -247.42421272 258.23151048 -247.20703125 252.0546875 C-247.18749449 250.24125981 -247.17332715 248.42776746 -247.16413879 246.61425781 C-247.12453123 241.72050783 -247.0111395 236.83096544 -246.88428497 231.93880463 C-246.76329792 226.77504024 -246.71096219 221.61057853 -246.65185547 216.44580078 C-246.54723292 207.9981472 -246.4043259 199.55200078 -246.23193359 191.10546875 C-246.01316449 180.32049446 -245.88592262 169.53675256 -245.80078125 158.75 C-245.51067754 124.24518862 -244.81726491 89.74689922 -244.06517792 55.2494278 C-244.00051858 52.27386446 -243.93687806 49.29828059 -243.87335205 46.32269287 C-243.77310465 41.65381517 -243.66830771 36.98506003 -243.55992508 32.31636429 C-243.52056049 30.59973607 -243.48243346 28.88307895 -243.44565964 27.16639328 C-243.26369926 18.73584191 -243.00908027 10.38167299 -242 2 C-230.5346554 0.65804054 -219.04871296 0.86632579 -207.52441406 0.88647461 C-205.25666302 0.88675703 -202.98891188 0.88659767 -200.72116089 0.8860321 C-194.59395965 0.88574629 -188.46677816 0.89160815 -182.33958149 0.89860606 C-175.92542433 0.90487552 -169.51126668 0.90544624 -163.09710693 0.90663147 C-152.34077551 0.90938214 -141.58445268 0.91561987 -130.828125 0.92456055 C-119.75455765 0.93375528 -108.68099227 0.94082601 -97.60742188 0.94506836 C-96.58163742 0.94546244 -96.58163742 0.94546244 -95.53513005 0.94586449 C-92.10404129 0.94716963 -88.67295251 0.94843332 -85.24186373 0.94967639 C-56.8279042 0.96002426 -28.41395249 0.97769578 0 1 C0 0.67 0 0.34 0 0 Z M-237 7 C-237.84498253 33.71898515 -237.84498253 33.71898515 -238.38891602 60.44018555 C-238.41840748 62.35842206 -238.44811918 64.27665519 -238.47802734 66.19488525 C-238.55677595 71.2877165 -238.63237719 76.38058946 -238.70718122 81.47347999 C-238.78695871 86.87433781 -238.86939552 92.27515524 -238.95140076 97.67597961 C-239.08848717 106.73163228 -239.22347968 115.78731429 -239.35717773 124.84301758 C-239.51052819 135.22800973 -239.66729404 145.6129461 -239.82587105 155.99785966 C-239.98007454 166.1020008 -240.13176955 176.20617821 -240.2823925 186.31037331 C-240.3457795 190.55957089 -240.41000833 194.80875441 -240.47497749 199.05792809 C-240.50609108 201.10345299 -240.53718307 203.14897821 -240.56825256 205.19450378 C-240.59102106 206.68228802 -240.59102106 206.68228802 -240.61424953 208.2001285 C-240.68616301 212.98138366 -240.75154056 217.76255637 -240.80164433 222.54409313 C-240.82068017 224.33932236 -240.83977001 226.13455101 -240.85891724 227.92977905 C-240.86792704 228.79072491 -240.87693685 229.65167076 -240.88621968 230.53870589 C-240.94344366 235.31495651 -241.0572392 240.08403631 -241.2412284 244.85707563 C-241.31890286 246.93641488 -241.38030987 249.0155263 -241.43555355 251.09557056 C-241.50414624 253.52655051 -241.60290947 255.95698291 -241.7403574 258.38504314 C-241.9139535 264.22089593 -241.9139535 264.22089593 -239.26440907 269.22843742 C-235.74055972 272.33515966 -232.05147178 274.72277845 -227.67578125 276.46875 C-221.6191287 279.08352556 -216.20040108 282.43189507 -210.625 285.9375 C-208.67123898 287.12693682 -206.7155061 288.31314074 -204.7578125 289.49609375 C-199.31873572 292.79910668 -193.90575304 296.14280202 -188.5 299.5 C-180.34009612 304.56550874 -172.14643601 309.57300354 -163.9375 314.55859375 C-155.50933536 319.6809321 -147.11036805 324.84992918 -138.71459961 330.02514648 C-130.50362615 335.08319443 -122.27722829 340.11536918 -114.02001953 345.09765625 C-109.69201805 347.71597127 -105.40282049 350.36729204 -101.1875 353.1640625 C-100.45289551 353.64568848 -99.71829102 354.12731445 -98.96142578 354.62353516 C-97.61597743 355.51115952 -96.28008128 356.41352075 -94.95654297 357.33349609 C-93.01025204 358.67042886 -93.01025204 358.67042886 -90 360 C-86.49637605 358.92780237 -83.50484621 357.21548114 -80.39453125 355.3046875 C-79.50725342 354.76215332 -78.61997559 354.21961914 -77.70581055 353.66064453 C-76.75101807 353.07138184 -75.79622559 352.48211914 -74.8125 351.875 C-73.80292236 351.25608887 -72.79334473 350.63717773 -71.75317383 349.99951172 C-68.49971011 348.00356151 -65.24971449 346.00204764 -62 344 C-59.87253195 342.69248683 -57.74492853 341.3851939 -55.6171875 340.078125 C-49.07503483 336.05709458 -42.53717996 332.02910826 -36 328 C-22.58108744 319.72942281 -9.15466991 311.47276506 4.31713867 303.28857422 C11.5606859 298.88476659 18.7832663 294.44759015 26 290 C61.08514341 268.37864581 61.08514341 268.37864581 64.59869385 266.92443848 C67.3784137 265.12737166 67.3784137 265.12737166 67.65049744 261.44038391 C67.68839281 259.90639443 67.69826797 258.37157618 67.68725586 256.8371582 C67.70766906 255.55415738 67.70766906 255.55415738 67.72849464 254.24523735 C67.76860785 251.32600178 67.77268588 248.40777451 67.77734375 245.48828125 C67.79877583 243.36361018 67.82235956 241.23895994 67.84788513 239.11433411 C67.89960939 234.3666042 67.93442284 229.61910852 67.95770264 224.87115479 C67.99510824 217.27174082 68.06321442 209.67285032 68.13568044 202.07371306 C68.30087719 184.59135943 68.41357708 167.10879463 68.5174135 149.62598622 C68.55672766 143.0420998 68.59991071 136.45824354 68.64418942 129.87438887 C68.69360421 122.51900134 68.74070465 115.16360061 68.78675652 107.8081913 C68.80569656 104.783965 68.82522905 101.75974366 68.84536934 98.73552513 C69.04503567 68.15629023 69 37.58108064 69 7 C-31.98 7 -132.96 7 -237 7 Z " fill="#030100" transform="translate(347,93)"/>
<path d="M0 0 C0.33 0 0.66 0 1 0 C1 15.51 1 31.02 1 47 C13.21 47 25.42 47 38 47 C38 45.35 38 43.7 38 42 C38.99 42 39.98 42 41 42 C41 43.32 41 44.64 41 46 C44.3 46 47.6 46 51 46 C50.67 47.32 50.34 48.64 50 50 C47.03 50 44.06 50 41 50 C41 51.98 41 53.96 41 56 C39.515 55.505 39.515 55.505 38 55 C38 53.35 38 51.7 38 50 C36.02 50 34.04 50 32 50 C32 51.98 32 53.96 32 56 C31.34 55.34 30.68 54.68 30 54 C30 52.68 30 51.36 30 50 C27.36 50 24.72 50 22 50 C22 52.31 22 54.62 22 57 C20 54 20 54 20 50 C14.06 50 8.12 50 2 50 C2 55.94 2 61.88 2 68 C3.65 68 5.3 68 7 68 C7 68.66 7 69.32 7 70 C5.35 70 3.7 70 2 70 C2 72.31 2 74.62 2 77 C4.31 77 6.62 77 9 77 C9.33 77.66 9.66 78.32 10 79 C7.36 79 4.72 79 2 79 C2.01047363 79.59014893 2.02094727 80.18029785 2.03173828 80.78833008 C2.07332044 83.46301004 2.0993329 86.13762197 2.125 88.8125 C2.14175781 89.74126953 2.15851563 90.67003906 2.17578125 91.62695312 C2.18222656 92.51962891 2.18867188 93.41230469 2.1953125 94.33203125 C2.20578613 95.15421143 2.21625977 95.9763916 2.22705078 96.82348633 C2 99 2 99 0 102 C-0.66 102 -1.32 102 -2 102 C-1.505 108.435 -1.505 108.435 -1 115 C-5.29 115.33 -9.58 115.66 -14 116 C-14.33 115.01 -14.66 114.02 -15 113 C-17.31 112.67 -19.62 112.34 -22 112 C-22 111.34 -22 110.68 -22 110 C-22.58007812 109.89042969 -23.16015625 109.78085937 -23.7578125 109.66796875 C-28.59746277 108.6856635 -32.65366116 107.45178089 -37 105 C-37 104.34 -37 103.68 -37 103 C-37.66 102.814375 -38.32 102.62875 -39 102.4375 C-49.83582927 97.24533181 -57.37842314 86.21822535 -63 76 C-63.69996094 74.75863281 -63.69996094 74.75863281 -64.4140625 73.4921875 C-68.74391892 65.41485302 -70.12262252 58.12980414 -70 49 C-68.41058594 48.90912109 -68.41058594 48.90912109 -66.7890625 48.81640625 C-65.40102779 48.73199873 -64.01300768 48.64735083 -62.625 48.5625 C-61.92632812 48.52318359 -61.22765625 48.48386719 -60.5078125 48.44335938 C-56.62639508 48.25719866 -56.62639508 48.25719866 -53 47 C-51.30456409 46.90948931 -49.60556022 46.88245128 -47.90771484 46.88647461 C-46.31629166 46.88658791 -46.31629166 46.88658791 -44.69271851 46.88670349 C-42.96923691 46.89444542 -42.96923691 46.89444542 -41.2109375 46.90234375 C-40.03737701 46.9037587 -38.86381653 46.90517365 -37.6546936 46.90663147 C-33.89477015 46.91224311 -30.13490555 46.92479762 -26.375 46.9375 C-23.83073002 46.9425135 -21.28645912 46.94707667 -18.7421875 46.95117188 C-12.49475057 46.96136678 -6.24744142 46.98094001 0 47 C0 31.49 0 15.98 0 0 Z " fill="#130D09" transform="translate(259,254)"/>
<path d="M0 0 C1.98 0 3.96 0 6 0 C6.14695313 0.8971875 6.29390625 1.794375 6.4453125 2.71875 C8.9259618 16.51914381 13.18648569 28.83740368 20.6796875 40.7421875 C22 43 22 43 22 45 C22.66 45 23.32 45 24 45 C25.12109375 46.3984375 25.12109375 46.3984375 26.4375 48.375 C37.12941525 62.95722658 51.63608313 70.64047904 68.67578125 75.08984375 C72 76 72 76 73 77 C74.99603206 77.20888708 76.99742941 77.36775477 79 77.5 C84.88888889 77.88888889 84.88888889 77.88888889 86 79 C86.14115161 81.67058851 86.04247107 84.32432238 86 87 C81.30153696 86.73200514 76.60502946 86.44586146 71.90966797 86.12792969 C70.4311118 86.02888041 68.95197711 85.93844688 67.47265625 85.8515625 C62.08425561 85.38875508 57.77515519 83.35976887 53 81 C52.19433594 80.62746094 51.38867188 80.25492187 50.55859375 79.87109375 C29.68745287 69.97444948 13.05190687 52.54775121 4.3125 31.125 C0.76025751 20.72200412 -0.44425969 10.97485969 0 0 Z " fill="#2F2D2C" transform="translate(171,304)"/>
<path d="M0 0 C2.64 0 5.28 0 8 0 C8.21824299 6.59358355 7.5765425 12.30734294 5.9375 18.6875 C5.60468018 19.99243408 5.60468018 19.99243408 5.26513672 21.32373047 C-0.77493042 43.72110862 -16.15810293 63.13029372 -36 75 C-49.03081111 82.32983125 -62.75993469 88.91523977 -78 86 C-78 83.69 -78 81.38 -78 79 C-77.18547363 78.86537354 -77.18547363 78.86537354 -76.35449219 78.72802734 C-66.48426288 77.05096553 -57.38169659 75.47034737 -48.60546875 70.46484375 C-46 69 -46 69 -42.57421875 67.6015625 C-24.28565324 59.40668615 -11.86399589 41.3860687 -4.87744141 23.24658203 C-2.01393345 15.52256654 -0.63877098 8.20316415 0 0 Z " fill="#302E2D" transform="translate(342,304)"/>
<path d="M0 0 C4.29 0 8.58 0 13 0 C13.04241723 2.33294775 13.04092937 4.66702567 13 7 C11.14674306 8.85325694 7.79967062 8.36382813 5.3125 8.5625 C-2.07563912 9.32673103 -8.78105858 11.34926993 -15.75 13.875 C-16.70221436 14.21474854 -17.65442871 14.55449707 -18.63549805 14.90454102 C-23.29740216 16.65907497 -26.74596146 18.08721707 -30 22 C-31.27092873 23.00593752 -32.56267645 23.98619719 -33.875 24.9375 C-36.46163463 26.83404368 -38.94957266 28.77652978 -41.375 30.875 C-44 33 -44 33 -46 33 C-46.433125 33.928125 -46.433125 33.928125 -46.875 34.875 C-48 37 -48 37 -50 39 C-50.268125 39.680625 -50.53625 40.36125 -50.8125 41.0625 C-52.8125559 46.0100067 -55.20239009 51.20239009 -59 55 C-60.0826892 57.74202807 -61.07170326 60.45594706 -62 63.25 C-62.2676416 64.05034668 -62.5352832 64.85069336 -62.81103516 65.67529297 C-65.07863361 72.72459688 -66.31152043 79.61665008 -67 87 C-69.31 87 -71.62 87 -74 87 C-74.44902389 77.05910988 -74.17240912 69.21747897 -70 60 C-69.62617188 59.02546875 -69.25234375 58.0509375 -68.8671875 57.046875 C-63.9094506 44.24212407 -56.45779598 34.73678701 -47 25 C-46.16210938 24.13117188 -45.32421875 23.26234375 -44.4609375 22.3671875 C-32.17254472 10.54692397 -16.71032518 3.99057165 0 2 C0 1.34 0 0.68 0 0 Z " fill="#534E4C" transform="translate(244,211)"/>
<path d="M0 0 C2.10388569 -0.05402274 4.20816714 -0.09280256 6.3125 -0.125 C8.07013672 -0.15980469 8.07013672 -0.15980469 9.86328125 -0.1953125 C13 0 13 0 16 2 C17.98966754 2.4635021 19.99204935 2.87350925 22 3.25 C28.81330764 4.76071123 34.096865 7.35470642 40 11 C40.89332031 11.51433594 41.78664063 12.02867187 42.70703125 12.55859375 C49.30206168 16.49296813 54.75062915 21.17326104 60.2734375 26.44921875 C62.89083159 28.99250542 62.89083159 28.99250542 65.56640625 30.9140625 C68.54522527 33.46733594 70.51600252 36.38612505 72.5625 39.6875 C72.95598633 40.31398437 73.34947266 40.94046875 73.75488281 41.5859375 C76.62968706 46.23741393 79.08775602 50.86757028 81 56 C81.43183594 57.14984375 81.86367188 58.2996875 82.30859375 59.484375 C85.04657375 66.92210345 87.15022525 73.32950187 87.0625 81.3125 C87.05347656 82.38113281 87.04445313 83.44976562 87.03515625 84.55078125 C87.02355469 85.35902344 87.01195312 86.16726563 87 87 C84.36 87 81.72 87 79 87 C78.97421875 86.20078125 78.9484375 85.4015625 78.921875 84.578125 C78.31731465 72.87163822 74.68177738 63.2608123 70.05078125 52.59375 C69.15828795 50.39071822 68.49752944 48.31815916 68 46 C67.34 46 66.68 46 66 46 C64.87503075 44.52477647 63.82495715 42.99209667 62.8125 41.4375 C50.56672769 23.57071745 31.80531305 13.41668766 11 9 C7.64590877 8.50237198 4.38613301 8.21499257 1 8 C0 7 0 7 -0.0625 3.4375 C-0.041875 2.303125 -0.02125 1.16875 0 0 Z " fill="#2F2D2B" transform="translate(263,211)"/>
<path d="M0 0 C1.97419922 -0.05607422 1.97419922 -0.05607422 3.98828125 -0.11328125 C8.18972832 0.37030664 9.75126487 1.34321157 12.6875 4.3125 C14.49976714 7.93703429 13.87220181 12.19728632 13.875 16.1875 C13.88724609 17.09886719 13.89949219 18.01023438 13.91210938 18.94921875 C13.91500977 20.26986328 13.91500977 20.26986328 13.91796875 21.6171875 C13.92207764 22.42140137 13.92618652 23.22561523 13.93041992 24.05419922 C13.65615387 26.60390875 13.12124072 28.18691497 11.6875 30.3125 C6.83467169 31.44120509 1.90906558 31.5301609 -3.0625 31.625 C-5.00382813 31.68107422 -5.00382813 31.68107422 -6.984375 31.73828125 C-10.3125 31.3125 -10.3125 31.3125 -11.9934082 29.60229492 C-14.37757628 25.46364744 -13.78315372 20.97813295 -13.75 16.3125 C-13.76998047 15.31476563 -13.78996094 14.31703125 -13.81054688 13.2890625 C-13.80565675 5.99299556 -13.80565675 5.99299556 -11.41015625 2.6875 C-7.58025074 0.1770219 -4.48148296 0.06408222 0 0 Z " fill="#120802" transform="translate(195.3125,141.6875)"/>
<path d="M0 0 C4.95 0 9.9 0 15 0 C15 17.16 15 34.32 15 52 C10.05 52 5.1 52 0 52 C0 34.84 0 17.68 0 0 Z " fill="#130902" transform="translate(369,114)"/>
<path d="M0 0 C1.04800781 -0.02320313 1.04800781 -0.02320313 2.1171875 -0.046875 C5.42405597 -0.0219175 7.94059619 0.4735896 10.9609375 1.81640625 C14.26315498 6.1624281 13.72349926 10.63495641 13.625 15.9375 C13.65400391 17.49307617 13.65400391 17.49307617 13.68359375 19.08007812 C13.65379384 23.71992476 13.49415815 26.67807366 11.07421875 30.703125 C6.71506821 33.25104018 3.13604236 33.05236223 -1.8125 32.8125 C-2.69615234 32.78994141 -3.57980469 32.76738281 -4.49023438 32.74414062 C-6.6608891 32.68547428 -8.8306669 32.59579979 -11 32.5 C-11 29.86 -11 27.22 -11 24.5 C-5.72 24.5 -0.44 24.5 5 24.5 C5 23.51 5 22.52 5 21.5 C4.03578125 21.54640625 3.0715625 21.5928125 2.078125 21.640625 C0.81484375 21.67671875 -0.4484375 21.7128125 -1.75 21.75 C-3.62945312 21.81960937 -3.62945312 21.81960937 -5.546875 21.890625 C-9 21.5 -9 21.5 -11.41796875 19.890625 C-13.47618139 16.78043701 -13.56675663 14.71178292 -13.5625 11 C-13.58441406 9.8759375 -13.60632813 8.751875 -13.62890625 7.59375 C-13 4.5 -13 4.5 -10.96484375 2.125 C-7.2569177 0.09272432 -4.12220955 -0.09126663 0 0 Z " fill="#0F0702" transform="translate(130,141.5)"/>
<path d="M0 0 C0.99 0 1.98 0 3 0 C3.87348132 9.78299074 0.72412407 20.41269035 -4 29 C-4.66 29 -5.32 29 -6 29 C-6.38478516 30.08861328 -6.38478516 30.08861328 -6.77734375 31.19921875 C-11.06598255 41.023353 -20.66528278 49.93788967 -30 55 C-30.66 55 -31.32 55 -32 55 C-32.33 55.99 -32.66 56.98 -33 58 C-35.06640625 58.73046875 -35.06640625 58.73046875 -37.5625 59.1875 C-38.38878906 59.34605469 -39.21507812 59.50460937 -40.06640625 59.66796875 C-40.70449219 59.77753906 -41.34257812 59.88710938 -42 60 C-42 60.66 -42 61.32 -42 62 C-49.94819063 65.20716464 -57.51739156 65.67589507 -66 66 C-66 64.68 -66 63.36 -66 62 C-65.05640625 61.90203125 -64.1128125 61.8040625 -63.140625 61.703125 C-44.47395085 59.52909468 -27.52220296 52.80878156 -15.29296875 37.80078125 C-6.53961846 26.40035299 -1.39003777 14.4276334 0 0 Z " fill="#CA5D12" transform="translate(328,303)"/>
<path d="M0 0 C0 10.89 0 21.78 0 33 C-2.97 33 -5.94 33 -9 33 C-9 25.74 -9 18.48 -9 11 C-10.65 11.33 -12.3 11.66 -14 12 C-14 9.36 -14 6.72 -14 4 C-12.0429132 3.32968281 -10.08428887 2.66385317 -8.125 2 C-7.03445312 1.62875 -5.94390625 1.2575 -4.8203125 0.875 C-2 0 -2 0 0 0 Z " fill="#030201" transform="translate(179,141)"/>
<path d="M0 0 C2.64 0 5.28 0 8 0 C9.00583932 4.01800708 10.00242127 8.03818905 10.99072266 12.06054688 C11.32774349 13.42672527 11.6672256 14.79229907 12.00927734 16.15722656 C12.50236201 18.12669008 12.98636184 20.09820539 13.46875 22.0703125 C13.76201172 23.25383301 14.05527344 24.43735352 14.35742188 25.65673828 C14.97437042 28.86665218 15.12148001 31.7417327 15 35 C12.03 35 9.06 35 6 35 C6 32.03 6 29.06 6 26 C5.34 26 4.68 26 4 26 C3.52018352 22.9792686 3.04112768 19.95841979 2.5625 16.9375 C2.42779297 16.08994141 2.29308594 15.24238281 2.15429688 14.36914062 C1.39685603 9.58433139 0.67051707 4.79777748 0 0 Z " fill="#110802" transform="translate(147,141)"/>
<path d="M0 0 C0.66 0 1.32 0 2 0 C3.47344297 19.68683523 -5.84668393 37.85938008 -18.1953125 52.625 C-30.54259264 66.68834281 -45.66824367 76.26234972 -63.5 81.9375 C-64.15814697 82.14898682 -64.81629395 82.36047363 -65.49438477 82.57836914 C-69.42976587 83.75983779 -72.8997442 84.20880932 -77 84 C-77 83.01 -77 82.02 -77 81 C-75.87464844 80.83564453 -75.87464844 80.83564453 -74.7265625 80.66796875 C-61.30398716 78.58865292 -47.55003071 75.16963047 -37.59765625 65.296875 C-36 64 -36 64 -33.60546875 63.09765625 C-21.65631029 58.06360299 -12.65233047 41.49161716 -7.28125 30.2421875 C-3.70571944 21.19435102 -1.83375021 11.67150243 -1 2 C-0.67 1.34 -0.34 0.68 0 0 Z " fill="#9E5523" transform="translate(347,307)"/>
<path d="M0 0 C0.66 0 1.32 0 2 0 C2.33 3.3 2.66 6.6 3 10 C3.66 10 4.32 10 5 10 C5.81391255 12.58289592 6.62617929 15.16628997 7.4375 17.75 C7.66759766 18.47960937 7.89769531 19.20921875 8.13476562 19.9609375 C8.35712891 20.66992188 8.57949219 21.37890625 8.80859375 22.109375 C9.01282959 22.75874023 9.21706543 23.40810547 9.42749023 24.07714844 C10.01169727 26.03928688 10.51810648 28.01049584 11 30 C11.66 30 12.32 30 13 30 C14.19140625 31.65234375 14.19140625 31.65234375 15.5625 33.9375 C21.21417536 42.66940719 28.9410006 50.6470002 39 54 C39 54.66 39 55.32 39 56 C48.66138849 59.025487 57.89259908 61.19816026 68 62 C68 62.99 68 63.98 68 65 C60.96517526 65.23668569 54.8165735 64.7879537 48 63 C48 62.34 48 61.68 48 61 C47.41992188 60.89042969 46.83984375 60.78085937 46.2421875 60.66796875 C41.40253723 59.6856635 37.34633884 58.45178089 33 56 C33 55.34 33 54.68 33 54 C32.34 53.814375 31.68 53.62875 31 53.4375 C20.16417073 48.24533181 12.62157686 37.21822535 7 27 C6.53335938 26.17242187 6.06671875 25.34484375 5.5859375 24.4921875 C1.35180768 16.5934307 -0.38871942 8.94054675 0 0 Z " fill="#CD5E12" transform="translate(189,303)"/>
<path d="M0 0 C0.33 0 0.66 0 1 0 C1 15.51 1 31.02 1 47 C15.52 47 30.04 47 45 47 C45 47.33 45 47.66 45 48 C40.31365979 49.19536833 35.77989846 49.12772816 30.98046875 49.09765625 C30.21883423 49.09664917 29.45719971 49.09564209 28.67248535 49.09460449 C25.84414145 49.08939679 23.01581911 49.07543561 20.1875 49.0625 C10.6896875 49.0315625 10.6896875 49.0315625 1 49 C1 61.87 1 74.74 1 88 C0.67 88 0.34 88 0 88 C0 75.13 0 62.26 0 49 C-15.84 49 -31.68 49 -48 49 C-48.33 48.34 -48.66 47.68 -49 47 C-32.83 47 -16.66 47 0 47 C0 31.49 0 15.98 0 0 Z " fill="#C1B9B4" transform="translate(259,254)"/>
<path d="M0 0 C0 0.66 0 1.32 0 2 C-0.81452637 2.13462646 -0.81452637 2.13462646 -1.64550781 2.27197266 C-11.76768857 3.99184383 -20.8915612 5.68298969 -29.8828125 10.828125 C-32 12 -32 12 -34 12 C-34 12.66 -34 13.32 -34 14 C-35.6875 15.2265625 -35.6875 15.2265625 -38 16.625 C-50.88920695 24.94716512 -58.49241774 37.42232426 -62.421875 52.06640625 C-63 54 -63 54 -64 55 C-64.23527773 57.34987262 -64.41386417 59.70556039 -64.5625 62.0625 C-64.64628906 63.35285156 -64.73007813 64.64320313 -64.81640625 65.97265625 C-64.87699219 66.97167969 -64.93757812 67.97070312 -65 69 C-66.485 69.495 -66.485 69.495 -68 70 C-67.42794735 49.32029658 -60.53002516 32.87540444 -45.51367188 18.37255859 C-33.45896844 7.44166461 -16.54468195 -0.93649143 0 0 Z " fill="#9A470F" transform="translate(257,229)"/>
<path d="M0 0 C0.99 0 1.98 0 3 0 C3 1.32 3 2.64 3 4 C6.3 4 9.6 4 13 4 C12.67 5.32 12.34 6.64 12 8 C9.03 8 6.06 8 3 8 C3 9.98 3 11.96 3 14 C2.01 13.67 1.02 13.34 0 13 C0 11.35 0 9.7 0 8 C-1.98 8 -3.96 8 -6 8 C-6 9.98 -6 11.96 -6 14 C-6.66 13.34 -7.32 12.68 -8 12 C-8 10.68 -8 9.36 -8 8 C-10.64 8 -13.28 8 -16 8 C-16 10.31 -16 12.62 -16 15 C-18 12 -18 12 -18 8 C-23.94 8 -29.88 8 -36 8 C-36 13.94 -36 19.88 -36 26 C-34.35 26 -32.7 26 -31 26 C-31 26.66 -31 27.32 -31 28 C-32.65 28 -34.3 28 -36 28 C-36 30.31 -36 32.62 -36 35 C-33.69 35 -31.38 35 -29 35 C-28.67 35.66 -28.34 36.32 -28 37 C-30.64 37 -33.28 37 -36 37 C-36 43.27 -36 49.54 -36 56 C-36.66 56 -37.32 56 -38 56 C-37.67 39.83 -37.34 23.66 -37 7 C-24.13 6.67 -11.26 6.34 2 6 C1.34 5.67 0.68 5.34 0 5 C0 3.35 0 1.7 0 0 Z " fill="#4F3C2F" transform="translate(297,296)"/>
<path d="M0 0 C4.60577095 -0.161606 8.48173182 -0.1416736 12.90625 1.31640625 C14.55685648 1.85531695 16.228861 2.32868728 17.90625 2.77734375 C33.70659468 7.1600584 47.36479664 16.60060641 57 30 C58.4375 33.5 58.4375 33.5 59 36 C59.66 36 60.32 36 61 36 C66.21538051 46.98558874 69.78597549 56.68638394 69 69 C68.01 69 67.02 69 66 69 C65.91363281 67.83984375 65.82726562 66.6796875 65.73828125 65.484375 C64.9165189 55.86273537 63.57551465 47.65672163 59 39 C58.31744141 37.69482422 58.31744141 37.69482422 57.62109375 36.36328125 C49.43217753 21.79281179 37.60932426 12.66621195 22 7 C22 6.34 22 5.68 22 5 C20.453125 4.814375 20.453125 4.814375 18.875 4.625 C12.57108024 3.83985476 6.28693067 2.90948576 0 2 C0 1.34 0 0.68 0 0 Z " fill="#6C330C" transform="translate(262,229)"/>
<path d="M0 0 C0.33 0 0.66 0 1 0 C1 15.51 1 31.02 1 47 C-12.86 47 -26.72 47 -41 47 C-41 45.68 -41 44.36 -41 43 C-40.01 43 -39.02 43 -38 43 C-38 43.99 -38 44.98 -38 46 C-35.36 46 -32.72 46 -30 46 C-30 44.35 -30 42.7 -30 41 C-29.01 41 -28.02 41 -27 41 C-27 42.65 -27 44.3 -27 46 C-25.35 46 -23.7 46 -22 46 C-22 44.35 -22 42.7 -22 41 C-21.01 41 -20.02 41 -19 41 C-19 42.65 -19 44.3 -19 46 C-17.02 46 -15.04 46 -13 46 C-13 44.02 -13 42.04 -13 40 C-12.01 40 -11.02 40 -10 40 C-10 41.98 -10 43.96 -10 46 C-7.03 46 -4.06 46 -1 46 C-1 42.7 -1 39.4 -1 36 C-2.98 36 -4.96 36 -7 36 C-7 35.34 -7 34.68 -7 34 C-5.02 34 -3.04 34 -1 34 C-1 32.02 -1 30.04 -1 28 C-2.98 28 -4.96 28 -7 28 C-7 27.34 -7 26.68 -7 26 C-4.69 25.67 -2.38 25.34 0 25 C0 16.75 0 8.5 0 0 Z " fill="#3E2E23" transform="translate(258,254)"/>
<path d="M0 0 C3.23153677 2.92081208 4.96004996 5.60881625 6.75 9.5625 C12.71362681 21.84846802 21.39098501 33.40562343 33.56640625 40.02734375 C34.03949219 40.34832031 34.51257813 40.66929687 35 41 C35 41.66 35 42.32 35 43 C35.804375 43.2475 36.60875 43.495 37.4375 43.75 C42.89585834 45.66521345 48.17738506 47.78492337 53 51 C55.27538323 51.66613335 55.27538323 51.66613335 57.6875 52.125 C58.49574219 52.29257812 59.30398437 52.46015625 60.13671875 52.6328125 C61.05904297 52.81457031 61.05904297 52.81457031 62 53 C62 53.66 62 54.32 62 55 C43.55998105 53.915293 28.24986831 41.96404047 16 29 C8.79274728 20.80970304 1.41487032 11.02955729 0 0 Z " fill="#954C1A" transform="translate(176,333)"/>
<path d="M0 0 C4.29 0 8.58 0 13 0 C13.04241723 2.33294775 13.04092937 4.66702567 13 7 C11.14674306 8.85325694 7.79967062 8.36382813 5.3125 8.5625 C-2.07563912 9.32673103 -8.78105858 11.34926993 -15.75 13.875 C-16.70221436 14.21474854 -17.65442871 14.55449707 -18.63549805 14.90454102 C-23.29869187 16.65956036 -26.74410966 18.08819 -30 22 C-31.31202314 23.04808099 -32.6452563 24.07025608 -34 25.0625 C-34.99 25.79146484 -34.99 25.79146484 -36 26.53515625 C-36.66 27.01855469 -37.32 27.50195312 -38 28 C-39.33444455 28.99851667 -40.66809507 29.9980983 -42 31 C-39.96511141 26.39680542 -36.86753491 24.07871096 -33 21 C-32.40058594 20.50242188 -31.80117187 20.00484375 -31.18359375 19.4921875 C-17.97319464 8.95696316 -4.54802071 5.40427125 12 6 C12 4.68 12 3.36 12 2 C10.90300781 2.2165625 9.80601562 2.433125 8.67578125 2.65625 C7.22140116 2.93774292 5.76697143 3.21897941 4.3125 3.5 C3.2306543 3.71462891 3.2306543 3.71462891 2.12695312 3.93359375 C-1.63841359 4.65571887 -5.14473813 5.1824976 -9 5 C-8.67 4.34 -8.34 3.68 -8 3 C-5.35139573 2.40644386 -2.70802678 2.25790731 0 2 C0 1.34 0 0.68 0 0 Z " fill="#2A2929" transform="translate(244,211)"/>
<path d="M0 0 C0 3.39124746 -0.71969391 4.65853816 -2.375 7.5625 C-2.81585938 8.34753906 -3.25671875 9.13257813 -3.7109375 9.94140625 C-5 12 -5 12 -7 14 C-8.0826892 16.74202807 -9.07170326 19.45594706 -10 22.25 C-10.2676416 23.05034668 -10.5352832 23.85069336 -10.81103516 24.67529297 C-13.07863361 31.72459688 -14.31152043 38.61665008 -15 46 C-17.31 46 -19.62 46 -22 46 C-22.05382106 43.37472811 -22.09358313 40.75055287 -22.125 38.125 C-22.14175781 37.37863281 -22.15851563 36.63226563 -22.17578125 35.86328125 C-22.1933959 33.90805539 -22.10320189 31.95257979 -22 30 C-21.34 29.34 -20.68 28.68 -20 28 C-19.10683731 33.93609666 -19.02959578 39.06975197 -20 45 C-19.34 45 -18.68 45 -18 45 C-17.99742187 44.319375 -17.99484375 43.63875 -17.9921875 42.9375 C-17.35240397 26.90025951 -9.81814922 12.38233939 0 0 Z " fill="#303030" transform="translate(192,252)"/>
<path d="M0 0 C2.97 0 5.94 0 9 0 C9 5.28 9 10.56 9 16 C6.03 16 3.06 16 0 16 C0 10.72 0 5.44 0 0 Z " fill="#E46713" transform="translate(191,150)"/>
<path d="M0 0 C0.83963287 0.24114784 0.83963287 0.24114784 1.69622803 0.48716736 C4.14388898 1.0320305 6.35422285 1.15915674 8.86035156 1.20532227 C9.82104553 1.22526749 10.7817395 1.24521271 11.77154541 1.26576233 C12.80084167 1.28247482 13.83013794 1.29918732 14.890625 1.31640625 C15.95037537 1.33718735 17.01012573 1.35796844 18.10198975 1.37937927 C21.48459438 1.44472186 24.86727612 1.50368881 28.25 1.5625 C30.54427878 1.60569975 32.83854979 1.64931451 35.1328125 1.69335938 C40.75513048 1.80116793 46.37750766 1.90035553 52 2 C52 14.87 52 27.74 52 41 C51.67 41 51.34 41 51 41 C51 28.46 51 15.92 51 3 C47.37 3 43.74 3 40 3 C40 4.65 40 6.3 40 8 C39.01 8 38.02 8 37 8 C37 6.35 37 4.7 37 3 C35.02 3 33.04 3 31 3 C31 4.65 31 6.3 31 8 C30.34 8 29.68 8 29 8 C29 6.35 29 4.7 29 3 C26.69 3 24.38 3 22 3 C21.67 4.32 21.34 5.64 21 7 C21 5.68 21 4.36 21 3 C18.03 3 15.06 3 12 3 C12 4.98 12 6.96 12 9 C11.34 9 10.68 9 10 9 C10 7.02 10 5.04 10 3 C7.03 3 4.06 3 1 3 C0.67 2.01 0.34 1.02 0 0 Z " fill="#4F3E33" transform="translate(207,301)"/>
<path d="M0 0 C14.06779905 1.75847488 26.24647002 13.53632232 36 23 C36.77472656 23.70769531 37.54945313 24.41539062 38.34765625 25.14453125 C40 27 40 27 40 30 C35.42988158 28.1380999 32.57965704 24.71670491 29.2890625 21.140625 C20.96535308 12.37524937 10.81747389 7.15387499 0 2 C0 1.34 0 0.68 0 0 Z " fill="#BB5C1C" transform="translate(290,217)"/>
<path d="M0 0 C5.57142857 5.14285714 5.57142857 5.14285714 6 9 C6.66 9 7.32 9 8 9 C13.21538051 19.98558874 16.78597549 29.68638394 16 42 C15.01 42 14.02 42 13 42 C12.91363281 40.83984375 12.82726562 39.6796875 12.73828125 38.484375 C11.60846849 25.25591403 8.37232812 15.22443016 1.13671875 3.9609375 C0 2 0 2 0 0 Z " fill="#A24A0F" transform="translate(315,256)"/>
<path d="M0 0 C-1.24445565 3.37529245 -2.65760149 6.1432666 -4.75 9.0625 C-10.42637088 17.44520907 -14.34668726 25.75189667 -16.359375 35.69921875 C-16.57078125 36.45847656 -16.7821875 37.21773438 -17 38 C-17.99 38.495 -17.99 38.495 -19 39 C-18.94369949 25.20637574 -12.47989634 11.51415361 -3.41796875 1.19921875 C-2 0 -2 0 0 0 Z " fill="#8D4D23" transform="translate(191,245)"/>
<path d="M0 0 C-3.84605858 2.34107914 -7.52392198 4.2530367 -11.75 5.8125 C-18.15880728 8.28573037 -24.82903705 11.78509761 -29.69140625 16.71484375 C-31 18 -31 18 -33 18 C-33 18.66 -33 19.32 -33 20 C-33.66 20 -34.32 20 -35 20 C-34.62894579 17.34464333 -34.19384141 16.18951459 -32.25 14.2890625 C-29.84395895 12.50959464 -27.43802632 10.73554416 -25 9 C-24.23558594 8.44570312 -23.47117188 7.89140625 -22.68359375 7.3203125 C-17.04735033 3.37984318 -6.92031138 -3.46015569 0 0 Z " fill="#904F23" transform="translate(234,217)"/>
<path d="M0 0 C0.33 0.66 0.66 1.32 1 2 C-4.06456087 15.86452183 -14.44696373 27.05320198 -25 37 C-25.66 36.67 -26.32 36.34 -27 36 C-26.34515625 35.34257812 -25.6903125 34.68515625 -25.015625 34.0078125 C-17.32527095 25.99159599 -11.25499444 17.33410949 -5.27783203 7.98925781 C-3.55228882 5.30302815 -1.77968519 2.65059497 0 0 Z " fill="#594D46" transform="translate(340,334)"/>
<path d="M0 0 C0 0.66 0 1.32 0 2 C-0.54301758 2.08975098 -1.08603516 2.17950195 -1.64550781 2.27197266 C-11.76768857 3.99184383 -20.8915612 5.68298969 -29.8828125 10.828125 C-32 12 -32 12 -34 12 C-34 12.66 -34 13.32 -34 14 C-35.98 14.99 -37.96 15.98 -40 17 C-40 16.01 -40 15.02 -40 14 C-29.30410438 5.2358726 -13.8815795 -0.78574978 0 0 Z " fill="#8D420E" transform="translate(257,229)"/>
<path d="M0 0 C0 10.89 0 21.78 0 33 C-2.97 33 -5.94 33 -9 33 C-9 32.67 -9 32.34 -9 32 C-6.69 32 -4.38 32 -2 32 C-2 22.1 -2 12.2 -2 2 C-3.65 2.66 -5.3 3.32 -7 4 C-9.3125 3.625 -9.3125 3.625 -11 3 C-9.54293274 2.49632243 -8.08429904 1.99717444 -6.625 1.5 C-5.81289062 1.2215625 -5.00078125 0.943125 -4.1640625 0.65625 C-2 0 -2 0 0 0 Z " fill="#4C2206" transform="translate(179,141)"/>
<path d="M0 0 C2.97 0.495 2.97 0.495 6 1 C6 1.66 6 2.32 6 3 C6.804375 3.2475 7.60875 3.495 8.4375 3.75 C13.89585834 5.66521345 19.17738506 7.78492337 24 11 C26.27538323 11.66613335 26.27538323 11.66613335 28.6875 12.125 C29.89986328 12.37636719 29.89986328 12.37636719 31.13671875 12.6328125 C31.75160156 12.75398438 32.36648437 12.87515625 33 13 C33 13.66 33 14.32 33 15 C20.54442686 14.26731923 9.73079983 8.5041123 0 1 C0 0.67 0 0.34 0 0 Z " fill="#874417" transform="translate(205,373)"/>
<path d="M0 0 C-3.52190267 3.04867544 -7.49253457 4.50284489 -11.8125 6.0625 C-12.84213867 6.44631836 -12.84213867 6.44631836 -13.89257812 6.83789062 C-20.2264145 9.16888623 -26.15836026 11.33373852 -33 11 C-33 10.01 -33 9.02 -33 8 C-32.24976563 7.89042969 -31.49953125 7.78085937 -30.7265625 7.66796875 C-22.2363584 6.35273562 -14.20764401 4.78841851 -6.5625 0.75 C-3 -1 -3 -1 0 0 Z " fill="#8E491B" transform="translate(303,380)"/>
<path d="M0 0 C0.66 0 1.32 0 2 0 C2.33 3.3 2.66 6.6 3 10 C3.66 10 4.32 10 5 10 C5.99 14.29 6.98 18.58 8 23 C7.01 23.33 6.02 23.66 5 24 C1.31147605 16.28763174 -0.37186741 8.55295048 0 0 Z " fill="#B35211" transform="translate(189,303)"/>
<path d="M0 0 C0.99 0 1.98 0 3 0 C3 1.32 3 2.64 3 4 C6.3 4 9.6 4 13 4 C12.67 5.32 12.34 6.64 12 8 C9.03 8 6.06 8 3 8 C3 9.98 3 11.96 3 14 C2.01 13.67 1.02 13.34 0 13 C0 11.35 0 9.7 0 8 C0.66 8 1.32 8 2 8 C2 7.34 2 6.68 2 6 C1.34 5.67 0.68 5.34 0 5 C0 3.35 0 1.7 0 0 Z " fill="#403026" transform="translate(297,296)"/>
<path d="M0 0 C0.66 0 1.32 0 2 0 C2.69602688 9.29969244 0.65982131 17.20121611 -2 26 C-4.27953695 22.58069457 -4.16385786 22.05120176 -3.57421875 18.18359375 C-3.43693359 17.25482422 -3.29964844 16.32605469 -3.15820312 15.36914062 C-3.00287109 14.40169922 -2.84753906 13.43425781 -2.6875 12.4375 C-2.54376953 11.46619141 -2.40003906 10.49488281 -2.25195312 9.49414062 C-1.16018357 2.32036713 -1.16018357 2.32036713 0 0 Z " fill="#884B22" transform="translate(347,307)"/>
<path d="M0 0 C7.2484945 -0.41640288 13.16914355 0.55833216 20 3 C20 3.33 20 3.66 20 4 C13.4 4 6.8 4 0 4 C0 2.68 0 1.36 0 0 Z " fill="#4B4B4C" transform="translate(264,212)"/>
<path d="M0 0 C6.27 0.66 12.54 1.32 19 2 C19 2.99 19 3.98 19 5 C11.96517526 5.23668569 5.8165735 4.7879537 -1 3 C-0.67 2.01 -0.34 1.02 0 0 Z " fill="#BC5611" transform="translate(238,363)"/>
<path d="M0 0 C0.99 0 1.98 0 3 0 C4.01085436 2.39175361 5.00879203 4.78761585 6 7.1875 C6.28617187 7.86103516 6.57234375 8.53457031 6.8671875 9.22851562 C8.39206299 12.94993794 9.37610432 15.96471408 9 20 C8.01 20 7.02 20 6 20 C4.80712589 16.12315913 4 13.08378077 4 9 C3.34 9 2.68 9 2 9 C1.34 6.03 0.68 3.06 0 0 Z " fill="#8E4D20" transform="translate(338,260)"/>
<path d="M0 0 C2.34260643 -0.2602896 4.6817571 -0.57420028 7 -1 C1.64700578 2.56866281 -3.5515073 3.33088406 -9.875 3.625 C-10.56335938 3.66367187 -11.25171875 3.70234375 -11.9609375 3.7421875 C-13.64023246 3.83548166 -15.32007767 3.91878238 -17 4 C-17 2.68 -17 1.36 -17 0 C-11.04172927 -0.7792507 -5.96929933 -0.90102631 0 0 Z " fill="#9D4910" transform="translate(279,365)"/>
<path d="M0 0 C4.29 0 8.58 0 13 0 C13 2.31 13 4.62 13 7 C10.69 7 8.38 7 6 7 C6 6.67 6 6.34 6 6 C7.98 6 9.96 6 12 6 C12 4.68 12 3.36 12 2 C10.90300781 2.2165625 9.80601562 2.433125 8.67578125 2.65625 C7.22140116 2.93774292 5.76697143 3.21897941 4.3125 3.5 C3.2306543 3.71462891 3.2306543 3.71462891 2.12695312 3.93359375 C-1.63841359 4.65571887 -5.14473813 5.1824976 -9 5 C-8.67 4.34 -8.34 3.68 -8 3 C-5.35139573 2.40644386 -2.70802678 2.25790731 0 2 C0 1.34 0 0.68 0 0 Z " fill="#313031" transform="translate(244,211)"/>
<path d="M0 0 C0.53915039 0.15847412 1.07830078 0.31694824 1.63378906 0.48022461 C4.40557189 1.08909023 7.02288851 1.21510316 9.859375 1.31640625 C10.97441406 1.35830078 12.08945313 1.40019531 13.23828125 1.44335938 C14.39714844 1.48267578 15.55601562 1.52199219 16.75 1.5625 C18.51150391 1.62727539 18.51150391 1.62727539 20.30859375 1.69335938 C23.20561451 1.79934794 26.10271935 1.90141638 29 2 C29 2.33 29 2.66 29 3 C26.69 3 24.38 3 22 3 C21.67 4.32 21.34 5.64 21 7 C21 5.68 21 4.36 21 3 C18.03 3 15.06 3 12 3 C12 4.98 12 6.96 12 9 C11.34 9 10.68 9 10 9 C10 7.02 10 5.04 10 3 C7.03 3 4.06 3 1 3 C0.67 2.01 0.34 1.02 0 0 Z " fill="#443023" transform="translate(207,301)"/>
<path d="M0 0 C2.97 0 5.94 0 9 0 C9.33 1.65 9.66 3.3 10 5 C6.7 5 3.4 5 0 5 C0 3.35 0 1.7 0 0 Z " fill="#A0480D" transform="translate(125,150)"/>
<path d="M0 0 C-12.43022938 7.669716 -12.43022938 7.669716 -18.26953125 6.57421875 C-18.84058594 6.38472656 -19.41164062 6.19523438 -20 6 C-5.2972973 -2.64864865 -5.2972973 -2.64864865 0 0 Z " fill="#935125" transform="translate(234,217)"/>
<path d="M0 0 C0.80824219 0.10183594 1.61648437 0.20367187 2.44921875 0.30859375 C3.06410156 0.39238281 3.67898437 0.47617188 4.3125 0.5625 C4.3125 1.2225 4.3125 1.8825 4.3125 2.5625 C2.20865302 3.37582743 0.10441143 4.18813417 -2 5 C-3.75763672 5.67869141 -3.75763672 5.67869141 -5.55078125 6.37109375 C-7.58132815 7.14234755 -9.62687926 7.87562642 -11.6875 8.5625 C-10.2236389 4.17091671 -7.70918662 3.68302567 -3.6875 1.5625 C-5.0075 1.2325 -6.3275 0.9025 -7.6875 0.5625 C-4.59271121 -0.46909626 -3.16118607 -0.41232862 0 0 Z " fill="#52463E" transform="translate(235.6875,215.4375)"/>
<path d="M0 0 C0.66 0 1.32 0 2 0 C3.2039337 3.75399798 3.09877617 7.33217412 3.0625 11.25 C3.05347656 12.51328125 3.04445312 13.7765625 3.03515625 15.078125 C3.02355469 16.04234375 3.01195312 17.0065625 3 18 C2.34 18 1.68 18 1 18 C-0.2039337 14.24600202 -0.09877617 10.66782588 -0.0625 6.75 C-0.05347656 5.48671875 -0.04445312 4.2234375 -0.03515625 2.921875 C-0.02355469 1.95765625 -0.01195312 0.9934375 0 0 Z " fill="#403F40" transform="translate(171,304)"/>
<path d="M0 0 C5.57142857 5.14285714 5.57142857 5.14285714 6 9 C6.66 9 7.32 9 8 9 C8.72750788 10.40691607 9.43140353 11.82606022 10.125 13.25 C10.51945312 14.03890625 10.91390625 14.8278125 11.3203125 15.640625 C12 18 12 18 11.1171875 20.296875 C10.56417969 21.13992188 10.56417969 21.13992188 10 22 C9.78085937 21.39414062 9.56171875 20.78828125 9.3359375 20.1640625 C7.14453658 14.37377551 4.50643672 9.24769308 1.171875 4.03125 C0 2 0 2 0 0 Z " fill="#90430E" transform="translate(315,256)"/>
<path d="M0 0 C0.33 0 0.66 0 1 0 C1.89316269 5.93609666 1.97040422 11.06975197 1 17 C2.65 17 4.3 17 6 17 C6 17.33 6 17.66 6 18 C3.69 18 1.38 18 -1 18 C-1.02690844 15.37493198 -1.04679404 12.75013827 -1.0625 10.125 C-1.07087891 9.37863281 -1.07925781 8.63226563 -1.08789062 7.86328125 C-1.11328125 2.2265625 -1.11328125 2.2265625 0 0 Z " fill="#2F2A27" transform="translate(171,280)"/>
<path d="M0 0 C0.66 0.33 1.32 0.66 2 1 C-0.05233685 3.2477975 -1.00667261 4.0022242 -4 5 C-4.556875 5.556875 -5.11375 6.11375 -5.6875 6.6875 C-8.8469673 9.8469673 -12.40194178 12.36470345 -16 15 C-17.33444455 15.99851667 -18.66809507 16.9980983 -20 18 C-18.68722424 15.03032279 -17.37752533 13.18521852 -14.875 11.125 C-13.95074219 10.36316406 -13.95074219 10.36316406 -13.0078125 9.5859375 C-8.77204418 6.24017498 -4.49193944 2.99462629 0 0 Z " fill="#2F302F" transform="translate(222,224)"/>
<path d="M0 0 C1.30062431 3.81516464 0.89369853 7.27561763 0.5625 11.25 C0.46066406 12.51328125 0.35882813 13.7765625 0.25390625 15.078125 C0.17011719 16.04234375 0.08632812 17.0065625 0 18 C-0.99 18.33 -1.98 18.66 -3 19 C-2.88573491 16.58239124 -2.75900339 14.16652782 -2.625 11.75 C-2.5940625 11.06808594 -2.563125 10.38617188 -2.53125 9.68359375 C-2.31740626 6.01260962 -1.98922945 3.13748384 0 0 Z " fill="#B45311" transform="translate(192,280)"/>
<path d="M0 0 C0 0.66 0 1.32 0 2 C-1.8708878 2.67812114 -3.74694293 3.3419946 -5.625 4 C-6.66914063 4.37125 -7.71328125 4.7425 -8.7890625 5.125 C-12.01774506 6.00483564 -14.67244294 6.15988262 -18 6 C-15.10928596 3.61114603 -12.59706105 2.34884838 -9 1.3125 C-7.7315625 0.93544922 -7.7315625 0.93544922 -6.4375 0.55078125 C-4 0 -4 0 0 0 Z " fill="#DF6613" transform="translate(291,360)"/>
<path d="M0 0 C0.33 0 0.66 0 1 0 C1 2.31 1 4.62 1 7 C-5.93 7 -12.86 7 -20 7 C-20 6.67 -20 6.34 -20 6 C-15.71 6 -11.42 6 -7 6 C-6.67 4.68 -6.34 3.36 -6 2 C-6 3.32 -6 4.64 -6 6 C-4.68 6 -3.36 6 -2 6 C-1.855625 5.195625 -1.71125 4.39125 -1.5625 3.5625 C-1 1 -1 1 0 0 Z " fill="#3B2414" transform="translate(281,294)"/>
<path d="M0 0 C0.66 0.33 1.32 0.66 2 1 C0.0894422 2.96463019 -1.82795314 4.92166401 -3.75 6.875 C-4.55824219 7.70837891 -4.55824219 7.70837891 -5.3828125 8.55859375 C-10.37208686 13.60871292 -10.37208686 13.60871292 -14 15 C-11.37198148 8.54940909 -5.2026757 4.3630508 0 0 Z " fill="#141414" transform="translate(207,237)"/>
<path d="M0 0 C0 3.63 0 7.26 0 11 C-2.31 11 -4.62 11 -7 11 C-7 10.34 -7 9.68 -7 9 C-5.02 9 -3.04 9 -1 9 C-1 7.02 -1 5.04 -1 3 C-2.98 3 -4.96 3 -7 3 C-7 2.34 -7 1.68 -7 1 C-4.50935112 0.31292445 -2.62113708 0 0 0 Z " fill="#40220E" transform="translate(258,279)"/>
<path d="M0 0 C4.85963179 0.60745397 8.7405518 2.72758967 13 5 C12.67 5.66 12.34 6.32 12 7 C7.24518354 6.42365861 4.02951788 4.44931479 0 2 C0 1.34 0 0.68 0 0 Z " fill="#B2591D" transform="translate(290,217)"/>
<path d="M0 0 C0.33 0 0.66 0 1 0 C1 6.6 1 13.2 1 20 C-0.98 20 -2.96 20 -5 20 C-5 19.34 -5 18.68 -5 18 C-3.35 17.67 -1.7 17.34 0 17 C0 11.39 0 5.78 0 0 Z " fill="#311E11" transform="translate(257,304)"/>
<path d="M0 0 C0.99 0 1.98 0 3 0 C3.05399736 1.45792884 3.09279177 2.91642712 3.125 4.375 C3.14820313 5.18710937 3.17140625 5.99921875 3.1953125 6.8359375 C3 9 3 9 1 11 C0.34 11 -0.32 11 -1 11 C-0.67 7.37 -0.34 3.74 0 0 Z " fill="#AB4F0F" transform="translate(328,303)"/>
<path d="M0 0 C-4.53701494 1.45184478 -8.18061476 2.23509196 -13 2 C-13 1.01 -13 0.02 -13 -1 C-11.58566794 -1.2236337 -10.16832382 -1.42826476 -8.75 -1.625 C-7.56664062 -1.79902344 -7.56664062 -1.79902344 -6.359375 -1.9765625 C-3.67847541 -2.00319395 -2.27305911 -1.36592084 0 0 Z " fill="#844418" transform="translate(283,389)"/>
<path d="M0 0 C2.0343459 1.41519715 2.90410393 2.54982123 3.421875 4.98046875 C3.66273952 6.98176954 3.83532741 8.9909944 4 11 C3.01 11.33 2.02 11.66 1 12 C-0.3271261 8.0186217 -0.06915913 4.14954773 0 0 Z " fill="#413A36" transform="translate(174,323)"/>
<path d="M0 0 C6.75 0.75 6.75 0.75 9 3 C2.4 3 -4.2 3 -11 3 C-11 2.67 -11 2.34 -11 2 C-5.555 1.505 -5.555 1.505 0 1 C0 0.67 0 0.34 0 0 Z " fill="#3F3F3F" transform="translate(275,213)"/>
<path d="M0 0 C0.99 0 1.98 0 3 0 C3.99 2.97 4.98 5.94 6 9 C5.01 9 4.02 9 3 9 C0.87491756 5.81237635 0.4979837 3.73487777 0 0 Z " fill="#734424" transform="translate(338,260)"/>
<path d="M0 0 C0.33 1.32 0.66 2.64 1 4 C0.01 4.66 -0.98 5.32 -2 6 C-3.05104383 7.63495707 -4.05988318 9.29883624 -5 11 C-6.32 10.67 -7.64 10.34 -9 10 C-8.43410156 9.44570312 -7.86820313 8.89140625 -7.28515625 8.3203125 C-6.55167969 7.59585938 -5.81820312 6.87140625 -5.0625 6.125 C-4.33160156 5.40570313 -3.60070312 4.68640625 -2.84765625 3.9453125 C-0.94332001 2.12972808 -0.94332001 2.12972808 0 0 Z " fill="#352F2C" transform="translate(198,234)"/>
<path d="M0 0 C0.99 0 1.98 0 3 0 C3 1.32 3 2.64 3 4 C6.3 4 9.6 4 13 4 C12.67 4.99 12.34 5.98 12 7 C12 6.34 12 5.68 12 5 C8.04 5 4.08 5 0 5 C0 3.35 0 1.7 0 0 Z " fill="#311F12" transform="translate(297,296)"/>
<path d="M0 0 C4.29 0.33 8.58 0.66 13 1 C13 1.33 13 1.66 13 2 C8.05 2.33 3.1 2.66 -2 3 C-1.34 2.01 -0.68 1.02 0 0 Z " fill="#262626" transform="translate(243,217)"/>
<path d="M0 0 C0.99 0.33 1.98 0.66 3 1 C-1.46133958 4.95436917 -3.91966327 7 -10 7 C-7.62671491 4.25198568 -5.3518635 3.28917827 -2 2 C-1.34 1.34 -0.68 0.68 0 0 Z " fill="#8D5027" transform="translate(318,367)"/>
<path d="M0 0 C0.66 0 1.32 0 2 0 C1.84518205 2.70931419 1.51827919 4.46584039 -0.40234375 6.4453125 C-1.89771708 7.67679642 -3.4462924 8.8429837 -5 10 C-3.66749209 6.4124787 -2.169283 3.1635377 0 0 Z " fill="#21130A" transform="translate(341,340)"/>
<path d="M0 0 C0.66 0 1.32 0 2 0 C3.17571451 3.67410785 3.07366746 7.16929183 3 11 C1 10 1 10 0 7 C-0.03954234 4.66700175 -0.04401732 2.33291811 0 0 Z " fill="#CB5D12" transform="translate(189,303)"/>
<path d="M0 0 C1.15957207 3.47871621 0.77456651 4.34219645 -0.4375 7.6875 C-0.72496094 8.49574219 -1.01242188 9.30398438 -1.30859375 10.13671875 C-1.65083984 11.05904297 -1.65083984 11.05904297 -2 12 C-2.33 12 -2.66 12 -3 12 C-2.88648483 10.18674449 -2.75887039 8.37436643 -2.625 6.5625 C-2.55539063 5.55316406 -2.48578125 4.54382813 -2.4140625 3.50390625 C-2.27742187 2.67761719 -2.14078125 1.85132813 -2 1 C-1.34 0.67 -0.68 0.34 0 0 Z " fill="#A5551E" transform="translate(175,272)"/>
<path d="M0 0 C0.33 0 0.66 0 1 0 C1 3.3 1 6.6 1 10 C-0.32 10.33 -1.64 10.66 -3 11 C-2.01 7.37 -1.02 3.74 0 0 Z " fill="#685448" transform="translate(177,269)"/>
<path d="M0 0 C0.33 0 0.66 0 1 0 C1.50423019 5.29441695 0.18923033 7.81413519 -3 12 C-4 10 -4 10 -3.22265625 7.6171875 C-2.83980469 6.71226562 -2.45695313 5.80734375 -2.0625 4.875 C-1.68222656 3.96492188 -1.30195313 3.05484375 -0.91015625 2.1171875 C-0.60980469 1.41851562 -0.30945313 0.71984375 0 0 Z " fill="#8B491C" transform="translate(178,261)"/>
<path d="M0 0 C2.64 0 5.28 0 8 0 C8 0.99 8 1.98 8 3 C5.36 3 2.72 3 0 3 C0 2.01 0 1.02 0 0 Z " fill="#F56F14" transform="translate(126,151)"/>
<path d="M0 0 C5.94 0.99 5.94 0.99 12 2 C12 2.66 12 3.32 12 4 C3.42857143 3.14285714 3.42857143 3.14285714 0 1 C0 0.67 0 0.34 0 0 Z " fill="#954C1A" transform="translate(226,384)"/>
<path d="M0 0 C0.33 0.99 0.66 1.98 1 3 C-5.435 3.495 -5.435 3.495 -12 4 C-12.33 3.01 -12.66 2.02 -13 1 C-8.71 1.33 -4.42 1.66 0 2 C0 1.34 0 0.68 0 0 Z " fill="#351B0A" transform="translate(257,366)"/>
<path d="M0 0 C-3.63 2.31 -7.26 4.62 -11 7 C-9 2 -9 2 -5.5 0.125 C-2 -1 -2 -1 0 0 Z " fill="#9F5524" transform="translate(218,224)"/>
<path d="M0 0 C-4.22949995 2.41685712 -7.12335991 3.34833144 -12 3 C-11 1 -11 1 -9.2578125 0.33203125 C-8.55398438 0.16058594 -7.85015625 -0.01085937 -7.125 -0.1875 C-6.42632812 -0.36667969 -5.72765625 -0.54585938 -5.0078125 -0.73046875 C-3 -1 -3 -1 0 0 Z " fill="#9A4D19" transform="translate(293,385)"/>
<path d="M0 0 C0.66 0 1.32 0 2 0 C1.43628586 3.26954202 0.50037734 4.82575883 -2 7 C-2.99 6.67 -3.98 6.34 -5 6 C-3.38405168 3.95880212 -1.7143618 1.95927063 0 0 Z " fill="#DA6413" transform="translate(311,343)"/>
<path d="M0 0 C0.33 0.66 0.66 1.32 1 2 C1.66 2 2.32 2 3 2 C2.34 3.98 1.68 5.96 1 8 C-0.32 7.34 -1.64 6.68 -3 6 C-2.01 4.02 -1.02 2.04 0 0 Z " fill="#AB4F10" transform="translate(323,324)"/>
<path d="M0 0 C0.66 0 1.32 0 2 0 C0.84414715 3.91211733 -0.35534962 6.8745041 -3 10 C-3.2295711 6.63295715 -3.33943529 4.58629732 -1.625 1.625 C-1.08875 1.08875 -0.5525 0.5525 0 0 Z " fill="#9B5322" transform="translate(182,255)"/>
<path d="M0 0 C0 0.66 0 1.32 0 2 C-8.57142857 3.42857143 -8.57142857 3.42857143 -12 1 C-8.0186217 -0.3271261 -4.14954773 -0.06915913 0 0 Z " fill="#6D340B" transform="translate(257,229)"/>
<path d="M0 0 C2.76276177 0.52268466 5.3260876 1.10869587 8 2 C8 2.66 8 3.32 8 4 C5.69 3.67 3.38 3.34 1 3 C0.67 2.01 0.34 1.02 0 0 Z " fill="#E16713" transform="translate(230,360)"/>
<path d="M0 0 C0.99 0.33 1.98 0.66 3 1 C4.1875 4.0625 4.1875 4.0625 5 7 C4.34 7.66 3.68 8.32 3 9 C0 3.375 0 3.375 0 0 Z " fill="#DF6613" transform="translate(195,325)"/>
<path d="M0 0 C4.28359673 1.8855148 6.15103592 4.35965701 9 8 C8.01 8 7.02 8 6 8 C4.39453125 6.25 4.39453125 6.25 2.8125 4 C2.28269531 3.2575 1.75289063 2.515 1.20703125 1.75 C0.80871094 1.1725 0.41039062 0.595 0 0 Z " fill="#79390D" transform="translate(307,248)"/>
<path d="M0 0 C0.53625 0.391875 1.0725 0.78375 1.625 1.1875 C-1.015 2.1775 -3.655 3.1675 -6.375 4.1875 C-7.035 3.5275 -7.695 2.8675 -8.375 2.1875 C-2.95961538 -1.0125 -2.95961538 -1.0125 0 0 Z " fill="#7A390D" transform="translate(234.375,234.8125)"/>
<path d="M0 0 C1.9375 0.75 1.9375 0.75 4 2 C4.75 4.125 4.75 4.125 5 6 C3.0625 5.25 3.0625 5.25 1 4 C0.25 1.875 0.25 1.875 0 0 Z " fill="#A7561E" transform="translate(325,241)"/>
<path d="M0 0 C0.66 0.33 1.32 0.66 2 1 C-1.32307692 4.93846154 -1.32307692 4.93846154 -4.75 5.25 C-5.4925 5.1675 -6.235 5.085 -7 5 C-4.63707344 2.47411298 -3.33537489 1.11179163 0 0 Z " fill="#79441F" transform="translate(221,219)"/>
<path d="M0 0 C0.33 0 0.66 0 1 0 C1.36630156 3.93774177 1.30233203 5.56539771 -1 8.875 C-1.66 9.57625 -2.32 10.2775 -3 11 C-2.44894091 7.0507432 -1.61064629 3.65079826 0 0 Z " fill="#383838" transform="translate(179,274)"/>
<path d="M0 0 C3 1 3 1 3 1 Z " fill="#000000" transform="translate(307,92)"/>
<path d="M0 0 C3 1 3 1 3 1 Z " fill="#000000" transform="translate(109,85)"/>
<path d="M0 0 C2 1 2 1 2 1 Z " fill="#000000" transform="translate(444,186)"/>
<path d="M0 0 C2 1 2 1 2 1 Z " fill="#000000" transform="translate(137,87)"/>
<path d="" fill="#000000" transform="translate(0,0)"/>
<path d="" fill="#000000" transform="translate(0,0)"/>
</svg>
